M48
; DRILL file {KiCad 9.0.0} date 2025-04-09T17:39:04-0700
; FORMAT={-:-/ absolute / metric / decimal}
; #@! TF.CreationDate,2025-04-09T17:39:04-07:00
; #@! TF.GenerationSoftware,Kicad,Pcbnew,9.0.0
; #@! TF.FileFunction,Plated,1,2,PTH
FMAT,2
METRIC
; #@! TA.AperFunction,Plated,PTH,ComponentDrill
T1C1.000
; #@! TA.AperFunction,Plated,PTH,ComponentDrill
T2C1.020
; #@! TA.AperFunction,Plated,PTH,ComponentDrill
T3C2.410
; #@! TA.AperFunction,Plated,PTH,ComponentDrill
T4C3.000
%
G90
G05
T1
X113.645Y-114.205
X116.185Y-88.805
X116.185Y-114.205
X118.725Y-88.805
X118.725Y-114.205
X121.265Y-88.805
X121.265Y-114.205
X123.805Y-88.805
X123.805Y-114.205
X126.345Y-114.205
X137.145Y-114.205
X139.685Y-88.805
X139.685Y-114.205
X140.305Y-78.835
X142.225Y-88.805
X142.225Y-114.205
X142.805Y-78.835
X144.765Y-88.805
X144.765Y-114.205
X147.305Y-88.805
X147.305Y-114.205
X149.845Y-114.205
X160.645Y-114.205
X163.185Y-88.805
X163.185Y-114.205
X165.725Y-88.805
X165.725Y-114.205
X168.265Y-88.805
X168.265Y-114.205
X170.805Y-88.805
X170.805Y-114.205
X173.345Y-114.205
X184.145Y-114.205
X186.685Y-88.805
X186.685Y-114.205
X189.225Y-88.805
X189.225Y-114.205
X191.765Y-88.805
X191.765Y-114.205
X194.305Y-88.805
X194.305Y-114.205
X196.845Y-114.205
T2
X118.555Y-123.775
X118.555Y-126.775
X121.555Y-123.775
X121.555Y-126.775
X142.055Y-123.775
X142.055Y-126.775
X145.055Y-123.775
X145.055Y-126.775
X154.0Y-79.6
X157.0Y-79.6
X160.0Y-79.6
X163.0Y-79.6
X165.555Y-123.775
X165.555Y-126.775
X166.0Y-79.6
X168.555Y-123.775
X168.555Y-126.775
X169.0Y-79.6
X189.055Y-123.775
X189.055Y-126.775
X192.055Y-123.775
X192.055Y-126.775
T3
X151.85Y-79.6
X171.15Y-79.6
T4
X117.8Y-83.4
X118.0Y-133.6
X193.0Y-83.4
X193.0Y-133.6
M30
