%TF.GenerationSoftware,KiCad,Pcbnew,9.0.0*%
%TF.CreationDate,2025-04-09T17:39:04-07:00*%
%TF.ProjectId,Load Cell Amp Board,4c6f6164-2043-4656-9c6c-20416d702042,rev?*%
%TF.SameCoordinates,Original*%
%TF.FileFunction,Drillmap*%
%TF.FilePolarity,Positive*%
%FSLAX45Y45*%
G04 Gerber Fmt 4.5, Leading zero omitted, Abs format (unit mm)*
G04 Created by KiCad (PCBNEW 9.0.0) date 2025-04-09 17:39:04*
%MOMM*%
%LPD*%
G01*
G04 APERTURE LIST*
%ADD10C,0.050000*%
%ADD11C,0.200000*%
%ADD12C,0.100000*%
%ADD13C,0.102000*%
%ADD14C,0.241000*%
%ADD15C,0.300000*%
G04 APERTURE END LIST*
D10*
X11180544Y-7579456D02*
X19880544Y-7579456D01*
X19880544Y-13679456D01*
X11180544Y-13679456D01*
X11180544Y-7579456D01*
D11*
D12*
X11314544Y-11370544D02*
X11414544Y-11470544D01*
X11414544Y-11370544D02*
X11314544Y-11470544D01*
X11568544Y-8830544D02*
X11668544Y-8930544D01*
X11668544Y-8830544D02*
X11568544Y-8930544D01*
X11568544Y-11370544D02*
X11668544Y-11470544D01*
X11668544Y-11370544D02*
X11568544Y-11470544D01*
X11822544Y-8830544D02*
X11922544Y-8930544D01*
X11922544Y-8830544D02*
X11822544Y-8930544D01*
X11822544Y-11370544D02*
X11922544Y-11470544D01*
X11922544Y-11370544D02*
X11822544Y-11470544D01*
X12076544Y-8830544D02*
X12176544Y-8930544D01*
X12176544Y-8830544D02*
X12076544Y-8930544D01*
X12076544Y-11370544D02*
X12176544Y-11470544D01*
X12176544Y-11370544D02*
X12076544Y-11470544D01*
X12330544Y-8830544D02*
X12430544Y-8930544D01*
X12430544Y-8830544D02*
X12330544Y-8930544D01*
X12330544Y-11370544D02*
X12430544Y-11470544D01*
X12430544Y-11370544D02*
X12330544Y-11470544D01*
X12584544Y-11370544D02*
X12684544Y-11470544D01*
X12684544Y-11370544D02*
X12584544Y-11470544D01*
X13664544Y-11370544D02*
X13764544Y-11470544D01*
X13764544Y-11370544D02*
X13664544Y-11470544D01*
X13918544Y-8830544D02*
X14018544Y-8930544D01*
X14018544Y-8830544D02*
X13918544Y-8930544D01*
X13918544Y-11370544D02*
X14018544Y-11470544D01*
X14018544Y-11370544D02*
X13918544Y-11470544D01*
X13980544Y-7833456D02*
X14080544Y-7933456D01*
X14080544Y-7833456D02*
X13980544Y-7933456D01*
X14172544Y-8830544D02*
X14272544Y-8930544D01*
X14272544Y-8830544D02*
X14172544Y-8930544D01*
X14172544Y-11370544D02*
X14272544Y-11470544D01*
X14272544Y-11370544D02*
X14172544Y-11470544D01*
X14230544Y-7833456D02*
X14330544Y-7933456D01*
X14330544Y-7833456D02*
X14230544Y-7933456D01*
X14426544Y-8830544D02*
X14526544Y-8930544D01*
X14526544Y-8830544D02*
X14426544Y-8930544D01*
X14426544Y-11370544D02*
X14526544Y-11470544D01*
X14526544Y-11370544D02*
X14426544Y-11470544D01*
X14680544Y-8830544D02*
X14780544Y-8930544D01*
X14780544Y-8830544D02*
X14680544Y-8930544D01*
X14680544Y-11370544D02*
X14780544Y-11470544D01*
X14780544Y-11370544D02*
X14680544Y-11470544D01*
X14934544Y-11370544D02*
X15034544Y-11470544D01*
X15034544Y-11370544D02*
X14934544Y-11470544D01*
X16014544Y-11370544D02*
X16114544Y-11470544D01*
X16114544Y-11370544D02*
X16014544Y-11470544D01*
X16268544Y-8830544D02*
X16368544Y-8930544D01*
X16368544Y-8830544D02*
X16268544Y-8930544D01*
X16268544Y-11370544D02*
X16368544Y-11470544D01*
X16368544Y-11370544D02*
X16268544Y-11470544D01*
X16522544Y-8830544D02*
X16622544Y-8930544D01*
X16622544Y-8830544D02*
X16522544Y-8930544D01*
X16522544Y-11370544D02*
X16622544Y-11470544D01*
X16622544Y-11370544D02*
X16522544Y-11470544D01*
X16776544Y-8830544D02*
X16876544Y-8930544D01*
X16876544Y-8830544D02*
X16776544Y-8930544D01*
X16776544Y-11370544D02*
X16876544Y-11470544D01*
X16876544Y-11370544D02*
X16776544Y-11470544D01*
X17030544Y-8830544D02*
X17130544Y-8930544D01*
X17130544Y-8830544D02*
X17030544Y-8930544D01*
X17030544Y-11370544D02*
X17130544Y-11470544D01*
X17130544Y-11370544D02*
X17030544Y-11470544D01*
X17284544Y-11370544D02*
X17384544Y-11470544D01*
X17384544Y-11370544D02*
X17284544Y-11470544D01*
X18364544Y-11370544D02*
X18464544Y-11470544D01*
X18464544Y-11370544D02*
X18364544Y-11470544D01*
X18618544Y-8830544D02*
X18718544Y-8930544D01*
X18718544Y-8830544D02*
X18618544Y-8930544D01*
X18618544Y-11370544D02*
X18718544Y-11470544D01*
X18718544Y-11370544D02*
X18618544Y-11470544D01*
X18872544Y-8830544D02*
X18972544Y-8930544D01*
X18972544Y-8830544D02*
X18872544Y-8930544D01*
X18872544Y-11370544D02*
X18972544Y-11470544D01*
X18972544Y-11370544D02*
X18872544Y-11470544D01*
X19126544Y-8830544D02*
X19226544Y-8930544D01*
X19226544Y-8830544D02*
X19126544Y-8930544D01*
X19126544Y-11370544D02*
X19226544Y-11470544D01*
X19226544Y-11370544D02*
X19126544Y-11470544D01*
X19380544Y-8830544D02*
X19480544Y-8930544D01*
X19480544Y-8830544D02*
X19380544Y-8930544D01*
X19380544Y-11370544D02*
X19480544Y-11470544D01*
X19480544Y-11370544D02*
X19380544Y-11470544D01*
X19634544Y-11370544D02*
X19734544Y-11470544D01*
X19734544Y-11370544D02*
X19634544Y-11470544D01*
D13*
X11906544Y-12377544D02*
G75*
G02*
X11804544Y-12377544I-51000J0D01*
G01*
X11804544Y-12377544D02*
G75*
G02*
X11906544Y-12377544I51000J0D01*
G01*
X11906544Y-12677544D02*
G75*
G02*
X11804544Y-12677544I-51000J0D01*
G01*
X11804544Y-12677544D02*
G75*
G02*
X11906544Y-12677544I51000J0D01*
G01*
X12206544Y-12377544D02*
G75*
G02*
X12104544Y-12377544I-51000J0D01*
G01*
X12104544Y-12377544D02*
G75*
G02*
X12206544Y-12377544I51000J0D01*
G01*
X12206544Y-12677544D02*
G75*
G02*
X12104544Y-12677544I-51000J0D01*
G01*
X12104544Y-12677544D02*
G75*
G02*
X12206544Y-12677544I51000J0D01*
G01*
X14256544Y-12377544D02*
G75*
G02*
X14154544Y-12377544I-51000J0D01*
G01*
X14154544Y-12377544D02*
G75*
G02*
X14256544Y-12377544I51000J0D01*
G01*
X14256544Y-12677544D02*
G75*
G02*
X14154544Y-12677544I-51000J0D01*
G01*
X14154544Y-12677544D02*
G75*
G02*
X14256544Y-12677544I51000J0D01*
G01*
X14556544Y-12377544D02*
G75*
G02*
X14454544Y-12377544I-51000J0D01*
G01*
X14454544Y-12377544D02*
G75*
G02*
X14556544Y-12377544I51000J0D01*
G01*
X14556544Y-12677544D02*
G75*
G02*
X14454544Y-12677544I-51000J0D01*
G01*
X14454544Y-12677544D02*
G75*
G02*
X14556544Y-12677544I51000J0D01*
G01*
X15451000Y-7960000D02*
G75*
G02*
X15349000Y-7960000I-51000J0D01*
G01*
X15349000Y-7960000D02*
G75*
G02*
X15451000Y-7960000I51000J0D01*
G01*
X15751000Y-7960000D02*
G75*
G02*
X15649000Y-7960000I-51000J0D01*
G01*
X15649000Y-7960000D02*
G75*
G02*
X15751000Y-7960000I51000J0D01*
G01*
X16051000Y-7960000D02*
G75*
G02*
X15949000Y-7960000I-51000J0D01*
G01*
X15949000Y-7960000D02*
G75*
G02*
X16051000Y-7960000I51000J0D01*
G01*
X16351000Y-7960000D02*
G75*
G02*
X16249000Y-7960000I-51000J0D01*
G01*
X16249000Y-7960000D02*
G75*
G02*
X16351000Y-7960000I51000J0D01*
G01*
X16606544Y-12377544D02*
G75*
G02*
X16504544Y-12377544I-51000J0D01*
G01*
X16504544Y-12377544D02*
G75*
G02*
X16606544Y-12377544I51000J0D01*
G01*
X16606544Y-12677544D02*
G75*
G02*
X16504544Y-12677544I-51000J0D01*
G01*
X16504544Y-12677544D02*
G75*
G02*
X16606544Y-12677544I51000J0D01*
G01*
X16651000Y-7960000D02*
G75*
G02*
X16549000Y-7960000I-51000J0D01*
G01*
X16549000Y-7960000D02*
G75*
G02*
X16651000Y-7960000I51000J0D01*
G01*
X16906544Y-12377544D02*
G75*
G02*
X16804544Y-12377544I-51000J0D01*
G01*
X16804544Y-12377544D02*
G75*
G02*
X16906544Y-12377544I51000J0D01*
G01*
X16906544Y-12677544D02*
G75*
G02*
X16804544Y-12677544I-51000J0D01*
G01*
X16804544Y-12677544D02*
G75*
G02*
X16906544Y-12677544I51000J0D01*
G01*
X16951000Y-7960000D02*
G75*
G02*
X16849000Y-7960000I-51000J0D01*
G01*
X16849000Y-7960000D02*
G75*
G02*
X16951000Y-7960000I51000J0D01*
G01*
X18956544Y-12377544D02*
G75*
G02*
X18854544Y-12377544I-51000J0D01*
G01*
X18854544Y-12377544D02*
G75*
G02*
X18956544Y-12377544I51000J0D01*
G01*
X18956544Y-12677544D02*
G75*
G02*
X18854544Y-12677544I-51000J0D01*
G01*
X18854544Y-12677544D02*
G75*
G02*
X18956544Y-12677544I51000J0D01*
G01*
X19256544Y-12377544D02*
G75*
G02*
X19154544Y-12377544I-51000J0D01*
G01*
X19154544Y-12377544D02*
G75*
G02*
X19256544Y-12377544I51000J0D01*
G01*
X19256544Y-12677544D02*
G75*
G02*
X19154544Y-12677544I-51000J0D01*
G01*
X19154544Y-12677544D02*
G75*
G02*
X19256544Y-12677544I51000J0D01*
G01*
D14*
X15185000Y-7839500D02*
X15185000Y-8080500D01*
X15064500Y-7960000D02*
X15305500Y-7960000D01*
X17115000Y-7839500D02*
X17115000Y-8080500D01*
X16994500Y-7960000D02*
X17235500Y-7960000D01*
D15*
X11886067Y-8446067D02*
X11886067Y-8233933D01*
X11673933Y-8233933D01*
X11673933Y-8446067D01*
X11886067Y-8446067D01*
X11906067Y-13466067D02*
X11906067Y-13253933D01*
X11693933Y-13253933D01*
X11693933Y-13466067D01*
X11906067Y-13466067D01*
X19406067Y-8446067D02*
X19406067Y-8233933D01*
X19193933Y-8233933D01*
X19193933Y-8446067D01*
X19406067Y-8446067D01*
X19406067Y-13466067D02*
X19406067Y-13253933D01*
X19193933Y-13253933D01*
X19193933Y-13466067D01*
X19406067Y-13466067D01*
D11*
X11438820Y-13993440D02*
X11438820Y-13793440D01*
X11438820Y-13793440D02*
X11486439Y-13793440D01*
X11486439Y-13793440D02*
X11515011Y-13802964D01*
X11515011Y-13802964D02*
X11534059Y-13822011D01*
X11534059Y-13822011D02*
X11543582Y-13841059D01*
X11543582Y-13841059D02*
X11553106Y-13879154D01*
X11553106Y-13879154D02*
X11553106Y-13907726D01*
X11553106Y-13907726D02*
X11543582Y-13945821D01*
X11543582Y-13945821D02*
X11534059Y-13964868D01*
X11534059Y-13964868D02*
X11515011Y-13983916D01*
X11515011Y-13983916D02*
X11486439Y-13993440D01*
X11486439Y-13993440D02*
X11438820Y-13993440D01*
X11638820Y-13993440D02*
X11638820Y-13860107D01*
X11638820Y-13898202D02*
X11648344Y-13879154D01*
X11648344Y-13879154D02*
X11657868Y-13869630D01*
X11657868Y-13869630D02*
X11676916Y-13860107D01*
X11676916Y-13860107D02*
X11695963Y-13860107D01*
X11762630Y-13993440D02*
X11762630Y-13860107D01*
X11762630Y-13793440D02*
X11753106Y-13802964D01*
X11753106Y-13802964D02*
X11762630Y-13812488D01*
X11762630Y-13812488D02*
X11772154Y-13802964D01*
X11772154Y-13802964D02*
X11762630Y-13793440D01*
X11762630Y-13793440D02*
X11762630Y-13812488D01*
X11886439Y-13993440D02*
X11867392Y-13983916D01*
X11867392Y-13983916D02*
X11857868Y-13964868D01*
X11857868Y-13964868D02*
X11857868Y-13793440D01*
X11991201Y-13993440D02*
X11972154Y-13983916D01*
X11972154Y-13983916D02*
X11962630Y-13964868D01*
X11962630Y-13964868D02*
X11962630Y-13793440D01*
X12219773Y-13993440D02*
X12219773Y-13793440D01*
X12219773Y-13793440D02*
X12286440Y-13936297D01*
X12286440Y-13936297D02*
X12353106Y-13793440D01*
X12353106Y-13793440D02*
X12353106Y-13993440D01*
X12534059Y-13993440D02*
X12534059Y-13888678D01*
X12534059Y-13888678D02*
X12524535Y-13869630D01*
X12524535Y-13869630D02*
X12505487Y-13860107D01*
X12505487Y-13860107D02*
X12467392Y-13860107D01*
X12467392Y-13860107D02*
X12448344Y-13869630D01*
X12534059Y-13983916D02*
X12515011Y-13993440D01*
X12515011Y-13993440D02*
X12467392Y-13993440D01*
X12467392Y-13993440D02*
X12448344Y-13983916D01*
X12448344Y-13983916D02*
X12438820Y-13964868D01*
X12438820Y-13964868D02*
X12438820Y-13945821D01*
X12438820Y-13945821D02*
X12448344Y-13926773D01*
X12448344Y-13926773D02*
X12467392Y-13917249D01*
X12467392Y-13917249D02*
X12515011Y-13917249D01*
X12515011Y-13917249D02*
X12534059Y-13907726D01*
X12629297Y-13860107D02*
X12629297Y-14060107D01*
X12629297Y-13869630D02*
X12648344Y-13860107D01*
X12648344Y-13860107D02*
X12686440Y-13860107D01*
X12686440Y-13860107D02*
X12705487Y-13869630D01*
X12705487Y-13869630D02*
X12715011Y-13879154D01*
X12715011Y-13879154D02*
X12724535Y-13898202D01*
X12724535Y-13898202D02*
X12724535Y-13955345D01*
X12724535Y-13955345D02*
X12715011Y-13974392D01*
X12715011Y-13974392D02*
X12705487Y-13983916D01*
X12705487Y-13983916D02*
X12686440Y-13993440D01*
X12686440Y-13993440D02*
X12648344Y-13993440D01*
X12648344Y-13993440D02*
X12629297Y-13983916D01*
X12810249Y-13974392D02*
X12819773Y-13983916D01*
X12819773Y-13983916D02*
X12810249Y-13993440D01*
X12810249Y-13993440D02*
X12800725Y-13983916D01*
X12800725Y-13983916D02*
X12810249Y-13974392D01*
X12810249Y-13974392D02*
X12810249Y-13993440D01*
X12810249Y-13869630D02*
X12819773Y-13879154D01*
X12819773Y-13879154D02*
X12810249Y-13888678D01*
X12810249Y-13888678D02*
X12800725Y-13879154D01*
X12800725Y-13879154D02*
X12810249Y-13869630D01*
X12810249Y-13869630D02*
X12810249Y-13888678D01*
D12*
X11078044Y-14271956D02*
X11178044Y-14371956D01*
X11178044Y-14271956D02*
X11078044Y-14371956D01*
D11*
X11543582Y-14413440D02*
X11429297Y-14413440D01*
X11486439Y-14413440D02*
X11486439Y-14213440D01*
X11486439Y-14213440D02*
X11467392Y-14242011D01*
X11467392Y-14242011D02*
X11448344Y-14261059D01*
X11448344Y-14261059D02*
X11429297Y-14270583D01*
X11629297Y-14394392D02*
X11638820Y-14403916D01*
X11638820Y-14403916D02*
X11629297Y-14413440D01*
X11629297Y-14413440D02*
X11619773Y-14403916D01*
X11619773Y-14403916D02*
X11629297Y-14394392D01*
X11629297Y-14394392D02*
X11629297Y-14413440D01*
X11762630Y-14213440D02*
X11781678Y-14213440D01*
X11781678Y-14213440D02*
X11800725Y-14222964D01*
X11800725Y-14222964D02*
X11810249Y-14232488D01*
X11810249Y-14232488D02*
X11819773Y-14251535D01*
X11819773Y-14251535D02*
X11829297Y-14289630D01*
X11829297Y-14289630D02*
X11829297Y-14337249D01*
X11829297Y-14337249D02*
X11819773Y-14375345D01*
X11819773Y-14375345D02*
X11810249Y-14394392D01*
X11810249Y-14394392D02*
X11800725Y-14403916D01*
X11800725Y-14403916D02*
X11781678Y-14413440D01*
X11781678Y-14413440D02*
X11762630Y-14413440D01*
X11762630Y-14413440D02*
X11743582Y-14403916D01*
X11743582Y-14403916D02*
X11734059Y-14394392D01*
X11734059Y-14394392D02*
X11724535Y-14375345D01*
X11724535Y-14375345D02*
X11715011Y-14337249D01*
X11715011Y-14337249D02*
X11715011Y-14289630D01*
X11715011Y-14289630D02*
X11724535Y-14251535D01*
X11724535Y-14251535D02*
X11734059Y-14232488D01*
X11734059Y-14232488D02*
X11743582Y-14222964D01*
X11743582Y-14222964D02*
X11762630Y-14213440D01*
X11953106Y-14213440D02*
X11972154Y-14213440D01*
X11972154Y-14213440D02*
X11991201Y-14222964D01*
X11991201Y-14222964D02*
X12000725Y-14232488D01*
X12000725Y-14232488D02*
X12010249Y-14251535D01*
X12010249Y-14251535D02*
X12019773Y-14289630D01*
X12019773Y-14289630D02*
X12019773Y-14337249D01*
X12019773Y-14337249D02*
X12010249Y-14375345D01*
X12010249Y-14375345D02*
X12000725Y-14394392D01*
X12000725Y-14394392D02*
X11991201Y-14403916D01*
X11991201Y-14403916D02*
X11972154Y-14413440D01*
X11972154Y-14413440D02*
X11953106Y-14413440D01*
X11953106Y-14413440D02*
X11934059Y-14403916D01*
X11934059Y-14403916D02*
X11924535Y-14394392D01*
X11924535Y-14394392D02*
X11915011Y-14375345D01*
X11915011Y-14375345D02*
X11905487Y-14337249D01*
X11905487Y-14337249D02*
X11905487Y-14289630D01*
X11905487Y-14289630D02*
X11915011Y-14251535D01*
X11915011Y-14251535D02*
X11924535Y-14232488D01*
X11924535Y-14232488D02*
X11934059Y-14222964D01*
X11934059Y-14222964D02*
X11953106Y-14213440D01*
X12143582Y-14213440D02*
X12162630Y-14213440D01*
X12162630Y-14213440D02*
X12181678Y-14222964D01*
X12181678Y-14222964D02*
X12191201Y-14232488D01*
X12191201Y-14232488D02*
X12200725Y-14251535D01*
X12200725Y-14251535D02*
X12210249Y-14289630D01*
X12210249Y-14289630D02*
X12210249Y-14337249D01*
X12210249Y-14337249D02*
X12200725Y-14375345D01*
X12200725Y-14375345D02*
X12191201Y-14394392D01*
X12191201Y-14394392D02*
X12181678Y-14403916D01*
X12181678Y-14403916D02*
X12162630Y-14413440D01*
X12162630Y-14413440D02*
X12143582Y-14413440D01*
X12143582Y-14413440D02*
X12124535Y-14403916D01*
X12124535Y-14403916D02*
X12115011Y-14394392D01*
X12115011Y-14394392D02*
X12105487Y-14375345D01*
X12105487Y-14375345D02*
X12095963Y-14337249D01*
X12095963Y-14337249D02*
X12095963Y-14289630D01*
X12095963Y-14289630D02*
X12105487Y-14251535D01*
X12105487Y-14251535D02*
X12115011Y-14232488D01*
X12115011Y-14232488D02*
X12124535Y-14222964D01*
X12124535Y-14222964D02*
X12143582Y-14213440D01*
X12295963Y-14413440D02*
X12295963Y-14280107D01*
X12295963Y-14299154D02*
X12305487Y-14289630D01*
X12305487Y-14289630D02*
X12324535Y-14280107D01*
X12324535Y-14280107D02*
X12353106Y-14280107D01*
X12353106Y-14280107D02*
X12372154Y-14289630D01*
X12372154Y-14289630D02*
X12381678Y-14308678D01*
X12381678Y-14308678D02*
X12381678Y-14413440D01*
X12381678Y-14308678D02*
X12391201Y-14289630D01*
X12391201Y-14289630D02*
X12410249Y-14280107D01*
X12410249Y-14280107D02*
X12438820Y-14280107D01*
X12438820Y-14280107D02*
X12457868Y-14289630D01*
X12457868Y-14289630D02*
X12467392Y-14308678D01*
X12467392Y-14308678D02*
X12467392Y-14413440D01*
X12562630Y-14413440D02*
X12562630Y-14280107D01*
X12562630Y-14299154D02*
X12572154Y-14289630D01*
X12572154Y-14289630D02*
X12591201Y-14280107D01*
X12591201Y-14280107D02*
X12619773Y-14280107D01*
X12619773Y-14280107D02*
X12638821Y-14289630D01*
X12638821Y-14289630D02*
X12648344Y-14308678D01*
X12648344Y-14308678D02*
X12648344Y-14413440D01*
X12648344Y-14308678D02*
X12657868Y-14289630D01*
X12657868Y-14289630D02*
X12676916Y-14280107D01*
X12676916Y-14280107D02*
X12705487Y-14280107D01*
X12705487Y-14280107D02*
X12724535Y-14289630D01*
X12724535Y-14289630D02*
X12734059Y-14308678D01*
X12734059Y-14308678D02*
X12734059Y-14413440D01*
X13124535Y-14203916D02*
X12953106Y-14461059D01*
X13381678Y-14213440D02*
X13400725Y-14213440D01*
X13400725Y-14213440D02*
X13419773Y-14222964D01*
X13419773Y-14222964D02*
X13429297Y-14232488D01*
X13429297Y-14232488D02*
X13438821Y-14251535D01*
X13438821Y-14251535D02*
X13448344Y-14289630D01*
X13448344Y-14289630D02*
X13448344Y-14337249D01*
X13448344Y-14337249D02*
X13438821Y-14375345D01*
X13438821Y-14375345D02*
X13429297Y-14394392D01*
X13429297Y-14394392D02*
X13419773Y-14403916D01*
X13419773Y-14403916D02*
X13400725Y-14413440D01*
X13400725Y-14413440D02*
X13381678Y-14413440D01*
X13381678Y-14413440D02*
X13362630Y-14403916D01*
X13362630Y-14403916D02*
X13353106Y-14394392D01*
X13353106Y-14394392D02*
X13343583Y-14375345D01*
X13343583Y-14375345D02*
X13334059Y-14337249D01*
X13334059Y-14337249D02*
X13334059Y-14289630D01*
X13334059Y-14289630D02*
X13343583Y-14251535D01*
X13343583Y-14251535D02*
X13353106Y-14232488D01*
X13353106Y-14232488D02*
X13362630Y-14222964D01*
X13362630Y-14222964D02*
X13381678Y-14213440D01*
X13534059Y-14394392D02*
X13543583Y-14403916D01*
X13543583Y-14403916D02*
X13534059Y-14413440D01*
X13534059Y-14413440D02*
X13524535Y-14403916D01*
X13524535Y-14403916D02*
X13534059Y-14394392D01*
X13534059Y-14394392D02*
X13534059Y-14413440D01*
X13667392Y-14213440D02*
X13686440Y-14213440D01*
X13686440Y-14213440D02*
X13705487Y-14222964D01*
X13705487Y-14222964D02*
X13715011Y-14232488D01*
X13715011Y-14232488D02*
X13724535Y-14251535D01*
X13724535Y-14251535D02*
X13734059Y-14289630D01*
X13734059Y-14289630D02*
X13734059Y-14337249D01*
X13734059Y-14337249D02*
X13724535Y-14375345D01*
X13724535Y-14375345D02*
X13715011Y-14394392D01*
X13715011Y-14394392D02*
X13705487Y-14403916D01*
X13705487Y-14403916D02*
X13686440Y-14413440D01*
X13686440Y-14413440D02*
X13667392Y-14413440D01*
X13667392Y-14413440D02*
X13648344Y-14403916D01*
X13648344Y-14403916D02*
X13638821Y-14394392D01*
X13638821Y-14394392D02*
X13629297Y-14375345D01*
X13629297Y-14375345D02*
X13619773Y-14337249D01*
X13619773Y-14337249D02*
X13619773Y-14289630D01*
X13619773Y-14289630D02*
X13629297Y-14251535D01*
X13629297Y-14251535D02*
X13638821Y-14232488D01*
X13638821Y-14232488D02*
X13648344Y-14222964D01*
X13648344Y-14222964D02*
X13667392Y-14213440D01*
X13800725Y-14213440D02*
X13924535Y-14213440D01*
X13924535Y-14213440D02*
X13857868Y-14289630D01*
X13857868Y-14289630D02*
X13886440Y-14289630D01*
X13886440Y-14289630D02*
X13905487Y-14299154D01*
X13905487Y-14299154D02*
X13915011Y-14308678D01*
X13915011Y-14308678D02*
X13924535Y-14327726D01*
X13924535Y-14327726D02*
X13924535Y-14375345D01*
X13924535Y-14375345D02*
X13915011Y-14394392D01*
X13915011Y-14394392D02*
X13905487Y-14403916D01*
X13905487Y-14403916D02*
X13886440Y-14413440D01*
X13886440Y-14413440D02*
X13829297Y-14413440D01*
X13829297Y-14413440D02*
X13810249Y-14403916D01*
X13810249Y-14403916D02*
X13800725Y-14394392D01*
X14019773Y-14413440D02*
X14057868Y-14413440D01*
X14057868Y-14413440D02*
X14076916Y-14403916D01*
X14076916Y-14403916D02*
X14086440Y-14394392D01*
X14086440Y-14394392D02*
X14105487Y-14365821D01*
X14105487Y-14365821D02*
X14115011Y-14327726D01*
X14115011Y-14327726D02*
X14115011Y-14251535D01*
X14115011Y-14251535D02*
X14105487Y-14232488D01*
X14105487Y-14232488D02*
X14095964Y-14222964D01*
X14095964Y-14222964D02*
X14076916Y-14213440D01*
X14076916Y-14213440D02*
X14038821Y-14213440D01*
X14038821Y-14213440D02*
X14019773Y-14222964D01*
X14019773Y-14222964D02*
X14010249Y-14232488D01*
X14010249Y-14232488D02*
X14000725Y-14251535D01*
X14000725Y-14251535D02*
X14000725Y-14299154D01*
X14000725Y-14299154D02*
X14010249Y-14318202D01*
X14010249Y-14318202D02*
X14019773Y-14327726D01*
X14019773Y-14327726D02*
X14038821Y-14337249D01*
X14038821Y-14337249D02*
X14076916Y-14337249D01*
X14076916Y-14337249D02*
X14095964Y-14327726D01*
X14095964Y-14327726D02*
X14105487Y-14318202D01*
X14105487Y-14318202D02*
X14115011Y-14299154D01*
X14286440Y-14280107D02*
X14286440Y-14413440D01*
X14238821Y-14203916D02*
X14191202Y-14346773D01*
X14191202Y-14346773D02*
X14315011Y-14346773D01*
X14381678Y-14213440D02*
X14381678Y-14251535D01*
X14457868Y-14213440D02*
X14457868Y-14251535D01*
X14753107Y-14489630D02*
X14743583Y-14480107D01*
X14743583Y-14480107D02*
X14724535Y-14451535D01*
X14724535Y-14451535D02*
X14715011Y-14432488D01*
X14715011Y-14432488D02*
X14705487Y-14403916D01*
X14705487Y-14403916D02*
X14695964Y-14356297D01*
X14695964Y-14356297D02*
X14695964Y-14318202D01*
X14695964Y-14318202D02*
X14705487Y-14270583D01*
X14705487Y-14270583D02*
X14715011Y-14242011D01*
X14715011Y-14242011D02*
X14724535Y-14222964D01*
X14724535Y-14222964D02*
X14743583Y-14194392D01*
X14743583Y-14194392D02*
X14753107Y-14184868D01*
X14915011Y-14280107D02*
X14915011Y-14413440D01*
X14867392Y-14203916D02*
X14819773Y-14346773D01*
X14819773Y-14346773D02*
X14943583Y-14346773D01*
X15010249Y-14232488D02*
X15019773Y-14222964D01*
X15019773Y-14222964D02*
X15038821Y-14213440D01*
X15038821Y-14213440D02*
X15086440Y-14213440D01*
X15086440Y-14213440D02*
X15105487Y-14222964D01*
X15105487Y-14222964D02*
X15115011Y-14232488D01*
X15115011Y-14232488D02*
X15124535Y-14251535D01*
X15124535Y-14251535D02*
X15124535Y-14270583D01*
X15124535Y-14270583D02*
X15115011Y-14299154D01*
X15115011Y-14299154D02*
X15000726Y-14413440D01*
X15000726Y-14413440D02*
X15124535Y-14413440D01*
X15362630Y-14413440D02*
X15362630Y-14213440D01*
X15448345Y-14413440D02*
X15448345Y-14308678D01*
X15448345Y-14308678D02*
X15438821Y-14289630D01*
X15438821Y-14289630D02*
X15419773Y-14280107D01*
X15419773Y-14280107D02*
X15391202Y-14280107D01*
X15391202Y-14280107D02*
X15372154Y-14289630D01*
X15372154Y-14289630D02*
X15362630Y-14299154D01*
X15572154Y-14413440D02*
X15553107Y-14403916D01*
X15553107Y-14403916D02*
X15543583Y-14394392D01*
X15543583Y-14394392D02*
X15534059Y-14375345D01*
X15534059Y-14375345D02*
X15534059Y-14318202D01*
X15534059Y-14318202D02*
X15543583Y-14299154D01*
X15543583Y-14299154D02*
X15553107Y-14289630D01*
X15553107Y-14289630D02*
X15572154Y-14280107D01*
X15572154Y-14280107D02*
X15600726Y-14280107D01*
X15600726Y-14280107D02*
X15619773Y-14289630D01*
X15619773Y-14289630D02*
X15629297Y-14299154D01*
X15629297Y-14299154D02*
X15638821Y-14318202D01*
X15638821Y-14318202D02*
X15638821Y-14375345D01*
X15638821Y-14375345D02*
X15629297Y-14394392D01*
X15629297Y-14394392D02*
X15619773Y-14403916D01*
X15619773Y-14403916D02*
X15600726Y-14413440D01*
X15600726Y-14413440D02*
X15572154Y-14413440D01*
X15753107Y-14413440D02*
X15734059Y-14403916D01*
X15734059Y-14403916D02*
X15724535Y-14384868D01*
X15724535Y-14384868D02*
X15724535Y-14213440D01*
X15905488Y-14403916D02*
X15886440Y-14413440D01*
X15886440Y-14413440D02*
X15848345Y-14413440D01*
X15848345Y-14413440D02*
X15829297Y-14403916D01*
X15829297Y-14403916D02*
X15819773Y-14384868D01*
X15819773Y-14384868D02*
X15819773Y-14308678D01*
X15819773Y-14308678D02*
X15829297Y-14289630D01*
X15829297Y-14289630D02*
X15848345Y-14280107D01*
X15848345Y-14280107D02*
X15886440Y-14280107D01*
X15886440Y-14280107D02*
X15905488Y-14289630D01*
X15905488Y-14289630D02*
X15915011Y-14308678D01*
X15915011Y-14308678D02*
X15915011Y-14327726D01*
X15915011Y-14327726D02*
X15819773Y-14346773D01*
X15991202Y-14403916D02*
X16010249Y-14413440D01*
X16010249Y-14413440D02*
X16048345Y-14413440D01*
X16048345Y-14413440D02*
X16067392Y-14403916D01*
X16067392Y-14403916D02*
X16076916Y-14384868D01*
X16076916Y-14384868D02*
X16076916Y-14375345D01*
X16076916Y-14375345D02*
X16067392Y-14356297D01*
X16067392Y-14356297D02*
X16048345Y-14346773D01*
X16048345Y-14346773D02*
X16019773Y-14346773D01*
X16019773Y-14346773D02*
X16000726Y-14337249D01*
X16000726Y-14337249D02*
X15991202Y-14318202D01*
X15991202Y-14318202D02*
X15991202Y-14308678D01*
X15991202Y-14308678D02*
X16000726Y-14289630D01*
X16000726Y-14289630D02*
X16019773Y-14280107D01*
X16019773Y-14280107D02*
X16048345Y-14280107D01*
X16048345Y-14280107D02*
X16067392Y-14289630D01*
X16143583Y-14489630D02*
X16153107Y-14480107D01*
X16153107Y-14480107D02*
X16172154Y-14451535D01*
X16172154Y-14451535D02*
X16181678Y-14432488D01*
X16181678Y-14432488D02*
X16191202Y-14403916D01*
X16191202Y-14403916D02*
X16200726Y-14356297D01*
X16200726Y-14356297D02*
X16200726Y-14318202D01*
X16200726Y-14318202D02*
X16191202Y-14270583D01*
X16191202Y-14270583D02*
X16181678Y-14242011D01*
X16181678Y-14242011D02*
X16172154Y-14222964D01*
X16172154Y-14222964D02*
X16153107Y-14194392D01*
X16153107Y-14194392D02*
X16143583Y-14184868D01*
D13*
X11178044Y-14585956D02*
G75*
G02*
X11076044Y-14585956I-51000J0D01*
G01*
X11076044Y-14585956D02*
G75*
G02*
X11178044Y-14585956I51000J0D01*
G01*
D11*
X11543582Y-14677440D02*
X11429297Y-14677440D01*
X11486439Y-14677440D02*
X11486439Y-14477440D01*
X11486439Y-14477440D02*
X11467392Y-14506011D01*
X11467392Y-14506011D02*
X11448344Y-14525059D01*
X11448344Y-14525059D02*
X11429297Y-14534583D01*
X11629297Y-14658392D02*
X11638820Y-14667916D01*
X11638820Y-14667916D02*
X11629297Y-14677440D01*
X11629297Y-14677440D02*
X11619773Y-14667916D01*
X11619773Y-14667916D02*
X11629297Y-14658392D01*
X11629297Y-14658392D02*
X11629297Y-14677440D01*
X11762630Y-14477440D02*
X11781678Y-14477440D01*
X11781678Y-14477440D02*
X11800725Y-14486964D01*
X11800725Y-14486964D02*
X11810249Y-14496488D01*
X11810249Y-14496488D02*
X11819773Y-14515535D01*
X11819773Y-14515535D02*
X11829297Y-14553630D01*
X11829297Y-14553630D02*
X11829297Y-14601249D01*
X11829297Y-14601249D02*
X11819773Y-14639345D01*
X11819773Y-14639345D02*
X11810249Y-14658392D01*
X11810249Y-14658392D02*
X11800725Y-14667916D01*
X11800725Y-14667916D02*
X11781678Y-14677440D01*
X11781678Y-14677440D02*
X11762630Y-14677440D01*
X11762630Y-14677440D02*
X11743582Y-14667916D01*
X11743582Y-14667916D02*
X11734059Y-14658392D01*
X11734059Y-14658392D02*
X11724535Y-14639345D01*
X11724535Y-14639345D02*
X11715011Y-14601249D01*
X11715011Y-14601249D02*
X11715011Y-14553630D01*
X11715011Y-14553630D02*
X11724535Y-14515535D01*
X11724535Y-14515535D02*
X11734059Y-14496488D01*
X11734059Y-14496488D02*
X11743582Y-14486964D01*
X11743582Y-14486964D02*
X11762630Y-14477440D01*
X11905487Y-14496488D02*
X11915011Y-14486964D01*
X11915011Y-14486964D02*
X11934059Y-14477440D01*
X11934059Y-14477440D02*
X11981678Y-14477440D01*
X11981678Y-14477440D02*
X12000725Y-14486964D01*
X12000725Y-14486964D02*
X12010249Y-14496488D01*
X12010249Y-14496488D02*
X12019773Y-14515535D01*
X12019773Y-14515535D02*
X12019773Y-14534583D01*
X12019773Y-14534583D02*
X12010249Y-14563154D01*
X12010249Y-14563154D02*
X11895963Y-14677440D01*
X11895963Y-14677440D02*
X12019773Y-14677440D01*
X12143582Y-14477440D02*
X12162630Y-14477440D01*
X12162630Y-14477440D02*
X12181678Y-14486964D01*
X12181678Y-14486964D02*
X12191201Y-14496488D01*
X12191201Y-14496488D02*
X12200725Y-14515535D01*
X12200725Y-14515535D02*
X12210249Y-14553630D01*
X12210249Y-14553630D02*
X12210249Y-14601249D01*
X12210249Y-14601249D02*
X12200725Y-14639345D01*
X12200725Y-14639345D02*
X12191201Y-14658392D01*
X12191201Y-14658392D02*
X12181678Y-14667916D01*
X12181678Y-14667916D02*
X12162630Y-14677440D01*
X12162630Y-14677440D02*
X12143582Y-14677440D01*
X12143582Y-14677440D02*
X12124535Y-14667916D01*
X12124535Y-14667916D02*
X12115011Y-14658392D01*
X12115011Y-14658392D02*
X12105487Y-14639345D01*
X12105487Y-14639345D02*
X12095963Y-14601249D01*
X12095963Y-14601249D02*
X12095963Y-14553630D01*
X12095963Y-14553630D02*
X12105487Y-14515535D01*
X12105487Y-14515535D02*
X12115011Y-14496488D01*
X12115011Y-14496488D02*
X12124535Y-14486964D01*
X12124535Y-14486964D02*
X12143582Y-14477440D01*
X12295963Y-14677440D02*
X12295963Y-14544107D01*
X12295963Y-14563154D02*
X12305487Y-14553630D01*
X12305487Y-14553630D02*
X12324535Y-14544107D01*
X12324535Y-14544107D02*
X12353106Y-14544107D01*
X12353106Y-14544107D02*
X12372154Y-14553630D01*
X12372154Y-14553630D02*
X12381678Y-14572678D01*
X12381678Y-14572678D02*
X12381678Y-14677440D01*
X12381678Y-14572678D02*
X12391201Y-14553630D01*
X12391201Y-14553630D02*
X12410249Y-14544107D01*
X12410249Y-14544107D02*
X12438820Y-14544107D01*
X12438820Y-14544107D02*
X12457868Y-14553630D01*
X12457868Y-14553630D02*
X12467392Y-14572678D01*
X12467392Y-14572678D02*
X12467392Y-14677440D01*
X12562630Y-14677440D02*
X12562630Y-14544107D01*
X12562630Y-14563154D02*
X12572154Y-14553630D01*
X12572154Y-14553630D02*
X12591201Y-14544107D01*
X12591201Y-14544107D02*
X12619773Y-14544107D01*
X12619773Y-14544107D02*
X12638821Y-14553630D01*
X12638821Y-14553630D02*
X12648344Y-14572678D01*
X12648344Y-14572678D02*
X12648344Y-14677440D01*
X12648344Y-14572678D02*
X12657868Y-14553630D01*
X12657868Y-14553630D02*
X12676916Y-14544107D01*
X12676916Y-14544107D02*
X12705487Y-14544107D01*
X12705487Y-14544107D02*
X12724535Y-14553630D01*
X12724535Y-14553630D02*
X12734059Y-14572678D01*
X12734059Y-14572678D02*
X12734059Y-14677440D01*
X13124535Y-14467916D02*
X12953106Y-14725059D01*
X13381678Y-14477440D02*
X13400725Y-14477440D01*
X13400725Y-14477440D02*
X13419773Y-14486964D01*
X13419773Y-14486964D02*
X13429297Y-14496488D01*
X13429297Y-14496488D02*
X13438821Y-14515535D01*
X13438821Y-14515535D02*
X13448344Y-14553630D01*
X13448344Y-14553630D02*
X13448344Y-14601249D01*
X13448344Y-14601249D02*
X13438821Y-14639345D01*
X13438821Y-14639345D02*
X13429297Y-14658392D01*
X13429297Y-14658392D02*
X13419773Y-14667916D01*
X13419773Y-14667916D02*
X13400725Y-14677440D01*
X13400725Y-14677440D02*
X13381678Y-14677440D01*
X13381678Y-14677440D02*
X13362630Y-14667916D01*
X13362630Y-14667916D02*
X13353106Y-14658392D01*
X13353106Y-14658392D02*
X13343583Y-14639345D01*
X13343583Y-14639345D02*
X13334059Y-14601249D01*
X13334059Y-14601249D02*
X13334059Y-14553630D01*
X13334059Y-14553630D02*
X13343583Y-14515535D01*
X13343583Y-14515535D02*
X13353106Y-14496488D01*
X13353106Y-14496488D02*
X13362630Y-14486964D01*
X13362630Y-14486964D02*
X13381678Y-14477440D01*
X13534059Y-14658392D02*
X13543583Y-14667916D01*
X13543583Y-14667916D02*
X13534059Y-14677440D01*
X13534059Y-14677440D02*
X13524535Y-14667916D01*
X13524535Y-14667916D02*
X13534059Y-14658392D01*
X13534059Y-14658392D02*
X13534059Y-14677440D01*
X13667392Y-14477440D02*
X13686440Y-14477440D01*
X13686440Y-14477440D02*
X13705487Y-14486964D01*
X13705487Y-14486964D02*
X13715011Y-14496488D01*
X13715011Y-14496488D02*
X13724535Y-14515535D01*
X13724535Y-14515535D02*
X13734059Y-14553630D01*
X13734059Y-14553630D02*
X13734059Y-14601249D01*
X13734059Y-14601249D02*
X13724535Y-14639345D01*
X13724535Y-14639345D02*
X13715011Y-14658392D01*
X13715011Y-14658392D02*
X13705487Y-14667916D01*
X13705487Y-14667916D02*
X13686440Y-14677440D01*
X13686440Y-14677440D02*
X13667392Y-14677440D01*
X13667392Y-14677440D02*
X13648344Y-14667916D01*
X13648344Y-14667916D02*
X13638821Y-14658392D01*
X13638821Y-14658392D02*
X13629297Y-14639345D01*
X13629297Y-14639345D02*
X13619773Y-14601249D01*
X13619773Y-14601249D02*
X13619773Y-14553630D01*
X13619773Y-14553630D02*
X13629297Y-14515535D01*
X13629297Y-14515535D02*
X13638821Y-14496488D01*
X13638821Y-14496488D02*
X13648344Y-14486964D01*
X13648344Y-14486964D02*
X13667392Y-14477440D01*
X13905487Y-14544107D02*
X13905487Y-14677440D01*
X13857868Y-14467916D02*
X13810249Y-14610773D01*
X13810249Y-14610773D02*
X13934059Y-14610773D01*
X14048344Y-14477440D02*
X14067392Y-14477440D01*
X14067392Y-14477440D02*
X14086440Y-14486964D01*
X14086440Y-14486964D02*
X14095964Y-14496488D01*
X14095964Y-14496488D02*
X14105487Y-14515535D01*
X14105487Y-14515535D02*
X14115011Y-14553630D01*
X14115011Y-14553630D02*
X14115011Y-14601249D01*
X14115011Y-14601249D02*
X14105487Y-14639345D01*
X14105487Y-14639345D02*
X14095964Y-14658392D01*
X14095964Y-14658392D02*
X14086440Y-14667916D01*
X14086440Y-14667916D02*
X14067392Y-14677440D01*
X14067392Y-14677440D02*
X14048344Y-14677440D01*
X14048344Y-14677440D02*
X14029297Y-14667916D01*
X14029297Y-14667916D02*
X14019773Y-14658392D01*
X14019773Y-14658392D02*
X14010249Y-14639345D01*
X14010249Y-14639345D02*
X14000725Y-14601249D01*
X14000725Y-14601249D02*
X14000725Y-14553630D01*
X14000725Y-14553630D02*
X14010249Y-14515535D01*
X14010249Y-14515535D02*
X14019773Y-14496488D01*
X14019773Y-14496488D02*
X14029297Y-14486964D01*
X14029297Y-14486964D02*
X14048344Y-14477440D01*
X14191202Y-14496488D02*
X14200725Y-14486964D01*
X14200725Y-14486964D02*
X14219773Y-14477440D01*
X14219773Y-14477440D02*
X14267392Y-14477440D01*
X14267392Y-14477440D02*
X14286440Y-14486964D01*
X14286440Y-14486964D02*
X14295964Y-14496488D01*
X14295964Y-14496488D02*
X14305487Y-14515535D01*
X14305487Y-14515535D02*
X14305487Y-14534583D01*
X14305487Y-14534583D02*
X14295964Y-14563154D01*
X14295964Y-14563154D02*
X14181678Y-14677440D01*
X14181678Y-14677440D02*
X14305487Y-14677440D01*
X14381678Y-14477440D02*
X14381678Y-14515535D01*
X14457868Y-14477440D02*
X14457868Y-14515535D01*
X14753107Y-14753630D02*
X14743583Y-14744107D01*
X14743583Y-14744107D02*
X14724535Y-14715535D01*
X14724535Y-14715535D02*
X14715011Y-14696488D01*
X14715011Y-14696488D02*
X14705487Y-14667916D01*
X14705487Y-14667916D02*
X14695964Y-14620297D01*
X14695964Y-14620297D02*
X14695964Y-14582202D01*
X14695964Y-14582202D02*
X14705487Y-14534583D01*
X14705487Y-14534583D02*
X14715011Y-14506011D01*
X14715011Y-14506011D02*
X14724535Y-14486964D01*
X14724535Y-14486964D02*
X14743583Y-14458392D01*
X14743583Y-14458392D02*
X14753107Y-14448868D01*
X14819773Y-14496488D02*
X14829297Y-14486964D01*
X14829297Y-14486964D02*
X14848345Y-14477440D01*
X14848345Y-14477440D02*
X14895964Y-14477440D01*
X14895964Y-14477440D02*
X14915011Y-14486964D01*
X14915011Y-14486964D02*
X14924535Y-14496488D01*
X14924535Y-14496488D02*
X14934059Y-14515535D01*
X14934059Y-14515535D02*
X14934059Y-14534583D01*
X14934059Y-14534583D02*
X14924535Y-14563154D01*
X14924535Y-14563154D02*
X14810249Y-14677440D01*
X14810249Y-14677440D02*
X14934059Y-14677440D01*
X15010249Y-14496488D02*
X15019773Y-14486964D01*
X15019773Y-14486964D02*
X15038821Y-14477440D01*
X15038821Y-14477440D02*
X15086440Y-14477440D01*
X15086440Y-14477440D02*
X15105487Y-14486964D01*
X15105487Y-14486964D02*
X15115011Y-14496488D01*
X15115011Y-14496488D02*
X15124535Y-14515535D01*
X15124535Y-14515535D02*
X15124535Y-14534583D01*
X15124535Y-14534583D02*
X15115011Y-14563154D01*
X15115011Y-14563154D02*
X15000726Y-14677440D01*
X15000726Y-14677440D02*
X15124535Y-14677440D01*
X15362630Y-14677440D02*
X15362630Y-14477440D01*
X15448345Y-14677440D02*
X15448345Y-14572678D01*
X15448345Y-14572678D02*
X15438821Y-14553630D01*
X15438821Y-14553630D02*
X15419773Y-14544107D01*
X15419773Y-14544107D02*
X15391202Y-14544107D01*
X15391202Y-14544107D02*
X15372154Y-14553630D01*
X15372154Y-14553630D02*
X15362630Y-14563154D01*
X15572154Y-14677440D02*
X15553107Y-14667916D01*
X15553107Y-14667916D02*
X15543583Y-14658392D01*
X15543583Y-14658392D02*
X15534059Y-14639345D01*
X15534059Y-14639345D02*
X15534059Y-14582202D01*
X15534059Y-14582202D02*
X15543583Y-14563154D01*
X15543583Y-14563154D02*
X15553107Y-14553630D01*
X15553107Y-14553630D02*
X15572154Y-14544107D01*
X15572154Y-14544107D02*
X15600726Y-14544107D01*
X15600726Y-14544107D02*
X15619773Y-14553630D01*
X15619773Y-14553630D02*
X15629297Y-14563154D01*
X15629297Y-14563154D02*
X15638821Y-14582202D01*
X15638821Y-14582202D02*
X15638821Y-14639345D01*
X15638821Y-14639345D02*
X15629297Y-14658392D01*
X15629297Y-14658392D02*
X15619773Y-14667916D01*
X15619773Y-14667916D02*
X15600726Y-14677440D01*
X15600726Y-14677440D02*
X15572154Y-14677440D01*
X15753107Y-14677440D02*
X15734059Y-14667916D01*
X15734059Y-14667916D02*
X15724535Y-14648868D01*
X15724535Y-14648868D02*
X15724535Y-14477440D01*
X15905488Y-14667916D02*
X15886440Y-14677440D01*
X15886440Y-14677440D02*
X15848345Y-14677440D01*
X15848345Y-14677440D02*
X15829297Y-14667916D01*
X15829297Y-14667916D02*
X15819773Y-14648868D01*
X15819773Y-14648868D02*
X15819773Y-14572678D01*
X15819773Y-14572678D02*
X15829297Y-14553630D01*
X15829297Y-14553630D02*
X15848345Y-14544107D01*
X15848345Y-14544107D02*
X15886440Y-14544107D01*
X15886440Y-14544107D02*
X15905488Y-14553630D01*
X15905488Y-14553630D02*
X15915011Y-14572678D01*
X15915011Y-14572678D02*
X15915011Y-14591726D01*
X15915011Y-14591726D02*
X15819773Y-14610773D01*
X15991202Y-14667916D02*
X16010249Y-14677440D01*
X16010249Y-14677440D02*
X16048345Y-14677440D01*
X16048345Y-14677440D02*
X16067392Y-14667916D01*
X16067392Y-14667916D02*
X16076916Y-14648868D01*
X16076916Y-14648868D02*
X16076916Y-14639345D01*
X16076916Y-14639345D02*
X16067392Y-14620297D01*
X16067392Y-14620297D02*
X16048345Y-14610773D01*
X16048345Y-14610773D02*
X16019773Y-14610773D01*
X16019773Y-14610773D02*
X16000726Y-14601249D01*
X16000726Y-14601249D02*
X15991202Y-14582202D01*
X15991202Y-14582202D02*
X15991202Y-14572678D01*
X15991202Y-14572678D02*
X16000726Y-14553630D01*
X16000726Y-14553630D02*
X16019773Y-14544107D01*
X16019773Y-14544107D02*
X16048345Y-14544107D01*
X16048345Y-14544107D02*
X16067392Y-14553630D01*
X16143583Y-14753630D02*
X16153107Y-14744107D01*
X16153107Y-14744107D02*
X16172154Y-14715535D01*
X16172154Y-14715535D02*
X16181678Y-14696488D01*
X16181678Y-14696488D02*
X16191202Y-14667916D01*
X16191202Y-14667916D02*
X16200726Y-14620297D01*
X16200726Y-14620297D02*
X16200726Y-14582202D01*
X16200726Y-14582202D02*
X16191202Y-14534583D01*
X16191202Y-14534583D02*
X16181678Y-14506011D01*
X16181678Y-14506011D02*
X16172154Y-14486964D01*
X16172154Y-14486964D02*
X16153107Y-14458392D01*
X16153107Y-14458392D02*
X16143583Y-14448868D01*
X11078044Y-14749956D02*
X11078044Y-14949956D01*
X10978044Y-14849956D02*
X11178044Y-14849956D01*
X11429297Y-14760488D02*
X11438820Y-14750964D01*
X11438820Y-14750964D02*
X11457868Y-14741440D01*
X11457868Y-14741440D02*
X11505487Y-14741440D01*
X11505487Y-14741440D02*
X11524535Y-14750964D01*
X11524535Y-14750964D02*
X11534059Y-14760488D01*
X11534059Y-14760488D02*
X11543582Y-14779535D01*
X11543582Y-14779535D02*
X11543582Y-14798583D01*
X11543582Y-14798583D02*
X11534059Y-14827154D01*
X11534059Y-14827154D02*
X11419773Y-14941440D01*
X11419773Y-14941440D02*
X11543582Y-14941440D01*
X11629297Y-14922392D02*
X11638820Y-14931916D01*
X11638820Y-14931916D02*
X11629297Y-14941440D01*
X11629297Y-14941440D02*
X11619773Y-14931916D01*
X11619773Y-14931916D02*
X11629297Y-14922392D01*
X11629297Y-14922392D02*
X11629297Y-14941440D01*
X11810249Y-14808107D02*
X11810249Y-14941440D01*
X11762630Y-14731916D02*
X11715011Y-14874773D01*
X11715011Y-14874773D02*
X11838820Y-14874773D01*
X12019773Y-14941440D02*
X11905487Y-14941440D01*
X11962630Y-14941440D02*
X11962630Y-14741440D01*
X11962630Y-14741440D02*
X11943582Y-14770011D01*
X11943582Y-14770011D02*
X11924535Y-14789059D01*
X11924535Y-14789059D02*
X11905487Y-14798583D01*
X12143582Y-14741440D02*
X12162630Y-14741440D01*
X12162630Y-14741440D02*
X12181678Y-14750964D01*
X12181678Y-14750964D02*
X12191201Y-14760488D01*
X12191201Y-14760488D02*
X12200725Y-14779535D01*
X12200725Y-14779535D02*
X12210249Y-14817630D01*
X12210249Y-14817630D02*
X12210249Y-14865249D01*
X12210249Y-14865249D02*
X12200725Y-14903345D01*
X12200725Y-14903345D02*
X12191201Y-14922392D01*
X12191201Y-14922392D02*
X12181678Y-14931916D01*
X12181678Y-14931916D02*
X12162630Y-14941440D01*
X12162630Y-14941440D02*
X12143582Y-14941440D01*
X12143582Y-14941440D02*
X12124535Y-14931916D01*
X12124535Y-14931916D02*
X12115011Y-14922392D01*
X12115011Y-14922392D02*
X12105487Y-14903345D01*
X12105487Y-14903345D02*
X12095963Y-14865249D01*
X12095963Y-14865249D02*
X12095963Y-14817630D01*
X12095963Y-14817630D02*
X12105487Y-14779535D01*
X12105487Y-14779535D02*
X12115011Y-14760488D01*
X12115011Y-14760488D02*
X12124535Y-14750964D01*
X12124535Y-14750964D02*
X12143582Y-14741440D01*
X12295963Y-14941440D02*
X12295963Y-14808107D01*
X12295963Y-14827154D02*
X12305487Y-14817630D01*
X12305487Y-14817630D02*
X12324535Y-14808107D01*
X12324535Y-14808107D02*
X12353106Y-14808107D01*
X12353106Y-14808107D02*
X12372154Y-14817630D01*
X12372154Y-14817630D02*
X12381678Y-14836678D01*
X12381678Y-14836678D02*
X12381678Y-14941440D01*
X12381678Y-14836678D02*
X12391201Y-14817630D01*
X12391201Y-14817630D02*
X12410249Y-14808107D01*
X12410249Y-14808107D02*
X12438820Y-14808107D01*
X12438820Y-14808107D02*
X12457868Y-14817630D01*
X12457868Y-14817630D02*
X12467392Y-14836678D01*
X12467392Y-14836678D02*
X12467392Y-14941440D01*
X12562630Y-14941440D02*
X12562630Y-14808107D01*
X12562630Y-14827154D02*
X12572154Y-14817630D01*
X12572154Y-14817630D02*
X12591201Y-14808107D01*
X12591201Y-14808107D02*
X12619773Y-14808107D01*
X12619773Y-14808107D02*
X12638821Y-14817630D01*
X12638821Y-14817630D02*
X12648344Y-14836678D01*
X12648344Y-14836678D02*
X12648344Y-14941440D01*
X12648344Y-14836678D02*
X12657868Y-14817630D01*
X12657868Y-14817630D02*
X12676916Y-14808107D01*
X12676916Y-14808107D02*
X12705487Y-14808107D01*
X12705487Y-14808107D02*
X12724535Y-14817630D01*
X12724535Y-14817630D02*
X12734059Y-14836678D01*
X12734059Y-14836678D02*
X12734059Y-14941440D01*
X13124535Y-14731916D02*
X12953106Y-14989059D01*
X13381678Y-14741440D02*
X13400725Y-14741440D01*
X13400725Y-14741440D02*
X13419773Y-14750964D01*
X13419773Y-14750964D02*
X13429297Y-14760488D01*
X13429297Y-14760488D02*
X13438821Y-14779535D01*
X13438821Y-14779535D02*
X13448344Y-14817630D01*
X13448344Y-14817630D02*
X13448344Y-14865249D01*
X13448344Y-14865249D02*
X13438821Y-14903345D01*
X13438821Y-14903345D02*
X13429297Y-14922392D01*
X13429297Y-14922392D02*
X13419773Y-14931916D01*
X13419773Y-14931916D02*
X13400725Y-14941440D01*
X13400725Y-14941440D02*
X13381678Y-14941440D01*
X13381678Y-14941440D02*
X13362630Y-14931916D01*
X13362630Y-14931916D02*
X13353106Y-14922392D01*
X13353106Y-14922392D02*
X13343583Y-14903345D01*
X13343583Y-14903345D02*
X13334059Y-14865249D01*
X13334059Y-14865249D02*
X13334059Y-14817630D01*
X13334059Y-14817630D02*
X13343583Y-14779535D01*
X13343583Y-14779535D02*
X13353106Y-14760488D01*
X13353106Y-14760488D02*
X13362630Y-14750964D01*
X13362630Y-14750964D02*
X13381678Y-14741440D01*
X13534059Y-14922392D02*
X13543583Y-14931916D01*
X13543583Y-14931916D02*
X13534059Y-14941440D01*
X13534059Y-14941440D02*
X13524535Y-14931916D01*
X13524535Y-14931916D02*
X13534059Y-14922392D01*
X13534059Y-14922392D02*
X13534059Y-14941440D01*
X13667392Y-14741440D02*
X13686440Y-14741440D01*
X13686440Y-14741440D02*
X13705487Y-14750964D01*
X13705487Y-14750964D02*
X13715011Y-14760488D01*
X13715011Y-14760488D02*
X13724535Y-14779535D01*
X13724535Y-14779535D02*
X13734059Y-14817630D01*
X13734059Y-14817630D02*
X13734059Y-14865249D01*
X13734059Y-14865249D02*
X13724535Y-14903345D01*
X13724535Y-14903345D02*
X13715011Y-14922392D01*
X13715011Y-14922392D02*
X13705487Y-14931916D01*
X13705487Y-14931916D02*
X13686440Y-14941440D01*
X13686440Y-14941440D02*
X13667392Y-14941440D01*
X13667392Y-14941440D02*
X13648344Y-14931916D01*
X13648344Y-14931916D02*
X13638821Y-14922392D01*
X13638821Y-14922392D02*
X13629297Y-14903345D01*
X13629297Y-14903345D02*
X13619773Y-14865249D01*
X13619773Y-14865249D02*
X13619773Y-14817630D01*
X13619773Y-14817630D02*
X13629297Y-14779535D01*
X13629297Y-14779535D02*
X13638821Y-14760488D01*
X13638821Y-14760488D02*
X13648344Y-14750964D01*
X13648344Y-14750964D02*
X13667392Y-14741440D01*
X13829297Y-14941440D02*
X13867392Y-14941440D01*
X13867392Y-14941440D02*
X13886440Y-14931916D01*
X13886440Y-14931916D02*
X13895964Y-14922392D01*
X13895964Y-14922392D02*
X13915011Y-14893821D01*
X13915011Y-14893821D02*
X13924535Y-14855726D01*
X13924535Y-14855726D02*
X13924535Y-14779535D01*
X13924535Y-14779535D02*
X13915011Y-14760488D01*
X13915011Y-14760488D02*
X13905487Y-14750964D01*
X13905487Y-14750964D02*
X13886440Y-14741440D01*
X13886440Y-14741440D02*
X13848344Y-14741440D01*
X13848344Y-14741440D02*
X13829297Y-14750964D01*
X13829297Y-14750964D02*
X13819773Y-14760488D01*
X13819773Y-14760488D02*
X13810249Y-14779535D01*
X13810249Y-14779535D02*
X13810249Y-14827154D01*
X13810249Y-14827154D02*
X13819773Y-14846202D01*
X13819773Y-14846202D02*
X13829297Y-14855726D01*
X13829297Y-14855726D02*
X13848344Y-14865249D01*
X13848344Y-14865249D02*
X13886440Y-14865249D01*
X13886440Y-14865249D02*
X13905487Y-14855726D01*
X13905487Y-14855726D02*
X13915011Y-14846202D01*
X13915011Y-14846202D02*
X13924535Y-14827154D01*
X14095964Y-14808107D02*
X14095964Y-14941440D01*
X14048344Y-14731916D02*
X14000725Y-14874773D01*
X14000725Y-14874773D02*
X14124535Y-14874773D01*
X14210249Y-14941440D02*
X14248344Y-14941440D01*
X14248344Y-14941440D02*
X14267392Y-14931916D01*
X14267392Y-14931916D02*
X14276916Y-14922392D01*
X14276916Y-14922392D02*
X14295964Y-14893821D01*
X14295964Y-14893821D02*
X14305487Y-14855726D01*
X14305487Y-14855726D02*
X14305487Y-14779535D01*
X14305487Y-14779535D02*
X14295964Y-14760488D01*
X14295964Y-14760488D02*
X14286440Y-14750964D01*
X14286440Y-14750964D02*
X14267392Y-14741440D01*
X14267392Y-14741440D02*
X14229297Y-14741440D01*
X14229297Y-14741440D02*
X14210249Y-14750964D01*
X14210249Y-14750964D02*
X14200725Y-14760488D01*
X14200725Y-14760488D02*
X14191202Y-14779535D01*
X14191202Y-14779535D02*
X14191202Y-14827154D01*
X14191202Y-14827154D02*
X14200725Y-14846202D01*
X14200725Y-14846202D02*
X14210249Y-14855726D01*
X14210249Y-14855726D02*
X14229297Y-14865249D01*
X14229297Y-14865249D02*
X14267392Y-14865249D01*
X14267392Y-14865249D02*
X14286440Y-14855726D01*
X14286440Y-14855726D02*
X14295964Y-14846202D01*
X14295964Y-14846202D02*
X14305487Y-14827154D01*
X14381678Y-14741440D02*
X14381678Y-14779535D01*
X14457868Y-14741440D02*
X14457868Y-14779535D01*
X14753107Y-15017630D02*
X14743583Y-15008107D01*
X14743583Y-15008107D02*
X14724535Y-14979535D01*
X14724535Y-14979535D02*
X14715011Y-14960488D01*
X14715011Y-14960488D02*
X14705487Y-14931916D01*
X14705487Y-14931916D02*
X14695964Y-14884297D01*
X14695964Y-14884297D02*
X14695964Y-14846202D01*
X14695964Y-14846202D02*
X14705487Y-14798583D01*
X14705487Y-14798583D02*
X14715011Y-14770011D01*
X14715011Y-14770011D02*
X14724535Y-14750964D01*
X14724535Y-14750964D02*
X14743583Y-14722392D01*
X14743583Y-14722392D02*
X14753107Y-14712868D01*
X14819773Y-14760488D02*
X14829297Y-14750964D01*
X14829297Y-14750964D02*
X14848345Y-14741440D01*
X14848345Y-14741440D02*
X14895964Y-14741440D01*
X14895964Y-14741440D02*
X14915011Y-14750964D01*
X14915011Y-14750964D02*
X14924535Y-14760488D01*
X14924535Y-14760488D02*
X14934059Y-14779535D01*
X14934059Y-14779535D02*
X14934059Y-14798583D01*
X14934059Y-14798583D02*
X14924535Y-14827154D01*
X14924535Y-14827154D02*
X14810249Y-14941440D01*
X14810249Y-14941440D02*
X14934059Y-14941440D01*
X15172154Y-14941440D02*
X15172154Y-14741440D01*
X15257868Y-14941440D02*
X15257868Y-14836678D01*
X15257868Y-14836678D02*
X15248345Y-14817630D01*
X15248345Y-14817630D02*
X15229297Y-14808107D01*
X15229297Y-14808107D02*
X15200726Y-14808107D01*
X15200726Y-14808107D02*
X15181678Y-14817630D01*
X15181678Y-14817630D02*
X15172154Y-14827154D01*
X15381678Y-14941440D02*
X15362630Y-14931916D01*
X15362630Y-14931916D02*
X15353107Y-14922392D01*
X15353107Y-14922392D02*
X15343583Y-14903345D01*
X15343583Y-14903345D02*
X15343583Y-14846202D01*
X15343583Y-14846202D02*
X15353107Y-14827154D01*
X15353107Y-14827154D02*
X15362630Y-14817630D01*
X15362630Y-14817630D02*
X15381678Y-14808107D01*
X15381678Y-14808107D02*
X15410249Y-14808107D01*
X15410249Y-14808107D02*
X15429297Y-14817630D01*
X15429297Y-14817630D02*
X15438821Y-14827154D01*
X15438821Y-14827154D02*
X15448345Y-14846202D01*
X15448345Y-14846202D02*
X15448345Y-14903345D01*
X15448345Y-14903345D02*
X15438821Y-14922392D01*
X15438821Y-14922392D02*
X15429297Y-14931916D01*
X15429297Y-14931916D02*
X15410249Y-14941440D01*
X15410249Y-14941440D02*
X15381678Y-14941440D01*
X15562630Y-14941440D02*
X15543583Y-14931916D01*
X15543583Y-14931916D02*
X15534059Y-14912868D01*
X15534059Y-14912868D02*
X15534059Y-14741440D01*
X15715011Y-14931916D02*
X15695964Y-14941440D01*
X15695964Y-14941440D02*
X15657868Y-14941440D01*
X15657868Y-14941440D02*
X15638821Y-14931916D01*
X15638821Y-14931916D02*
X15629297Y-14912868D01*
X15629297Y-14912868D02*
X15629297Y-14836678D01*
X15629297Y-14836678D02*
X15638821Y-14817630D01*
X15638821Y-14817630D02*
X15657868Y-14808107D01*
X15657868Y-14808107D02*
X15695964Y-14808107D01*
X15695964Y-14808107D02*
X15715011Y-14817630D01*
X15715011Y-14817630D02*
X15724535Y-14836678D01*
X15724535Y-14836678D02*
X15724535Y-14855726D01*
X15724535Y-14855726D02*
X15629297Y-14874773D01*
X15800726Y-14931916D02*
X15819773Y-14941440D01*
X15819773Y-14941440D02*
X15857868Y-14941440D01*
X15857868Y-14941440D02*
X15876916Y-14931916D01*
X15876916Y-14931916D02*
X15886440Y-14912868D01*
X15886440Y-14912868D02*
X15886440Y-14903345D01*
X15886440Y-14903345D02*
X15876916Y-14884297D01*
X15876916Y-14884297D02*
X15857868Y-14874773D01*
X15857868Y-14874773D02*
X15829297Y-14874773D01*
X15829297Y-14874773D02*
X15810249Y-14865249D01*
X15810249Y-14865249D02*
X15800726Y-14846202D01*
X15800726Y-14846202D02*
X15800726Y-14836678D01*
X15800726Y-14836678D02*
X15810249Y-14817630D01*
X15810249Y-14817630D02*
X15829297Y-14808107D01*
X15829297Y-14808107D02*
X15857868Y-14808107D01*
X15857868Y-14808107D02*
X15876916Y-14817630D01*
X15953107Y-15017630D02*
X15962630Y-15008107D01*
X15962630Y-15008107D02*
X15981678Y-14979535D01*
X15981678Y-14979535D02*
X15991202Y-14960488D01*
X15991202Y-14960488D02*
X16000726Y-14931916D01*
X16000726Y-14931916D02*
X16010249Y-14884297D01*
X16010249Y-14884297D02*
X16010249Y-14846202D01*
X16010249Y-14846202D02*
X16000726Y-14798583D01*
X16000726Y-14798583D02*
X15991202Y-14770011D01*
X15991202Y-14770011D02*
X15981678Y-14750964D01*
X15981678Y-14750964D02*
X15962630Y-14722392D01*
X15962630Y-14722392D02*
X15953107Y-14712868D01*
X11148755Y-15240668D02*
X11148755Y-15099245D01*
X11007332Y-15099245D01*
X11007332Y-15240668D01*
X11148755Y-15240668D01*
X11419773Y-15061440D02*
X11543582Y-15061440D01*
X11543582Y-15061440D02*
X11476916Y-15137630D01*
X11476916Y-15137630D02*
X11505487Y-15137630D01*
X11505487Y-15137630D02*
X11524535Y-15147154D01*
X11524535Y-15147154D02*
X11534059Y-15156678D01*
X11534059Y-15156678D02*
X11543582Y-15175726D01*
X11543582Y-15175726D02*
X11543582Y-15223345D01*
X11543582Y-15223345D02*
X11534059Y-15242392D01*
X11534059Y-15242392D02*
X11524535Y-15251916D01*
X11524535Y-15251916D02*
X11505487Y-15261440D01*
X11505487Y-15261440D02*
X11448344Y-15261440D01*
X11448344Y-15261440D02*
X11429297Y-15251916D01*
X11429297Y-15251916D02*
X11419773Y-15242392D01*
X11629297Y-15242392D02*
X11638820Y-15251916D01*
X11638820Y-15251916D02*
X11629297Y-15261440D01*
X11629297Y-15261440D02*
X11619773Y-15251916D01*
X11619773Y-15251916D02*
X11629297Y-15242392D01*
X11629297Y-15242392D02*
X11629297Y-15261440D01*
X11762630Y-15061440D02*
X11781678Y-15061440D01*
X11781678Y-15061440D02*
X11800725Y-15070964D01*
X11800725Y-15070964D02*
X11810249Y-15080488D01*
X11810249Y-15080488D02*
X11819773Y-15099535D01*
X11819773Y-15099535D02*
X11829297Y-15137630D01*
X11829297Y-15137630D02*
X11829297Y-15185249D01*
X11829297Y-15185249D02*
X11819773Y-15223345D01*
X11819773Y-15223345D02*
X11810249Y-15242392D01*
X11810249Y-15242392D02*
X11800725Y-15251916D01*
X11800725Y-15251916D02*
X11781678Y-15261440D01*
X11781678Y-15261440D02*
X11762630Y-15261440D01*
X11762630Y-15261440D02*
X11743582Y-15251916D01*
X11743582Y-15251916D02*
X11734059Y-15242392D01*
X11734059Y-15242392D02*
X11724535Y-15223345D01*
X11724535Y-15223345D02*
X11715011Y-15185249D01*
X11715011Y-15185249D02*
X11715011Y-15137630D01*
X11715011Y-15137630D02*
X11724535Y-15099535D01*
X11724535Y-15099535D02*
X11734059Y-15080488D01*
X11734059Y-15080488D02*
X11743582Y-15070964D01*
X11743582Y-15070964D02*
X11762630Y-15061440D01*
X11953106Y-15061440D02*
X11972154Y-15061440D01*
X11972154Y-15061440D02*
X11991201Y-15070964D01*
X11991201Y-15070964D02*
X12000725Y-15080488D01*
X12000725Y-15080488D02*
X12010249Y-15099535D01*
X12010249Y-15099535D02*
X12019773Y-15137630D01*
X12019773Y-15137630D02*
X12019773Y-15185249D01*
X12019773Y-15185249D02*
X12010249Y-15223345D01*
X12010249Y-15223345D02*
X12000725Y-15242392D01*
X12000725Y-15242392D02*
X11991201Y-15251916D01*
X11991201Y-15251916D02*
X11972154Y-15261440D01*
X11972154Y-15261440D02*
X11953106Y-15261440D01*
X11953106Y-15261440D02*
X11934059Y-15251916D01*
X11934059Y-15251916D02*
X11924535Y-15242392D01*
X11924535Y-15242392D02*
X11915011Y-15223345D01*
X11915011Y-15223345D02*
X11905487Y-15185249D01*
X11905487Y-15185249D02*
X11905487Y-15137630D01*
X11905487Y-15137630D02*
X11915011Y-15099535D01*
X11915011Y-15099535D02*
X11924535Y-15080488D01*
X11924535Y-15080488D02*
X11934059Y-15070964D01*
X11934059Y-15070964D02*
X11953106Y-15061440D01*
X12143582Y-15061440D02*
X12162630Y-15061440D01*
X12162630Y-15061440D02*
X12181678Y-15070964D01*
X12181678Y-15070964D02*
X12191201Y-15080488D01*
X12191201Y-15080488D02*
X12200725Y-15099535D01*
X12200725Y-15099535D02*
X12210249Y-15137630D01*
X12210249Y-15137630D02*
X12210249Y-15185249D01*
X12210249Y-15185249D02*
X12200725Y-15223345D01*
X12200725Y-15223345D02*
X12191201Y-15242392D01*
X12191201Y-15242392D02*
X12181678Y-15251916D01*
X12181678Y-15251916D02*
X12162630Y-15261440D01*
X12162630Y-15261440D02*
X12143582Y-15261440D01*
X12143582Y-15261440D02*
X12124535Y-15251916D01*
X12124535Y-15251916D02*
X12115011Y-15242392D01*
X12115011Y-15242392D02*
X12105487Y-15223345D01*
X12105487Y-15223345D02*
X12095963Y-15185249D01*
X12095963Y-15185249D02*
X12095963Y-15137630D01*
X12095963Y-15137630D02*
X12105487Y-15099535D01*
X12105487Y-15099535D02*
X12115011Y-15080488D01*
X12115011Y-15080488D02*
X12124535Y-15070964D01*
X12124535Y-15070964D02*
X12143582Y-15061440D01*
X12295963Y-15261440D02*
X12295963Y-15128107D01*
X12295963Y-15147154D02*
X12305487Y-15137630D01*
X12305487Y-15137630D02*
X12324535Y-15128107D01*
X12324535Y-15128107D02*
X12353106Y-15128107D01*
X12353106Y-15128107D02*
X12372154Y-15137630D01*
X12372154Y-15137630D02*
X12381678Y-15156678D01*
X12381678Y-15156678D02*
X12381678Y-15261440D01*
X12381678Y-15156678D02*
X12391201Y-15137630D01*
X12391201Y-15137630D02*
X12410249Y-15128107D01*
X12410249Y-15128107D02*
X12438820Y-15128107D01*
X12438820Y-15128107D02*
X12457868Y-15137630D01*
X12457868Y-15137630D02*
X12467392Y-15156678D01*
X12467392Y-15156678D02*
X12467392Y-15261440D01*
X12562630Y-15261440D02*
X12562630Y-15128107D01*
X12562630Y-15147154D02*
X12572154Y-15137630D01*
X12572154Y-15137630D02*
X12591201Y-15128107D01*
X12591201Y-15128107D02*
X12619773Y-15128107D01*
X12619773Y-15128107D02*
X12638821Y-15137630D01*
X12638821Y-15137630D02*
X12648344Y-15156678D01*
X12648344Y-15156678D02*
X12648344Y-15261440D01*
X12648344Y-15156678D02*
X12657868Y-15137630D01*
X12657868Y-15137630D02*
X12676916Y-15128107D01*
X12676916Y-15128107D02*
X12705487Y-15128107D01*
X12705487Y-15128107D02*
X12724535Y-15137630D01*
X12724535Y-15137630D02*
X12734059Y-15156678D01*
X12734059Y-15156678D02*
X12734059Y-15261440D01*
X13124535Y-15051916D02*
X12953106Y-15309059D01*
X13381678Y-15061440D02*
X13400725Y-15061440D01*
X13400725Y-15061440D02*
X13419773Y-15070964D01*
X13419773Y-15070964D02*
X13429297Y-15080488D01*
X13429297Y-15080488D02*
X13438821Y-15099535D01*
X13438821Y-15099535D02*
X13448344Y-15137630D01*
X13448344Y-15137630D02*
X13448344Y-15185249D01*
X13448344Y-15185249D02*
X13438821Y-15223345D01*
X13438821Y-15223345D02*
X13429297Y-15242392D01*
X13429297Y-15242392D02*
X13419773Y-15251916D01*
X13419773Y-15251916D02*
X13400725Y-15261440D01*
X13400725Y-15261440D02*
X13381678Y-15261440D01*
X13381678Y-15261440D02*
X13362630Y-15251916D01*
X13362630Y-15251916D02*
X13353106Y-15242392D01*
X13353106Y-15242392D02*
X13343583Y-15223345D01*
X13343583Y-15223345D02*
X13334059Y-15185249D01*
X13334059Y-15185249D02*
X13334059Y-15137630D01*
X13334059Y-15137630D02*
X13343583Y-15099535D01*
X13343583Y-15099535D02*
X13353106Y-15080488D01*
X13353106Y-15080488D02*
X13362630Y-15070964D01*
X13362630Y-15070964D02*
X13381678Y-15061440D01*
X13534059Y-15242392D02*
X13543583Y-15251916D01*
X13543583Y-15251916D02*
X13534059Y-15261440D01*
X13534059Y-15261440D02*
X13524535Y-15251916D01*
X13524535Y-15251916D02*
X13534059Y-15242392D01*
X13534059Y-15242392D02*
X13534059Y-15261440D01*
X13734059Y-15261440D02*
X13619773Y-15261440D01*
X13676916Y-15261440D02*
X13676916Y-15061440D01*
X13676916Y-15061440D02*
X13657868Y-15090011D01*
X13657868Y-15090011D02*
X13638821Y-15109059D01*
X13638821Y-15109059D02*
X13619773Y-15118583D01*
X13924535Y-15261440D02*
X13810249Y-15261440D01*
X13867392Y-15261440D02*
X13867392Y-15061440D01*
X13867392Y-15061440D02*
X13848344Y-15090011D01*
X13848344Y-15090011D02*
X13829297Y-15109059D01*
X13829297Y-15109059D02*
X13810249Y-15118583D01*
X14038821Y-15147154D02*
X14019773Y-15137630D01*
X14019773Y-15137630D02*
X14010249Y-15128107D01*
X14010249Y-15128107D02*
X14000725Y-15109059D01*
X14000725Y-15109059D02*
X14000725Y-15099535D01*
X14000725Y-15099535D02*
X14010249Y-15080488D01*
X14010249Y-15080488D02*
X14019773Y-15070964D01*
X14019773Y-15070964D02*
X14038821Y-15061440D01*
X14038821Y-15061440D02*
X14076916Y-15061440D01*
X14076916Y-15061440D02*
X14095964Y-15070964D01*
X14095964Y-15070964D02*
X14105487Y-15080488D01*
X14105487Y-15080488D02*
X14115011Y-15099535D01*
X14115011Y-15099535D02*
X14115011Y-15109059D01*
X14115011Y-15109059D02*
X14105487Y-15128107D01*
X14105487Y-15128107D02*
X14095964Y-15137630D01*
X14095964Y-15137630D02*
X14076916Y-15147154D01*
X14076916Y-15147154D02*
X14038821Y-15147154D01*
X14038821Y-15147154D02*
X14019773Y-15156678D01*
X14019773Y-15156678D02*
X14010249Y-15166202D01*
X14010249Y-15166202D02*
X14000725Y-15185249D01*
X14000725Y-15185249D02*
X14000725Y-15223345D01*
X14000725Y-15223345D02*
X14010249Y-15242392D01*
X14010249Y-15242392D02*
X14019773Y-15251916D01*
X14019773Y-15251916D02*
X14038821Y-15261440D01*
X14038821Y-15261440D02*
X14076916Y-15261440D01*
X14076916Y-15261440D02*
X14095964Y-15251916D01*
X14095964Y-15251916D02*
X14105487Y-15242392D01*
X14105487Y-15242392D02*
X14115011Y-15223345D01*
X14115011Y-15223345D02*
X14115011Y-15185249D01*
X14115011Y-15185249D02*
X14105487Y-15166202D01*
X14105487Y-15166202D02*
X14095964Y-15156678D01*
X14095964Y-15156678D02*
X14076916Y-15147154D01*
X14305487Y-15261440D02*
X14191202Y-15261440D01*
X14248344Y-15261440D02*
X14248344Y-15061440D01*
X14248344Y-15061440D02*
X14229297Y-15090011D01*
X14229297Y-15090011D02*
X14210249Y-15109059D01*
X14210249Y-15109059D02*
X14191202Y-15118583D01*
X14381678Y-15061440D02*
X14381678Y-15099535D01*
X14457868Y-15061440D02*
X14457868Y-15099535D01*
X14753107Y-15337630D02*
X14743583Y-15328107D01*
X14743583Y-15328107D02*
X14724535Y-15299535D01*
X14724535Y-15299535D02*
X14715011Y-15280488D01*
X14715011Y-15280488D02*
X14705487Y-15251916D01*
X14705487Y-15251916D02*
X14695964Y-15204297D01*
X14695964Y-15204297D02*
X14695964Y-15166202D01*
X14695964Y-15166202D02*
X14705487Y-15118583D01*
X14705487Y-15118583D02*
X14715011Y-15090011D01*
X14715011Y-15090011D02*
X14724535Y-15070964D01*
X14724535Y-15070964D02*
X14743583Y-15042392D01*
X14743583Y-15042392D02*
X14753107Y-15032868D01*
X14915011Y-15128107D02*
X14915011Y-15261440D01*
X14867392Y-15051916D02*
X14819773Y-15194773D01*
X14819773Y-15194773D02*
X14943583Y-15194773D01*
X15172154Y-15261440D02*
X15172154Y-15061440D01*
X15257868Y-15261440D02*
X15257868Y-15156678D01*
X15257868Y-15156678D02*
X15248345Y-15137630D01*
X15248345Y-15137630D02*
X15229297Y-15128107D01*
X15229297Y-15128107D02*
X15200726Y-15128107D01*
X15200726Y-15128107D02*
X15181678Y-15137630D01*
X15181678Y-15137630D02*
X15172154Y-15147154D01*
X15381678Y-15261440D02*
X15362630Y-15251916D01*
X15362630Y-15251916D02*
X15353107Y-15242392D01*
X15353107Y-15242392D02*
X15343583Y-15223345D01*
X15343583Y-15223345D02*
X15343583Y-15166202D01*
X15343583Y-15166202D02*
X15353107Y-15147154D01*
X15353107Y-15147154D02*
X15362630Y-15137630D01*
X15362630Y-15137630D02*
X15381678Y-15128107D01*
X15381678Y-15128107D02*
X15410249Y-15128107D01*
X15410249Y-15128107D02*
X15429297Y-15137630D01*
X15429297Y-15137630D02*
X15438821Y-15147154D01*
X15438821Y-15147154D02*
X15448345Y-15166202D01*
X15448345Y-15166202D02*
X15448345Y-15223345D01*
X15448345Y-15223345D02*
X15438821Y-15242392D01*
X15438821Y-15242392D02*
X15429297Y-15251916D01*
X15429297Y-15251916D02*
X15410249Y-15261440D01*
X15410249Y-15261440D02*
X15381678Y-15261440D01*
X15562630Y-15261440D02*
X15543583Y-15251916D01*
X15543583Y-15251916D02*
X15534059Y-15232868D01*
X15534059Y-15232868D02*
X15534059Y-15061440D01*
X15715011Y-15251916D02*
X15695964Y-15261440D01*
X15695964Y-15261440D02*
X15657868Y-15261440D01*
X15657868Y-15261440D02*
X15638821Y-15251916D01*
X15638821Y-15251916D02*
X15629297Y-15232868D01*
X15629297Y-15232868D02*
X15629297Y-15156678D01*
X15629297Y-15156678D02*
X15638821Y-15137630D01*
X15638821Y-15137630D02*
X15657868Y-15128107D01*
X15657868Y-15128107D02*
X15695964Y-15128107D01*
X15695964Y-15128107D02*
X15715011Y-15137630D01*
X15715011Y-15137630D02*
X15724535Y-15156678D01*
X15724535Y-15156678D02*
X15724535Y-15175726D01*
X15724535Y-15175726D02*
X15629297Y-15194773D01*
X15800726Y-15251916D02*
X15819773Y-15261440D01*
X15819773Y-15261440D02*
X15857868Y-15261440D01*
X15857868Y-15261440D02*
X15876916Y-15251916D01*
X15876916Y-15251916D02*
X15886440Y-15232868D01*
X15886440Y-15232868D02*
X15886440Y-15223345D01*
X15886440Y-15223345D02*
X15876916Y-15204297D01*
X15876916Y-15204297D02*
X15857868Y-15194773D01*
X15857868Y-15194773D02*
X15829297Y-15194773D01*
X15829297Y-15194773D02*
X15810249Y-15185249D01*
X15810249Y-15185249D02*
X15800726Y-15166202D01*
X15800726Y-15166202D02*
X15800726Y-15156678D01*
X15800726Y-15156678D02*
X15810249Y-15137630D01*
X15810249Y-15137630D02*
X15829297Y-15128107D01*
X15829297Y-15128107D02*
X15857868Y-15128107D01*
X15857868Y-15128107D02*
X15876916Y-15137630D01*
X15953107Y-15337630D02*
X15962630Y-15328107D01*
X15962630Y-15328107D02*
X15981678Y-15299535D01*
X15981678Y-15299535D02*
X15991202Y-15280488D01*
X15991202Y-15280488D02*
X16000726Y-15251916D01*
X16000726Y-15251916D02*
X16010249Y-15204297D01*
X16010249Y-15204297D02*
X16010249Y-15166202D01*
X16010249Y-15166202D02*
X16000726Y-15118583D01*
X16000726Y-15118583D02*
X15991202Y-15090011D01*
X15991202Y-15090011D02*
X15981678Y-15070964D01*
X15981678Y-15070964D02*
X15962630Y-15042392D01*
X15962630Y-15042392D02*
X15953107Y-15032868D01*
M02*
