%TF.GenerationSoftware,KiCad,Pcbnew,9.0.0*%
%TF.CreationDate,2025-04-09T17:39:04-07:00*%
%TF.ProjectId,Load Cell Amp Board,4c6f6164-2043-4656-9c6c-20416d702042,rev?*%
%TF.SameCoordinates,Original*%
%TF.FileFunction,Drillmap*%
%TF.FilePolarity,Positive*%
%FSLAX45Y45*%
G04 Gerber Fmt 4.5, Leading zero omitted, Abs format (unit mm)*
G04 Created by KiCad (PCBNEW 9.0.0) date 2025-04-09 17:39:04*
%MOMM*%
%LPD*%
G01*
G04 APERTURE LIST*
%ADD10C,0.050000*%
%ADD11C,0.200000*%
%ADD12C,0.102000*%
G04 APERTURE END LIST*
D10*
X11180544Y-7579456D02*
X19880544Y-7579456D01*
X19880544Y-13679456D01*
X11180544Y-13679456D01*
X11180544Y-7579456D01*
D11*
D12*
X11504544Y-12720544D02*
X11606544Y-12822544D01*
X11606544Y-12720544D02*
X11504544Y-12822544D01*
X12404544Y-12720544D02*
X12506544Y-12822544D01*
X12506544Y-12720544D02*
X12404544Y-12822544D01*
X13854544Y-12720544D02*
X13956544Y-12822544D01*
X13956544Y-12720544D02*
X13854544Y-12822544D01*
X14754544Y-12720544D02*
X14856544Y-12822544D01*
X14856544Y-12720544D02*
X14754544Y-12822544D01*
X16204544Y-12720544D02*
X16306544Y-12822544D01*
X16306544Y-12720544D02*
X16204544Y-12822544D01*
X17104544Y-12720544D02*
X17206544Y-12822544D01*
X17206544Y-12720544D02*
X17104544Y-12822544D01*
X18554544Y-12720544D02*
X18656544Y-12822544D01*
X18656544Y-12720544D02*
X18554544Y-12822544D01*
X19454544Y-12720544D02*
X19556544Y-12822544D01*
X19556544Y-12720544D02*
X19454544Y-12822544D01*
D11*
X11438820Y-13993440D02*
X11438820Y-13793440D01*
X11438820Y-13793440D02*
X11486439Y-13793440D01*
X11486439Y-13793440D02*
X11515011Y-13802964D01*
X11515011Y-13802964D02*
X11534059Y-13822011D01*
X11534059Y-13822011D02*
X11543582Y-13841059D01*
X11543582Y-13841059D02*
X11553106Y-13879154D01*
X11553106Y-13879154D02*
X11553106Y-13907726D01*
X11553106Y-13907726D02*
X11543582Y-13945821D01*
X11543582Y-13945821D02*
X11534059Y-13964868D01*
X11534059Y-13964868D02*
X11515011Y-13983916D01*
X11515011Y-13983916D02*
X11486439Y-13993440D01*
X11486439Y-13993440D02*
X11438820Y-13993440D01*
X11638820Y-13993440D02*
X11638820Y-13860107D01*
X11638820Y-13898202D02*
X11648344Y-13879154D01*
X11648344Y-13879154D02*
X11657868Y-13869630D01*
X11657868Y-13869630D02*
X11676916Y-13860107D01*
X11676916Y-13860107D02*
X11695963Y-13860107D01*
X11762630Y-13993440D02*
X11762630Y-13860107D01*
X11762630Y-13793440D02*
X11753106Y-13802964D01*
X11753106Y-13802964D02*
X11762630Y-13812488D01*
X11762630Y-13812488D02*
X11772154Y-13802964D01*
X11772154Y-13802964D02*
X11762630Y-13793440D01*
X11762630Y-13793440D02*
X11762630Y-13812488D01*
X11886439Y-13993440D02*
X11867392Y-13983916D01*
X11867392Y-13983916D02*
X11857868Y-13964868D01*
X11857868Y-13964868D02*
X11857868Y-13793440D01*
X11991201Y-13993440D02*
X11972154Y-13983916D01*
X11972154Y-13983916D02*
X11962630Y-13964868D01*
X11962630Y-13964868D02*
X11962630Y-13793440D01*
X12219773Y-13993440D02*
X12219773Y-13793440D01*
X12219773Y-13793440D02*
X12286440Y-13936297D01*
X12286440Y-13936297D02*
X12353106Y-13793440D01*
X12353106Y-13793440D02*
X12353106Y-13993440D01*
X12534059Y-13993440D02*
X12534059Y-13888678D01*
X12534059Y-13888678D02*
X12524535Y-13869630D01*
X12524535Y-13869630D02*
X12505487Y-13860107D01*
X12505487Y-13860107D02*
X12467392Y-13860107D01*
X12467392Y-13860107D02*
X12448344Y-13869630D01*
X12534059Y-13983916D02*
X12515011Y-13993440D01*
X12515011Y-13993440D02*
X12467392Y-13993440D01*
X12467392Y-13993440D02*
X12448344Y-13983916D01*
X12448344Y-13983916D02*
X12438820Y-13964868D01*
X12438820Y-13964868D02*
X12438820Y-13945821D01*
X12438820Y-13945821D02*
X12448344Y-13926773D01*
X12448344Y-13926773D02*
X12467392Y-13917249D01*
X12467392Y-13917249D02*
X12515011Y-13917249D01*
X12515011Y-13917249D02*
X12534059Y-13907726D01*
X12629297Y-13860107D02*
X12629297Y-14060107D01*
X12629297Y-13869630D02*
X12648344Y-13860107D01*
X12648344Y-13860107D02*
X12686440Y-13860107D01*
X12686440Y-13860107D02*
X12705487Y-13869630D01*
X12705487Y-13869630D02*
X12715011Y-13879154D01*
X12715011Y-13879154D02*
X12724535Y-13898202D01*
X12724535Y-13898202D02*
X12724535Y-13955345D01*
X12724535Y-13955345D02*
X12715011Y-13974392D01*
X12715011Y-13974392D02*
X12705487Y-13983916D01*
X12705487Y-13983916D02*
X12686440Y-13993440D01*
X12686440Y-13993440D02*
X12648344Y-13993440D01*
X12648344Y-13993440D02*
X12629297Y-13983916D01*
X12810249Y-13974392D02*
X12819773Y-13983916D01*
X12819773Y-13983916D02*
X12810249Y-13993440D01*
X12810249Y-13993440D02*
X12800725Y-13983916D01*
X12800725Y-13983916D02*
X12810249Y-13974392D01*
X12810249Y-13974392D02*
X12810249Y-13993440D01*
X12810249Y-13869630D02*
X12819773Y-13879154D01*
X12819773Y-13879154D02*
X12810249Y-13888678D01*
X12810249Y-13888678D02*
X12800725Y-13879154D01*
X12800725Y-13879154D02*
X12810249Y-13869630D01*
X12810249Y-13869630D02*
X12810249Y-13888678D01*
D12*
X11076044Y-14270956D02*
X11178044Y-14372956D01*
X11178044Y-14270956D02*
X11076044Y-14372956D01*
D11*
X11543582Y-14413440D02*
X11429297Y-14413440D01*
X11486439Y-14413440D02*
X11486439Y-14213440D01*
X11486439Y-14213440D02*
X11467392Y-14242011D01*
X11467392Y-14242011D02*
X11448344Y-14261059D01*
X11448344Y-14261059D02*
X11429297Y-14270583D01*
X11629297Y-14394392D02*
X11638820Y-14403916D01*
X11638820Y-14403916D02*
X11629297Y-14413440D01*
X11629297Y-14413440D02*
X11619773Y-14403916D01*
X11619773Y-14403916D02*
X11629297Y-14394392D01*
X11629297Y-14394392D02*
X11629297Y-14413440D01*
X11762630Y-14213440D02*
X11781678Y-14213440D01*
X11781678Y-14213440D02*
X11800725Y-14222964D01*
X11800725Y-14222964D02*
X11810249Y-14232488D01*
X11810249Y-14232488D02*
X11819773Y-14251535D01*
X11819773Y-14251535D02*
X11829297Y-14289630D01*
X11829297Y-14289630D02*
X11829297Y-14337249D01*
X11829297Y-14337249D02*
X11819773Y-14375345D01*
X11819773Y-14375345D02*
X11810249Y-14394392D01*
X11810249Y-14394392D02*
X11800725Y-14403916D01*
X11800725Y-14403916D02*
X11781678Y-14413440D01*
X11781678Y-14413440D02*
X11762630Y-14413440D01*
X11762630Y-14413440D02*
X11743582Y-14403916D01*
X11743582Y-14403916D02*
X11734059Y-14394392D01*
X11734059Y-14394392D02*
X11724535Y-14375345D01*
X11724535Y-14375345D02*
X11715011Y-14337249D01*
X11715011Y-14337249D02*
X11715011Y-14289630D01*
X11715011Y-14289630D02*
X11724535Y-14251535D01*
X11724535Y-14251535D02*
X11734059Y-14232488D01*
X11734059Y-14232488D02*
X11743582Y-14222964D01*
X11743582Y-14222964D02*
X11762630Y-14213440D01*
X11905487Y-14232488D02*
X11915011Y-14222964D01*
X11915011Y-14222964D02*
X11934059Y-14213440D01*
X11934059Y-14213440D02*
X11981678Y-14213440D01*
X11981678Y-14213440D02*
X12000725Y-14222964D01*
X12000725Y-14222964D02*
X12010249Y-14232488D01*
X12010249Y-14232488D02*
X12019773Y-14251535D01*
X12019773Y-14251535D02*
X12019773Y-14270583D01*
X12019773Y-14270583D02*
X12010249Y-14299154D01*
X12010249Y-14299154D02*
X11895963Y-14413440D01*
X11895963Y-14413440D02*
X12019773Y-14413440D01*
X12143582Y-14213440D02*
X12162630Y-14213440D01*
X12162630Y-14213440D02*
X12181678Y-14222964D01*
X12181678Y-14222964D02*
X12191201Y-14232488D01*
X12191201Y-14232488D02*
X12200725Y-14251535D01*
X12200725Y-14251535D02*
X12210249Y-14289630D01*
X12210249Y-14289630D02*
X12210249Y-14337249D01*
X12210249Y-14337249D02*
X12200725Y-14375345D01*
X12200725Y-14375345D02*
X12191201Y-14394392D01*
X12191201Y-14394392D02*
X12181678Y-14403916D01*
X12181678Y-14403916D02*
X12162630Y-14413440D01*
X12162630Y-14413440D02*
X12143582Y-14413440D01*
X12143582Y-14413440D02*
X12124535Y-14403916D01*
X12124535Y-14403916D02*
X12115011Y-14394392D01*
X12115011Y-14394392D02*
X12105487Y-14375345D01*
X12105487Y-14375345D02*
X12095963Y-14337249D01*
X12095963Y-14337249D02*
X12095963Y-14289630D01*
X12095963Y-14289630D02*
X12105487Y-14251535D01*
X12105487Y-14251535D02*
X12115011Y-14232488D01*
X12115011Y-14232488D02*
X12124535Y-14222964D01*
X12124535Y-14222964D02*
X12143582Y-14213440D01*
X12295963Y-14413440D02*
X12295963Y-14280107D01*
X12295963Y-14299154D02*
X12305487Y-14289630D01*
X12305487Y-14289630D02*
X12324535Y-14280107D01*
X12324535Y-14280107D02*
X12353106Y-14280107D01*
X12353106Y-14280107D02*
X12372154Y-14289630D01*
X12372154Y-14289630D02*
X12381678Y-14308678D01*
X12381678Y-14308678D02*
X12381678Y-14413440D01*
X12381678Y-14308678D02*
X12391201Y-14289630D01*
X12391201Y-14289630D02*
X12410249Y-14280107D01*
X12410249Y-14280107D02*
X12438820Y-14280107D01*
X12438820Y-14280107D02*
X12457868Y-14289630D01*
X12457868Y-14289630D02*
X12467392Y-14308678D01*
X12467392Y-14308678D02*
X12467392Y-14413440D01*
X12562630Y-14413440D02*
X12562630Y-14280107D01*
X12562630Y-14299154D02*
X12572154Y-14289630D01*
X12572154Y-14289630D02*
X12591201Y-14280107D01*
X12591201Y-14280107D02*
X12619773Y-14280107D01*
X12619773Y-14280107D02*
X12638821Y-14289630D01*
X12638821Y-14289630D02*
X12648344Y-14308678D01*
X12648344Y-14308678D02*
X12648344Y-14413440D01*
X12648344Y-14308678D02*
X12657868Y-14289630D01*
X12657868Y-14289630D02*
X12676916Y-14280107D01*
X12676916Y-14280107D02*
X12705487Y-14280107D01*
X12705487Y-14280107D02*
X12724535Y-14289630D01*
X12724535Y-14289630D02*
X12734059Y-14308678D01*
X12734059Y-14308678D02*
X12734059Y-14413440D01*
X13124535Y-14203916D02*
X12953106Y-14461059D01*
X13381678Y-14213440D02*
X13400725Y-14213440D01*
X13400725Y-14213440D02*
X13419773Y-14222964D01*
X13419773Y-14222964D02*
X13429297Y-14232488D01*
X13429297Y-14232488D02*
X13438821Y-14251535D01*
X13438821Y-14251535D02*
X13448344Y-14289630D01*
X13448344Y-14289630D02*
X13448344Y-14337249D01*
X13448344Y-14337249D02*
X13438821Y-14375345D01*
X13438821Y-14375345D02*
X13429297Y-14394392D01*
X13429297Y-14394392D02*
X13419773Y-14403916D01*
X13419773Y-14403916D02*
X13400725Y-14413440D01*
X13400725Y-14413440D02*
X13381678Y-14413440D01*
X13381678Y-14413440D02*
X13362630Y-14403916D01*
X13362630Y-14403916D02*
X13353106Y-14394392D01*
X13353106Y-14394392D02*
X13343583Y-14375345D01*
X13343583Y-14375345D02*
X13334059Y-14337249D01*
X13334059Y-14337249D02*
X13334059Y-14289630D01*
X13334059Y-14289630D02*
X13343583Y-14251535D01*
X13343583Y-14251535D02*
X13353106Y-14232488D01*
X13353106Y-14232488D02*
X13362630Y-14222964D01*
X13362630Y-14222964D02*
X13381678Y-14213440D01*
X13534059Y-14394392D02*
X13543583Y-14403916D01*
X13543583Y-14403916D02*
X13534059Y-14413440D01*
X13534059Y-14413440D02*
X13524535Y-14403916D01*
X13524535Y-14403916D02*
X13534059Y-14394392D01*
X13534059Y-14394392D02*
X13534059Y-14413440D01*
X13667392Y-14213440D02*
X13686440Y-14213440D01*
X13686440Y-14213440D02*
X13705487Y-14222964D01*
X13705487Y-14222964D02*
X13715011Y-14232488D01*
X13715011Y-14232488D02*
X13724535Y-14251535D01*
X13724535Y-14251535D02*
X13734059Y-14289630D01*
X13734059Y-14289630D02*
X13734059Y-14337249D01*
X13734059Y-14337249D02*
X13724535Y-14375345D01*
X13724535Y-14375345D02*
X13715011Y-14394392D01*
X13715011Y-14394392D02*
X13705487Y-14403916D01*
X13705487Y-14403916D02*
X13686440Y-14413440D01*
X13686440Y-14413440D02*
X13667392Y-14413440D01*
X13667392Y-14413440D02*
X13648344Y-14403916D01*
X13648344Y-14403916D02*
X13638821Y-14394392D01*
X13638821Y-14394392D02*
X13629297Y-14375345D01*
X13629297Y-14375345D02*
X13619773Y-14337249D01*
X13619773Y-14337249D02*
X13619773Y-14289630D01*
X13619773Y-14289630D02*
X13629297Y-14251535D01*
X13629297Y-14251535D02*
X13638821Y-14232488D01*
X13638821Y-14232488D02*
X13648344Y-14222964D01*
X13648344Y-14222964D02*
X13667392Y-14213440D01*
X13905487Y-14280107D02*
X13905487Y-14413440D01*
X13857868Y-14203916D02*
X13810249Y-14346773D01*
X13810249Y-14346773D02*
X13934059Y-14346773D01*
X14048344Y-14213440D02*
X14067392Y-14213440D01*
X14067392Y-14213440D02*
X14086440Y-14222964D01*
X14086440Y-14222964D02*
X14095964Y-14232488D01*
X14095964Y-14232488D02*
X14105487Y-14251535D01*
X14105487Y-14251535D02*
X14115011Y-14289630D01*
X14115011Y-14289630D02*
X14115011Y-14337249D01*
X14115011Y-14337249D02*
X14105487Y-14375345D01*
X14105487Y-14375345D02*
X14095964Y-14394392D01*
X14095964Y-14394392D02*
X14086440Y-14403916D01*
X14086440Y-14403916D02*
X14067392Y-14413440D01*
X14067392Y-14413440D02*
X14048344Y-14413440D01*
X14048344Y-14413440D02*
X14029297Y-14403916D01*
X14029297Y-14403916D02*
X14019773Y-14394392D01*
X14019773Y-14394392D02*
X14010249Y-14375345D01*
X14010249Y-14375345D02*
X14000725Y-14337249D01*
X14000725Y-14337249D02*
X14000725Y-14289630D01*
X14000725Y-14289630D02*
X14010249Y-14251535D01*
X14010249Y-14251535D02*
X14019773Y-14232488D01*
X14019773Y-14232488D02*
X14029297Y-14222964D01*
X14029297Y-14222964D02*
X14048344Y-14213440D01*
X14191202Y-14232488D02*
X14200725Y-14222964D01*
X14200725Y-14222964D02*
X14219773Y-14213440D01*
X14219773Y-14213440D02*
X14267392Y-14213440D01*
X14267392Y-14213440D02*
X14286440Y-14222964D01*
X14286440Y-14222964D02*
X14295964Y-14232488D01*
X14295964Y-14232488D02*
X14305487Y-14251535D01*
X14305487Y-14251535D02*
X14305487Y-14270583D01*
X14305487Y-14270583D02*
X14295964Y-14299154D01*
X14295964Y-14299154D02*
X14181678Y-14413440D01*
X14181678Y-14413440D02*
X14305487Y-14413440D01*
X14381678Y-14213440D02*
X14381678Y-14251535D01*
X14457868Y-14213440D02*
X14457868Y-14251535D01*
X14753107Y-14489630D02*
X14743583Y-14480107D01*
X14743583Y-14480107D02*
X14724535Y-14451535D01*
X14724535Y-14451535D02*
X14715011Y-14432488D01*
X14715011Y-14432488D02*
X14705487Y-14403916D01*
X14705487Y-14403916D02*
X14695964Y-14356297D01*
X14695964Y-14356297D02*
X14695964Y-14318202D01*
X14695964Y-14318202D02*
X14705487Y-14270583D01*
X14705487Y-14270583D02*
X14715011Y-14242011D01*
X14715011Y-14242011D02*
X14724535Y-14222964D01*
X14724535Y-14222964D02*
X14743583Y-14194392D01*
X14743583Y-14194392D02*
X14753107Y-14184868D01*
X14857868Y-14299154D02*
X14838821Y-14289630D01*
X14838821Y-14289630D02*
X14829297Y-14280107D01*
X14829297Y-14280107D02*
X14819773Y-14261059D01*
X14819773Y-14261059D02*
X14819773Y-14251535D01*
X14819773Y-14251535D02*
X14829297Y-14232488D01*
X14829297Y-14232488D02*
X14838821Y-14222964D01*
X14838821Y-14222964D02*
X14857868Y-14213440D01*
X14857868Y-14213440D02*
X14895964Y-14213440D01*
X14895964Y-14213440D02*
X14915011Y-14222964D01*
X14915011Y-14222964D02*
X14924535Y-14232488D01*
X14924535Y-14232488D02*
X14934059Y-14251535D01*
X14934059Y-14251535D02*
X14934059Y-14261059D01*
X14934059Y-14261059D02*
X14924535Y-14280107D01*
X14924535Y-14280107D02*
X14915011Y-14289630D01*
X14915011Y-14289630D02*
X14895964Y-14299154D01*
X14895964Y-14299154D02*
X14857868Y-14299154D01*
X14857868Y-14299154D02*
X14838821Y-14308678D01*
X14838821Y-14308678D02*
X14829297Y-14318202D01*
X14829297Y-14318202D02*
X14819773Y-14337249D01*
X14819773Y-14337249D02*
X14819773Y-14375345D01*
X14819773Y-14375345D02*
X14829297Y-14394392D01*
X14829297Y-14394392D02*
X14838821Y-14403916D01*
X14838821Y-14403916D02*
X14857868Y-14413440D01*
X14857868Y-14413440D02*
X14895964Y-14413440D01*
X14895964Y-14413440D02*
X14915011Y-14403916D01*
X14915011Y-14403916D02*
X14924535Y-14394392D01*
X14924535Y-14394392D02*
X14934059Y-14375345D01*
X14934059Y-14375345D02*
X14934059Y-14337249D01*
X14934059Y-14337249D02*
X14924535Y-14318202D01*
X14924535Y-14318202D02*
X14915011Y-14308678D01*
X14915011Y-14308678D02*
X14895964Y-14299154D01*
X15172154Y-14413440D02*
X15172154Y-14213440D01*
X15257868Y-14413440D02*
X15257868Y-14308678D01*
X15257868Y-14308678D02*
X15248345Y-14289630D01*
X15248345Y-14289630D02*
X15229297Y-14280107D01*
X15229297Y-14280107D02*
X15200726Y-14280107D01*
X15200726Y-14280107D02*
X15181678Y-14289630D01*
X15181678Y-14289630D02*
X15172154Y-14299154D01*
X15381678Y-14413440D02*
X15362630Y-14403916D01*
X15362630Y-14403916D02*
X15353107Y-14394392D01*
X15353107Y-14394392D02*
X15343583Y-14375345D01*
X15343583Y-14375345D02*
X15343583Y-14318202D01*
X15343583Y-14318202D02*
X15353107Y-14299154D01*
X15353107Y-14299154D02*
X15362630Y-14289630D01*
X15362630Y-14289630D02*
X15381678Y-14280107D01*
X15381678Y-14280107D02*
X15410249Y-14280107D01*
X15410249Y-14280107D02*
X15429297Y-14289630D01*
X15429297Y-14289630D02*
X15438821Y-14299154D01*
X15438821Y-14299154D02*
X15448345Y-14318202D01*
X15448345Y-14318202D02*
X15448345Y-14375345D01*
X15448345Y-14375345D02*
X15438821Y-14394392D01*
X15438821Y-14394392D02*
X15429297Y-14403916D01*
X15429297Y-14403916D02*
X15410249Y-14413440D01*
X15410249Y-14413440D02*
X15381678Y-14413440D01*
X15562630Y-14413440D02*
X15543583Y-14403916D01*
X15543583Y-14403916D02*
X15534059Y-14384868D01*
X15534059Y-14384868D02*
X15534059Y-14213440D01*
X15715011Y-14403916D02*
X15695964Y-14413440D01*
X15695964Y-14413440D02*
X15657868Y-14413440D01*
X15657868Y-14413440D02*
X15638821Y-14403916D01*
X15638821Y-14403916D02*
X15629297Y-14384868D01*
X15629297Y-14384868D02*
X15629297Y-14308678D01*
X15629297Y-14308678D02*
X15638821Y-14289630D01*
X15638821Y-14289630D02*
X15657868Y-14280107D01*
X15657868Y-14280107D02*
X15695964Y-14280107D01*
X15695964Y-14280107D02*
X15715011Y-14289630D01*
X15715011Y-14289630D02*
X15724535Y-14308678D01*
X15724535Y-14308678D02*
X15724535Y-14327726D01*
X15724535Y-14327726D02*
X15629297Y-14346773D01*
X15800726Y-14403916D02*
X15819773Y-14413440D01*
X15819773Y-14413440D02*
X15857868Y-14413440D01*
X15857868Y-14413440D02*
X15876916Y-14403916D01*
X15876916Y-14403916D02*
X15886440Y-14384868D01*
X15886440Y-14384868D02*
X15886440Y-14375345D01*
X15886440Y-14375345D02*
X15876916Y-14356297D01*
X15876916Y-14356297D02*
X15857868Y-14346773D01*
X15857868Y-14346773D02*
X15829297Y-14346773D01*
X15829297Y-14346773D02*
X15810249Y-14337249D01*
X15810249Y-14337249D02*
X15800726Y-14318202D01*
X15800726Y-14318202D02*
X15800726Y-14308678D01*
X15800726Y-14308678D02*
X15810249Y-14289630D01*
X15810249Y-14289630D02*
X15829297Y-14280107D01*
X15829297Y-14280107D02*
X15857868Y-14280107D01*
X15857868Y-14280107D02*
X15876916Y-14289630D01*
X15953107Y-14489630D02*
X15962630Y-14480107D01*
X15962630Y-14480107D02*
X15981678Y-14451535D01*
X15981678Y-14451535D02*
X15991202Y-14432488D01*
X15991202Y-14432488D02*
X16000726Y-14403916D01*
X16000726Y-14403916D02*
X16010249Y-14356297D01*
X16010249Y-14356297D02*
X16010249Y-14318202D01*
X16010249Y-14318202D02*
X16000726Y-14270583D01*
X16000726Y-14270583D02*
X15991202Y-14242011D01*
X15991202Y-14242011D02*
X15981678Y-14222964D01*
X15981678Y-14222964D02*
X15962630Y-14194392D01*
X15962630Y-14194392D02*
X15953107Y-14184868D01*
X16315011Y-14489630D02*
X16305488Y-14480107D01*
X16305488Y-14480107D02*
X16286440Y-14451535D01*
X16286440Y-14451535D02*
X16276916Y-14432488D01*
X16276916Y-14432488D02*
X16267392Y-14403916D01*
X16267392Y-14403916D02*
X16257869Y-14356297D01*
X16257869Y-14356297D02*
X16257869Y-14318202D01*
X16257869Y-14318202D02*
X16267392Y-14270583D01*
X16267392Y-14270583D02*
X16276916Y-14242011D01*
X16276916Y-14242011D02*
X16286440Y-14222964D01*
X16286440Y-14222964D02*
X16305488Y-14194392D01*
X16305488Y-14194392D02*
X16315011Y-14184868D01*
X16391202Y-14280107D02*
X16391202Y-14413440D01*
X16391202Y-14299154D02*
X16400726Y-14289630D01*
X16400726Y-14289630D02*
X16419773Y-14280107D01*
X16419773Y-14280107D02*
X16448345Y-14280107D01*
X16448345Y-14280107D02*
X16467392Y-14289630D01*
X16467392Y-14289630D02*
X16476916Y-14308678D01*
X16476916Y-14308678D02*
X16476916Y-14413440D01*
X16600726Y-14413440D02*
X16581678Y-14403916D01*
X16581678Y-14403916D02*
X16572154Y-14394392D01*
X16572154Y-14394392D02*
X16562630Y-14375345D01*
X16562630Y-14375345D02*
X16562630Y-14318202D01*
X16562630Y-14318202D02*
X16572154Y-14299154D01*
X16572154Y-14299154D02*
X16581678Y-14289630D01*
X16581678Y-14289630D02*
X16600726Y-14280107D01*
X16600726Y-14280107D02*
X16629297Y-14280107D01*
X16629297Y-14280107D02*
X16648345Y-14289630D01*
X16648345Y-14289630D02*
X16657869Y-14299154D01*
X16657869Y-14299154D02*
X16667392Y-14318202D01*
X16667392Y-14318202D02*
X16667392Y-14375345D01*
X16667392Y-14375345D02*
X16657869Y-14394392D01*
X16657869Y-14394392D02*
X16648345Y-14403916D01*
X16648345Y-14403916D02*
X16629297Y-14413440D01*
X16629297Y-14413440D02*
X16600726Y-14413440D01*
X16724535Y-14280107D02*
X16800726Y-14280107D01*
X16753107Y-14213440D02*
X16753107Y-14384868D01*
X16753107Y-14384868D02*
X16762630Y-14403916D01*
X16762630Y-14403916D02*
X16781678Y-14413440D01*
X16781678Y-14413440D02*
X16800726Y-14413440D01*
X17019773Y-14280107D02*
X17019773Y-14480107D01*
X17019773Y-14289630D02*
X17038821Y-14280107D01*
X17038821Y-14280107D02*
X17076916Y-14280107D01*
X17076916Y-14280107D02*
X17095964Y-14289630D01*
X17095964Y-14289630D02*
X17105488Y-14299154D01*
X17105488Y-14299154D02*
X17115012Y-14318202D01*
X17115012Y-14318202D02*
X17115012Y-14375345D01*
X17115012Y-14375345D02*
X17105488Y-14394392D01*
X17105488Y-14394392D02*
X17095964Y-14403916D01*
X17095964Y-14403916D02*
X17076916Y-14413440D01*
X17076916Y-14413440D02*
X17038821Y-14413440D01*
X17038821Y-14413440D02*
X17019773Y-14403916D01*
X17229297Y-14413440D02*
X17210250Y-14403916D01*
X17210250Y-14403916D02*
X17200726Y-14384868D01*
X17200726Y-14384868D02*
X17200726Y-14213440D01*
X17391202Y-14413440D02*
X17391202Y-14308678D01*
X17391202Y-14308678D02*
X17381678Y-14289630D01*
X17381678Y-14289630D02*
X17362631Y-14280107D01*
X17362631Y-14280107D02*
X17324535Y-14280107D01*
X17324535Y-14280107D02*
X17305488Y-14289630D01*
X17391202Y-14403916D02*
X17372154Y-14413440D01*
X17372154Y-14413440D02*
X17324535Y-14413440D01*
X17324535Y-14413440D02*
X17305488Y-14403916D01*
X17305488Y-14403916D02*
X17295964Y-14384868D01*
X17295964Y-14384868D02*
X17295964Y-14365821D01*
X17295964Y-14365821D02*
X17305488Y-14346773D01*
X17305488Y-14346773D02*
X17324535Y-14337249D01*
X17324535Y-14337249D02*
X17372154Y-14337249D01*
X17372154Y-14337249D02*
X17391202Y-14327726D01*
X17457869Y-14280107D02*
X17534059Y-14280107D01*
X17486440Y-14213440D02*
X17486440Y-14384868D01*
X17486440Y-14384868D02*
X17495964Y-14403916D01*
X17495964Y-14403916D02*
X17515012Y-14413440D01*
X17515012Y-14413440D02*
X17534059Y-14413440D01*
X17676916Y-14403916D02*
X17657869Y-14413440D01*
X17657869Y-14413440D02*
X17619773Y-14413440D01*
X17619773Y-14413440D02*
X17600726Y-14403916D01*
X17600726Y-14403916D02*
X17591202Y-14384868D01*
X17591202Y-14384868D02*
X17591202Y-14308678D01*
X17591202Y-14308678D02*
X17600726Y-14289630D01*
X17600726Y-14289630D02*
X17619773Y-14280107D01*
X17619773Y-14280107D02*
X17657869Y-14280107D01*
X17657869Y-14280107D02*
X17676916Y-14289630D01*
X17676916Y-14289630D02*
X17686440Y-14308678D01*
X17686440Y-14308678D02*
X17686440Y-14327726D01*
X17686440Y-14327726D02*
X17591202Y-14346773D01*
X17857869Y-14413440D02*
X17857869Y-14213440D01*
X17857869Y-14403916D02*
X17838821Y-14413440D01*
X17838821Y-14413440D02*
X17800726Y-14413440D01*
X17800726Y-14413440D02*
X17781678Y-14403916D01*
X17781678Y-14403916D02*
X17772154Y-14394392D01*
X17772154Y-14394392D02*
X17762631Y-14375345D01*
X17762631Y-14375345D02*
X17762631Y-14318202D01*
X17762631Y-14318202D02*
X17772154Y-14299154D01*
X17772154Y-14299154D02*
X17781678Y-14289630D01*
X17781678Y-14289630D02*
X17800726Y-14280107D01*
X17800726Y-14280107D02*
X17838821Y-14280107D01*
X17838821Y-14280107D02*
X17857869Y-14289630D01*
X17934059Y-14489630D02*
X17943583Y-14480107D01*
X17943583Y-14480107D02*
X17962631Y-14451535D01*
X17962631Y-14451535D02*
X17972154Y-14432488D01*
X17972154Y-14432488D02*
X17981678Y-14403916D01*
X17981678Y-14403916D02*
X17991202Y-14356297D01*
X17991202Y-14356297D02*
X17991202Y-14318202D01*
X17991202Y-14318202D02*
X17981678Y-14270583D01*
X17981678Y-14270583D02*
X17972154Y-14242011D01*
X17972154Y-14242011D02*
X17962631Y-14222964D01*
X17962631Y-14222964D02*
X17943583Y-14194392D01*
X17943583Y-14194392D02*
X17934059Y-14184868D01*
M02*
