%TF.GenerationSoftware,KiCad,Pcbnew,9.0.0*%
%TF.CreationDate,2025-04-04T06:59:11-07:00*%
%TF.ProjectId,XBee Pro THT Mounting PCB,58426565-2050-4726-9f20-544854204d6f,rev?*%
%TF.SameCoordinates,Original*%
%TF.FileFunction,Drillmap*%
%TF.FilePolarity,Positive*%
%FSLAX45Y45*%
G04 Gerber Fmt 4.5, Leading zero omitted, Abs format (unit mm)*
G04 Created by KiCad (PCBNEW 9.0.0) date 2025-04-04 06:59:11*
%MOMM*%
%LPD*%
G01*
G04 APERTURE LIST*
%ADD10C,0.050000*%
%ADD11C,0.200000*%
%ADD12C,0.100000*%
%ADD13C,0.300000*%
G04 APERTURE END LIST*
D10*
X12330000Y-6810000D02*
X11530000Y-6810000D01*
X9910000Y-11480000D02*
X13910000Y-11480000D01*
X13910000Y-11480000D02*
X13910000Y-5880000D01*
X13910000Y-5880000D02*
X13010000Y-5880000D01*
X9910000Y-5880000D02*
X9910000Y-11480000D01*
X12330000Y-6810000D02*
X13010000Y-5880000D01*
X10810000Y-5880000D02*
X9910000Y-5880000D01*
X11530000Y-6810000D02*
X10810000Y-5880000D01*
D11*
D12*
X11005000Y-8245000D02*
X11035000Y-8275000D01*
X11035000Y-8245000D02*
X11005000Y-8275000D01*
X11005000Y-8565000D02*
X11035000Y-8595000D01*
X11035000Y-8565000D02*
X11005000Y-8595000D01*
X11165000Y-7625000D02*
X11195000Y-7655000D01*
X11195000Y-7625000D02*
X11165000Y-7655000D01*
X11667426Y-7762573D02*
X11697426Y-7792573D01*
X11697426Y-7762573D02*
X11667426Y-7792573D01*
X11865000Y-8525000D02*
X11895000Y-8555000D01*
X11895000Y-8525000D02*
X11865000Y-8555000D01*
X11865000Y-9725000D02*
X11895000Y-9755000D01*
X11895000Y-9725000D02*
X11865000Y-9755000D01*
X11925000Y-8705000D02*
X11955000Y-8735000D01*
X11955000Y-8705000D02*
X11925000Y-8735000D01*
X11925000Y-9165000D02*
X11955000Y-9195000D01*
X11955000Y-9165000D02*
X11925000Y-9195000D01*
X12047500Y-8945000D02*
X12077500Y-8975000D01*
X12077500Y-8945000D02*
X12047500Y-8975000D01*
X12047500Y-9045000D02*
X12077500Y-9075000D01*
X12077500Y-9045000D02*
X12047500Y-9075000D01*
X12105000Y-8745000D02*
X12135000Y-8775000D01*
X12135000Y-8745000D02*
X12105000Y-8775000D01*
X12145000Y-9165000D02*
X12175000Y-9195000D01*
X12175000Y-9165000D02*
X12145000Y-9195000D01*
X12167426Y-8862574D02*
X12197426Y-8892574D01*
X12197426Y-8862574D02*
X12167426Y-8892574D01*
X12205000Y-7965000D02*
X12235000Y-7995000D01*
X12235000Y-7965000D02*
X12205000Y-7995000D01*
X12245000Y-8205000D02*
X12275000Y-8235000D01*
X12275000Y-8205000D02*
X12245000Y-8235000D01*
X12345000Y-8285000D02*
X12375000Y-8315000D01*
X12375000Y-8285000D02*
X12345000Y-8315000D01*
X12345000Y-9285000D02*
X12375000Y-9315000D01*
X12375000Y-9285000D02*
X12345000Y-9315000D01*
X12345000Y-9705000D02*
X12375000Y-9735000D01*
X12375000Y-9705000D02*
X12345000Y-9735000D01*
X12425000Y-8625000D02*
X12455000Y-8655000D01*
X12455000Y-8625000D02*
X12425000Y-8655000D01*
X12425000Y-9420147D02*
X12455000Y-9450147D01*
X12455000Y-9420147D02*
X12425000Y-9450147D01*
X12425000Y-9625000D02*
X12455000Y-9655000D01*
X12455000Y-9625000D02*
X12425000Y-9655000D01*
X12505000Y-9045000D02*
X12535000Y-9075000D01*
X12535000Y-9045000D02*
X12505000Y-9075000D01*
X12585000Y-9365000D02*
X12615000Y-9395000D01*
X12615000Y-9365000D02*
X12585000Y-9395000D01*
X10274000Y-9940000D02*
G75*
G02*
X10174000Y-9940000I-50000J0D01*
G01*
X10174000Y-9940000D02*
G75*
G02*
X10274000Y-9940000I50000J0D01*
G01*
X10528000Y-9940000D02*
G75*
G02*
X10428000Y-9940000I-50000J0D01*
G01*
X10428000Y-9940000D02*
G75*
G02*
X10528000Y-9940000I50000J0D01*
G01*
X10677750Y-6904500D02*
G75*
G02*
X10577750Y-6904500I-50000J0D01*
G01*
X10577750Y-6904500D02*
G75*
G02*
X10677750Y-6904500I50000J0D01*
G01*
X10677750Y-7104500D02*
G75*
G02*
X10577750Y-7104500I-50000J0D01*
G01*
X10577750Y-7104500D02*
G75*
G02*
X10677750Y-7104500I50000J0D01*
G01*
X10677750Y-7304500D02*
G75*
G02*
X10577750Y-7304500I-50000J0D01*
G01*
X10577750Y-7304500D02*
G75*
G02*
X10677750Y-7304500I50000J0D01*
G01*
X10677750Y-7504500D02*
G75*
G02*
X10577750Y-7504500I-50000J0D01*
G01*
X10577750Y-7504500D02*
G75*
G02*
X10677750Y-7504500I50000J0D01*
G01*
X10677750Y-7704500D02*
G75*
G02*
X10577750Y-7704500I-50000J0D01*
G01*
X10577750Y-7704500D02*
G75*
G02*
X10677750Y-7704500I50000J0D01*
G01*
X10677750Y-7904500D02*
G75*
G02*
X10577750Y-7904500I-50000J0D01*
G01*
X10577750Y-7904500D02*
G75*
G02*
X10677750Y-7904500I50000J0D01*
G01*
X10677750Y-8104500D02*
G75*
G02*
X10577750Y-8104500I-50000J0D01*
G01*
X10577750Y-8104500D02*
G75*
G02*
X10677750Y-8104500I50000J0D01*
G01*
X10677750Y-8304500D02*
G75*
G02*
X10577750Y-8304500I-50000J0D01*
G01*
X10577750Y-8304500D02*
G75*
G02*
X10677750Y-8304500I50000J0D01*
G01*
X10677750Y-8504500D02*
G75*
G02*
X10577750Y-8504500I-50000J0D01*
G01*
X10577750Y-8504500D02*
G75*
G02*
X10677750Y-8504500I50000J0D01*
G01*
X10677750Y-8704500D02*
G75*
G02*
X10577750Y-8704500I-50000J0D01*
G01*
X10577750Y-8704500D02*
G75*
G02*
X10677750Y-8704500I50000J0D01*
G01*
X10877750Y-6904500D02*
G75*
G02*
X10777750Y-6904500I-50000J0D01*
G01*
X10777750Y-6904500D02*
G75*
G02*
X10877750Y-6904500I50000J0D01*
G01*
X10877750Y-7104500D02*
G75*
G02*
X10777750Y-7104500I-50000J0D01*
G01*
X10777750Y-7104500D02*
G75*
G02*
X10877750Y-7104500I50000J0D01*
G01*
X10877750Y-7304500D02*
G75*
G02*
X10777750Y-7304500I-50000J0D01*
G01*
X10777750Y-7304500D02*
G75*
G02*
X10877750Y-7304500I50000J0D01*
G01*
X10877750Y-7504500D02*
G75*
G02*
X10777750Y-7504500I-50000J0D01*
G01*
X10777750Y-7504500D02*
G75*
G02*
X10877750Y-7504500I50000J0D01*
G01*
X10877750Y-7704500D02*
G75*
G02*
X10777750Y-7704500I-50000J0D01*
G01*
X10777750Y-7704500D02*
G75*
G02*
X10877750Y-7704500I50000J0D01*
G01*
X10877750Y-7904500D02*
G75*
G02*
X10777750Y-7904500I-50000J0D01*
G01*
X10777750Y-7904500D02*
G75*
G02*
X10877750Y-7904500I50000J0D01*
G01*
X10877750Y-8104500D02*
G75*
G02*
X10777750Y-8104500I-50000J0D01*
G01*
X10777750Y-8104500D02*
G75*
G02*
X10877750Y-8104500I50000J0D01*
G01*
X10877750Y-8304500D02*
G75*
G02*
X10777750Y-8304500I-50000J0D01*
G01*
X10777750Y-8304500D02*
G75*
G02*
X10877750Y-8304500I50000J0D01*
G01*
X10877750Y-8504500D02*
G75*
G02*
X10777750Y-8504500I-50000J0D01*
G01*
X10777750Y-8504500D02*
G75*
G02*
X10877750Y-8504500I50000J0D01*
G01*
X10877750Y-8704500D02*
G75*
G02*
X10777750Y-8704500I-50000J0D01*
G01*
X10777750Y-8704500D02*
G75*
G02*
X10877750Y-8704500I50000J0D01*
G01*
X11036000Y-9940000D02*
G75*
G02*
X10936000Y-9940000I-50000J0D01*
G01*
X10936000Y-9940000D02*
G75*
G02*
X11036000Y-9940000I50000J0D01*
G01*
X11036000Y-10194000D02*
G75*
G02*
X10936000Y-10194000I-50000J0D01*
G01*
X10936000Y-10194000D02*
G75*
G02*
X11036000Y-10194000I50000J0D01*
G01*
X11290000Y-9940000D02*
G75*
G02*
X11190000Y-9940000I-50000J0D01*
G01*
X11190000Y-9940000D02*
G75*
G02*
X11290000Y-9940000I50000J0D01*
G01*
X11290000Y-10194000D02*
G75*
G02*
X11190000Y-10194000I-50000J0D01*
G01*
X11190000Y-10194000D02*
G75*
G02*
X11290000Y-10194000I50000J0D01*
G01*
X11544000Y-9940000D02*
G75*
G02*
X11444000Y-9940000I-50000J0D01*
G01*
X11444000Y-9940000D02*
G75*
G02*
X11544000Y-9940000I50000J0D01*
G01*
X11544000Y-10194000D02*
G75*
G02*
X11444000Y-10194000I-50000J0D01*
G01*
X11444000Y-10194000D02*
G75*
G02*
X11544000Y-10194000I50000J0D01*
G01*
X11798000Y-9940000D02*
G75*
G02*
X11698000Y-9940000I-50000J0D01*
G01*
X11698000Y-9940000D02*
G75*
G02*
X11798000Y-9940000I50000J0D01*
G01*
X11798000Y-10194000D02*
G75*
G02*
X11698000Y-10194000I-50000J0D01*
G01*
X11698000Y-10194000D02*
G75*
G02*
X11798000Y-10194000I50000J0D01*
G01*
X12052000Y-9940000D02*
G75*
G02*
X11952000Y-9940000I-50000J0D01*
G01*
X11952000Y-9940000D02*
G75*
G02*
X12052000Y-9940000I50000J0D01*
G01*
X12052000Y-10194000D02*
G75*
G02*
X11952000Y-10194000I-50000J0D01*
G01*
X11952000Y-10194000D02*
G75*
G02*
X12052000Y-10194000I50000J0D01*
G01*
X12306000Y-9940000D02*
G75*
G02*
X12206000Y-9940000I-50000J0D01*
G01*
X12206000Y-9940000D02*
G75*
G02*
X12306000Y-9940000I50000J0D01*
G01*
X12306000Y-10194000D02*
G75*
G02*
X12206000Y-10194000I-50000J0D01*
G01*
X12206000Y-10194000D02*
G75*
G02*
X12306000Y-10194000I50000J0D01*
G01*
X12560000Y-9940000D02*
G75*
G02*
X12460000Y-9940000I-50000J0D01*
G01*
X12460000Y-9940000D02*
G75*
G02*
X12560000Y-9940000I50000J0D01*
G01*
X12560000Y-10194000D02*
G75*
G02*
X12460000Y-10194000I-50000J0D01*
G01*
X12460000Y-10194000D02*
G75*
G02*
X12560000Y-10194000I50000J0D01*
G01*
X12814000Y-9940000D02*
G75*
G02*
X12714000Y-9940000I-50000J0D01*
G01*
X12714000Y-9940000D02*
G75*
G02*
X12814000Y-9940000I50000J0D01*
G01*
X12814000Y-10194000D02*
G75*
G02*
X12714000Y-10194000I-50000J0D01*
G01*
X12714000Y-10194000D02*
G75*
G02*
X12814000Y-10194000I50000J0D01*
G01*
X13068000Y-9940000D02*
G75*
G02*
X12968000Y-9940000I-50000J0D01*
G01*
X12968000Y-9940000D02*
G75*
G02*
X13068000Y-9940000I50000J0D01*
G01*
X13068000Y-10194000D02*
G75*
G02*
X12968000Y-10194000I-50000J0D01*
G01*
X12968000Y-10194000D02*
G75*
G02*
X13068000Y-10194000I50000J0D01*
G01*
X13077750Y-6904500D02*
G75*
G02*
X12977750Y-6904500I-50000J0D01*
G01*
X12977750Y-6904500D02*
G75*
G02*
X13077750Y-6904500I50000J0D01*
G01*
X13077750Y-7104500D02*
G75*
G02*
X12977750Y-7104500I-50000J0D01*
G01*
X12977750Y-7104500D02*
G75*
G02*
X13077750Y-7104500I50000J0D01*
G01*
X13077750Y-7304500D02*
G75*
G02*
X12977750Y-7304500I-50000J0D01*
G01*
X12977750Y-7304500D02*
G75*
G02*
X13077750Y-7304500I50000J0D01*
G01*
X13077750Y-7504500D02*
G75*
G02*
X12977750Y-7504500I-50000J0D01*
G01*
X12977750Y-7504500D02*
G75*
G02*
X13077750Y-7504500I50000J0D01*
G01*
X13077750Y-7704500D02*
G75*
G02*
X12977750Y-7704500I-50000J0D01*
G01*
X12977750Y-7704500D02*
G75*
G02*
X13077750Y-7704500I50000J0D01*
G01*
X13077750Y-7904500D02*
G75*
G02*
X12977750Y-7904500I-50000J0D01*
G01*
X12977750Y-7904500D02*
G75*
G02*
X13077750Y-7904500I50000J0D01*
G01*
X13077750Y-8104500D02*
G75*
G02*
X12977750Y-8104500I-50000J0D01*
G01*
X12977750Y-8104500D02*
G75*
G02*
X13077750Y-8104500I50000J0D01*
G01*
X13077750Y-8304500D02*
G75*
G02*
X12977750Y-8304500I-50000J0D01*
G01*
X12977750Y-8304500D02*
G75*
G02*
X13077750Y-8304500I50000J0D01*
G01*
X13077750Y-8504500D02*
G75*
G02*
X12977750Y-8504500I-50000J0D01*
G01*
X12977750Y-8504500D02*
G75*
G02*
X13077750Y-8504500I50000J0D01*
G01*
X13077750Y-8704500D02*
G75*
G02*
X12977750Y-8704500I-50000J0D01*
G01*
X12977750Y-8704500D02*
G75*
G02*
X13077750Y-8704500I50000J0D01*
G01*
X13277750Y-6904500D02*
G75*
G02*
X13177750Y-6904500I-50000J0D01*
G01*
X13177750Y-6904500D02*
G75*
G02*
X13277750Y-6904500I50000J0D01*
G01*
X13277750Y-7104500D02*
G75*
G02*
X13177750Y-7104500I-50000J0D01*
G01*
X13177750Y-7104500D02*
G75*
G02*
X13277750Y-7104500I50000J0D01*
G01*
X13277750Y-7304500D02*
G75*
G02*
X13177750Y-7304500I-50000J0D01*
G01*
X13177750Y-7304500D02*
G75*
G02*
X13277750Y-7304500I50000J0D01*
G01*
X13277750Y-7504500D02*
G75*
G02*
X13177750Y-7504500I-50000J0D01*
G01*
X13177750Y-7504500D02*
G75*
G02*
X13277750Y-7504500I50000J0D01*
G01*
X13277750Y-7704500D02*
G75*
G02*
X13177750Y-7704500I-50000J0D01*
G01*
X13177750Y-7704500D02*
G75*
G02*
X13277750Y-7704500I50000J0D01*
G01*
X13277750Y-7904500D02*
G75*
G02*
X13177750Y-7904500I-50000J0D01*
G01*
X13177750Y-7904500D02*
G75*
G02*
X13277750Y-7904500I50000J0D01*
G01*
X13277750Y-8104500D02*
G75*
G02*
X13177750Y-8104500I-50000J0D01*
G01*
X13177750Y-8104500D02*
G75*
G02*
X13277750Y-8104500I50000J0D01*
G01*
X13277750Y-8304500D02*
G75*
G02*
X13177750Y-8304500I-50000J0D01*
G01*
X13177750Y-8304500D02*
G75*
G02*
X13277750Y-8304500I50000J0D01*
G01*
X13277750Y-8504500D02*
G75*
G02*
X13177750Y-8504500I-50000J0D01*
G01*
X13177750Y-8504500D02*
G75*
G02*
X13277750Y-8504500I50000J0D01*
G01*
X13277750Y-8704500D02*
G75*
G02*
X13177750Y-8704500I-50000J0D01*
G01*
X13177750Y-8704500D02*
G75*
G02*
X13277750Y-8704500I50000J0D01*
G01*
X13322000Y-9940000D02*
G75*
G02*
X13222000Y-9940000I-50000J0D01*
G01*
X13222000Y-9940000D02*
G75*
G02*
X13322000Y-9940000I50000J0D01*
G01*
X13322000Y-10194000D02*
G75*
G02*
X13222000Y-10194000I-50000J0D01*
G01*
X13222000Y-10194000D02*
G75*
G02*
X13322000Y-10194000I50000J0D01*
G01*
D13*
X10660000Y-6030000D02*
X10660000Y-6330000D01*
X10510000Y-6180000D02*
X10810000Y-6180000D01*
X10660000Y-11030000D02*
X10660000Y-11330000D01*
X10510000Y-11180000D02*
X10810000Y-11180000D01*
X13160000Y-6030000D02*
X13160000Y-6330000D01*
X13010000Y-6180000D02*
X13310000Y-6180000D01*
X13160000Y-11030000D02*
X13160000Y-11330000D01*
X13010000Y-11180000D02*
X13310000Y-11180000D01*
D11*
X10168277Y-11793984D02*
X10168277Y-11593984D01*
X10168277Y-11593984D02*
X10215896Y-11593984D01*
X10215896Y-11593984D02*
X10244467Y-11603508D01*
X10244467Y-11603508D02*
X10263515Y-11622555D01*
X10263515Y-11622555D02*
X10273039Y-11641603D01*
X10273039Y-11641603D02*
X10282563Y-11679698D01*
X10282563Y-11679698D02*
X10282563Y-11708269D01*
X10282563Y-11708269D02*
X10273039Y-11746365D01*
X10273039Y-11746365D02*
X10263515Y-11765412D01*
X10263515Y-11765412D02*
X10244467Y-11784460D01*
X10244467Y-11784460D02*
X10215896Y-11793984D01*
X10215896Y-11793984D02*
X10168277Y-11793984D01*
X10368277Y-11793984D02*
X10368277Y-11660650D01*
X10368277Y-11698746D02*
X10377801Y-11679698D01*
X10377801Y-11679698D02*
X10387324Y-11670174D01*
X10387324Y-11670174D02*
X10406372Y-11660650D01*
X10406372Y-11660650D02*
X10425420Y-11660650D01*
X10492086Y-11793984D02*
X10492086Y-11660650D01*
X10492086Y-11593984D02*
X10482563Y-11603508D01*
X10482563Y-11603508D02*
X10492086Y-11613031D01*
X10492086Y-11613031D02*
X10501610Y-11603508D01*
X10501610Y-11603508D02*
X10492086Y-11593984D01*
X10492086Y-11593984D02*
X10492086Y-11613031D01*
X10615896Y-11793984D02*
X10596848Y-11784460D01*
X10596848Y-11784460D02*
X10587324Y-11765412D01*
X10587324Y-11765412D02*
X10587324Y-11593984D01*
X10720658Y-11793984D02*
X10701610Y-11784460D01*
X10701610Y-11784460D02*
X10692086Y-11765412D01*
X10692086Y-11765412D02*
X10692086Y-11593984D01*
X10949229Y-11793984D02*
X10949229Y-11593984D01*
X10949229Y-11593984D02*
X11015896Y-11736841D01*
X11015896Y-11736841D02*
X11082563Y-11593984D01*
X11082563Y-11593984D02*
X11082563Y-11793984D01*
X11263515Y-11793984D02*
X11263515Y-11689222D01*
X11263515Y-11689222D02*
X11253991Y-11670174D01*
X11253991Y-11670174D02*
X11234943Y-11660650D01*
X11234943Y-11660650D02*
X11196848Y-11660650D01*
X11196848Y-11660650D02*
X11177801Y-11670174D01*
X11263515Y-11784460D02*
X11244467Y-11793984D01*
X11244467Y-11793984D02*
X11196848Y-11793984D01*
X11196848Y-11793984D02*
X11177801Y-11784460D01*
X11177801Y-11784460D02*
X11168277Y-11765412D01*
X11168277Y-11765412D02*
X11168277Y-11746365D01*
X11168277Y-11746365D02*
X11177801Y-11727317D01*
X11177801Y-11727317D02*
X11196848Y-11717793D01*
X11196848Y-11717793D02*
X11244467Y-11717793D01*
X11244467Y-11717793D02*
X11263515Y-11708269D01*
X11358753Y-11660650D02*
X11358753Y-11860650D01*
X11358753Y-11670174D02*
X11377801Y-11660650D01*
X11377801Y-11660650D02*
X11415896Y-11660650D01*
X11415896Y-11660650D02*
X11434943Y-11670174D01*
X11434943Y-11670174D02*
X11444467Y-11679698D01*
X11444467Y-11679698D02*
X11453991Y-11698746D01*
X11453991Y-11698746D02*
X11453991Y-11755888D01*
X11453991Y-11755888D02*
X11444467Y-11774936D01*
X11444467Y-11774936D02*
X11434943Y-11784460D01*
X11434943Y-11784460D02*
X11415896Y-11793984D01*
X11415896Y-11793984D02*
X11377801Y-11793984D01*
X11377801Y-11793984D02*
X11358753Y-11784460D01*
X11539705Y-11774936D02*
X11549229Y-11784460D01*
X11549229Y-11784460D02*
X11539705Y-11793984D01*
X11539705Y-11793984D02*
X11530182Y-11784460D01*
X11530182Y-11784460D02*
X11539705Y-11774936D01*
X11539705Y-11774936D02*
X11539705Y-11793984D01*
X11539705Y-11670174D02*
X11549229Y-11679698D01*
X11549229Y-11679698D02*
X11539705Y-11689222D01*
X11539705Y-11689222D02*
X11530182Y-11679698D01*
X11530182Y-11679698D02*
X11539705Y-11670174D01*
X11539705Y-11670174D02*
X11539705Y-11689222D01*
D12*
X9877500Y-12107500D02*
X9907500Y-12137500D01*
X9907500Y-12107500D02*
X9877500Y-12137500D01*
D11*
X10206372Y-12013984D02*
X10225420Y-12013984D01*
X10225420Y-12013984D02*
X10244467Y-12023508D01*
X10244467Y-12023508D02*
X10253991Y-12033031D01*
X10253991Y-12033031D02*
X10263515Y-12052079D01*
X10263515Y-12052079D02*
X10273039Y-12090174D01*
X10273039Y-12090174D02*
X10273039Y-12137793D01*
X10273039Y-12137793D02*
X10263515Y-12175888D01*
X10263515Y-12175888D02*
X10253991Y-12194936D01*
X10253991Y-12194936D02*
X10244467Y-12204460D01*
X10244467Y-12204460D02*
X10225420Y-12213984D01*
X10225420Y-12213984D02*
X10206372Y-12213984D01*
X10206372Y-12213984D02*
X10187324Y-12204460D01*
X10187324Y-12204460D02*
X10177801Y-12194936D01*
X10177801Y-12194936D02*
X10168277Y-12175888D01*
X10168277Y-12175888D02*
X10158753Y-12137793D01*
X10158753Y-12137793D02*
X10158753Y-12090174D01*
X10158753Y-12090174D02*
X10168277Y-12052079D01*
X10168277Y-12052079D02*
X10177801Y-12033031D01*
X10177801Y-12033031D02*
X10187324Y-12023508D01*
X10187324Y-12023508D02*
X10206372Y-12013984D01*
X10358753Y-12194936D02*
X10368277Y-12204460D01*
X10368277Y-12204460D02*
X10358753Y-12213984D01*
X10358753Y-12213984D02*
X10349229Y-12204460D01*
X10349229Y-12204460D02*
X10358753Y-12194936D01*
X10358753Y-12194936D02*
X10358753Y-12213984D01*
X10434944Y-12013984D02*
X10558753Y-12013984D01*
X10558753Y-12013984D02*
X10492086Y-12090174D01*
X10492086Y-12090174D02*
X10520658Y-12090174D01*
X10520658Y-12090174D02*
X10539705Y-12099698D01*
X10539705Y-12099698D02*
X10549229Y-12109222D01*
X10549229Y-12109222D02*
X10558753Y-12128269D01*
X10558753Y-12128269D02*
X10558753Y-12175888D01*
X10558753Y-12175888D02*
X10549229Y-12194936D01*
X10549229Y-12194936D02*
X10539705Y-12204460D01*
X10539705Y-12204460D02*
X10520658Y-12213984D01*
X10520658Y-12213984D02*
X10463515Y-12213984D01*
X10463515Y-12213984D02*
X10444467Y-12204460D01*
X10444467Y-12204460D02*
X10434944Y-12194936D01*
X10682563Y-12013984D02*
X10701610Y-12013984D01*
X10701610Y-12013984D02*
X10720658Y-12023508D01*
X10720658Y-12023508D02*
X10730182Y-12033031D01*
X10730182Y-12033031D02*
X10739705Y-12052079D01*
X10739705Y-12052079D02*
X10749229Y-12090174D01*
X10749229Y-12090174D02*
X10749229Y-12137793D01*
X10749229Y-12137793D02*
X10739705Y-12175888D01*
X10739705Y-12175888D02*
X10730182Y-12194936D01*
X10730182Y-12194936D02*
X10720658Y-12204460D01*
X10720658Y-12204460D02*
X10701610Y-12213984D01*
X10701610Y-12213984D02*
X10682563Y-12213984D01*
X10682563Y-12213984D02*
X10663515Y-12204460D01*
X10663515Y-12204460D02*
X10653991Y-12194936D01*
X10653991Y-12194936D02*
X10644467Y-12175888D01*
X10644467Y-12175888D02*
X10634944Y-12137793D01*
X10634944Y-12137793D02*
X10634944Y-12090174D01*
X10634944Y-12090174D02*
X10644467Y-12052079D01*
X10644467Y-12052079D02*
X10653991Y-12033031D01*
X10653991Y-12033031D02*
X10663515Y-12023508D01*
X10663515Y-12023508D02*
X10682563Y-12013984D01*
X10873039Y-12013984D02*
X10892086Y-12013984D01*
X10892086Y-12013984D02*
X10911134Y-12023508D01*
X10911134Y-12023508D02*
X10920658Y-12033031D01*
X10920658Y-12033031D02*
X10930182Y-12052079D01*
X10930182Y-12052079D02*
X10939705Y-12090174D01*
X10939705Y-12090174D02*
X10939705Y-12137793D01*
X10939705Y-12137793D02*
X10930182Y-12175888D01*
X10930182Y-12175888D02*
X10920658Y-12194936D01*
X10920658Y-12194936D02*
X10911134Y-12204460D01*
X10911134Y-12204460D02*
X10892086Y-12213984D01*
X10892086Y-12213984D02*
X10873039Y-12213984D01*
X10873039Y-12213984D02*
X10853991Y-12204460D01*
X10853991Y-12204460D02*
X10844467Y-12194936D01*
X10844467Y-12194936D02*
X10834944Y-12175888D01*
X10834944Y-12175888D02*
X10825420Y-12137793D01*
X10825420Y-12137793D02*
X10825420Y-12090174D01*
X10825420Y-12090174D02*
X10834944Y-12052079D01*
X10834944Y-12052079D02*
X10844467Y-12033031D01*
X10844467Y-12033031D02*
X10853991Y-12023508D01*
X10853991Y-12023508D02*
X10873039Y-12013984D01*
X11025420Y-12213984D02*
X11025420Y-12080650D01*
X11025420Y-12099698D02*
X11034944Y-12090174D01*
X11034944Y-12090174D02*
X11053991Y-12080650D01*
X11053991Y-12080650D02*
X11082563Y-12080650D01*
X11082563Y-12080650D02*
X11101610Y-12090174D01*
X11101610Y-12090174D02*
X11111134Y-12109222D01*
X11111134Y-12109222D02*
X11111134Y-12213984D01*
X11111134Y-12109222D02*
X11120658Y-12090174D01*
X11120658Y-12090174D02*
X11139705Y-12080650D01*
X11139705Y-12080650D02*
X11168277Y-12080650D01*
X11168277Y-12080650D02*
X11187324Y-12090174D01*
X11187324Y-12090174D02*
X11196848Y-12109222D01*
X11196848Y-12109222D02*
X11196848Y-12213984D01*
X11292086Y-12213984D02*
X11292086Y-12080650D01*
X11292086Y-12099698D02*
X11301610Y-12090174D01*
X11301610Y-12090174D02*
X11320658Y-12080650D01*
X11320658Y-12080650D02*
X11349229Y-12080650D01*
X11349229Y-12080650D02*
X11368277Y-12090174D01*
X11368277Y-12090174D02*
X11377801Y-12109222D01*
X11377801Y-12109222D02*
X11377801Y-12213984D01*
X11377801Y-12109222D02*
X11387324Y-12090174D01*
X11387324Y-12090174D02*
X11406372Y-12080650D01*
X11406372Y-12080650D02*
X11434943Y-12080650D01*
X11434943Y-12080650D02*
X11453991Y-12090174D01*
X11453991Y-12090174D02*
X11463515Y-12109222D01*
X11463515Y-12109222D02*
X11463515Y-12213984D01*
X11853991Y-12004460D02*
X11682563Y-12261603D01*
X12111134Y-12013984D02*
X12130182Y-12013984D01*
X12130182Y-12013984D02*
X12149229Y-12023508D01*
X12149229Y-12023508D02*
X12158753Y-12033031D01*
X12158753Y-12033031D02*
X12168277Y-12052079D01*
X12168277Y-12052079D02*
X12177801Y-12090174D01*
X12177801Y-12090174D02*
X12177801Y-12137793D01*
X12177801Y-12137793D02*
X12168277Y-12175888D01*
X12168277Y-12175888D02*
X12158753Y-12194936D01*
X12158753Y-12194936D02*
X12149229Y-12204460D01*
X12149229Y-12204460D02*
X12130182Y-12213984D01*
X12130182Y-12213984D02*
X12111134Y-12213984D01*
X12111134Y-12213984D02*
X12092086Y-12204460D01*
X12092086Y-12204460D02*
X12082563Y-12194936D01*
X12082563Y-12194936D02*
X12073039Y-12175888D01*
X12073039Y-12175888D02*
X12063515Y-12137793D01*
X12063515Y-12137793D02*
X12063515Y-12090174D01*
X12063515Y-12090174D02*
X12073039Y-12052079D01*
X12073039Y-12052079D02*
X12082563Y-12033031D01*
X12082563Y-12033031D02*
X12092086Y-12023508D01*
X12092086Y-12023508D02*
X12111134Y-12013984D01*
X12263515Y-12194936D02*
X12273039Y-12204460D01*
X12273039Y-12204460D02*
X12263515Y-12213984D01*
X12263515Y-12213984D02*
X12253991Y-12204460D01*
X12253991Y-12204460D02*
X12263515Y-12194936D01*
X12263515Y-12194936D02*
X12263515Y-12213984D01*
X12396848Y-12013984D02*
X12415896Y-12013984D01*
X12415896Y-12013984D02*
X12434944Y-12023508D01*
X12434944Y-12023508D02*
X12444467Y-12033031D01*
X12444467Y-12033031D02*
X12453991Y-12052079D01*
X12453991Y-12052079D02*
X12463515Y-12090174D01*
X12463515Y-12090174D02*
X12463515Y-12137793D01*
X12463515Y-12137793D02*
X12453991Y-12175888D01*
X12453991Y-12175888D02*
X12444467Y-12194936D01*
X12444467Y-12194936D02*
X12434944Y-12204460D01*
X12434944Y-12204460D02*
X12415896Y-12213984D01*
X12415896Y-12213984D02*
X12396848Y-12213984D01*
X12396848Y-12213984D02*
X12377801Y-12204460D01*
X12377801Y-12204460D02*
X12368277Y-12194936D01*
X12368277Y-12194936D02*
X12358753Y-12175888D01*
X12358753Y-12175888D02*
X12349229Y-12137793D01*
X12349229Y-12137793D02*
X12349229Y-12090174D01*
X12349229Y-12090174D02*
X12358753Y-12052079D01*
X12358753Y-12052079D02*
X12368277Y-12033031D01*
X12368277Y-12033031D02*
X12377801Y-12023508D01*
X12377801Y-12023508D02*
X12396848Y-12013984D01*
X12653991Y-12213984D02*
X12539706Y-12213984D01*
X12596848Y-12213984D02*
X12596848Y-12013984D01*
X12596848Y-12013984D02*
X12577801Y-12042555D01*
X12577801Y-12042555D02*
X12558753Y-12061603D01*
X12558753Y-12061603D02*
X12539706Y-12071127D01*
X12844467Y-12213984D02*
X12730182Y-12213984D01*
X12787325Y-12213984D02*
X12787325Y-12013984D01*
X12787325Y-12013984D02*
X12768277Y-12042555D01*
X12768277Y-12042555D02*
X12749229Y-12061603D01*
X12749229Y-12061603D02*
X12730182Y-12071127D01*
X12958753Y-12099698D02*
X12939706Y-12090174D01*
X12939706Y-12090174D02*
X12930182Y-12080650D01*
X12930182Y-12080650D02*
X12920658Y-12061603D01*
X12920658Y-12061603D02*
X12920658Y-12052079D01*
X12920658Y-12052079D02*
X12930182Y-12033031D01*
X12930182Y-12033031D02*
X12939706Y-12023508D01*
X12939706Y-12023508D02*
X12958753Y-12013984D01*
X12958753Y-12013984D02*
X12996848Y-12013984D01*
X12996848Y-12013984D02*
X13015896Y-12023508D01*
X13015896Y-12023508D02*
X13025420Y-12033031D01*
X13025420Y-12033031D02*
X13034944Y-12052079D01*
X13034944Y-12052079D02*
X13034944Y-12061603D01*
X13034944Y-12061603D02*
X13025420Y-12080650D01*
X13025420Y-12080650D02*
X13015896Y-12090174D01*
X13015896Y-12090174D02*
X12996848Y-12099698D01*
X12996848Y-12099698D02*
X12958753Y-12099698D01*
X12958753Y-12099698D02*
X12939706Y-12109222D01*
X12939706Y-12109222D02*
X12930182Y-12118746D01*
X12930182Y-12118746D02*
X12920658Y-12137793D01*
X12920658Y-12137793D02*
X12920658Y-12175888D01*
X12920658Y-12175888D02*
X12930182Y-12194936D01*
X12930182Y-12194936D02*
X12939706Y-12204460D01*
X12939706Y-12204460D02*
X12958753Y-12213984D01*
X12958753Y-12213984D02*
X12996848Y-12213984D01*
X12996848Y-12213984D02*
X13015896Y-12204460D01*
X13015896Y-12204460D02*
X13025420Y-12194936D01*
X13025420Y-12194936D02*
X13034944Y-12175888D01*
X13034944Y-12175888D02*
X13034944Y-12137793D01*
X13034944Y-12137793D02*
X13025420Y-12118746D01*
X13025420Y-12118746D02*
X13015896Y-12109222D01*
X13015896Y-12109222D02*
X12996848Y-12099698D01*
X13111134Y-12013984D02*
X13111134Y-12052079D01*
X13187325Y-12013984D02*
X13187325Y-12052079D01*
X13482563Y-12290174D02*
X13473039Y-12280650D01*
X13473039Y-12280650D02*
X13453991Y-12252079D01*
X13453991Y-12252079D02*
X13444468Y-12233031D01*
X13444468Y-12233031D02*
X13434944Y-12204460D01*
X13434944Y-12204460D02*
X13425420Y-12156841D01*
X13425420Y-12156841D02*
X13425420Y-12118746D01*
X13425420Y-12118746D02*
X13434944Y-12071127D01*
X13434944Y-12071127D02*
X13444468Y-12042555D01*
X13444468Y-12042555D02*
X13453991Y-12023508D01*
X13453991Y-12023508D02*
X13473039Y-11994936D01*
X13473039Y-11994936D02*
X13482563Y-11985412D01*
X13549229Y-12033031D02*
X13558753Y-12023508D01*
X13558753Y-12023508D02*
X13577801Y-12013984D01*
X13577801Y-12013984D02*
X13625420Y-12013984D01*
X13625420Y-12013984D02*
X13644468Y-12023508D01*
X13644468Y-12023508D02*
X13653991Y-12033031D01*
X13653991Y-12033031D02*
X13663515Y-12052079D01*
X13663515Y-12052079D02*
X13663515Y-12071127D01*
X13663515Y-12071127D02*
X13653991Y-12099698D01*
X13653991Y-12099698D02*
X13539706Y-12213984D01*
X13539706Y-12213984D02*
X13663515Y-12213984D01*
X13730182Y-12013984D02*
X13853991Y-12013984D01*
X13853991Y-12013984D02*
X13787325Y-12090174D01*
X13787325Y-12090174D02*
X13815896Y-12090174D01*
X13815896Y-12090174D02*
X13834944Y-12099698D01*
X13834944Y-12099698D02*
X13844468Y-12109222D01*
X13844468Y-12109222D02*
X13853991Y-12128269D01*
X13853991Y-12128269D02*
X13853991Y-12175888D01*
X13853991Y-12175888D02*
X13844468Y-12194936D01*
X13844468Y-12194936D02*
X13834944Y-12204460D01*
X13834944Y-12204460D02*
X13815896Y-12213984D01*
X13815896Y-12213984D02*
X13758753Y-12213984D01*
X13758753Y-12213984D02*
X13739706Y-12204460D01*
X13739706Y-12204460D02*
X13730182Y-12194936D01*
X14092087Y-12213984D02*
X14092087Y-12013984D01*
X14177801Y-12213984D02*
X14177801Y-12109222D01*
X14177801Y-12109222D02*
X14168277Y-12090174D01*
X14168277Y-12090174D02*
X14149230Y-12080650D01*
X14149230Y-12080650D02*
X14120658Y-12080650D01*
X14120658Y-12080650D02*
X14101610Y-12090174D01*
X14101610Y-12090174D02*
X14092087Y-12099698D01*
X14301610Y-12213984D02*
X14282563Y-12204460D01*
X14282563Y-12204460D02*
X14273039Y-12194936D01*
X14273039Y-12194936D02*
X14263515Y-12175888D01*
X14263515Y-12175888D02*
X14263515Y-12118746D01*
X14263515Y-12118746D02*
X14273039Y-12099698D01*
X14273039Y-12099698D02*
X14282563Y-12090174D01*
X14282563Y-12090174D02*
X14301610Y-12080650D01*
X14301610Y-12080650D02*
X14330182Y-12080650D01*
X14330182Y-12080650D02*
X14349230Y-12090174D01*
X14349230Y-12090174D02*
X14358753Y-12099698D01*
X14358753Y-12099698D02*
X14368277Y-12118746D01*
X14368277Y-12118746D02*
X14368277Y-12175888D01*
X14368277Y-12175888D02*
X14358753Y-12194936D01*
X14358753Y-12194936D02*
X14349230Y-12204460D01*
X14349230Y-12204460D02*
X14330182Y-12213984D01*
X14330182Y-12213984D02*
X14301610Y-12213984D01*
X14482563Y-12213984D02*
X14463515Y-12204460D01*
X14463515Y-12204460D02*
X14453991Y-12185412D01*
X14453991Y-12185412D02*
X14453991Y-12013984D01*
X14634944Y-12204460D02*
X14615896Y-12213984D01*
X14615896Y-12213984D02*
X14577801Y-12213984D01*
X14577801Y-12213984D02*
X14558753Y-12204460D01*
X14558753Y-12204460D02*
X14549230Y-12185412D01*
X14549230Y-12185412D02*
X14549230Y-12109222D01*
X14549230Y-12109222D02*
X14558753Y-12090174D01*
X14558753Y-12090174D02*
X14577801Y-12080650D01*
X14577801Y-12080650D02*
X14615896Y-12080650D01*
X14615896Y-12080650D02*
X14634944Y-12090174D01*
X14634944Y-12090174D02*
X14644468Y-12109222D01*
X14644468Y-12109222D02*
X14644468Y-12128269D01*
X14644468Y-12128269D02*
X14549230Y-12147317D01*
X14720658Y-12204460D02*
X14739706Y-12213984D01*
X14739706Y-12213984D02*
X14777801Y-12213984D01*
X14777801Y-12213984D02*
X14796849Y-12204460D01*
X14796849Y-12204460D02*
X14806372Y-12185412D01*
X14806372Y-12185412D02*
X14806372Y-12175888D01*
X14806372Y-12175888D02*
X14796849Y-12156841D01*
X14796849Y-12156841D02*
X14777801Y-12147317D01*
X14777801Y-12147317D02*
X14749230Y-12147317D01*
X14749230Y-12147317D02*
X14730182Y-12137793D01*
X14730182Y-12137793D02*
X14720658Y-12118746D01*
X14720658Y-12118746D02*
X14720658Y-12109222D01*
X14720658Y-12109222D02*
X14730182Y-12090174D01*
X14730182Y-12090174D02*
X14749230Y-12080650D01*
X14749230Y-12080650D02*
X14777801Y-12080650D01*
X14777801Y-12080650D02*
X14796849Y-12090174D01*
X14873039Y-12290174D02*
X14882563Y-12280650D01*
X14882563Y-12280650D02*
X14901611Y-12252079D01*
X14901611Y-12252079D02*
X14911134Y-12233031D01*
X14911134Y-12233031D02*
X14920658Y-12204460D01*
X14920658Y-12204460D02*
X14930182Y-12156841D01*
X14930182Y-12156841D02*
X14930182Y-12118746D01*
X14930182Y-12118746D02*
X14920658Y-12071127D01*
X14920658Y-12071127D02*
X14911134Y-12042555D01*
X14911134Y-12042555D02*
X14901611Y-12023508D01*
X14901611Y-12023508D02*
X14882563Y-11994936D01*
X14882563Y-11994936D02*
X14873039Y-11985412D01*
D12*
X9907500Y-12386500D02*
G75*
G02*
X9807500Y-12386500I-50000J0D01*
G01*
X9807500Y-12386500D02*
G75*
G02*
X9907500Y-12386500I50000J0D01*
G01*
D11*
X10273039Y-12477984D02*
X10158753Y-12477984D01*
X10215896Y-12477984D02*
X10215896Y-12277984D01*
X10215896Y-12277984D02*
X10196848Y-12306555D01*
X10196848Y-12306555D02*
X10177801Y-12325603D01*
X10177801Y-12325603D02*
X10158753Y-12335127D01*
X10358753Y-12458936D02*
X10368277Y-12468460D01*
X10368277Y-12468460D02*
X10358753Y-12477984D01*
X10358753Y-12477984D02*
X10349229Y-12468460D01*
X10349229Y-12468460D02*
X10358753Y-12458936D01*
X10358753Y-12458936D02*
X10358753Y-12477984D01*
X10492086Y-12277984D02*
X10511134Y-12277984D01*
X10511134Y-12277984D02*
X10530182Y-12287508D01*
X10530182Y-12287508D02*
X10539705Y-12297031D01*
X10539705Y-12297031D02*
X10549229Y-12316079D01*
X10549229Y-12316079D02*
X10558753Y-12354174D01*
X10558753Y-12354174D02*
X10558753Y-12401793D01*
X10558753Y-12401793D02*
X10549229Y-12439888D01*
X10549229Y-12439888D02*
X10539705Y-12458936D01*
X10539705Y-12458936D02*
X10530182Y-12468460D01*
X10530182Y-12468460D02*
X10511134Y-12477984D01*
X10511134Y-12477984D02*
X10492086Y-12477984D01*
X10492086Y-12477984D02*
X10473039Y-12468460D01*
X10473039Y-12468460D02*
X10463515Y-12458936D01*
X10463515Y-12458936D02*
X10453991Y-12439888D01*
X10453991Y-12439888D02*
X10444467Y-12401793D01*
X10444467Y-12401793D02*
X10444467Y-12354174D01*
X10444467Y-12354174D02*
X10453991Y-12316079D01*
X10453991Y-12316079D02*
X10463515Y-12297031D01*
X10463515Y-12297031D02*
X10473039Y-12287508D01*
X10473039Y-12287508D02*
X10492086Y-12277984D01*
X10682563Y-12277984D02*
X10701610Y-12277984D01*
X10701610Y-12277984D02*
X10720658Y-12287508D01*
X10720658Y-12287508D02*
X10730182Y-12297031D01*
X10730182Y-12297031D02*
X10739705Y-12316079D01*
X10739705Y-12316079D02*
X10749229Y-12354174D01*
X10749229Y-12354174D02*
X10749229Y-12401793D01*
X10749229Y-12401793D02*
X10739705Y-12439888D01*
X10739705Y-12439888D02*
X10730182Y-12458936D01*
X10730182Y-12458936D02*
X10720658Y-12468460D01*
X10720658Y-12468460D02*
X10701610Y-12477984D01*
X10701610Y-12477984D02*
X10682563Y-12477984D01*
X10682563Y-12477984D02*
X10663515Y-12468460D01*
X10663515Y-12468460D02*
X10653991Y-12458936D01*
X10653991Y-12458936D02*
X10644467Y-12439888D01*
X10644467Y-12439888D02*
X10634944Y-12401793D01*
X10634944Y-12401793D02*
X10634944Y-12354174D01*
X10634944Y-12354174D02*
X10644467Y-12316079D01*
X10644467Y-12316079D02*
X10653991Y-12297031D01*
X10653991Y-12297031D02*
X10663515Y-12287508D01*
X10663515Y-12287508D02*
X10682563Y-12277984D01*
X10873039Y-12277984D02*
X10892086Y-12277984D01*
X10892086Y-12277984D02*
X10911134Y-12287508D01*
X10911134Y-12287508D02*
X10920658Y-12297031D01*
X10920658Y-12297031D02*
X10930182Y-12316079D01*
X10930182Y-12316079D02*
X10939705Y-12354174D01*
X10939705Y-12354174D02*
X10939705Y-12401793D01*
X10939705Y-12401793D02*
X10930182Y-12439888D01*
X10930182Y-12439888D02*
X10920658Y-12458936D01*
X10920658Y-12458936D02*
X10911134Y-12468460D01*
X10911134Y-12468460D02*
X10892086Y-12477984D01*
X10892086Y-12477984D02*
X10873039Y-12477984D01*
X10873039Y-12477984D02*
X10853991Y-12468460D01*
X10853991Y-12468460D02*
X10844467Y-12458936D01*
X10844467Y-12458936D02*
X10834944Y-12439888D01*
X10834944Y-12439888D02*
X10825420Y-12401793D01*
X10825420Y-12401793D02*
X10825420Y-12354174D01*
X10825420Y-12354174D02*
X10834944Y-12316079D01*
X10834944Y-12316079D02*
X10844467Y-12297031D01*
X10844467Y-12297031D02*
X10853991Y-12287508D01*
X10853991Y-12287508D02*
X10873039Y-12277984D01*
X11025420Y-12477984D02*
X11025420Y-12344650D01*
X11025420Y-12363698D02*
X11034944Y-12354174D01*
X11034944Y-12354174D02*
X11053991Y-12344650D01*
X11053991Y-12344650D02*
X11082563Y-12344650D01*
X11082563Y-12344650D02*
X11101610Y-12354174D01*
X11101610Y-12354174D02*
X11111134Y-12373222D01*
X11111134Y-12373222D02*
X11111134Y-12477984D01*
X11111134Y-12373222D02*
X11120658Y-12354174D01*
X11120658Y-12354174D02*
X11139705Y-12344650D01*
X11139705Y-12344650D02*
X11168277Y-12344650D01*
X11168277Y-12344650D02*
X11187324Y-12354174D01*
X11187324Y-12354174D02*
X11196848Y-12373222D01*
X11196848Y-12373222D02*
X11196848Y-12477984D01*
X11292086Y-12477984D02*
X11292086Y-12344650D01*
X11292086Y-12363698D02*
X11301610Y-12354174D01*
X11301610Y-12354174D02*
X11320658Y-12344650D01*
X11320658Y-12344650D02*
X11349229Y-12344650D01*
X11349229Y-12344650D02*
X11368277Y-12354174D01*
X11368277Y-12354174D02*
X11377801Y-12373222D01*
X11377801Y-12373222D02*
X11377801Y-12477984D01*
X11377801Y-12373222D02*
X11387324Y-12354174D01*
X11387324Y-12354174D02*
X11406372Y-12344650D01*
X11406372Y-12344650D02*
X11434943Y-12344650D01*
X11434943Y-12344650D02*
X11453991Y-12354174D01*
X11453991Y-12354174D02*
X11463515Y-12373222D01*
X11463515Y-12373222D02*
X11463515Y-12477984D01*
X11853991Y-12268460D02*
X11682563Y-12525603D01*
X12111134Y-12277984D02*
X12130182Y-12277984D01*
X12130182Y-12277984D02*
X12149229Y-12287508D01*
X12149229Y-12287508D02*
X12158753Y-12297031D01*
X12158753Y-12297031D02*
X12168277Y-12316079D01*
X12168277Y-12316079D02*
X12177801Y-12354174D01*
X12177801Y-12354174D02*
X12177801Y-12401793D01*
X12177801Y-12401793D02*
X12168277Y-12439888D01*
X12168277Y-12439888D02*
X12158753Y-12458936D01*
X12158753Y-12458936D02*
X12149229Y-12468460D01*
X12149229Y-12468460D02*
X12130182Y-12477984D01*
X12130182Y-12477984D02*
X12111134Y-12477984D01*
X12111134Y-12477984D02*
X12092086Y-12468460D01*
X12092086Y-12468460D02*
X12082563Y-12458936D01*
X12082563Y-12458936D02*
X12073039Y-12439888D01*
X12073039Y-12439888D02*
X12063515Y-12401793D01*
X12063515Y-12401793D02*
X12063515Y-12354174D01*
X12063515Y-12354174D02*
X12073039Y-12316079D01*
X12073039Y-12316079D02*
X12082563Y-12297031D01*
X12082563Y-12297031D02*
X12092086Y-12287508D01*
X12092086Y-12287508D02*
X12111134Y-12277984D01*
X12263515Y-12458936D02*
X12273039Y-12468460D01*
X12273039Y-12468460D02*
X12263515Y-12477984D01*
X12263515Y-12477984D02*
X12253991Y-12468460D01*
X12253991Y-12468460D02*
X12263515Y-12458936D01*
X12263515Y-12458936D02*
X12263515Y-12477984D01*
X12396848Y-12277984D02*
X12415896Y-12277984D01*
X12415896Y-12277984D02*
X12434944Y-12287508D01*
X12434944Y-12287508D02*
X12444467Y-12297031D01*
X12444467Y-12297031D02*
X12453991Y-12316079D01*
X12453991Y-12316079D02*
X12463515Y-12354174D01*
X12463515Y-12354174D02*
X12463515Y-12401793D01*
X12463515Y-12401793D02*
X12453991Y-12439888D01*
X12453991Y-12439888D02*
X12444467Y-12458936D01*
X12444467Y-12458936D02*
X12434944Y-12468460D01*
X12434944Y-12468460D02*
X12415896Y-12477984D01*
X12415896Y-12477984D02*
X12396848Y-12477984D01*
X12396848Y-12477984D02*
X12377801Y-12468460D01*
X12377801Y-12468460D02*
X12368277Y-12458936D01*
X12368277Y-12458936D02*
X12358753Y-12439888D01*
X12358753Y-12439888D02*
X12349229Y-12401793D01*
X12349229Y-12401793D02*
X12349229Y-12354174D01*
X12349229Y-12354174D02*
X12358753Y-12316079D01*
X12358753Y-12316079D02*
X12368277Y-12297031D01*
X12368277Y-12297031D02*
X12377801Y-12287508D01*
X12377801Y-12287508D02*
X12396848Y-12277984D01*
X12530182Y-12277984D02*
X12653991Y-12277984D01*
X12653991Y-12277984D02*
X12587325Y-12354174D01*
X12587325Y-12354174D02*
X12615896Y-12354174D01*
X12615896Y-12354174D02*
X12634944Y-12363698D01*
X12634944Y-12363698D02*
X12644467Y-12373222D01*
X12644467Y-12373222D02*
X12653991Y-12392269D01*
X12653991Y-12392269D02*
X12653991Y-12439888D01*
X12653991Y-12439888D02*
X12644467Y-12458936D01*
X12644467Y-12458936D02*
X12634944Y-12468460D01*
X12634944Y-12468460D02*
X12615896Y-12477984D01*
X12615896Y-12477984D02*
X12558753Y-12477984D01*
X12558753Y-12477984D02*
X12539706Y-12468460D01*
X12539706Y-12468460D02*
X12530182Y-12458936D01*
X12749229Y-12477984D02*
X12787325Y-12477984D01*
X12787325Y-12477984D02*
X12806372Y-12468460D01*
X12806372Y-12468460D02*
X12815896Y-12458936D01*
X12815896Y-12458936D02*
X12834944Y-12430365D01*
X12834944Y-12430365D02*
X12844467Y-12392269D01*
X12844467Y-12392269D02*
X12844467Y-12316079D01*
X12844467Y-12316079D02*
X12834944Y-12297031D01*
X12834944Y-12297031D02*
X12825420Y-12287508D01*
X12825420Y-12287508D02*
X12806372Y-12277984D01*
X12806372Y-12277984D02*
X12768277Y-12277984D01*
X12768277Y-12277984D02*
X12749229Y-12287508D01*
X12749229Y-12287508D02*
X12739706Y-12297031D01*
X12739706Y-12297031D02*
X12730182Y-12316079D01*
X12730182Y-12316079D02*
X12730182Y-12363698D01*
X12730182Y-12363698D02*
X12739706Y-12382746D01*
X12739706Y-12382746D02*
X12749229Y-12392269D01*
X12749229Y-12392269D02*
X12768277Y-12401793D01*
X12768277Y-12401793D02*
X12806372Y-12401793D01*
X12806372Y-12401793D02*
X12825420Y-12392269D01*
X12825420Y-12392269D02*
X12834944Y-12382746D01*
X12834944Y-12382746D02*
X12844467Y-12363698D01*
X13015896Y-12344650D02*
X13015896Y-12477984D01*
X12968277Y-12268460D02*
X12920658Y-12411317D01*
X12920658Y-12411317D02*
X13044467Y-12411317D01*
X13111134Y-12277984D02*
X13111134Y-12316079D01*
X13187325Y-12277984D02*
X13187325Y-12316079D01*
X13482563Y-12554174D02*
X13473039Y-12544650D01*
X13473039Y-12544650D02*
X13453991Y-12516079D01*
X13453991Y-12516079D02*
X13444468Y-12497031D01*
X13444468Y-12497031D02*
X13434944Y-12468460D01*
X13434944Y-12468460D02*
X13425420Y-12420841D01*
X13425420Y-12420841D02*
X13425420Y-12382746D01*
X13425420Y-12382746D02*
X13434944Y-12335127D01*
X13434944Y-12335127D02*
X13444468Y-12306555D01*
X13444468Y-12306555D02*
X13453991Y-12287508D01*
X13453991Y-12287508D02*
X13473039Y-12258936D01*
X13473039Y-12258936D02*
X13482563Y-12249412D01*
X13644468Y-12277984D02*
X13606372Y-12277984D01*
X13606372Y-12277984D02*
X13587325Y-12287508D01*
X13587325Y-12287508D02*
X13577801Y-12297031D01*
X13577801Y-12297031D02*
X13558753Y-12325603D01*
X13558753Y-12325603D02*
X13549229Y-12363698D01*
X13549229Y-12363698D02*
X13549229Y-12439888D01*
X13549229Y-12439888D02*
X13558753Y-12458936D01*
X13558753Y-12458936D02*
X13568277Y-12468460D01*
X13568277Y-12468460D02*
X13587325Y-12477984D01*
X13587325Y-12477984D02*
X13625420Y-12477984D01*
X13625420Y-12477984D02*
X13644468Y-12468460D01*
X13644468Y-12468460D02*
X13653991Y-12458936D01*
X13653991Y-12458936D02*
X13663515Y-12439888D01*
X13663515Y-12439888D02*
X13663515Y-12392269D01*
X13663515Y-12392269D02*
X13653991Y-12373222D01*
X13653991Y-12373222D02*
X13644468Y-12363698D01*
X13644468Y-12363698D02*
X13625420Y-12354174D01*
X13625420Y-12354174D02*
X13587325Y-12354174D01*
X13587325Y-12354174D02*
X13568277Y-12363698D01*
X13568277Y-12363698D02*
X13558753Y-12373222D01*
X13558753Y-12373222D02*
X13549229Y-12392269D01*
X13739706Y-12297031D02*
X13749229Y-12287508D01*
X13749229Y-12287508D02*
X13768277Y-12277984D01*
X13768277Y-12277984D02*
X13815896Y-12277984D01*
X13815896Y-12277984D02*
X13834944Y-12287508D01*
X13834944Y-12287508D02*
X13844468Y-12297031D01*
X13844468Y-12297031D02*
X13853991Y-12316079D01*
X13853991Y-12316079D02*
X13853991Y-12335127D01*
X13853991Y-12335127D02*
X13844468Y-12363698D01*
X13844468Y-12363698D02*
X13730182Y-12477984D01*
X13730182Y-12477984D02*
X13853991Y-12477984D01*
X14092087Y-12477984D02*
X14092087Y-12277984D01*
X14177801Y-12477984D02*
X14177801Y-12373222D01*
X14177801Y-12373222D02*
X14168277Y-12354174D01*
X14168277Y-12354174D02*
X14149230Y-12344650D01*
X14149230Y-12344650D02*
X14120658Y-12344650D01*
X14120658Y-12344650D02*
X14101610Y-12354174D01*
X14101610Y-12354174D02*
X14092087Y-12363698D01*
X14301610Y-12477984D02*
X14282563Y-12468460D01*
X14282563Y-12468460D02*
X14273039Y-12458936D01*
X14273039Y-12458936D02*
X14263515Y-12439888D01*
X14263515Y-12439888D02*
X14263515Y-12382746D01*
X14263515Y-12382746D02*
X14273039Y-12363698D01*
X14273039Y-12363698D02*
X14282563Y-12354174D01*
X14282563Y-12354174D02*
X14301610Y-12344650D01*
X14301610Y-12344650D02*
X14330182Y-12344650D01*
X14330182Y-12344650D02*
X14349230Y-12354174D01*
X14349230Y-12354174D02*
X14358753Y-12363698D01*
X14358753Y-12363698D02*
X14368277Y-12382746D01*
X14368277Y-12382746D02*
X14368277Y-12439888D01*
X14368277Y-12439888D02*
X14358753Y-12458936D01*
X14358753Y-12458936D02*
X14349230Y-12468460D01*
X14349230Y-12468460D02*
X14330182Y-12477984D01*
X14330182Y-12477984D02*
X14301610Y-12477984D01*
X14482563Y-12477984D02*
X14463515Y-12468460D01*
X14463515Y-12468460D02*
X14453991Y-12449412D01*
X14453991Y-12449412D02*
X14453991Y-12277984D01*
X14634944Y-12468460D02*
X14615896Y-12477984D01*
X14615896Y-12477984D02*
X14577801Y-12477984D01*
X14577801Y-12477984D02*
X14558753Y-12468460D01*
X14558753Y-12468460D02*
X14549230Y-12449412D01*
X14549230Y-12449412D02*
X14549230Y-12373222D01*
X14549230Y-12373222D02*
X14558753Y-12354174D01*
X14558753Y-12354174D02*
X14577801Y-12344650D01*
X14577801Y-12344650D02*
X14615896Y-12344650D01*
X14615896Y-12344650D02*
X14634944Y-12354174D01*
X14634944Y-12354174D02*
X14644468Y-12373222D01*
X14644468Y-12373222D02*
X14644468Y-12392269D01*
X14644468Y-12392269D02*
X14549230Y-12411317D01*
X14720658Y-12468460D02*
X14739706Y-12477984D01*
X14739706Y-12477984D02*
X14777801Y-12477984D01*
X14777801Y-12477984D02*
X14796849Y-12468460D01*
X14796849Y-12468460D02*
X14806372Y-12449412D01*
X14806372Y-12449412D02*
X14806372Y-12439888D01*
X14806372Y-12439888D02*
X14796849Y-12420841D01*
X14796849Y-12420841D02*
X14777801Y-12411317D01*
X14777801Y-12411317D02*
X14749230Y-12411317D01*
X14749230Y-12411317D02*
X14730182Y-12401793D01*
X14730182Y-12401793D02*
X14720658Y-12382746D01*
X14720658Y-12382746D02*
X14720658Y-12373222D01*
X14720658Y-12373222D02*
X14730182Y-12354174D01*
X14730182Y-12354174D02*
X14749230Y-12344650D01*
X14749230Y-12344650D02*
X14777801Y-12344650D01*
X14777801Y-12344650D02*
X14796849Y-12354174D01*
X14873039Y-12554174D02*
X14882563Y-12544650D01*
X14882563Y-12544650D02*
X14901611Y-12516079D01*
X14901611Y-12516079D02*
X14911134Y-12497031D01*
X14911134Y-12497031D02*
X14920658Y-12468460D01*
X14920658Y-12468460D02*
X14930182Y-12420841D01*
X14930182Y-12420841D02*
X14930182Y-12382746D01*
X14930182Y-12382746D02*
X14920658Y-12335127D01*
X14920658Y-12335127D02*
X14911134Y-12306555D01*
X14911134Y-12306555D02*
X14901611Y-12287508D01*
X14901611Y-12287508D02*
X14882563Y-12258936D01*
X14882563Y-12258936D02*
X14873039Y-12249412D01*
X9807500Y-12550500D02*
X9807500Y-12750500D01*
X9707500Y-12650500D02*
X9907500Y-12650500D01*
X10149229Y-12541984D02*
X10273039Y-12541984D01*
X10273039Y-12541984D02*
X10206372Y-12618174D01*
X10206372Y-12618174D02*
X10234944Y-12618174D01*
X10234944Y-12618174D02*
X10253991Y-12627698D01*
X10253991Y-12627698D02*
X10263515Y-12637222D01*
X10263515Y-12637222D02*
X10273039Y-12656269D01*
X10273039Y-12656269D02*
X10273039Y-12703888D01*
X10273039Y-12703888D02*
X10263515Y-12722936D01*
X10263515Y-12722936D02*
X10253991Y-12732460D01*
X10253991Y-12732460D02*
X10234944Y-12741984D01*
X10234944Y-12741984D02*
X10177801Y-12741984D01*
X10177801Y-12741984D02*
X10158753Y-12732460D01*
X10158753Y-12732460D02*
X10149229Y-12722936D01*
X10358753Y-12722936D02*
X10368277Y-12732460D01*
X10368277Y-12732460D02*
X10358753Y-12741984D01*
X10358753Y-12741984D02*
X10349229Y-12732460D01*
X10349229Y-12732460D02*
X10358753Y-12722936D01*
X10358753Y-12722936D02*
X10358753Y-12741984D01*
X10492086Y-12541984D02*
X10511134Y-12541984D01*
X10511134Y-12541984D02*
X10530182Y-12551508D01*
X10530182Y-12551508D02*
X10539705Y-12561031D01*
X10539705Y-12561031D02*
X10549229Y-12580079D01*
X10549229Y-12580079D02*
X10558753Y-12618174D01*
X10558753Y-12618174D02*
X10558753Y-12665793D01*
X10558753Y-12665793D02*
X10549229Y-12703888D01*
X10549229Y-12703888D02*
X10539705Y-12722936D01*
X10539705Y-12722936D02*
X10530182Y-12732460D01*
X10530182Y-12732460D02*
X10511134Y-12741984D01*
X10511134Y-12741984D02*
X10492086Y-12741984D01*
X10492086Y-12741984D02*
X10473039Y-12732460D01*
X10473039Y-12732460D02*
X10463515Y-12722936D01*
X10463515Y-12722936D02*
X10453991Y-12703888D01*
X10453991Y-12703888D02*
X10444467Y-12665793D01*
X10444467Y-12665793D02*
X10444467Y-12618174D01*
X10444467Y-12618174D02*
X10453991Y-12580079D01*
X10453991Y-12580079D02*
X10463515Y-12561031D01*
X10463515Y-12561031D02*
X10473039Y-12551508D01*
X10473039Y-12551508D02*
X10492086Y-12541984D01*
X10682563Y-12541984D02*
X10701610Y-12541984D01*
X10701610Y-12541984D02*
X10720658Y-12551508D01*
X10720658Y-12551508D02*
X10730182Y-12561031D01*
X10730182Y-12561031D02*
X10739705Y-12580079D01*
X10739705Y-12580079D02*
X10749229Y-12618174D01*
X10749229Y-12618174D02*
X10749229Y-12665793D01*
X10749229Y-12665793D02*
X10739705Y-12703888D01*
X10739705Y-12703888D02*
X10730182Y-12722936D01*
X10730182Y-12722936D02*
X10720658Y-12732460D01*
X10720658Y-12732460D02*
X10701610Y-12741984D01*
X10701610Y-12741984D02*
X10682563Y-12741984D01*
X10682563Y-12741984D02*
X10663515Y-12732460D01*
X10663515Y-12732460D02*
X10653991Y-12722936D01*
X10653991Y-12722936D02*
X10644467Y-12703888D01*
X10644467Y-12703888D02*
X10634944Y-12665793D01*
X10634944Y-12665793D02*
X10634944Y-12618174D01*
X10634944Y-12618174D02*
X10644467Y-12580079D01*
X10644467Y-12580079D02*
X10653991Y-12561031D01*
X10653991Y-12561031D02*
X10663515Y-12551508D01*
X10663515Y-12551508D02*
X10682563Y-12541984D01*
X10873039Y-12541984D02*
X10892086Y-12541984D01*
X10892086Y-12541984D02*
X10911134Y-12551508D01*
X10911134Y-12551508D02*
X10920658Y-12561031D01*
X10920658Y-12561031D02*
X10930182Y-12580079D01*
X10930182Y-12580079D02*
X10939705Y-12618174D01*
X10939705Y-12618174D02*
X10939705Y-12665793D01*
X10939705Y-12665793D02*
X10930182Y-12703888D01*
X10930182Y-12703888D02*
X10920658Y-12722936D01*
X10920658Y-12722936D02*
X10911134Y-12732460D01*
X10911134Y-12732460D02*
X10892086Y-12741984D01*
X10892086Y-12741984D02*
X10873039Y-12741984D01*
X10873039Y-12741984D02*
X10853991Y-12732460D01*
X10853991Y-12732460D02*
X10844467Y-12722936D01*
X10844467Y-12722936D02*
X10834944Y-12703888D01*
X10834944Y-12703888D02*
X10825420Y-12665793D01*
X10825420Y-12665793D02*
X10825420Y-12618174D01*
X10825420Y-12618174D02*
X10834944Y-12580079D01*
X10834944Y-12580079D02*
X10844467Y-12561031D01*
X10844467Y-12561031D02*
X10853991Y-12551508D01*
X10853991Y-12551508D02*
X10873039Y-12541984D01*
X11025420Y-12741984D02*
X11025420Y-12608650D01*
X11025420Y-12627698D02*
X11034944Y-12618174D01*
X11034944Y-12618174D02*
X11053991Y-12608650D01*
X11053991Y-12608650D02*
X11082563Y-12608650D01*
X11082563Y-12608650D02*
X11101610Y-12618174D01*
X11101610Y-12618174D02*
X11111134Y-12637222D01*
X11111134Y-12637222D02*
X11111134Y-12741984D01*
X11111134Y-12637222D02*
X11120658Y-12618174D01*
X11120658Y-12618174D02*
X11139705Y-12608650D01*
X11139705Y-12608650D02*
X11168277Y-12608650D01*
X11168277Y-12608650D02*
X11187324Y-12618174D01*
X11187324Y-12618174D02*
X11196848Y-12637222D01*
X11196848Y-12637222D02*
X11196848Y-12741984D01*
X11292086Y-12741984D02*
X11292086Y-12608650D01*
X11292086Y-12627698D02*
X11301610Y-12618174D01*
X11301610Y-12618174D02*
X11320658Y-12608650D01*
X11320658Y-12608650D02*
X11349229Y-12608650D01*
X11349229Y-12608650D02*
X11368277Y-12618174D01*
X11368277Y-12618174D02*
X11377801Y-12637222D01*
X11377801Y-12637222D02*
X11377801Y-12741984D01*
X11377801Y-12637222D02*
X11387324Y-12618174D01*
X11387324Y-12618174D02*
X11406372Y-12608650D01*
X11406372Y-12608650D02*
X11434943Y-12608650D01*
X11434943Y-12608650D02*
X11453991Y-12618174D01*
X11453991Y-12618174D02*
X11463515Y-12637222D01*
X11463515Y-12637222D02*
X11463515Y-12741984D01*
X11853991Y-12532460D02*
X11682563Y-12789603D01*
X12111134Y-12541984D02*
X12130182Y-12541984D01*
X12130182Y-12541984D02*
X12149229Y-12551508D01*
X12149229Y-12551508D02*
X12158753Y-12561031D01*
X12158753Y-12561031D02*
X12168277Y-12580079D01*
X12168277Y-12580079D02*
X12177801Y-12618174D01*
X12177801Y-12618174D02*
X12177801Y-12665793D01*
X12177801Y-12665793D02*
X12168277Y-12703888D01*
X12168277Y-12703888D02*
X12158753Y-12722936D01*
X12158753Y-12722936D02*
X12149229Y-12732460D01*
X12149229Y-12732460D02*
X12130182Y-12741984D01*
X12130182Y-12741984D02*
X12111134Y-12741984D01*
X12111134Y-12741984D02*
X12092086Y-12732460D01*
X12092086Y-12732460D02*
X12082563Y-12722936D01*
X12082563Y-12722936D02*
X12073039Y-12703888D01*
X12073039Y-12703888D02*
X12063515Y-12665793D01*
X12063515Y-12665793D02*
X12063515Y-12618174D01*
X12063515Y-12618174D02*
X12073039Y-12580079D01*
X12073039Y-12580079D02*
X12082563Y-12561031D01*
X12082563Y-12561031D02*
X12092086Y-12551508D01*
X12092086Y-12551508D02*
X12111134Y-12541984D01*
X12263515Y-12722936D02*
X12273039Y-12732460D01*
X12273039Y-12732460D02*
X12263515Y-12741984D01*
X12263515Y-12741984D02*
X12253991Y-12732460D01*
X12253991Y-12732460D02*
X12263515Y-12722936D01*
X12263515Y-12722936D02*
X12263515Y-12741984D01*
X12463515Y-12741984D02*
X12349229Y-12741984D01*
X12406372Y-12741984D02*
X12406372Y-12541984D01*
X12406372Y-12541984D02*
X12387325Y-12570555D01*
X12387325Y-12570555D02*
X12368277Y-12589603D01*
X12368277Y-12589603D02*
X12349229Y-12599127D01*
X12653991Y-12741984D02*
X12539706Y-12741984D01*
X12596848Y-12741984D02*
X12596848Y-12541984D01*
X12596848Y-12541984D02*
X12577801Y-12570555D01*
X12577801Y-12570555D02*
X12558753Y-12589603D01*
X12558753Y-12589603D02*
X12539706Y-12599127D01*
X12768277Y-12627698D02*
X12749229Y-12618174D01*
X12749229Y-12618174D02*
X12739706Y-12608650D01*
X12739706Y-12608650D02*
X12730182Y-12589603D01*
X12730182Y-12589603D02*
X12730182Y-12580079D01*
X12730182Y-12580079D02*
X12739706Y-12561031D01*
X12739706Y-12561031D02*
X12749229Y-12551508D01*
X12749229Y-12551508D02*
X12768277Y-12541984D01*
X12768277Y-12541984D02*
X12806372Y-12541984D01*
X12806372Y-12541984D02*
X12825420Y-12551508D01*
X12825420Y-12551508D02*
X12834944Y-12561031D01*
X12834944Y-12561031D02*
X12844467Y-12580079D01*
X12844467Y-12580079D02*
X12844467Y-12589603D01*
X12844467Y-12589603D02*
X12834944Y-12608650D01*
X12834944Y-12608650D02*
X12825420Y-12618174D01*
X12825420Y-12618174D02*
X12806372Y-12627698D01*
X12806372Y-12627698D02*
X12768277Y-12627698D01*
X12768277Y-12627698D02*
X12749229Y-12637222D01*
X12749229Y-12637222D02*
X12739706Y-12646746D01*
X12739706Y-12646746D02*
X12730182Y-12665793D01*
X12730182Y-12665793D02*
X12730182Y-12703888D01*
X12730182Y-12703888D02*
X12739706Y-12722936D01*
X12739706Y-12722936D02*
X12749229Y-12732460D01*
X12749229Y-12732460D02*
X12768277Y-12741984D01*
X12768277Y-12741984D02*
X12806372Y-12741984D01*
X12806372Y-12741984D02*
X12825420Y-12732460D01*
X12825420Y-12732460D02*
X12834944Y-12722936D01*
X12834944Y-12722936D02*
X12844467Y-12703888D01*
X12844467Y-12703888D02*
X12844467Y-12665793D01*
X12844467Y-12665793D02*
X12834944Y-12646746D01*
X12834944Y-12646746D02*
X12825420Y-12637222D01*
X12825420Y-12637222D02*
X12806372Y-12627698D01*
X13034944Y-12741984D02*
X12920658Y-12741984D01*
X12977801Y-12741984D02*
X12977801Y-12541984D01*
X12977801Y-12541984D02*
X12958753Y-12570555D01*
X12958753Y-12570555D02*
X12939706Y-12589603D01*
X12939706Y-12589603D02*
X12920658Y-12599127D01*
X13111134Y-12541984D02*
X13111134Y-12580079D01*
X13187325Y-12541984D02*
X13187325Y-12580079D01*
X13482563Y-12818174D02*
X13473039Y-12808650D01*
X13473039Y-12808650D02*
X13453991Y-12780079D01*
X13453991Y-12780079D02*
X13444468Y-12761031D01*
X13444468Y-12761031D02*
X13434944Y-12732460D01*
X13434944Y-12732460D02*
X13425420Y-12684841D01*
X13425420Y-12684841D02*
X13425420Y-12646746D01*
X13425420Y-12646746D02*
X13434944Y-12599127D01*
X13434944Y-12599127D02*
X13444468Y-12570555D01*
X13444468Y-12570555D02*
X13453991Y-12551508D01*
X13453991Y-12551508D02*
X13473039Y-12522936D01*
X13473039Y-12522936D02*
X13482563Y-12513412D01*
X13644468Y-12608650D02*
X13644468Y-12741984D01*
X13596848Y-12532460D02*
X13549229Y-12675317D01*
X13549229Y-12675317D02*
X13673039Y-12675317D01*
X13901610Y-12741984D02*
X13901610Y-12541984D01*
X13987325Y-12741984D02*
X13987325Y-12637222D01*
X13987325Y-12637222D02*
X13977801Y-12618174D01*
X13977801Y-12618174D02*
X13958753Y-12608650D01*
X13958753Y-12608650D02*
X13930182Y-12608650D01*
X13930182Y-12608650D02*
X13911134Y-12618174D01*
X13911134Y-12618174D02*
X13901610Y-12627698D01*
X14111134Y-12741984D02*
X14092087Y-12732460D01*
X14092087Y-12732460D02*
X14082563Y-12722936D01*
X14082563Y-12722936D02*
X14073039Y-12703888D01*
X14073039Y-12703888D02*
X14073039Y-12646746D01*
X14073039Y-12646746D02*
X14082563Y-12627698D01*
X14082563Y-12627698D02*
X14092087Y-12618174D01*
X14092087Y-12618174D02*
X14111134Y-12608650D01*
X14111134Y-12608650D02*
X14139706Y-12608650D01*
X14139706Y-12608650D02*
X14158753Y-12618174D01*
X14158753Y-12618174D02*
X14168277Y-12627698D01*
X14168277Y-12627698D02*
X14177801Y-12646746D01*
X14177801Y-12646746D02*
X14177801Y-12703888D01*
X14177801Y-12703888D02*
X14168277Y-12722936D01*
X14168277Y-12722936D02*
X14158753Y-12732460D01*
X14158753Y-12732460D02*
X14139706Y-12741984D01*
X14139706Y-12741984D02*
X14111134Y-12741984D01*
X14292087Y-12741984D02*
X14273039Y-12732460D01*
X14273039Y-12732460D02*
X14263515Y-12713412D01*
X14263515Y-12713412D02*
X14263515Y-12541984D01*
X14444468Y-12732460D02*
X14425420Y-12741984D01*
X14425420Y-12741984D02*
X14387325Y-12741984D01*
X14387325Y-12741984D02*
X14368277Y-12732460D01*
X14368277Y-12732460D02*
X14358753Y-12713412D01*
X14358753Y-12713412D02*
X14358753Y-12637222D01*
X14358753Y-12637222D02*
X14368277Y-12618174D01*
X14368277Y-12618174D02*
X14387325Y-12608650D01*
X14387325Y-12608650D02*
X14425420Y-12608650D01*
X14425420Y-12608650D02*
X14444468Y-12618174D01*
X14444468Y-12618174D02*
X14453991Y-12637222D01*
X14453991Y-12637222D02*
X14453991Y-12656269D01*
X14453991Y-12656269D02*
X14358753Y-12675317D01*
X14530182Y-12732460D02*
X14549230Y-12741984D01*
X14549230Y-12741984D02*
X14587325Y-12741984D01*
X14587325Y-12741984D02*
X14606372Y-12732460D01*
X14606372Y-12732460D02*
X14615896Y-12713412D01*
X14615896Y-12713412D02*
X14615896Y-12703888D01*
X14615896Y-12703888D02*
X14606372Y-12684841D01*
X14606372Y-12684841D02*
X14587325Y-12675317D01*
X14587325Y-12675317D02*
X14558753Y-12675317D01*
X14558753Y-12675317D02*
X14539706Y-12665793D01*
X14539706Y-12665793D02*
X14530182Y-12646746D01*
X14530182Y-12646746D02*
X14530182Y-12637222D01*
X14530182Y-12637222D02*
X14539706Y-12618174D01*
X14539706Y-12618174D02*
X14558753Y-12608650D01*
X14558753Y-12608650D02*
X14587325Y-12608650D01*
X14587325Y-12608650D02*
X14606372Y-12618174D01*
X14682563Y-12818174D02*
X14692087Y-12808650D01*
X14692087Y-12808650D02*
X14711134Y-12780079D01*
X14711134Y-12780079D02*
X14720658Y-12761031D01*
X14720658Y-12761031D02*
X14730182Y-12732460D01*
X14730182Y-12732460D02*
X14739706Y-12684841D01*
X14739706Y-12684841D02*
X14739706Y-12646746D01*
X14739706Y-12646746D02*
X14730182Y-12599127D01*
X14730182Y-12599127D02*
X14720658Y-12570555D01*
X14720658Y-12570555D02*
X14711134Y-12551508D01*
X14711134Y-12551508D02*
X14692087Y-12522936D01*
X14692087Y-12522936D02*
X14682563Y-12513412D01*
M02*
