%TF.GenerationSoftware,KiCad,Pcbnew,9.0.0*%
%TF.CreationDate,2025-04-09T17:39:02-07:00*%
%TF.ProjectId,Load Cell Amp Board,4c6f6164-2043-4656-9c6c-20416d702042,rev?*%
%TF.SameCoordinates,Original*%
%TF.FileFunction,Copper,L2,Bot*%
%TF.FilePolarity,Positive*%
%FSLAX46Y46*%
G04 Gerber Fmt 4.6, Leading zero omitted, Abs format (unit mm)*
G04 Created by KiCad (PCBNEW 9.0.0) date 2025-04-09 17:39:02*
%MOMM*%
%LPD*%
G01*
G04 APERTURE LIST*
G04 Aperture macros list*
%AMRoundRect*
0 Rectangle with rounded corners*
0 $1 Rounding radius*
0 $2 $3 $4 $5 $6 $7 $8 $9 X,Y pos of 4 corners*
0 Add a 4 corners polygon primitive as box body*
4,1,4,$2,$3,$4,$5,$6,$7,$8,$9,$2,$3,0*
0 Add four circle primitives for the rounded corners*
1,1,$1+$1,$2,$3*
1,1,$1+$1,$4,$5*
1,1,$1+$1,$6,$7*
1,1,$1+$1,$8,$9*
0 Add four rect primitives between the rounded corners*
20,1,$1+$1,$2,$3,$4,$5,0*
20,1,$1+$1,$4,$5,$6,$7,0*
20,1,$1+$1,$6,$7,$8,$9,0*
20,1,$1+$1,$8,$9,$2,$3,0*%
G04 Aperture macros list end*
%TA.AperFunction,ComponentPad*%
%ADD10C,6.000000*%
%TD*%
%TA.AperFunction,ComponentPad*%
%ADD11RoundRect,0.250001X-0.499999X-0.499999X0.499999X-0.499999X0.499999X0.499999X-0.499999X0.499999X0*%
%TD*%
%TA.AperFunction,ComponentPad*%
%ADD12C,1.500000*%
%TD*%
%TA.AperFunction,ComponentPad*%
%ADD13R,1.170000X1.170000*%
%TD*%
%TA.AperFunction,ComponentPad*%
%ADD14C,1.170000*%
%TD*%
%TA.AperFunction,ComponentPad*%
%ADD15C,2.560000*%
%TD*%
%TA.AperFunction,ComponentPad*%
%ADD16RoundRect,0.300000X0.700000X-0.700000X0.700000X0.700000X-0.700000X0.700000X-0.700000X-0.700000X0*%
%TD*%
%TA.AperFunction,ComponentPad*%
%ADD17RoundRect,0.250000X-0.600000X-0.750000X0.600000X-0.750000X0.600000X0.750000X-0.600000X0.750000X0*%
%TD*%
%TA.AperFunction,ComponentPad*%
%ADD18O,1.700000X2.000000*%
%TD*%
%TA.AperFunction,Conductor*%
%ADD19C,0.500000*%
%TD*%
G04 APERTURE END LIST*
D10*
%TO.P,REF\u002A\u002A,1*%
%TO.N,N/C*%
X117800000Y-83400000D03*
%TD*%
D11*
%TO.P,J6,1,Pin_1*%
%TO.N,Net-(HX4-A+)*%
X189055437Y-123775437D03*
D12*
%TO.P,J6,2,Pin_2*%
%TO.N,Net-(HX4-A-)*%
X192055437Y-123775437D03*
%TO.P,J6,3,Pin_3*%
%TO.N,Net-(HX4-E-)*%
X189055437Y-126775437D03*
%TO.P,J6,4,Pin_4*%
%TO.N,Net-(HX4-E+)*%
X192055437Y-126775437D03*
%TD*%
D13*
%TO.P,J1,1,Pin_1*%
%TO.N,Net-(HX1-SCK)*%
X154000000Y-79600000D03*
D14*
%TO.P,J1,2,Pin_2*%
%TO.N,Net-(HX1-DT)*%
X157000000Y-79600000D03*
%TO.P,J1,3,Pin_3*%
%TO.N,Net-(HX2-DT)*%
X160000000Y-79600000D03*
%TO.P,J1,4,Pin_4*%
%TO.N,Net-(HX3-DT)*%
X163000000Y-79600000D03*
%TO.P,J1,5,Pin_5*%
%TO.N,Net-(HX4-DT)*%
X166000000Y-79600000D03*
%TO.P,J1,6,Pin_6*%
%TO.N,unconnected-(J1-Pin_6-Pad6)*%
X169000000Y-79600000D03*
D15*
%TO.P,J1,7*%
%TO.N,N/C*%
X151850000Y-79600000D03*
%TO.P,J1,8*%
X171150000Y-79600000D03*
%TD*%
D10*
%TO.P,REF\u002A\u002A,1*%
%TO.N,N/C*%
X118000000Y-133600000D03*
%TD*%
D16*
%TO.P,HX3,1,VCC*%
%TO.N,Net-(HX1-VCC)*%
X170805437Y-88805437D03*
%TO.P,HX3,2,SCK*%
%TO.N,Net-(HX1-SCK)*%
X168265437Y-88805437D03*
%TO.P,HX3,3,DT*%
%TO.N,Net-(HX3-DT)*%
X165725437Y-88805437D03*
%TO.P,HX3,4,GND*%
%TO.N,GND*%
X163185437Y-88805437D03*
%TO.P,HX3,5,E+*%
%TO.N,Net-(HX3-E+)*%
X160645437Y-114205437D03*
%TO.P,HX3,6,E-*%
%TO.N,Net-(HX3-E-)*%
X163185437Y-114205437D03*
%TO.P,HX3,7,A-*%
%TO.N,Net-(HX3-A-)*%
X165725437Y-114205437D03*
%TO.P,HX3,8,A+*%
%TO.N,Net-(HX3-A+)*%
X168265437Y-114205437D03*
%TO.P,HX3,9,B-*%
%TO.N,unconnected-(HX3-B--Pad9)*%
X170805437Y-114205437D03*
%TO.P,HX3,10,B+*%
%TO.N,unconnected-(HX3-B+-Pad10)*%
X173345437Y-114205437D03*
%TD*%
%TO.P,HX1,1,VCC*%
%TO.N,Net-(HX1-VCC)*%
X123805437Y-88805437D03*
%TO.P,HX1,2,SCK*%
%TO.N,Net-(HX1-SCK)*%
X121265437Y-88805437D03*
%TO.P,HX1,3,DT*%
%TO.N,Net-(HX1-DT)*%
X118725437Y-88805437D03*
%TO.P,HX1,4,GND*%
%TO.N,GND*%
X116185437Y-88805437D03*
%TO.P,HX1,5,E+*%
%TO.N,Net-(HX1-E+)*%
X113645437Y-114205437D03*
%TO.P,HX1,6,E-*%
%TO.N,Net-(HX1-E-)*%
X116185437Y-114205437D03*
%TO.P,HX1,7,A-*%
%TO.N,Net-(HX1-A-)*%
X118725437Y-114205437D03*
%TO.P,HX1,8,A+*%
%TO.N,Net-(HX1-A+)*%
X121265437Y-114205437D03*
%TO.P,HX1,9,B-*%
%TO.N,unconnected-(HX1-B--Pad9)*%
X123805437Y-114205437D03*
%TO.P,HX1,10,B+*%
%TO.N,unconnected-(HX1-B+-Pad10)*%
X126345437Y-114205437D03*
%TD*%
D11*
%TO.P,J3,1,Pin_1*%
%TO.N,Net-(HX2-A+)*%
X142055437Y-123775437D03*
D12*
%TO.P,J3,2,Pin_2*%
%TO.N,Net-(HX2-A-)*%
X145055437Y-123775437D03*
%TO.P,J3,3,Pin_3*%
%TO.N,Net-(HX2-E-)*%
X142055437Y-126775437D03*
%TO.P,J3,4,Pin_4*%
%TO.N,Net-(HX2-E+)*%
X145055437Y-126775437D03*
%TD*%
D10*
%TO.P,REF\u002A\u002A,1*%
%TO.N,N/C*%
X193000000Y-83400000D03*
%TD*%
D16*
%TO.P,HX4,1,VCC*%
%TO.N,Net-(HX1-VCC)*%
X194305437Y-88805437D03*
%TO.P,HX4,2,SCK*%
%TO.N,Net-(HX1-SCK)*%
X191765437Y-88805437D03*
%TO.P,HX4,3,DT*%
%TO.N,Net-(HX4-DT)*%
X189225437Y-88805437D03*
%TO.P,HX4,4,GND*%
%TO.N,GND*%
X186685437Y-88805437D03*
%TO.P,HX4,5,E+*%
%TO.N,Net-(HX4-E+)*%
X184145437Y-114205437D03*
%TO.P,HX4,6,E-*%
%TO.N,Net-(HX4-E-)*%
X186685437Y-114205437D03*
%TO.P,HX4,7,A-*%
%TO.N,Net-(HX4-A-)*%
X189225437Y-114205437D03*
%TO.P,HX4,8,A+*%
%TO.N,Net-(HX4-A+)*%
X191765437Y-114205437D03*
%TO.P,HX4,9,B-*%
%TO.N,unconnected-(HX4-B--Pad9)*%
X194305437Y-114205437D03*
%TO.P,HX4,10,B+*%
%TO.N,unconnected-(HX4-B+-Pad10)*%
X196845437Y-114205437D03*
%TD*%
D11*
%TO.P,J4,1,Pin_1*%
%TO.N,Net-(HX1-A+)*%
X118555437Y-123775437D03*
D12*
%TO.P,J4,2,Pin_2*%
%TO.N,Net-(HX1-A-)*%
X121555437Y-123775437D03*
%TO.P,J4,3,Pin_3*%
%TO.N,Net-(HX1-E-)*%
X118555437Y-126775437D03*
%TO.P,J4,4,Pin_4*%
%TO.N,Net-(HX1-E+)*%
X121555437Y-126775437D03*
%TD*%
D17*
%TO.P,J2,1,Pin_1*%
%TO.N,Net-(HX1-VCC)*%
X140305437Y-78834562D03*
D18*
%TO.P,J2,2,Pin_2*%
%TO.N,GND*%
X142805437Y-78834562D03*
%TD*%
D16*
%TO.P,HX2,1,VCC*%
%TO.N,Net-(HX1-VCC)*%
X147305437Y-88805437D03*
%TO.P,HX2,2,SCK*%
%TO.N,Net-(HX1-SCK)*%
X144765437Y-88805437D03*
%TO.P,HX2,3,DT*%
%TO.N,Net-(HX2-DT)*%
X142225437Y-88805437D03*
%TO.P,HX2,4,GND*%
%TO.N,GND*%
X139685437Y-88805437D03*
%TO.P,HX2,5,E+*%
%TO.N,Net-(HX2-E+)*%
X137145437Y-114205437D03*
%TO.P,HX2,6,E-*%
%TO.N,Net-(HX2-E-)*%
X139685437Y-114205437D03*
%TO.P,HX2,7,A-*%
%TO.N,Net-(HX2-A-)*%
X142225437Y-114205437D03*
%TO.P,HX2,8,A+*%
%TO.N,Net-(HX2-A+)*%
X144765437Y-114205437D03*
%TO.P,HX2,9,B-*%
%TO.N,unconnected-(HX2-B--Pad9)*%
X147305437Y-114205437D03*
%TO.P,HX2,10,B+*%
%TO.N,unconnected-(HX2-B+-Pad10)*%
X149845437Y-114205437D03*
%TD*%
D11*
%TO.P,J5,1,Pin_1*%
%TO.N,Net-(HX3-A+)*%
X165555437Y-123775437D03*
D12*
%TO.P,J5,2,Pin_2*%
%TO.N,Net-(HX3-A-)*%
X168555437Y-123775437D03*
%TO.P,J5,3,Pin_3*%
%TO.N,Net-(HX3-E-)*%
X165555437Y-126775437D03*
%TO.P,J5,4,Pin_4*%
%TO.N,Net-(HX3-E+)*%
X168555437Y-126775437D03*
%TD*%
D10*
%TO.P,REF\u002A\u002A,1*%
%TO.N,N/C*%
X193000000Y-133600000D03*
%TD*%
D19*
%TO.N,Net-(HX1-VCC)*%
X147305437Y-88805437D02*
X148810874Y-87300000D01*
X145800000Y-87300000D02*
X147305437Y-88805437D01*
X140305437Y-78834562D02*
X133776312Y-78834562D01*
X192800000Y-87300000D02*
X194305437Y-88805437D01*
X125310874Y-87300000D02*
X145800000Y-87300000D01*
X172310874Y-87300000D02*
X192800000Y-87300000D01*
X169300000Y-87300000D02*
X170805437Y-88805437D01*
X170805437Y-88805437D02*
X172310874Y-87300000D01*
X123805437Y-88805437D02*
X125310874Y-87300000D01*
X148810874Y-87300000D02*
X169300000Y-87300000D01*
X133776312Y-78834562D02*
X123805437Y-88805437D01*
%TD*%
M02*
