M48
; DRILL file {KiCad 9.0.0} date 2025-04-09T17:27:36-0700
; FORMAT={-:-/ absolute / metric / decimal}
; #@! TF.CreationDate,2025-04-09T17:27:36-07:00
; #@! TF.GenerationSoftware,Kicad,Pcbnew,9.0.0
; #@! TF.FileFunction,Plated,1,2,PTH
FMAT,2
METRIC
; #@! TA.AperFunction,Plated,PTH,ViaDrill
T1C0.300
; #@! TA.AperFunction,Plated,PTH,ComponentDrill
T2C1.000
; #@! TA.AperFunction,Plated,PTH,ComponentDrill
T3C1.020
; #@! TA.AperFunction,Plated,PTH,ComponentDrill
T4C1.200
; #@! TA.AperFunction,Plated,PTH,ComponentDrill
T5C2.410
; #@! TA.AperFunction,Plated,PTH,ComponentDrill
T6C3.000
%
G90
G05
T1
X132.55Y-132.15
X133.7Y-133.2
X137.675Y-132.197
T2
X107.8Y-99.12
X107.8Y-101.66
X107.8Y-104.2
X107.8Y-106.74
X107.8Y-109.28
X107.8Y-120.12
X107.8Y-122.66
X107.8Y-125.2
X107.8Y-127.74
X107.8Y-130.28
X133.2Y-99.12
X133.2Y-101.66
X133.2Y-104.2
X133.2Y-120.12
X133.2Y-122.66
X133.2Y-125.2
T3
X146.0Y-106.2
X146.0Y-109.2
X146.0Y-112.2
X146.0Y-115.2
X146.0Y-118.2
X146.0Y-121.2
T4
X111.378Y-141.4
X114.878Y-141.4
X118.378Y-141.4
X121.878Y-141.4
X125.378Y-141.4
X128.878Y-141.4
X132.378Y-141.4
X135.878Y-141.4
X139.378Y-141.4
X146.1Y-129.1
X146.1Y-132.6
X146.1Y-136.1
T5
X146.0Y-104.05
X146.0Y-123.35
T6
X100.4Y-96.0
X100.4Y-146.0
X150.4Y-96.0
X150.4Y-146.0
M30
