%TF.GenerationSoftware,KiCad,Pcbnew,9.0.0*%
%TF.CreationDate,2025-04-09T17:27:32-07:00*%
%TF.ProjectId,Relay Board,52656c61-7920-4426-9f61-72642e6b6963,rev?*%
%TF.SameCoordinates,Original*%
%TF.FileFunction,Copper,L1,Top*%
%TF.FilePolarity,Positive*%
%FSLAX46Y46*%
G04 Gerber Fmt 4.6, Leading zero omitted, Abs format (unit mm)*
G04 Created by KiCad (PCBNEW 9.0.0) date 2025-04-09 17:27:32*
%MOMM*%
%LPD*%
G01*
G04 APERTURE LIST*
G04 Aperture macros list*
%AMRoundRect*
0 Rectangle with rounded corners*
0 $1 Rounding radius*
0 $2 $3 $4 $5 $6 $7 $8 $9 X,Y pos of 4 corners*
0 Add a 4 corners polygon primitive as box body*
4,1,4,$2,$3,$4,$5,$6,$7,$8,$9,$2,$3,0*
0 Add four circle primitives for the rounded corners*
1,1,$1+$1,$2,$3*
1,1,$1+$1,$4,$5*
1,1,$1+$1,$6,$7*
1,1,$1+$1,$8,$9*
0 Add four rect primitives between the rounded corners*
20,1,$1+$1,$2,$3,$4,$5,0*
20,1,$1+$1,$4,$5,$6,$7,0*
20,1,$1+$1,$6,$7,$8,$9,0*
20,1,$1+$1,$8,$9,$2,$3,0*%
G04 Aperture macros list end*
%TA.AperFunction,ComponentPad*%
%ADD10C,2.000000*%
%TD*%
%TA.AperFunction,SMDPad,CuDef*%
%ADD11R,0.750000X0.300000*%
%TD*%
%TA.AperFunction,SMDPad,CuDef*%
%ADD12R,1.900000X2.600000*%
%TD*%
%TA.AperFunction,ComponentPad*%
%ADD13R,1.170000X1.170000*%
%TD*%
%TA.AperFunction,ComponentPad*%
%ADD14C,1.170000*%
%TD*%
%TA.AperFunction,ComponentPad*%
%ADD15C,2.560000*%
%TD*%
%TA.AperFunction,SMDPad,CuDef*%
%ADD16RoundRect,0.250000X-1.100000X0.412500X-1.100000X-0.412500X1.100000X-0.412500X1.100000X0.412500X0*%
%TD*%
%TA.AperFunction,ComponentPad*%
%ADD17R,2.400000X2.400000*%
%TD*%
%TA.AperFunction,ComponentPad*%
%ADD18C,2.400000*%
%TD*%
%TA.AperFunction,ComponentPad*%
%ADD19C,6.000000*%
%TD*%
%TA.AperFunction,SMDPad,CuDef*%
%ADD20RoundRect,0.250000X1.075000X-0.400000X1.075000X0.400000X-1.075000X0.400000X-1.075000X-0.400000X0*%
%TD*%
%TA.AperFunction,ViaPad*%
%ADD21C,0.600000*%
%TD*%
%TA.AperFunction,Conductor*%
%ADD22C,0.200000*%
%TD*%
%TA.AperFunction,Conductor*%
%ADD23C,0.500000*%
%TD*%
%TA.AperFunction,Conductor*%
%ADD24C,1.000000*%
%TD*%
G04 APERTURE END LIST*
D10*
%TO.P,K2,*%
%TO.N,*%
X107800000Y-106740000D03*
X107800000Y-101660000D03*
%TO.P,K2,1,Signal*%
%TO.N,Net-(J1-Pin_4)*%
X133200000Y-104200000D03*
%TO.P,K2,2,5v*%
%TO.N,5v*%
X133200000Y-101660000D03*
%TO.P,K2,3,Gnd*%
%TO.N,GND*%
X133200000Y-99120000D03*
%TO.P,K2,4*%
%TO.N,Net-(J2-Pin_6)*%
X107800000Y-99120000D03*
%TO.P,K2,5*%
%TO.N,Net-(J2-Pin_5)*%
X107800000Y-104200000D03*
%TO.P,K2,6*%
%TO.N,Net-(J2-Pin_4)*%
X107800000Y-109280000D03*
%TD*%
D11*
%TO.P,IC1,1,VCC_1*%
%TO.N,5v*%
X133800000Y-130100000D03*
%TO.P,IC1,2,VCC_2*%
X133800000Y-130600000D03*
%TO.P,IC1,3,GND*%
%TO.N,GND*%
X133800000Y-131100000D03*
%TO.P,IC1,4,IMON*%
%TO.N,Net-(IC1-IMON)*%
X133800000Y-131600000D03*
%TO.P,IC1,5,VC_SEL*%
%TO.N,Net-(IC1-VC_SEL)*%
X133800000Y-132100000D03*
%TO.P,IC1,6,FLAG*%
%TO.N,Net-(IC1-FLAG)*%
X136800000Y-132100000D03*
%TO.P,IC1,7,EN*%
%TO.N,Net-(IC1-EN)*%
X136800000Y-131600000D03*
%TO.P,IC1,8,ILIM*%
%TO.N,Net-(IC1-ILIM)*%
X136800000Y-131100000D03*
%TO.P,IC1,9,SRC_1*%
%TO.N,Net-(IC1-SRC_1)*%
X136800000Y-130600000D03*
%TO.P,IC1,10,SRC_2*%
X136800000Y-130100000D03*
D12*
%TO.P,IC1,11,EP*%
%TO.N,GND*%
X135300000Y-131100000D03*
%TD*%
D13*
%TO.P,J1,1,Pin_1*%
%TO.N,5v*%
X146000000Y-121200000D03*
D14*
%TO.P,J1,2,Pin_2*%
%TO.N,GND*%
X146000000Y-118200000D03*
%TO.P,J1,3,Pin_3*%
%TO.N,Net-(J1-Pin_3)*%
X146000000Y-115200000D03*
%TO.P,J1,4,Pin_4*%
%TO.N,Net-(J1-Pin_4)*%
X146000000Y-112200000D03*
%TO.P,J1,5,Pin_5*%
%TO.N,Net-(IC1-FLAG)*%
X146000000Y-109200000D03*
%TO.P,J1,6,Pin_6*%
%TO.N,Net-(IC1-EN)*%
X146000000Y-106200000D03*
D15*
%TO.P,J1,7*%
%TO.N,N/C*%
X146000000Y-123350000D03*
%TO.P,J1,8*%
X146000000Y-104050000D03*
%TD*%
D16*
%TO.P,C1,1*%
%TO.N,5v*%
X131100000Y-130137500D03*
%TO.P,C1,2*%
%TO.N,GND*%
X131100000Y-133262500D03*
%TD*%
D17*
%TO.P,J2,1,Pin_1*%
%TO.N,Net-(J2-Pin_1)*%
X111378214Y-141400000D03*
D18*
%TO.P,J2,2,Pin_2*%
%TO.N,Net-(J2-Pin_2)*%
X114878214Y-141400000D03*
%TO.P,J2,3,Pin_3*%
%TO.N,Net-(J2-Pin_3)*%
X118378214Y-141400000D03*
%TO.P,J2,4,Pin_4*%
%TO.N,Net-(J2-Pin_4)*%
X121878214Y-141400000D03*
%TO.P,J2,5,Pin_5*%
%TO.N,Net-(J2-Pin_5)*%
X125378214Y-141400000D03*
%TO.P,J2,6,Pin_6*%
%TO.N,Net-(J2-Pin_6)*%
X128878214Y-141400000D03*
%TO.P,J2,7,Pin_7*%
%TO.N,GND*%
X132378214Y-141400000D03*
%TO.P,J2,8,Pin_8*%
X135878214Y-141400000D03*
%TO.P,J2,9,Pin_9*%
X139378214Y-141400000D03*
%TD*%
D19*
%TO.P,REF\u002A\u002A,1*%
%TO.N,GND*%
X150400000Y-146000000D03*
%TD*%
%TO.P,REF\u002A\u002A,1*%
%TO.N,GND*%
X100400000Y-146000000D03*
%TD*%
D17*
%TO.P,J3,1,Pin_1*%
%TO.N,Net-(IC1-SRC_1)*%
X146100000Y-136100000D03*
D18*
%TO.P,J3,2,Pin_2*%
X146100000Y-132600000D03*
%TO.P,J3,3,Pin_3*%
X146100000Y-129100000D03*
%TD*%
D19*
%TO.P,REF\u002A\u002A,1*%
%TO.N,GND*%
X150400000Y-96000000D03*
%TD*%
D20*
%TO.P,R1,1*%
%TO.N,Net-(IC1-ILIM)*%
X140000000Y-134900000D03*
%TO.P,R1,2*%
%TO.N,Net-(IC1-SRC_1)*%
X140000000Y-131800000D03*
%TD*%
D10*
%TO.P,K1,*%
%TO.N,*%
X107800000Y-127740000D03*
X107800000Y-122660000D03*
%TO.P,K1,1,Signal*%
%TO.N,Net-(J1-Pin_3)*%
X133200000Y-125200000D03*
%TO.P,K1,2,5v*%
%TO.N,5v*%
X133200000Y-122660000D03*
%TO.P,K1,3,Gnd*%
%TO.N,GND*%
X133200000Y-120120000D03*
%TO.P,K1,4*%
%TO.N,Net-(J2-Pin_3)*%
X107800000Y-120120000D03*
%TO.P,K1,5*%
%TO.N,Net-(J2-Pin_2)*%
X107800000Y-125200000D03*
%TO.P,K1,6*%
%TO.N,Net-(J2-Pin_1)*%
X107800000Y-130280000D03*
%TD*%
D19*
%TO.P,REF\u002A\u002A,1*%
%TO.N,GND*%
X100400000Y-96000000D03*
%TD*%
D21*
%TO.N,Net-(IC1-VC_SEL)*%
X133700000Y-133200000D03*
%TO.N,Net-(IC1-EN)*%
X137674999Y-132196529D03*
%TO.N,Net-(IC1-IMON)*%
X132550000Y-132150000D03*
%TD*%
D22*
%TO.N,Net-(IC1-IMON)*%
X132550000Y-132150000D02*
X133100000Y-131600000D01*
X133100000Y-131600000D02*
X133800000Y-131600000D01*
%TO.N,Net-(IC1-VC_SEL)*%
X133800000Y-133100000D02*
X133700000Y-133200000D01*
X133800000Y-132100000D02*
X133800000Y-133100000D01*
%TO.N,GND*%
X135300000Y-132600000D02*
X135300000Y-131100000D01*
X132500000Y-131100000D02*
X129800000Y-133800000D01*
X134100000Y-133800000D02*
X135300000Y-132600000D01*
X133800000Y-131100000D02*
X132500000Y-131100000D01*
X129800000Y-133800000D02*
X134100000Y-133800000D01*
%TO.N,Net-(IC1-EN)*%
X137600000Y-131840100D02*
X137359900Y-131600000D01*
X137600000Y-132121530D02*
X137600000Y-131840100D01*
X137674999Y-132196529D02*
X137600000Y-132121530D01*
X137359900Y-131600000D02*
X136800000Y-131600000D01*
%TO.N,Net-(IC1-ILIM)*%
X138300000Y-131973000D02*
X137427000Y-131100000D01*
X137427000Y-131100000D02*
X136800000Y-131100000D01*
X140000000Y-134900000D02*
X138300000Y-133200000D01*
X138300000Y-133200000D02*
X138300000Y-131973000D01*
%TO.N,Net-(J1-Pin_3)*%
X147581000Y-116781000D02*
X147581000Y-124004872D01*
X146000000Y-115200000D02*
X147581000Y-116781000D01*
X147581000Y-124004872D02*
X146385872Y-125200000D01*
X146385872Y-125200000D02*
X133200000Y-125200000D01*
%TO.N,Net-(J1-Pin_4)*%
X141200000Y-112200000D02*
X133200000Y-104200000D01*
X146000000Y-112200000D02*
X141200000Y-112200000D01*
D23*
%TO.N,5v*%
X131749000Y-103111000D02*
X133200000Y-101660000D01*
D22*
X133800000Y-130100000D02*
X133800000Y-130600000D01*
X131100000Y-124760000D02*
X133200000Y-122660000D01*
X131100000Y-130037500D02*
X133737500Y-130037500D01*
X133737500Y-130037500D02*
X133800000Y-130100000D01*
D23*
X146000000Y-121200000D02*
X134660000Y-121200000D01*
D22*
X131100000Y-130037500D02*
X131100000Y-124760000D01*
D23*
X134660000Y-121200000D02*
X133200000Y-122660000D01*
X131749000Y-121209000D02*
X131749000Y-103111000D01*
X133200000Y-122660000D02*
X131749000Y-121209000D01*
D22*
%TO.N,GND*%
X135300000Y-131100000D02*
X133800000Y-131100000D01*
D24*
%TO.N,Net-(J2-Pin_6)*%
X128878214Y-120198214D02*
X128878214Y-141400000D01*
X107800000Y-99120000D02*
X128878214Y-120198214D01*
%TO.N,Net-(J2-Pin_5)*%
X107800000Y-104200000D02*
X125378214Y-121778214D01*
X125378214Y-121778214D02*
X125378214Y-141400000D01*
%TO.N,Net-(J2-Pin_4)*%
X121878214Y-123358214D02*
X121878214Y-141400000D01*
X107800000Y-109280000D02*
X121878214Y-123358214D01*
%TO.N,Net-(J2-Pin_3)*%
X107800000Y-120120000D02*
X118378214Y-130698214D01*
X118378214Y-130698214D02*
X118378214Y-141400000D01*
%TO.N,Net-(J2-Pin_2)*%
X114878214Y-132278214D02*
X114878214Y-141400000D01*
X107800000Y-125200000D02*
X114878214Y-132278214D01*
%TO.N,Net-(J2-Pin_1)*%
X107800000Y-130280000D02*
X111378214Y-133858214D01*
X111378214Y-133858214D02*
X111378214Y-141400000D01*
D23*
%TO.N,Net-(IC1-SRC_1)*%
X136800000Y-130100000D02*
X145100000Y-130100000D01*
D24*
X146100000Y-129100000D02*
X146100000Y-132600000D01*
D22*
X138800000Y-130600000D02*
X136800000Y-130600000D01*
D23*
X136800000Y-130100000D02*
X136800000Y-130499000D01*
D22*
X140000000Y-131800000D02*
X138800000Y-130600000D01*
D23*
X145100000Y-130100000D02*
X146100000Y-129100000D01*
D24*
X146100000Y-132600000D02*
X146100000Y-136100000D01*
D22*
%TO.N,Net-(IC1-FLAG)*%
X148282000Y-136920000D02*
X148282000Y-111482000D01*
X148282000Y-111482000D02*
X146000000Y-109200000D01*
X147601000Y-137601000D02*
X148282000Y-136920000D01*
X136800000Y-134500000D02*
X139901000Y-137601000D01*
X136800000Y-132100000D02*
X136800000Y-134500000D01*
X139901000Y-137601000D02*
X147601000Y-137601000D01*
%TD*%
%TA.AperFunction,Conductor*%
%TO.N,GND*%
G36*
X147728398Y-93520185D02*
G01*
X147774153Y-93572989D01*
X147784097Y-93642147D01*
X147757212Y-93703165D01*
X147585387Y-93912532D01*
X147585377Y-93912546D01*
X147394333Y-94198463D01*
X147394322Y-94198481D01*
X147232226Y-94501744D01*
X147232219Y-94501758D01*
X147100623Y-94819459D01*
X147000792Y-95148556D01*
X147000791Y-95148562D01*
X146933708Y-95485817D01*
X146933705Y-95485834D01*
X146900000Y-95828059D01*
X146900000Y-96171940D01*
X146933705Y-96514165D01*
X146933708Y-96514182D01*
X147000791Y-96851437D01*
X147000792Y-96851443D01*
X147100623Y-97180540D01*
X147232219Y-97498241D01*
X147232226Y-97498255D01*
X147394322Y-97801518D01*
X147394333Y-97801536D01*
X147585377Y-98087453D01*
X147585387Y-98087467D01*
X147753785Y-98292659D01*
X147753786Y-98292660D01*
X149177340Y-96869105D01*
X149255864Y-96977184D01*
X149422816Y-97144136D01*
X149530892Y-97222658D01*
X148107338Y-98646212D01*
X148107339Y-98646213D01*
X148312533Y-98814612D01*
X148312546Y-98814622D01*
X148598463Y-99005666D01*
X148598481Y-99005677D01*
X148901744Y-99167773D01*
X148901758Y-99167780D01*
X149219459Y-99299376D01*
X149548556Y-99399207D01*
X149548562Y-99399208D01*
X149885817Y-99466291D01*
X149885834Y-99466294D01*
X150228059Y-99500000D01*
X150571941Y-99500000D01*
X150914165Y-99466294D01*
X150914182Y-99466291D01*
X151251437Y-99399208D01*
X151251443Y-99399207D01*
X151580540Y-99299376D01*
X151898241Y-99167780D01*
X151898255Y-99167773D01*
X152201518Y-99005677D01*
X152201536Y-99005666D01*
X152487453Y-98814622D01*
X152487467Y-98814612D01*
X152696835Y-98642788D01*
X152761145Y-98615475D01*
X152830012Y-98627266D01*
X152881573Y-98674418D01*
X152899500Y-98738641D01*
X152899500Y-143261358D01*
X152879815Y-143328397D01*
X152827011Y-143374152D01*
X152757853Y-143384096D01*
X152696835Y-143357211D01*
X152487467Y-143185387D01*
X152487453Y-143185377D01*
X152201536Y-142994333D01*
X152201518Y-142994322D01*
X151898255Y-142832226D01*
X151898241Y-142832219D01*
X151580540Y-142700623D01*
X151251443Y-142600792D01*
X151251437Y-142600791D01*
X150914182Y-142533708D01*
X150914165Y-142533705D01*
X150571941Y-142500000D01*
X150228059Y-142500000D01*
X149885834Y-142533705D01*
X149885817Y-142533708D01*
X149548562Y-142600791D01*
X149548556Y-142600792D01*
X149219459Y-142700623D01*
X148901758Y-142832219D01*
X148901744Y-142832226D01*
X148598481Y-142994322D01*
X148598463Y-142994333D01*
X148312546Y-143185377D01*
X148312532Y-143185387D01*
X148107338Y-143353786D01*
X149530893Y-144777341D01*
X149422816Y-144855864D01*
X149255864Y-145022816D01*
X149177341Y-145130893D01*
X147753786Y-143707338D01*
X147585387Y-143912532D01*
X147585377Y-143912546D01*
X147394333Y-144198463D01*
X147394322Y-144198481D01*
X147232226Y-144501744D01*
X147232219Y-144501758D01*
X147100623Y-144819459D01*
X147000792Y-145148556D01*
X147000791Y-145148562D01*
X146933708Y-145485817D01*
X146933705Y-145485834D01*
X146900000Y-145828059D01*
X146900000Y-146171940D01*
X146933705Y-146514165D01*
X146933708Y-146514182D01*
X147000791Y-146851437D01*
X147000792Y-146851443D01*
X147100623Y-147180540D01*
X147232219Y-147498241D01*
X147232226Y-147498255D01*
X147394322Y-147801518D01*
X147394333Y-147801536D01*
X147585377Y-148087453D01*
X147585387Y-148087467D01*
X147757212Y-148296835D01*
X147784525Y-148361145D01*
X147772734Y-148430012D01*
X147725582Y-148481573D01*
X147661359Y-148499500D01*
X103138641Y-148499500D01*
X103071602Y-148479815D01*
X103025847Y-148427011D01*
X103015903Y-148357853D01*
X103042788Y-148296835D01*
X103214612Y-148087467D01*
X103214622Y-148087453D01*
X103405666Y-147801536D01*
X103405677Y-147801518D01*
X103567773Y-147498255D01*
X103567780Y-147498241D01*
X103699376Y-147180540D01*
X103799207Y-146851443D01*
X103799208Y-146851437D01*
X103866291Y-146514182D01*
X103866294Y-146514165D01*
X103900000Y-146171940D01*
X103900000Y-145828059D01*
X103866294Y-145485834D01*
X103866291Y-145485817D01*
X103799208Y-145148562D01*
X103799207Y-145148556D01*
X103699376Y-144819459D01*
X103567780Y-144501758D01*
X103567773Y-144501744D01*
X103405677Y-144198481D01*
X103405666Y-144198463D01*
X103214622Y-143912546D01*
X103214612Y-143912533D01*
X103046213Y-143707339D01*
X103046212Y-143707338D01*
X101622658Y-145130892D01*
X101544136Y-145022816D01*
X101377184Y-144855864D01*
X101269105Y-144777340D01*
X102692660Y-143353786D01*
X102692659Y-143353785D01*
X102487467Y-143185387D01*
X102487453Y-143185377D01*
X102201536Y-142994333D01*
X102201518Y-142994322D01*
X101898255Y-142832226D01*
X101898241Y-142832219D01*
X101580540Y-142700623D01*
X101251443Y-142600792D01*
X101251437Y-142600791D01*
X100914182Y-142533708D01*
X100914165Y-142533705D01*
X100571941Y-142500000D01*
X100228059Y-142500000D01*
X99885834Y-142533705D01*
X99885817Y-142533708D01*
X99548562Y-142600791D01*
X99548556Y-142600792D01*
X99219459Y-142700623D01*
X98901758Y-142832219D01*
X98901744Y-142832226D01*
X98598481Y-142994322D01*
X98598463Y-142994333D01*
X98312546Y-143185377D01*
X98312532Y-143185387D01*
X98103165Y-143357211D01*
X98038855Y-143384524D01*
X97969987Y-143372733D01*
X97918427Y-143325581D01*
X97900500Y-143261358D01*
X97900500Y-98738641D01*
X97920185Y-98671602D01*
X97972989Y-98625847D01*
X98042147Y-98615903D01*
X98103165Y-98642788D01*
X98312532Y-98814612D01*
X98312546Y-98814622D01*
X98598463Y-99005666D01*
X98598481Y-99005677D01*
X98901744Y-99167773D01*
X98901758Y-99167780D01*
X99219459Y-99299376D01*
X99548556Y-99399207D01*
X99548562Y-99399208D01*
X99885817Y-99466291D01*
X99885834Y-99466294D01*
X100228059Y-99500000D01*
X100571941Y-99500000D01*
X100914165Y-99466294D01*
X100914182Y-99466291D01*
X101251437Y-99399208D01*
X101251443Y-99399207D01*
X101580540Y-99299376D01*
X101898241Y-99167780D01*
X101898255Y-99167773D01*
X102201518Y-99005677D01*
X102201536Y-99005666D01*
X102207169Y-99001902D01*
X106299500Y-99001902D01*
X106299500Y-99238097D01*
X106336446Y-99471368D01*
X106409433Y-99695996D01*
X106516519Y-99906163D01*
X106516657Y-99906433D01*
X106655483Y-100097510D01*
X106822490Y-100264517D01*
X106857127Y-100289683D01*
X106899792Y-100345013D01*
X106905771Y-100414626D01*
X106873165Y-100476421D01*
X106857130Y-100490315D01*
X106839365Y-100503222D01*
X106822488Y-100515484D01*
X106655485Y-100682487D01*
X106655485Y-100682488D01*
X106655483Y-100682490D01*
X106595862Y-100764550D01*
X106516657Y-100873566D01*
X106409433Y-101084003D01*
X106336446Y-101308631D01*
X106299500Y-101541902D01*
X106299500Y-101778097D01*
X106336446Y-102011368D01*
X106409433Y-102235996D01*
X106472808Y-102360375D01*
X106516657Y-102446433D01*
X106655483Y-102637510D01*
X106822490Y-102804517D01*
X106857127Y-102829683D01*
X106899792Y-102885013D01*
X106905771Y-102954626D01*
X106873165Y-103016421D01*
X106857130Y-103030315D01*
X106847821Y-103037079D01*
X106822488Y-103055484D01*
X106655485Y-103222487D01*
X106655485Y-103222488D01*
X106655483Y-103222490D01*
X106627644Y-103260807D01*
X106516657Y-103413566D01*
X106409433Y-103624003D01*
X106336446Y-103848631D01*
X106299500Y-104081902D01*
X106299500Y-104318097D01*
X106336446Y-104551368D01*
X106409433Y-104775996D01*
X106516657Y-104986433D01*
X106655483Y-105177510D01*
X106822490Y-105344517D01*
X106857127Y-105369683D01*
X106899792Y-105425013D01*
X106905771Y-105494626D01*
X106873165Y-105556421D01*
X106857130Y-105570315D01*
X106839365Y-105583222D01*
X106822488Y-105595484D01*
X106655485Y-105762487D01*
X106655485Y-105762488D01*
X106655483Y-105762490D01*
X106640356Y-105783311D01*
X106516657Y-105953566D01*
X106409433Y-106164003D01*
X106336446Y-106388631D01*
X106299500Y-106621902D01*
X106299500Y-106858097D01*
X106336446Y-107091368D01*
X106409433Y-107315996D01*
X106516657Y-107526433D01*
X106655483Y-107717510D01*
X106822490Y-107884517D01*
X106857127Y-107909683D01*
X106899792Y-107965013D01*
X106905771Y-108034626D01*
X106873165Y-108096421D01*
X106857130Y-108110315D01*
X106839365Y-108123222D01*
X106822488Y-108135484D01*
X106655485Y-108302487D01*
X106655485Y-108302488D01*
X106655483Y-108302490D01*
X106604961Y-108372027D01*
X106516657Y-108493566D01*
X106409433Y-108704003D01*
X106336446Y-108928631D01*
X106299500Y-109161902D01*
X106299500Y-109398097D01*
X106336446Y-109631368D01*
X106409433Y-109855996D01*
X106516657Y-110066433D01*
X106655483Y-110257510D01*
X106822490Y-110424517D01*
X107013567Y-110563343D01*
X107112991Y-110614002D01*
X107224003Y-110670566D01*
X107224005Y-110670566D01*
X107224008Y-110670568D01*
X107344412Y-110709689D01*
X107448631Y-110743553D01*
X107681903Y-110780500D01*
X107681908Y-110780500D01*
X107834218Y-110780500D01*
X107901257Y-110800185D01*
X107921899Y-110816819D01*
X120841395Y-123736315D01*
X120874880Y-123797638D01*
X120877714Y-123823996D01*
X120877714Y-139963126D01*
X120858029Y-140030165D01*
X120829201Y-140061502D01*
X120754584Y-140118757D01*
X120596971Y-140276370D01*
X120596965Y-140276377D01*
X120461272Y-140453217D01*
X120461266Y-140453226D01*
X120349809Y-140646273D01*
X120349807Y-140646277D01*
X120264507Y-140852209D01*
X120264505Y-140852216D01*
X120264504Y-140852219D01*
X120247988Y-140913857D01*
X120211624Y-140973516D01*
X120148777Y-141004045D01*
X120079401Y-140995750D01*
X120025523Y-140951265D01*
X120008440Y-140913858D01*
X119991924Y-140852219D01*
X119906619Y-140646274D01*
X119795162Y-140453226D01*
X119659461Y-140276376D01*
X119659456Y-140276370D01*
X119501843Y-140118757D01*
X119427227Y-140061502D01*
X119386025Y-140005074D01*
X119378714Y-139963126D01*
X119378714Y-130599673D01*
X119366928Y-130540423D01*
X119340266Y-130406379D01*
X119264846Y-130224300D01*
X119264845Y-130224299D01*
X119264842Y-130224293D01*
X119155354Y-130060433D01*
X119155351Y-130060429D01*
X109336819Y-120241897D01*
X109303334Y-120180574D01*
X109300500Y-120154216D01*
X109300500Y-120001902D01*
X109263553Y-119768631D01*
X109190566Y-119544003D01*
X109134002Y-119432991D01*
X109083343Y-119333567D01*
X108944517Y-119142490D01*
X108777510Y-118975483D01*
X108586433Y-118836657D01*
X108375996Y-118729433D01*
X108151368Y-118656446D01*
X107918097Y-118619500D01*
X107918092Y-118619500D01*
X107681908Y-118619500D01*
X107681903Y-118619500D01*
X107448631Y-118656446D01*
X107224003Y-118729433D01*
X107013566Y-118836657D01*
X106956239Y-118878308D01*
X106822490Y-118975483D01*
X106822488Y-118975485D01*
X106822487Y-118975485D01*
X106655485Y-119142487D01*
X106655485Y-119142488D01*
X106655483Y-119142490D01*
X106609698Y-119205507D01*
X106516657Y-119333566D01*
X106409433Y-119544003D01*
X106336446Y-119768631D01*
X106299500Y-120001902D01*
X106299500Y-120238097D01*
X106336446Y-120471368D01*
X106409433Y-120695996D01*
X106512427Y-120898132D01*
X106516657Y-120906433D01*
X106655483Y-121097510D01*
X106822490Y-121264517D01*
X106857127Y-121289683D01*
X106899792Y-121345013D01*
X106905771Y-121414626D01*
X106873165Y-121476421D01*
X106857130Y-121490315D01*
X106839365Y-121503222D01*
X106822488Y-121515484D01*
X106655485Y-121682487D01*
X106655485Y-121682488D01*
X106655483Y-121682490D01*
X106595862Y-121764550D01*
X106516657Y-121873566D01*
X106409433Y-122084003D01*
X106336446Y-122308631D01*
X106299500Y-122541902D01*
X106299500Y-122778097D01*
X106336446Y-123011368D01*
X106409433Y-123235996D01*
X106516657Y-123446433D01*
X106655483Y-123637510D01*
X106822490Y-123804517D01*
X106857127Y-123829683D01*
X106899792Y-123885013D01*
X106905771Y-123954626D01*
X106873165Y-124016421D01*
X106857130Y-124030315D01*
X106839365Y-124043222D01*
X106822488Y-124055484D01*
X106655485Y-124222487D01*
X106655485Y-124222488D01*
X106655483Y-124222490D01*
X106614079Y-124279478D01*
X106516657Y-124413566D01*
X106409433Y-124624003D01*
X106336446Y-124848631D01*
X106299500Y-125081902D01*
X106299500Y-125318097D01*
X106336446Y-125551368D01*
X106409433Y-125775996D01*
X106496979Y-125947813D01*
X106516657Y-125986433D01*
X106655483Y-126177510D01*
X106822490Y-126344517D01*
X106857127Y-126369683D01*
X106899792Y-126425013D01*
X106905771Y-126494626D01*
X106873165Y-126556421D01*
X106857130Y-126570315D01*
X106839365Y-126583222D01*
X106822488Y-126595484D01*
X106655485Y-126762487D01*
X106655485Y-126762488D01*
X106655483Y-126762490D01*
X106595862Y-126844550D01*
X106516657Y-126953566D01*
X106409433Y-127164003D01*
X106336446Y-127388631D01*
X106299500Y-127621902D01*
X106299500Y-127858097D01*
X106336446Y-128091368D01*
X106409433Y-128315996D01*
X106490173Y-128474456D01*
X106516657Y-128526433D01*
X106655483Y-128717510D01*
X106822490Y-128884517D01*
X106857127Y-128909683D01*
X106899792Y-128965013D01*
X106905771Y-129034626D01*
X106873165Y-129096421D01*
X106857130Y-129110315D01*
X106839365Y-129123222D01*
X106822488Y-129135484D01*
X106655485Y-129302487D01*
X106655485Y-129302488D01*
X106655483Y-129302490D01*
X106621328Y-129349500D01*
X106516657Y-129493566D01*
X106409433Y-129704003D01*
X106336446Y-129928631D01*
X106299500Y-130161902D01*
X106299500Y-130398097D01*
X106336446Y-130631368D01*
X106409433Y-130855996D01*
X106492313Y-131018656D01*
X106516657Y-131066433D01*
X106655483Y-131257510D01*
X106822490Y-131424517D01*
X107013567Y-131563343D01*
X107112991Y-131614002D01*
X107224003Y-131670566D01*
X107224005Y-131670566D01*
X107224008Y-131670568D01*
X107344412Y-131709689D01*
X107448631Y-131743553D01*
X107681903Y-131780500D01*
X107681908Y-131780500D01*
X107834218Y-131780500D01*
X107901257Y-131800185D01*
X107921899Y-131816819D01*
X110341395Y-134236315D01*
X110374880Y-134297638D01*
X110377714Y-134323996D01*
X110377714Y-139575500D01*
X110358029Y-139642539D01*
X110305225Y-139688294D01*
X110253715Y-139699500D01*
X110130344Y-139699500D01*
X110130337Y-139699501D01*
X110070730Y-139705908D01*
X109935885Y-139756202D01*
X109935878Y-139756206D01*
X109820669Y-139842452D01*
X109820666Y-139842455D01*
X109734420Y-139957664D01*
X109734416Y-139957671D01*
X109684122Y-140092517D01*
X109677715Y-140152116D01*
X109677715Y-140152123D01*
X109677714Y-140152135D01*
X109677714Y-142647870D01*
X109677715Y-142647876D01*
X109684122Y-142707483D01*
X109734416Y-142842328D01*
X109734420Y-142842335D01*
X109820666Y-142957544D01*
X109820669Y-142957547D01*
X109935878Y-143043793D01*
X109935885Y-143043797D01*
X110070731Y-143094091D01*
X110070730Y-143094091D01*
X110077658Y-143094835D01*
X110130341Y-143100500D01*
X112626086Y-143100499D01*
X112685697Y-143094091D01*
X112820545Y-143043796D01*
X112935760Y-142957546D01*
X113022010Y-142842331D01*
X113072305Y-142707483D01*
X113078714Y-142647873D01*
X113078713Y-142122631D01*
X113098397Y-142055595D01*
X113151201Y-142009840D01*
X113220360Y-141999896D01*
X113283916Y-142028921D01*
X113317274Y-142075181D01*
X113349806Y-142153721D01*
X113349807Y-142153722D01*
X113349809Y-142153726D01*
X113461266Y-142346774D01*
X113461271Y-142346780D01*
X113461272Y-142346782D01*
X113596965Y-142523622D01*
X113596971Y-142523629D01*
X113754584Y-142681242D01*
X113754591Y-142681248D01*
X113864984Y-142765955D01*
X113931440Y-142816948D01*
X114124488Y-142928405D01*
X114194836Y-142957544D01*
X114329288Y-143013236D01*
X114330433Y-143013710D01*
X114545751Y-143071404D01*
X114766757Y-143100500D01*
X114766764Y-143100500D01*
X114989664Y-143100500D01*
X114989671Y-143100500D01*
X115210677Y-143071404D01*
X115425995Y-143013710D01*
X115631940Y-142928405D01*
X115824988Y-142816948D01*
X116001838Y-142681247D01*
X116159461Y-142523624D01*
X116295162Y-142346774D01*
X116406619Y-142153726D01*
X116491924Y-141947781D01*
X116508439Y-141886142D01*
X116544804Y-141826483D01*
X116607651Y-141795954D01*
X116677026Y-141804249D01*
X116730904Y-141848734D01*
X116747987Y-141886141D01*
X116764461Y-141947620D01*
X116764504Y-141947780D01*
X116764507Y-141947790D01*
X116849807Y-142153721D01*
X116849809Y-142153726D01*
X116961266Y-142346774D01*
X116961271Y-142346780D01*
X116961272Y-142346782D01*
X117096965Y-142523622D01*
X117096971Y-142523629D01*
X117254584Y-142681242D01*
X117254591Y-142681248D01*
X117364984Y-142765955D01*
X117431440Y-142816948D01*
X117624488Y-142928405D01*
X117694836Y-142957544D01*
X117829288Y-143013236D01*
X117830433Y-143013710D01*
X118045751Y-143071404D01*
X118266757Y-143100500D01*
X118266764Y-143100500D01*
X118489664Y-143100500D01*
X118489671Y-143100500D01*
X118710677Y-143071404D01*
X118925995Y-143013710D01*
X119131940Y-142928405D01*
X119324988Y-142816948D01*
X119501838Y-142681247D01*
X119659461Y-142523624D01*
X119795162Y-142346774D01*
X119906619Y-142153726D01*
X119991924Y-141947781D01*
X120008439Y-141886142D01*
X120044804Y-141826483D01*
X120107651Y-141795954D01*
X120177026Y-141804249D01*
X120230904Y-141848734D01*
X120247987Y-141886141D01*
X120264461Y-141947620D01*
X120264504Y-141947780D01*
X120264507Y-141947790D01*
X120349807Y-142153721D01*
X120349809Y-142153726D01*
X120461266Y-142346774D01*
X120461271Y-142346780D01*
X120461272Y-142346782D01*
X120596965Y-142523622D01*
X120596971Y-142523629D01*
X120754584Y-142681242D01*
X120754591Y-142681248D01*
X120864984Y-142765955D01*
X120931440Y-142816948D01*
X121124488Y-142928405D01*
X121194836Y-142957544D01*
X121329288Y-143013236D01*
X121330433Y-143013710D01*
X121545751Y-143071404D01*
X121766757Y-143100500D01*
X121766764Y-143100500D01*
X121989664Y-143100500D01*
X121989671Y-143100500D01*
X122210677Y-143071404D01*
X122425995Y-143013710D01*
X122631940Y-142928405D01*
X122824988Y-142816948D01*
X123001838Y-142681247D01*
X123159461Y-142523624D01*
X123295162Y-142346774D01*
X123406619Y-142153726D01*
X123491924Y-141947781D01*
X123508439Y-141886142D01*
X123544804Y-141826483D01*
X123607651Y-141795954D01*
X123677026Y-141804249D01*
X123730904Y-141848734D01*
X123747987Y-141886141D01*
X123764461Y-141947620D01*
X123764504Y-141947780D01*
X123764507Y-141947790D01*
X123849807Y-142153721D01*
X123849809Y-142153726D01*
X123961266Y-142346774D01*
X123961271Y-142346780D01*
X123961272Y-142346782D01*
X124096965Y-142523622D01*
X124096971Y-142523629D01*
X124254584Y-142681242D01*
X124254591Y-142681248D01*
X124364984Y-142765955D01*
X124431440Y-142816948D01*
X124624488Y-142928405D01*
X124694836Y-142957544D01*
X124829288Y-143013236D01*
X124830433Y-143013710D01*
X125045751Y-143071404D01*
X125266757Y-143100500D01*
X125266764Y-143100500D01*
X125489664Y-143100500D01*
X125489671Y-143100500D01*
X125710677Y-143071404D01*
X125925995Y-143013710D01*
X126131940Y-142928405D01*
X126324988Y-142816948D01*
X126501838Y-142681247D01*
X126659461Y-142523624D01*
X126795162Y-142346774D01*
X126906619Y-142153726D01*
X126991924Y-141947781D01*
X127008439Y-141886142D01*
X127044804Y-141826483D01*
X127107651Y-141795954D01*
X127177026Y-141804249D01*
X127230904Y-141848734D01*
X127247987Y-141886141D01*
X127264461Y-141947620D01*
X127264504Y-141947780D01*
X127264507Y-141947790D01*
X127349807Y-142153721D01*
X127349809Y-142153726D01*
X127461266Y-142346774D01*
X127461271Y-142346780D01*
X127461272Y-142346782D01*
X127596965Y-142523622D01*
X127596971Y-142523629D01*
X127754584Y-142681242D01*
X127754591Y-142681248D01*
X127864984Y-142765955D01*
X127931440Y-142816948D01*
X128124488Y-142928405D01*
X128194836Y-142957544D01*
X128329288Y-143013236D01*
X128330433Y-143013710D01*
X128545751Y-143071404D01*
X128766757Y-143100500D01*
X128766764Y-143100500D01*
X128989664Y-143100500D01*
X128989671Y-143100500D01*
X129210677Y-143071404D01*
X129425995Y-143013710D01*
X129631940Y-142928405D01*
X129824988Y-142816948D01*
X130001838Y-142681247D01*
X130001843Y-142681242D01*
X130052764Y-142630322D01*
X130159456Y-142523629D01*
X130159461Y-142523624D01*
X130295162Y-142346774D01*
X130406619Y-142153726D01*
X130491924Y-141947781D01*
X130508698Y-141885177D01*
X130545061Y-141825519D01*
X130607908Y-141794989D01*
X130677283Y-141803283D01*
X130731162Y-141847768D01*
X130748247Y-141885178D01*
X130764978Y-141947620D01*
X130850259Y-142153502D01*
X130850268Y-142153520D01*
X130961678Y-142346491D01*
X130961687Y-142346504D01*
X131012254Y-142412403D01*
X131012257Y-142412403D01*
X131813601Y-141611059D01*
X131819103Y-141631591D01*
X131898095Y-141768408D01*
X132009806Y-141880119D01*
X132146623Y-141959111D01*
X132167154Y-141964612D01*
X131365809Y-142765955D01*
X131365809Y-142765956D01*
X131431721Y-142816533D01*
X131624699Y-142927949D01*
X131624711Y-142927954D01*
X131830595Y-143013236D01*
X132045846Y-143070911D01*
X132045859Y-143070914D01*
X132266789Y-143100000D01*
X132489639Y-143100000D01*
X132710568Y-143070914D01*
X132710581Y-143070911D01*
X132925832Y-143013236D01*
X133131716Y-142927954D01*
X133131728Y-142927949D01*
X133324712Y-142816530D01*
X133390617Y-142765957D01*
X133390618Y-142765956D01*
X132589273Y-141964612D01*
X132609805Y-141959111D01*
X132746622Y-141880119D01*
X132858333Y-141768408D01*
X132937325Y-141631591D01*
X132942826Y-141611059D01*
X133744170Y-142412404D01*
X133744171Y-142412403D01*
X133794744Y-142346498D01*
X133906163Y-142153514D01*
X133906168Y-142153502D01*
X133991450Y-141947618D01*
X134008439Y-141884214D01*
X134044803Y-141824554D01*
X134107650Y-141794024D01*
X134177026Y-141802318D01*
X134230904Y-141846803D01*
X134247989Y-141884214D01*
X134264977Y-141947618D01*
X134350259Y-142153502D01*
X134350268Y-142153520D01*
X134461678Y-142346491D01*
X134461687Y-142346504D01*
X134512254Y-142412403D01*
X134512257Y-142412403D01*
X135313601Y-141611059D01*
X135319103Y-141631591D01*
X135398095Y-141768408D01*
X135509806Y-141880119D01*
X135646623Y-141959111D01*
X135667154Y-141964612D01*
X134865809Y-142765955D01*
X134865809Y-142765956D01*
X134931721Y-142816533D01*
X135124699Y-142927949D01*
X135124711Y-142927954D01*
X135330595Y-143013236D01*
X135545846Y-143070911D01*
X135545859Y-143070914D01*
X135766789Y-143100000D01*
X135989639Y-143100000D01*
X136210568Y-143070914D01*
X136210581Y-143070911D01*
X136425832Y-143013236D01*
X136631716Y-142927954D01*
X136631728Y-142927949D01*
X136824712Y-142816530D01*
X136890617Y-142765957D01*
X136890618Y-142765956D01*
X136089273Y-141964612D01*
X136109805Y-141959111D01*
X136246622Y-141880119D01*
X136358333Y-141768408D01*
X136437325Y-141631591D01*
X136442826Y-141611059D01*
X137244170Y-142412404D01*
X137244171Y-142412403D01*
X137294744Y-142346498D01*
X137406163Y-142153514D01*
X137406168Y-142153502D01*
X137491450Y-141947618D01*
X137508439Y-141884214D01*
X137544803Y-141824554D01*
X137607650Y-141794024D01*
X137677026Y-141802318D01*
X137730904Y-141846803D01*
X137747989Y-141884214D01*
X137764977Y-141947618D01*
X137850259Y-142153502D01*
X137850268Y-142153520D01*
X137961678Y-142346491D01*
X137961687Y-142346504D01*
X138012254Y-142412403D01*
X138012257Y-142412403D01*
X138813601Y-141611059D01*
X138819103Y-141631591D01*
X138898095Y-141768408D01*
X139009806Y-141880119D01*
X139146623Y-141959111D01*
X139167154Y-141964612D01*
X138365809Y-142765955D01*
X138365809Y-142765956D01*
X138431721Y-142816533D01*
X138624699Y-142927949D01*
X138624711Y-142927954D01*
X138830595Y-143013236D01*
X139045846Y-143070911D01*
X139045859Y-143070914D01*
X139266789Y-143100000D01*
X139489639Y-143100000D01*
X139710568Y-143070914D01*
X139710581Y-143070911D01*
X139925832Y-143013236D01*
X140131716Y-142927954D01*
X140131728Y-142927949D01*
X140324712Y-142816530D01*
X140390617Y-142765957D01*
X140390618Y-142765956D01*
X139589273Y-141964612D01*
X139609805Y-141959111D01*
X139746622Y-141880119D01*
X139858333Y-141768408D01*
X139937325Y-141631591D01*
X139942826Y-141611059D01*
X140744170Y-142412404D01*
X140744171Y-142412403D01*
X140794744Y-142346498D01*
X140906163Y-142153514D01*
X140906168Y-142153502D01*
X140991450Y-141947618D01*
X141049125Y-141732367D01*
X141049128Y-141732354D01*
X141078214Y-141511424D01*
X141078214Y-141288575D01*
X141049128Y-141067645D01*
X141049125Y-141067632D01*
X140991450Y-140852381D01*
X140906168Y-140646497D01*
X140906163Y-140646485D01*
X140794747Y-140453507D01*
X140744170Y-140387595D01*
X140744169Y-140387595D01*
X139942826Y-141188939D01*
X139937325Y-141168409D01*
X139858333Y-141031592D01*
X139746622Y-140919881D01*
X139609805Y-140840889D01*
X139589272Y-140835387D01*
X140390617Y-140034043D01*
X140390617Y-140034040D01*
X140324718Y-139983473D01*
X140324705Y-139983464D01*
X140131734Y-139872054D01*
X140131716Y-139872045D01*
X139925832Y-139786763D01*
X139710581Y-139729088D01*
X139710568Y-139729085D01*
X139489639Y-139700000D01*
X139266789Y-139700000D01*
X139045859Y-139729085D01*
X139045846Y-139729088D01*
X138830595Y-139786763D01*
X138624711Y-139872045D01*
X138624693Y-139872054D01*
X138431725Y-139983462D01*
X138365809Y-140034042D01*
X139167155Y-140835387D01*
X139146623Y-140840889D01*
X139009806Y-140919881D01*
X138898095Y-141031592D01*
X138819103Y-141168409D01*
X138813601Y-141188940D01*
X138012256Y-140387595D01*
X137961676Y-140453511D01*
X137850268Y-140646479D01*
X137850259Y-140646497D01*
X137764977Y-140852381D01*
X137747989Y-140915785D01*
X137711624Y-140975446D01*
X137648777Y-141005975D01*
X137579402Y-140997680D01*
X137525524Y-140953195D01*
X137508439Y-140915785D01*
X137491450Y-140852381D01*
X137406168Y-140646497D01*
X137406163Y-140646485D01*
X137294747Y-140453507D01*
X137244170Y-140387595D01*
X137244169Y-140387595D01*
X136442826Y-141188939D01*
X136437325Y-141168409D01*
X136358333Y-141031592D01*
X136246622Y-140919881D01*
X136109805Y-140840889D01*
X136089272Y-140835387D01*
X136890617Y-140034043D01*
X136890617Y-140034041D01*
X136824718Y-139983473D01*
X136824705Y-139983464D01*
X136631734Y-139872054D01*
X136631716Y-139872045D01*
X136425832Y-139786763D01*
X136210581Y-139729088D01*
X136210568Y-139729085D01*
X135989639Y-139700000D01*
X135766789Y-139700000D01*
X135545859Y-139729085D01*
X135545846Y-139729088D01*
X135330595Y-139786763D01*
X135124711Y-139872045D01*
X135124693Y-139872054D01*
X134931725Y-139983462D01*
X134865809Y-140034042D01*
X135667155Y-140835387D01*
X135646623Y-140840889D01*
X135509806Y-140919881D01*
X135398095Y-141031592D01*
X135319103Y-141168409D01*
X135313601Y-141188940D01*
X134512256Y-140387595D01*
X134461676Y-140453511D01*
X134350268Y-140646479D01*
X134350259Y-140646497D01*
X134264977Y-140852381D01*
X134247989Y-140915785D01*
X134211624Y-140975446D01*
X134148777Y-141005975D01*
X134079402Y-140997680D01*
X134025524Y-140953195D01*
X134008439Y-140915785D01*
X133991450Y-140852381D01*
X133906168Y-140646497D01*
X133906163Y-140646485D01*
X133794747Y-140453507D01*
X133744170Y-140387595D01*
X133744169Y-140387595D01*
X132942826Y-141188939D01*
X132937325Y-141168409D01*
X132858333Y-141031592D01*
X132746622Y-140919881D01*
X132609805Y-140840889D01*
X132589272Y-140835387D01*
X133390617Y-140034043D01*
X133390617Y-140034041D01*
X133324718Y-139983473D01*
X133324705Y-139983464D01*
X133131734Y-139872054D01*
X133131716Y-139872045D01*
X132925832Y-139786763D01*
X132710581Y-139729088D01*
X132710568Y-139729085D01*
X132489639Y-139700000D01*
X132266789Y-139700000D01*
X132045859Y-139729085D01*
X132045846Y-139729088D01*
X131830595Y-139786763D01*
X131624711Y-139872045D01*
X131624693Y-139872054D01*
X131431725Y-139983462D01*
X131365809Y-140034042D01*
X132167155Y-140835387D01*
X132146623Y-140840889D01*
X132009806Y-140919881D01*
X131898095Y-141031592D01*
X131819103Y-141168409D01*
X131813601Y-141188940D01*
X131012256Y-140387595D01*
X130961676Y-140453511D01*
X130850268Y-140646479D01*
X130850259Y-140646497D01*
X130764978Y-140852379D01*
X130748247Y-140914821D01*
X130711881Y-140974481D01*
X130649034Y-141005010D01*
X130579659Y-140996715D01*
X130525781Y-140952229D01*
X130508698Y-140914824D01*
X130491924Y-140852219D01*
X130406619Y-140646274D01*
X130295162Y-140453226D01*
X130159461Y-140276376D01*
X130159456Y-140276370D01*
X130055985Y-140172899D01*
X130055977Y-140172892D01*
X130001838Y-140118753D01*
X129924402Y-140059334D01*
X129921696Y-140056999D01*
X129904608Y-140030525D01*
X129886025Y-140005074D01*
X129885227Y-140000497D01*
X129883806Y-139998295D01*
X129883794Y-139992273D01*
X129878714Y-139963126D01*
X129878714Y-134548999D01*
X129898399Y-134481960D01*
X129951203Y-134436205D01*
X130002714Y-134424999D01*
X130849999Y-134424999D01*
X130850000Y-134424998D01*
X130850000Y-132100000D01*
X130002714Y-132100000D01*
X129935675Y-132080315D01*
X129889920Y-132027511D01*
X129878714Y-131976000D01*
X129878714Y-131424499D01*
X129898399Y-131357460D01*
X129951203Y-131311705D01*
X130002709Y-131300499D01*
X131971732Y-131300499D01*
X132038771Y-131320184D01*
X132084526Y-131372988D01*
X132094470Y-131442146D01*
X132065445Y-131505702D01*
X132044374Y-131524292D01*
X132044419Y-131524347D01*
X132042885Y-131525605D01*
X132040626Y-131527599D01*
X132039712Y-131528209D01*
X132039707Y-131528213D01*
X131928213Y-131639707D01*
X131928210Y-131639711D01*
X131840609Y-131770814D01*
X131840602Y-131770827D01*
X131780264Y-131916498D01*
X131780261Y-131916510D01*
X131763616Y-132000191D01*
X131731231Y-132062102D01*
X131670516Y-132096676D01*
X131641999Y-132100000D01*
X131350000Y-132100000D01*
X131350000Y-134424999D01*
X132249972Y-134424999D01*
X132249986Y-134424998D01*
X132352697Y-134414505D01*
X132519119Y-134359358D01*
X132519124Y-134359356D01*
X132668345Y-134267315D01*
X132792315Y-134143345D01*
X132884356Y-133994124D01*
X132884358Y-133994119D01*
X132940015Y-133826158D01*
X132979787Y-133768713D01*
X133044303Y-133741890D01*
X133113079Y-133754205D01*
X133145402Y-133777481D01*
X133189707Y-133821786D01*
X133189711Y-133821789D01*
X133320814Y-133909390D01*
X133320827Y-133909397D01*
X133466097Y-133969569D01*
X133466503Y-133969737D01*
X133583705Y-133993050D01*
X133621153Y-134000499D01*
X133621156Y-134000500D01*
X133621158Y-134000500D01*
X133778844Y-134000500D01*
X133778845Y-134000499D01*
X133933497Y-133969737D01*
X134079179Y-133909394D01*
X134210289Y-133821789D01*
X134321789Y-133710289D01*
X134409394Y-133579179D01*
X134413728Y-133568717D01*
X134469735Y-133433501D01*
X134469737Y-133433497D01*
X134500500Y-133278842D01*
X134500500Y-133121158D01*
X134500500Y-133121155D01*
X134485986Y-133048192D01*
X134492213Y-132978601D01*
X134535075Y-132923423D01*
X134600965Y-132900178D01*
X134607603Y-132900000D01*
X135050000Y-132900000D01*
X135050000Y-129300000D01*
X134302155Y-129300000D01*
X134242627Y-129306401D01*
X134242620Y-129306403D01*
X134107913Y-129356645D01*
X134107910Y-129356647D01*
X134016917Y-129424766D01*
X133996168Y-129432504D01*
X133977540Y-129444477D01*
X133955624Y-129447628D01*
X133951453Y-129449184D01*
X133942605Y-129449500D01*
X133879536Y-129449500D01*
X133847444Y-129445275D01*
X133816557Y-129436999D01*
X133658443Y-129436999D01*
X133650847Y-129436999D01*
X133650831Y-129437000D01*
X132973348Y-129437000D01*
X132906309Y-129417315D01*
X132867809Y-129378097D01*
X132792712Y-129256344D01*
X132668656Y-129132288D01*
X132519334Y-129040186D01*
X132352797Y-128985001D01*
X132352795Y-128985000D01*
X132250016Y-128974500D01*
X132250009Y-128974500D01*
X131824500Y-128974500D01*
X131757461Y-128954815D01*
X131711706Y-128902011D01*
X131700500Y-128850500D01*
X131700500Y-126070551D01*
X131720185Y-126003512D01*
X131772989Y-125957757D01*
X131842147Y-125947813D01*
X131905703Y-125976838D01*
X131924815Y-125997662D01*
X132055483Y-126177510D01*
X132222490Y-126344517D01*
X132413567Y-126483343D01*
X132512991Y-126534002D01*
X132624003Y-126590566D01*
X132624005Y-126590566D01*
X132624008Y-126590568D01*
X132744412Y-126629689D01*
X132848631Y-126663553D01*
X133081903Y-126700500D01*
X133081908Y-126700500D01*
X133318097Y-126700500D01*
X133551368Y-126663553D01*
X133775992Y-126590568D01*
X133986433Y-126483343D01*
X134177510Y-126344517D01*
X134344517Y-126177510D01*
X134483343Y-125986433D01*
X134543583Y-125868204D01*
X134591558Y-125817409D01*
X134654068Y-125800500D01*
X146299203Y-125800500D01*
X146299219Y-125800501D01*
X146306815Y-125800501D01*
X146464926Y-125800501D01*
X146464929Y-125800501D01*
X146617657Y-125759577D01*
X146667776Y-125730639D01*
X146754588Y-125680520D01*
X146866392Y-125568716D01*
X146866392Y-125568714D01*
X146876600Y-125558507D01*
X146876601Y-125558504D01*
X147469820Y-124965286D01*
X147531142Y-124931802D01*
X147600834Y-124936786D01*
X147656767Y-124978658D01*
X147681184Y-125044122D01*
X147681500Y-125052968D01*
X147681500Y-128002381D01*
X147661815Y-128069420D01*
X147609011Y-128115175D01*
X147539853Y-128125119D01*
X147476297Y-128096094D01*
X147459124Y-128077867D01*
X147381248Y-127976377D01*
X147381242Y-127976370D01*
X147223629Y-127818757D01*
X147223622Y-127818751D01*
X147046782Y-127683058D01*
X147046780Y-127683057D01*
X147046774Y-127683052D01*
X146853726Y-127571595D01*
X146853722Y-127571593D01*
X146647790Y-127486293D01*
X146647783Y-127486291D01*
X146647781Y-127486290D01*
X146432463Y-127428596D01*
X146432457Y-127428595D01*
X146432452Y-127428594D01*
X146211466Y-127399501D01*
X146211463Y-127399500D01*
X146211457Y-127399500D01*
X145988543Y-127399500D01*
X145988537Y-127399500D01*
X145988533Y-127399501D01*
X145767547Y-127428594D01*
X145767540Y-127428595D01*
X145767537Y-127428596D01*
X145552219Y-127486290D01*
X145552209Y-127486293D01*
X145346277Y-127571593D01*
X145346273Y-127571595D01*
X145153226Y-127683052D01*
X145153217Y-127683058D01*
X144976377Y-127818751D01*
X144976370Y-127818757D01*
X144818757Y-127976370D01*
X144818751Y-127976377D01*
X144683058Y-128153217D01*
X144683052Y-128153226D01*
X144571595Y-128346273D01*
X144571593Y-128346277D01*
X144486293Y-128552209D01*
X144486290Y-128552219D01*
X144442001Y-128717511D01*
X144428597Y-128767534D01*
X144428594Y-128767547D01*
X144399501Y-128988533D01*
X144399500Y-128988549D01*
X144399500Y-129211450D01*
X144399766Y-129215509D01*
X144398232Y-129215609D01*
X144388459Y-129278337D01*
X144342085Y-129330598D01*
X144276279Y-129349500D01*
X136726077Y-129349500D01*
X136587902Y-129376985D01*
X136518311Y-129370758D01*
X136500049Y-129360573D01*
X136499872Y-129360898D01*
X136492088Y-129356647D01*
X136357376Y-129306402D01*
X136357372Y-129306401D01*
X136297844Y-129300000D01*
X135550000Y-129300000D01*
X135550000Y-132900000D01*
X136075500Y-132900000D01*
X136142539Y-132919685D01*
X136188294Y-132972489D01*
X136199500Y-133024000D01*
X136199500Y-134413330D01*
X136199499Y-134413348D01*
X136199499Y-134579054D01*
X136199498Y-134579054D01*
X136240423Y-134731785D01*
X136269358Y-134781900D01*
X136269359Y-134781904D01*
X136269360Y-134781904D01*
X136319479Y-134868714D01*
X136319481Y-134868717D01*
X136438349Y-134987585D01*
X136438355Y-134987590D01*
X139416139Y-137965374D01*
X139416149Y-137965385D01*
X139420479Y-137969715D01*
X139420480Y-137969716D01*
X139532284Y-138081520D01*
X139619095Y-138131639D01*
X139619097Y-138131641D01*
X139669213Y-138160576D01*
X139669215Y-138160577D01*
X139821942Y-138201500D01*
X139821943Y-138201500D01*
X147514331Y-138201500D01*
X147514347Y-138201501D01*
X147521943Y-138201501D01*
X147680054Y-138201501D01*
X147680057Y-138201501D01*
X147832785Y-138160577D01*
X147882904Y-138131639D01*
X147969716Y-138081520D01*
X148081520Y-137969716D01*
X148081520Y-137969714D01*
X148091728Y-137959507D01*
X148091730Y-137959504D01*
X148640506Y-137410728D01*
X148640511Y-137410724D01*
X148650714Y-137400520D01*
X148650716Y-137400520D01*
X148762520Y-137288716D01*
X148841577Y-137151784D01*
X148871534Y-137039981D01*
X148882500Y-136999058D01*
X148882500Y-136840943D01*
X148882500Y-111402943D01*
X148841577Y-111250216D01*
X148809136Y-111194026D01*
X148762524Y-111113290D01*
X148762521Y-111113286D01*
X148762520Y-111113284D01*
X148650716Y-111001480D01*
X148650715Y-111001479D01*
X148646385Y-110997149D01*
X148646374Y-110997139D01*
X147109552Y-109460317D01*
X147076067Y-109398994D01*
X147074760Y-109353241D01*
X147082813Y-109302395D01*
X147085500Y-109285433D01*
X147085500Y-109114563D01*
X147071325Y-109025069D01*
X147058772Y-108945811D01*
X147005973Y-108783312D01*
X146928403Y-108631074D01*
X146827973Y-108492844D01*
X146707156Y-108372027D01*
X146568926Y-108271597D01*
X146416688Y-108194027D01*
X146254189Y-108141228D01*
X146085436Y-108114500D01*
X146085431Y-108114500D01*
X145914569Y-108114500D01*
X145914564Y-108114500D01*
X145745810Y-108141228D01*
X145583314Y-108194026D01*
X145431073Y-108271597D01*
X145388556Y-108302488D01*
X145292844Y-108372027D01*
X145292842Y-108372029D01*
X145292841Y-108372029D01*
X145172029Y-108492841D01*
X145172029Y-108492842D01*
X145172027Y-108492844D01*
X145171502Y-108493567D01*
X145071597Y-108631073D01*
X144994026Y-108783314D01*
X144941228Y-108945810D01*
X144914500Y-109114563D01*
X144914500Y-109285436D01*
X144925239Y-109353236D01*
X144941228Y-109454189D01*
X144994027Y-109616688D01*
X145071597Y-109768926D01*
X145172027Y-109907156D01*
X145292844Y-110027973D01*
X145431074Y-110128403D01*
X145583312Y-110205973D01*
X145745811Y-110258772D01*
X145832755Y-110272542D01*
X145914564Y-110285500D01*
X145914569Y-110285500D01*
X146085434Y-110285500D01*
X146108048Y-110281917D01*
X146153239Y-110274760D01*
X146222530Y-110283714D01*
X146260317Y-110309552D01*
X147645181Y-111694416D01*
X147678666Y-111755739D01*
X147681500Y-111782097D01*
X147681500Y-115732902D01*
X147661815Y-115799941D01*
X147609011Y-115845696D01*
X147539853Y-115855640D01*
X147476297Y-115826615D01*
X147469819Y-115820583D01*
X147109552Y-115460316D01*
X147076067Y-115398993D01*
X147074760Y-115353240D01*
X147082965Y-115301435D01*
X147085500Y-115285433D01*
X147085500Y-115114563D01*
X147071325Y-115025069D01*
X147058772Y-114945811D01*
X147005973Y-114783312D01*
X146928403Y-114631074D01*
X146827973Y-114492844D01*
X146707156Y-114372027D01*
X146568926Y-114271597D01*
X146416688Y-114194027D01*
X146254189Y-114141228D01*
X146085436Y-114114500D01*
X146085431Y-114114500D01*
X145914569Y-114114500D01*
X145914564Y-114114500D01*
X145745810Y-114141228D01*
X145583314Y-114194026D01*
X145431073Y-114271597D01*
X145352208Y-114328896D01*
X145292844Y-114372027D01*
X145292842Y-114372029D01*
X145292841Y-114372029D01*
X145172029Y-114492841D01*
X145172029Y-114492842D01*
X145172027Y-114492844D01*
X145128896Y-114552208D01*
X145071597Y-114631073D01*
X144994026Y-114783314D01*
X144941228Y-114945810D01*
X144914500Y-115114563D01*
X144914500Y-115285436D01*
X144932486Y-115398993D01*
X144941228Y-115454189D01*
X144994027Y-115616688D01*
X145071597Y-115768926D01*
X145172027Y-115907156D01*
X145292844Y-116027973D01*
X145431074Y-116128403D01*
X145583312Y-116205973D01*
X145745811Y-116258772D01*
X145832755Y-116272542D01*
X145914564Y-116285500D01*
X145914569Y-116285500D01*
X146085434Y-116285500D01*
X146109438Y-116281697D01*
X146153239Y-116274760D01*
X146222530Y-116283714D01*
X146260314Y-116309549D01*
X146944181Y-116993416D01*
X146977666Y-117054739D01*
X146980500Y-117081097D01*
X146980500Y-117521690D01*
X146960815Y-117588729D01*
X146944181Y-117609371D01*
X146491127Y-118062424D01*
X146475245Y-118003147D01*
X146408102Y-117886853D01*
X146313147Y-117791898D01*
X146196853Y-117724755D01*
X146137574Y-117708871D01*
X146571997Y-117274447D01*
X146571997Y-117274445D01*
X146568669Y-117272027D01*
X146568667Y-117272026D01*
X146416499Y-117194492D01*
X146254071Y-117141715D01*
X146085396Y-117115000D01*
X145914604Y-117115000D01*
X145745928Y-117141715D01*
X145583500Y-117194492D01*
X145431336Y-117272025D01*
X145428001Y-117274446D01*
X145428001Y-117274447D01*
X145862425Y-117708871D01*
X145803147Y-117724755D01*
X145686853Y-117791898D01*
X145591898Y-117886853D01*
X145524755Y-118003147D01*
X145508871Y-118062425D01*
X145074447Y-117628001D01*
X145074446Y-117628001D01*
X145072025Y-117631336D01*
X144994492Y-117783500D01*
X144941715Y-117945928D01*
X144915000Y-118114603D01*
X144915000Y-118285396D01*
X144941715Y-118454071D01*
X144994492Y-118616499D01*
X145072026Y-118768667D01*
X145072027Y-118768669D01*
X145074445Y-118771997D01*
X145074447Y-118771997D01*
X145508871Y-118337573D01*
X145524755Y-118396853D01*
X145591898Y-118513147D01*
X145686853Y-118608102D01*
X145803147Y-118675245D01*
X145862424Y-118691128D01*
X145428000Y-119125551D01*
X145431336Y-119127975D01*
X145583500Y-119205507D01*
X145745928Y-119258284D01*
X145914604Y-119285000D01*
X146085396Y-119285000D01*
X146254071Y-119258284D01*
X146416499Y-119205507D01*
X146568664Y-119127974D01*
X146571998Y-119125551D01*
X146137575Y-118691127D01*
X146196853Y-118675245D01*
X146313147Y-118608102D01*
X146408102Y-118513147D01*
X146475245Y-118396853D01*
X146491128Y-118337574D01*
X146944181Y-118790627D01*
X146977666Y-118851950D01*
X146980500Y-118878308D01*
X146980500Y-120049738D01*
X146960815Y-120116777D01*
X146908011Y-120162532D01*
X146838853Y-120172476D01*
X146813168Y-120165920D01*
X146692485Y-120120909D01*
X146692483Y-120120908D01*
X146632883Y-120114501D01*
X146632881Y-120114500D01*
X146632873Y-120114500D01*
X146632864Y-120114500D01*
X145367129Y-120114500D01*
X145367123Y-120114501D01*
X145307516Y-120120908D01*
X145172671Y-120171202D01*
X145172664Y-120171206D01*
X145057455Y-120257452D01*
X145057452Y-120257455D01*
X144971206Y-120372664D01*
X144966953Y-120380454D01*
X144964811Y-120379284D01*
X144930757Y-120424771D01*
X144865291Y-120449185D01*
X144856452Y-120449500D01*
X134811695Y-120449500D01*
X134744656Y-120429815D01*
X134698901Y-120377011D01*
X134688957Y-120307853D01*
X134689222Y-120306102D01*
X134700000Y-120238052D01*
X134700000Y-120001947D01*
X134663065Y-119768752D01*
X134590102Y-119544197D01*
X134482914Y-119333828D01*
X134422658Y-119250894D01*
X134422658Y-119250893D01*
X133682962Y-119990589D01*
X133665925Y-119927007D01*
X133600099Y-119812993D01*
X133507007Y-119719901D01*
X133392993Y-119654075D01*
X133329408Y-119637037D01*
X133975835Y-118990611D01*
X134069105Y-118897340D01*
X134069104Y-118897338D01*
X133986174Y-118837087D01*
X133775802Y-118729897D01*
X133551247Y-118656934D01*
X133551248Y-118656934D01*
X133318052Y-118620000D01*
X133081948Y-118620000D01*
X132848751Y-118656934D01*
X132661818Y-118717673D01*
X132591977Y-118719668D01*
X132532144Y-118683588D01*
X132501316Y-118620887D01*
X132499500Y-118599742D01*
X132499500Y-105720784D01*
X132519185Y-105653745D01*
X132571989Y-105607990D01*
X132641147Y-105598046D01*
X132661812Y-105602851D01*
X132781459Y-105641727D01*
X132848631Y-105663553D01*
X133081903Y-105700500D01*
X133081908Y-105700500D01*
X133318097Y-105700500D01*
X133424126Y-105683705D01*
X133551368Y-105663553D01*
X133677566Y-105622547D01*
X133747404Y-105620553D01*
X133803563Y-105652798D01*
X140715139Y-112564374D01*
X140715149Y-112564385D01*
X140719479Y-112568715D01*
X140719480Y-112568716D01*
X140831284Y-112680520D01*
X140831286Y-112680521D01*
X140831290Y-112680524D01*
X140968209Y-112759573D01*
X140968216Y-112759577D01*
X141080019Y-112789534D01*
X141120942Y-112800500D01*
X141120943Y-112800500D01*
X145031356Y-112800500D01*
X145098395Y-112820185D01*
X145131674Y-112851615D01*
X145172027Y-112907156D01*
X145292844Y-113027973D01*
X145431074Y-113128403D01*
X145583312Y-113205973D01*
X145745811Y-113258772D01*
X145832755Y-113272542D01*
X145914564Y-113285500D01*
X145914569Y-113285500D01*
X146085436Y-113285500D01*
X146160013Y-113273687D01*
X146254189Y-113258772D01*
X146416688Y-113205973D01*
X146568926Y-113128403D01*
X146707156Y-113027973D01*
X146827973Y-112907156D01*
X146928403Y-112768926D01*
X147005973Y-112616688D01*
X147058772Y-112454189D01*
X147073687Y-112360013D01*
X147085500Y-112285436D01*
X147085500Y-112114563D01*
X147071325Y-112025069D01*
X147058772Y-111945811D01*
X147005973Y-111783312D01*
X146928403Y-111631074D01*
X146827973Y-111492844D01*
X146707156Y-111372027D01*
X146568926Y-111271597D01*
X146416688Y-111194027D01*
X146254189Y-111141228D01*
X146085436Y-111114500D01*
X146085431Y-111114500D01*
X145914569Y-111114500D01*
X145914564Y-111114500D01*
X145745810Y-111141228D01*
X145583314Y-111194026D01*
X145431073Y-111271597D01*
X145352208Y-111328896D01*
X145292844Y-111372027D01*
X145292842Y-111372029D01*
X145292841Y-111372029D01*
X145172029Y-111492841D01*
X145172024Y-111492847D01*
X145131674Y-111548385D01*
X145076344Y-111591051D01*
X145031356Y-111599500D01*
X141500097Y-111599500D01*
X141433058Y-111579815D01*
X141412416Y-111563181D01*
X134652798Y-104803563D01*
X134619313Y-104742240D01*
X134622547Y-104677566D01*
X134663553Y-104551368D01*
X134683705Y-104424126D01*
X134700500Y-104318097D01*
X134700500Y-104081902D01*
X134679393Y-103948639D01*
X134676964Y-103933306D01*
X144219500Y-103933306D01*
X144219500Y-104166693D01*
X144219501Y-104166709D01*
X144249964Y-104398100D01*
X144310375Y-104623555D01*
X144399690Y-104839181D01*
X144399695Y-104839192D01*
X144516387Y-105041307D01*
X144516398Y-105041323D01*
X144658475Y-105226482D01*
X144658481Y-105226489D01*
X144823510Y-105391518D01*
X144823517Y-105391524D01*
X145007797Y-105532927D01*
X145049000Y-105589355D01*
X145053155Y-105659101D01*
X145042796Y-105687597D01*
X144994027Y-105783311D01*
X144994027Y-105783312D01*
X144941228Y-105945810D01*
X144914500Y-106114563D01*
X144914500Y-106285436D01*
X144930845Y-106388631D01*
X144941228Y-106454189D01*
X144994027Y-106616688D01*
X145071597Y-106768926D01*
X145172027Y-106907156D01*
X145292844Y-107027973D01*
X145431074Y-107128403D01*
X145583312Y-107205973D01*
X145745811Y-107258772D01*
X145832755Y-107272542D01*
X145914564Y-107285500D01*
X145914569Y-107285500D01*
X146085436Y-107285500D01*
X146160013Y-107273687D01*
X146254189Y-107258772D01*
X146416688Y-107205973D01*
X146568926Y-107128403D01*
X146707156Y-107027973D01*
X146827973Y-106907156D01*
X146928403Y-106768926D01*
X147005973Y-106616688D01*
X147058772Y-106454189D01*
X147073687Y-106360013D01*
X147085500Y-106285436D01*
X147085500Y-106114563D01*
X147060000Y-105953567D01*
X147058772Y-105945811D01*
X147005973Y-105783312D01*
X146957202Y-105687595D01*
X146944307Y-105618929D01*
X146970583Y-105554189D01*
X146992202Y-105532927D01*
X147176484Y-105391523D01*
X147341523Y-105226484D01*
X147483608Y-105041315D01*
X147600308Y-104839185D01*
X147689626Y-104623551D01*
X147750035Y-104398104D01*
X147780500Y-104166700D01*
X147780500Y-103933300D01*
X147750035Y-103701896D01*
X147689626Y-103476449D01*
X147600308Y-103260815D01*
X147600306Y-103260812D01*
X147600304Y-103260807D01*
X147483612Y-103058692D01*
X147483608Y-103058685D01*
X147341523Y-102873516D01*
X147341518Y-102873510D01*
X147176489Y-102708481D01*
X147176482Y-102708475D01*
X146991323Y-102566398D01*
X146991321Y-102566396D01*
X146991315Y-102566392D01*
X146991310Y-102566389D01*
X146991307Y-102566387D01*
X146789192Y-102449695D01*
X146789181Y-102449690D01*
X146573555Y-102360375D01*
X146348100Y-102299964D01*
X146116709Y-102269501D01*
X146116706Y-102269500D01*
X146116700Y-102269500D01*
X145883300Y-102269500D01*
X145883294Y-102269500D01*
X145883290Y-102269501D01*
X145651899Y-102299964D01*
X145426444Y-102360375D01*
X145210818Y-102449690D01*
X145210807Y-102449695D01*
X145008692Y-102566387D01*
X145008676Y-102566398D01*
X144823517Y-102708475D01*
X144823510Y-102708481D01*
X144658481Y-102873510D01*
X144658475Y-102873517D01*
X144516398Y-103058676D01*
X144516387Y-103058692D01*
X144399695Y-103260807D01*
X144399690Y-103260818D01*
X144310375Y-103476444D01*
X144249964Y-103701899D01*
X144219501Y-103933290D01*
X144219500Y-103933306D01*
X134676964Y-103933306D01*
X134663553Y-103848631D01*
X134590566Y-103624003D01*
X134483342Y-103413566D01*
X134344517Y-103222490D01*
X134177510Y-103055483D01*
X134142872Y-103030317D01*
X134100207Y-102974989D01*
X134094228Y-102905375D01*
X134126833Y-102843580D01*
X134142873Y-102829682D01*
X134177510Y-102804517D01*
X134344517Y-102637510D01*
X134483343Y-102446433D01*
X134590568Y-102235992D01*
X134663553Y-102011368D01*
X134666489Y-101992832D01*
X134700500Y-101778097D01*
X134700500Y-101541902D01*
X134663553Y-101308631D01*
X134590566Y-101084003D01*
X134483342Y-100873566D01*
X134344517Y-100682490D01*
X134177510Y-100515483D01*
X134118282Y-100472451D01*
X134075617Y-100417122D01*
X134067550Y-100362404D01*
X134069104Y-100342657D01*
X133329408Y-99602962D01*
X133392993Y-99585925D01*
X133507007Y-99520099D01*
X133600099Y-99427007D01*
X133665925Y-99312993D01*
X133682962Y-99249409D01*
X134422658Y-99989105D01*
X134422658Y-99989104D01*
X134482914Y-99906169D01*
X134482918Y-99906163D01*
X134590102Y-99695802D01*
X134663065Y-99471247D01*
X134700000Y-99238052D01*
X134700000Y-99001947D01*
X134663065Y-98768752D01*
X134590102Y-98544197D01*
X134482914Y-98333828D01*
X134422658Y-98250894D01*
X134422658Y-98250893D01*
X133682962Y-98990590D01*
X133665925Y-98927007D01*
X133600099Y-98812993D01*
X133507007Y-98719901D01*
X133392993Y-98654075D01*
X133329409Y-98637037D01*
X134069105Y-97897340D01*
X134069104Y-97897338D01*
X133986174Y-97837087D01*
X133775802Y-97729897D01*
X133551247Y-97656934D01*
X133551248Y-97656934D01*
X133318052Y-97620000D01*
X133081948Y-97620000D01*
X132848752Y-97656934D01*
X132624197Y-97729897D01*
X132413830Y-97837084D01*
X132330894Y-97897340D01*
X133070591Y-98637037D01*
X133007007Y-98654075D01*
X132892993Y-98719901D01*
X132799901Y-98812993D01*
X132734075Y-98927007D01*
X132717037Y-98990591D01*
X131977340Y-98250894D01*
X131917084Y-98333830D01*
X131809897Y-98544197D01*
X131736934Y-98768752D01*
X131700000Y-99001947D01*
X131700000Y-99238052D01*
X131736934Y-99471247D01*
X131809897Y-99695802D01*
X131917087Y-99906174D01*
X131977338Y-99989104D01*
X131977340Y-99989105D01*
X132717037Y-99249408D01*
X132734075Y-99312993D01*
X132799901Y-99427007D01*
X132892993Y-99520099D01*
X133007007Y-99585925D01*
X133070590Y-99602962D01*
X132330893Y-100342658D01*
X132332448Y-100362405D01*
X132318084Y-100430783D01*
X132281717Y-100472451D01*
X132222490Y-100515482D01*
X132055485Y-100682487D01*
X132055485Y-100682488D01*
X132055483Y-100682490D01*
X131995862Y-100764550D01*
X131916657Y-100873566D01*
X131809433Y-101084003D01*
X131736446Y-101308631D01*
X131699500Y-101541902D01*
X131699500Y-101778097D01*
X131733511Y-101992832D01*
X131724557Y-102062125D01*
X131698719Y-102099911D01*
X131166049Y-102632582D01*
X131166045Y-102632586D01*
X131147395Y-102660501D01*
X131147394Y-102660502D01*
X131083916Y-102755503D01*
X131083914Y-102755506D01*
X131027343Y-102892082D01*
X131027340Y-102892092D01*
X130998500Y-103037079D01*
X130998500Y-103037082D01*
X130998500Y-121282918D01*
X130998500Y-121282920D01*
X130998499Y-121282920D01*
X131027340Y-121427907D01*
X131027343Y-121427917D01*
X131063615Y-121515484D01*
X131083916Y-121564495D01*
X131099785Y-121588245D01*
X131107615Y-121599964D01*
X131166049Y-121687418D01*
X131166052Y-121687421D01*
X131698719Y-122220087D01*
X131732204Y-122281410D01*
X131733511Y-122327166D01*
X131699500Y-122541902D01*
X131699500Y-122778097D01*
X131736447Y-123011369D01*
X131736447Y-123011372D01*
X131777450Y-123137564D01*
X131779445Y-123207405D01*
X131747200Y-123263563D01*
X130731286Y-124279478D01*
X130619482Y-124391281D01*
X130619478Y-124391287D01*
X130570034Y-124476927D01*
X130540424Y-124528212D01*
X130540423Y-124528213D01*
X130525578Y-124583617D01*
X130499499Y-124680943D01*
X130499499Y-124680945D01*
X130499499Y-124849046D01*
X130499500Y-124849059D01*
X130499500Y-128850500D01*
X130479815Y-128917539D01*
X130427011Y-128963294D01*
X130375500Y-128974500D01*
X130002714Y-128974500D01*
X129935675Y-128954815D01*
X129889920Y-128902011D01*
X129878714Y-128850500D01*
X129878714Y-120099670D01*
X129840266Y-119906384D01*
X129840265Y-119906383D01*
X129840265Y-119906379D01*
X129801584Y-119812993D01*
X129764849Y-119724306D01*
X129764842Y-119724293D01*
X129655353Y-119560432D01*
X129655350Y-119560428D01*
X129512900Y-119417978D01*
X129512869Y-119417949D01*
X109336819Y-99241899D01*
X109322115Y-99214971D01*
X109305523Y-99189153D01*
X109304631Y-99182952D01*
X109303334Y-99180576D01*
X109300500Y-99154218D01*
X109300500Y-99001902D01*
X109263553Y-98768631D01*
X109226331Y-98654075D01*
X109190568Y-98544008D01*
X109190566Y-98544005D01*
X109190566Y-98544003D01*
X109083477Y-98333830D01*
X109083343Y-98333567D01*
X108944517Y-98142490D01*
X108777510Y-97975483D01*
X108586433Y-97836657D01*
X108375996Y-97729433D01*
X108151368Y-97656446D01*
X107918097Y-97619500D01*
X107918092Y-97619500D01*
X107681908Y-97619500D01*
X107681903Y-97619500D01*
X107448631Y-97656446D01*
X107224003Y-97729433D01*
X107013566Y-97836657D01*
X106930047Y-97897338D01*
X106822490Y-97975483D01*
X106822488Y-97975485D01*
X106822487Y-97975485D01*
X106655485Y-98142487D01*
X106655485Y-98142488D01*
X106655483Y-98142490D01*
X106595862Y-98224550D01*
X106516657Y-98333566D01*
X106409433Y-98544003D01*
X106336446Y-98768631D01*
X106299500Y-99001902D01*
X102207169Y-99001902D01*
X102368756Y-98893934D01*
X102487453Y-98814622D01*
X102487466Y-98814612D01*
X102692659Y-98646213D01*
X102692659Y-98646212D01*
X101269106Y-97222659D01*
X101377184Y-97144136D01*
X101544136Y-96977184D01*
X101622659Y-96869106D01*
X103046212Y-98292659D01*
X103046213Y-98292659D01*
X103214612Y-98087466D01*
X103214622Y-98087453D01*
X103405666Y-97801536D01*
X103405677Y-97801518D01*
X103567773Y-97498255D01*
X103567780Y-97498241D01*
X103699376Y-97180540D01*
X103799207Y-96851443D01*
X103799208Y-96851437D01*
X103866291Y-96514182D01*
X103866294Y-96514165D01*
X103900000Y-96171940D01*
X103900000Y-95828059D01*
X103866294Y-95485834D01*
X103866291Y-95485817D01*
X103799208Y-95148562D01*
X103799207Y-95148556D01*
X103699376Y-94819459D01*
X103567780Y-94501758D01*
X103567773Y-94501744D01*
X103405677Y-94198481D01*
X103405666Y-94198463D01*
X103214622Y-93912546D01*
X103214612Y-93912532D01*
X103042788Y-93703165D01*
X103015475Y-93638855D01*
X103027266Y-93569988D01*
X103074418Y-93518427D01*
X103138641Y-93500500D01*
X147661359Y-93500500D01*
X147728398Y-93520185D01*
G37*
%TD.AperFunction*%
%TD*%
M02*
