%TF.GenerationSoftware,KiCad,Pcbnew,9.0.0*%
%TF.CreationDate,2025-04-09T17:27:32-07:00*%
%TF.ProjectId,Relay Board,52656c61-7920-4426-9f61-72642e6b6963,rev?*%
%TF.SameCoordinates,Original*%
%TF.FileFunction,Soldermask,Bot*%
%TF.FilePolarity,Negative*%
%FSLAX46Y46*%
G04 Gerber Fmt 4.6, Leading zero omitted, Abs format (unit mm)*
G04 Created by KiCad (PCBNEW 9.0.0) date 2025-04-09 17:27:32*
%MOMM*%
%LPD*%
G01*
G04 APERTURE LIST*
G04 Aperture macros list*
%AMRoundRect*
0 Rectangle with rounded corners*
0 $1 Rounding radius*
0 $2 $3 $4 $5 $6 $7 $8 $9 X,Y pos of 4 corners*
0 Add a 4 corners polygon primitive as box body*
4,1,4,$2,$3,$4,$5,$6,$7,$8,$9,$2,$3,0*
0 Add four circle primitives for the rounded corners*
1,1,$1+$1,$2,$3*
1,1,$1+$1,$4,$5*
1,1,$1+$1,$6,$7*
1,1,$1+$1,$8,$9*
0 Add four rect primitives between the rounded corners*
20,1,$1+$1,$2,$3,$4,$5,0*
20,1,$1+$1,$4,$5,$6,$7,0*
20,1,$1+$1,$6,$7,$8,$9,0*
20,1,$1+$1,$8,$9,$2,$3,0*%
%AMFreePoly0*
4,1,23,0.500000,-0.750000,0.000000,-0.750000,0.000000,-0.745722,-0.065263,-0.745722,-0.191342,-0.711940,-0.304381,-0.646677,-0.396677,-0.554381,-0.461940,-0.441342,-0.495722,-0.315263,-0.495722,-0.250000,-0.500000,-0.250000,-0.500000,0.250000,-0.495722,0.250000,-0.495722,0.315263,-0.461940,0.441342,-0.396677,0.554381,-0.304381,0.646677,-0.191342,0.711940,-0.065263,0.745722,0.000000,0.745722,
0.000000,0.750000,0.500000,0.750000,0.500000,-0.750000,0.500000,-0.750000,$1*%
%AMFreePoly1*
4,1,23,0.000000,0.745722,0.065263,0.745722,0.191342,0.711940,0.304381,0.646677,0.396677,0.554381,0.461940,0.441342,0.495722,0.315263,0.495722,0.250000,0.500000,0.250000,0.500000,-0.250000,0.495722,-0.250000,0.495722,-0.315263,0.461940,-0.441342,0.396677,-0.554381,0.304381,-0.646677,0.191342,-0.711940,0.065263,-0.745722,0.000000,-0.745722,0.000000,-0.750000,-0.500000,-0.750000,
-0.500000,0.750000,0.000000,0.750000,0.000000,0.745722,0.000000,0.745722,$1*%
G04 Aperture macros list end*
%ADD10FreePoly0,270.000000*%
%ADD11FreePoly1,270.000000*%
%ADD12RoundRect,0.250000X-1.075000X0.400000X-1.075000X-0.400000X1.075000X-0.400000X1.075000X0.400000X0*%
%ADD13RoundRect,0.250000X1.100000X-0.412500X1.100000X0.412500X-1.100000X0.412500X-1.100000X-0.412500X0*%
%ADD14C,2.000000*%
%ADD15R,1.170000X1.170000*%
%ADD16C,1.170000*%
%ADD17C,2.560000*%
%ADD18R,2.400000X2.400000*%
%ADD19C,2.400000*%
%ADD20C,6.000000*%
G04 APERTURE END LIST*
%TO.C,JP2*%
G36*
X132950000Y-130850000D02*
G01*
X134450000Y-130850000D01*
X134450000Y-131150000D01*
X132950000Y-131150000D01*
X132950000Y-130850000D01*
G37*
%TD*%
D10*
%TO.C,JP2*%
X133700000Y-130350000D03*
D11*
X133700000Y-131650000D03*
%TD*%
D12*
%TO.C,R2*%
X130000000Y-129350000D03*
X130000000Y-132450000D03*
%TD*%
D13*
%TO.C,C2*%
X126800000Y-132462500D03*
X126800000Y-129337500D03*
%TD*%
D14*
%TO.C,K2*%
X107800000Y-106740000D03*
X107800000Y-101660000D03*
X133200000Y-104200000D03*
X133200000Y-101660000D03*
X133200000Y-99120000D03*
X107800000Y-99120000D03*
X107800000Y-104200000D03*
X107800000Y-109280000D03*
%TD*%
D15*
%TO.C,J1*%
X146000000Y-121200000D03*
D16*
X146000000Y-118200000D03*
X146000000Y-115200000D03*
X146000000Y-112200000D03*
X146000000Y-109200000D03*
X146000000Y-106200000D03*
D17*
X146000000Y-123350000D03*
X146000000Y-104050000D03*
%TD*%
D18*
%TO.C,J2*%
X111378214Y-141400000D03*
D19*
X114878214Y-141400000D03*
X118378214Y-141400000D03*
X121878214Y-141400000D03*
X125378214Y-141400000D03*
X128878214Y-141400000D03*
X132378214Y-141400000D03*
X135878214Y-141400000D03*
X139378214Y-141400000D03*
%TD*%
D20*
%TO.C,REF\u002A\u002A*%
X150400000Y-146000000D03*
%TD*%
%TO.C,REF\u002A\u002A*%
X100400000Y-146000000D03*
%TD*%
D18*
%TO.C,J3*%
X146100000Y-136100000D03*
D19*
X146100000Y-132600000D03*
X146100000Y-129100000D03*
%TD*%
D20*
%TO.C,REF\u002A\u002A*%
X150400000Y-96000000D03*
%TD*%
D14*
%TO.C,K1*%
X107800000Y-127740000D03*
X107800000Y-122660000D03*
X133200000Y-125200000D03*
X133200000Y-122660000D03*
X133200000Y-120120000D03*
X107800000Y-120120000D03*
X107800000Y-125200000D03*
X107800000Y-130280000D03*
%TD*%
D20*
%TO.C,REF\u002A\u002A*%
X100400000Y-96000000D03*
%TD*%
M02*
