M48
; DRILL file {KiCad 9.0.0} date 2025-04-09T18:23:43-0700
; FORMAT={-:-/ absolute / metric / decimal}
; #@! TF.CreationDate,2025-04-09T18:23:43-07:00
; #@! TF.GenerationSoftware,Kicad,Pcbnew,9.0.0
; #@! TF.FileFunction,Plated,1,2,PTH
FMAT,2
METRIC
; #@! TA.AperFunction,Plated,PTH,ViaDrill
T1C0.300
; #@! TA.AperFunction,Plated,PTH,ComponentDrill
T2C0.800
; #@! TA.AperFunction,Plated,PTH,ComponentDrill
T3C0.900
; #@! TA.AperFunction,Plated,PTH,ComponentDrill
T4C1.000
; #@! TA.AperFunction,Plated,PTH,ComponentDrill
T5C1.020
; #@! TA.AperFunction,Plated,PTH,ComponentDrill
T6C1.200
; #@! TA.AperFunction,Plated,PTH,ComponentDrill
T7C2.410
; #@! TA.AperFunction,Plated,PTH,ComponentDrill
T8C3.000
%
G90
G05
T1
X128.7Y-94.2
X128.8Y-87.4
X131.75Y-90.75
X132.422Y-93.078
X133.375Y-107.625
X133.75Y-91.5
X134.5Y-91.25
X136.0Y-90.5
X138.5Y-84.75
X140.1Y-102.1
X141.5Y-84.75
X141.6Y-102.2
X143.0Y-85.0
X143.2Y-115.4
X143.2Y-120.455
X145.4Y-101.6
X145.4Y-121.6
X146.5Y-91.6
X147.8Y-85.5
X151.3Y-116.9
X152.5Y-103.0
X153.5Y-104.0
X153.9Y-116.0
X154.25Y-105.0
X154.5Y-84.0
X155.0Y-89.25
X155.25Y-106.0
X156.4Y-116.1
X160.0Y-108.75
X160.75Y-108.0
X161.5Y-107.25
X161.85Y-71.0
X162.25Y-106.5
X167.8Y-70.8
X169.6Y-83.4
X170.2Y-73.6
X170.75Y-109.75
X171.6Y-81.4
X176.4Y-89.4
X193.0Y-78.0
X197.6Y-83.4
T2
X180.5Y-58.117
X180.5Y-61.917
X189.0Y-67.34
X189.0Y-77.5
X189.0Y-81.59
X189.0Y-91.75
X194.75Y-58.117
X194.75Y-61.917
T3
X177.69Y-68.42
X177.69Y-74.42
X177.98Y-97.75
X177.98Y-104.75
X180.52Y-97.75
X180.52Y-104.75
X185.31Y-68.42
X185.31Y-74.42
X190.23Y-97.75
X190.23Y-104.75
X192.77Y-97.75
X192.77Y-104.75
T4
X129.76Y-113.64
X130.23Y-59.0
X130.23Y-79.32
X132.3Y-113.64
X132.77Y-59.0
X132.77Y-79.32
X134.84Y-113.64
X135.31Y-59.0
X135.31Y-79.32
X137.38Y-113.64
X137.85Y-59.0
X137.85Y-79.32
X139.92Y-93.32
X139.92Y-113.64
X140.39Y-59.0
X140.39Y-79.32
X142.46Y-93.32
X142.46Y-113.64
X142.93Y-59.0
X142.93Y-79.32
X145.0Y-93.32
X145.0Y-113.64
X145.47Y-59.0
X145.47Y-79.32
X147.54Y-93.32
X147.54Y-113.64
X148.01Y-59.0
X148.01Y-79.32
X150.08Y-93.32
X150.08Y-113.64
X150.55Y-59.0
X150.55Y-79.32
X152.62Y-93.32
X152.62Y-113.64
X153.09Y-59.0
X153.09Y-79.32
X155.16Y-93.32
X155.16Y-113.64
X155.63Y-59.0
X155.63Y-79.32
X157.7Y-93.32
X157.7Y-113.64
X158.17Y-59.0
X158.17Y-79.32
X160.24Y-93.32
X160.24Y-113.64
X160.71Y-59.0
X162.78Y-93.32
X162.78Y-113.64
X163.25Y-59.0
X164.0Y-121.0
X164.0Y-126.75
X165.32Y-93.32
X165.32Y-113.64
X165.79Y-59.0
X167.86Y-93.32
X167.86Y-113.64
X168.33Y-59.0
X175.5Y-52.25
X178.04Y-52.25
X185.25Y-112.0
X189.025Y-52.25
X190.125Y-112.0
X191.565Y-52.25
X191.8Y-74.7
X192.0Y-84.2
X195.0Y-112.0
T5
X142.5Y-123.505
X145.5Y-123.505
X146.85Y-52.315
X148.5Y-123.505
X149.85Y-52.315
X151.5Y-123.505
X152.85Y-52.315
X154.5Y-123.505
X155.85Y-52.315
X157.5Y-123.505
X158.85Y-52.315
X161.85Y-52.315
X174.3Y-121.9
X174.3Y-124.9
X177.3Y-121.9
X177.3Y-124.9
X187.1Y-121.9
X187.1Y-124.9
X190.1Y-121.9
X190.1Y-124.9
T6
X132.382Y-119.855
X132.382Y-122.395
X132.382Y-124.935
T7
X140.35Y-123.505
X144.7Y-52.315
X159.65Y-123.505
X164.0Y-52.315
T8
X123.5Y-51.0
X123.5Y-126.0
X198.5Y-51.0
X198.5Y-126.0
M30
