%TF.GenerationSoftware,KiCad,Pcbnew,9.0.0*%
%TF.CreationDate,2025-04-09T18:23:38-07:00*%
%TF.ProjectId,PAC Board,50414320-426f-4617-9264-2e6b69636164,rev?*%
%TF.SameCoordinates,Original*%
%TF.FileFunction,Copper,L2,Bot*%
%TF.FilePolarity,Positive*%
%FSLAX46Y46*%
G04 Gerber Fmt 4.6, Leading zero omitted, Abs format (unit mm)*
G04 Created by KiCad (PCBNEW 9.0.0) date 2025-04-09 18:23:38*
%MOMM*%
%LPD*%
G01*
G04 APERTURE LIST*
G04 Aperture macros list*
%AMRoundRect*
0 Rectangle with rounded corners*
0 $1 Rounding radius*
0 $2 $3 $4 $5 $6 $7 $8 $9 X,Y pos of 4 corners*
0 Add a 4 corners polygon primitive as box body*
4,1,4,$2,$3,$4,$5,$6,$7,$8,$9,$2,$3,0*
0 Add four circle primitives for the rounded corners*
1,1,$1+$1,$2,$3*
1,1,$1+$1,$4,$5*
1,1,$1+$1,$6,$7*
1,1,$1+$1,$8,$9*
0 Add four rect primitives between the rounded corners*
20,1,$1+$1,$2,$3,$4,$5,0*
20,1,$1+$1,$4,$5,$6,$7,0*
20,1,$1+$1,$6,$7,$8,$9,0*
20,1,$1+$1,$8,$9,$2,$3,0*%
G04 Aperture macros list end*
%TA.AperFunction,ComponentPad*%
%ADD10C,2.000000*%
%TD*%
%TA.AperFunction,ComponentPad*%
%ADD11RoundRect,0.250000X0.550000X-1.050000X0.550000X1.050000X-0.550000X1.050000X-0.550000X-1.050000X0*%
%TD*%
%TA.AperFunction,ComponentPad*%
%ADD12O,1.600000X2.600000*%
%TD*%
%TA.AperFunction,ComponentPad*%
%ADD13R,1.170000X1.170000*%
%TD*%
%TA.AperFunction,ComponentPad*%
%ADD14C,1.170000*%
%TD*%
%TA.AperFunction,ComponentPad*%
%ADD15C,2.560000*%
%TD*%
%TA.AperFunction,ComponentPad*%
%ADD16C,6.000000*%
%TD*%
%TA.AperFunction,ComponentPad*%
%ADD17R,1.700000X1.700000*%
%TD*%
%TA.AperFunction,ComponentPad*%
%ADD18O,1.700000X1.700000*%
%TD*%
%TA.AperFunction,ComponentPad*%
%ADD19R,1.800000X1.800000*%
%TD*%
%TA.AperFunction,ComponentPad*%
%ADD20C,1.800000*%
%TD*%
%TA.AperFunction,ComponentPad*%
%ADD21RoundRect,0.250000X-0.550000X1.050000X-0.550000X-1.050000X0.550000X-1.050000X0.550000X1.050000X0*%
%TD*%
%TA.AperFunction,ComponentPad*%
%ADD22C,1.600000*%
%TD*%
%TA.AperFunction,ComponentPad*%
%ADD23O,1.600000X1.600000*%
%TD*%
%TA.AperFunction,ComponentPad*%
%ADD24R,1.600000X1.600000*%
%TD*%
%TA.AperFunction,ComponentPad*%
%ADD25O,1.800000X1.800000*%
%TD*%
%TA.AperFunction,ComponentPad*%
%ADD26RoundRect,0.250000X-0.750000X0.750000X-0.750000X-0.750000X0.750000X-0.750000X0.750000X0.750000X0*%
%TD*%
%TA.AperFunction,ComponentPad*%
%ADD27RoundRect,0.250001X-0.499999X-0.499999X0.499999X-0.499999X0.499999X0.499999X-0.499999X0.499999X0*%
%TD*%
%TA.AperFunction,ComponentPad*%
%ADD28C,1.500000*%
%TD*%
%TA.AperFunction,ViaPad*%
%ADD29C,0.600000*%
%TD*%
%TA.AperFunction,ViaPad*%
%ADD30C,0.500000*%
%TD*%
%TA.AperFunction,Conductor*%
%ADD31C,0.300000*%
%TD*%
%TA.AperFunction,Conductor*%
%ADD32C,0.500000*%
%TD*%
%TA.AperFunction,Conductor*%
%ADD33C,0.200000*%
%TD*%
%TA.AperFunction,Conductor*%
%ADD34C,1.000000*%
%TD*%
G04 APERTURE END LIST*
D10*
%TO.P,J12,1,Pin_1*%
%TO.N,5v*%
X192000000Y-84200000D03*
%TD*%
%TO.P,J6,1,Pin_1*%
%TO.N,5v*%
X191800000Y-74700000D03*
%TD*%
D11*
%TO.P,A2,1,~{RESET}*%
%TO.N,unconnected-(A2-~{RESET}-Pad1)*%
X129760000Y-113340000D03*
D12*
%TO.P,A2,2,3V3*%
%TO.N,Net-(A1-3V3)*%
X132300000Y-113340000D03*
%TO.P,A2,3,Spare*%
%TO.N,unconnected-(A2-Spare-Pad3)*%
X134840000Y-113340000D03*
%TO.P,A2,4,GND*%
%TO.N,GND*%
X137380000Y-113340000D03*
%TO.P,A2,5,Spare*%
%TO.N,unconnected-(A2-Spare-Pad5)*%
X139920000Y-113340000D03*
%TO.P,A2,6,Spare*%
%TO.N,unconnected-(A2-Spare-Pad6)*%
X142460000Y-113340000D03*
%TO.P,A2,7,Spare*%
%TO.N,unconnected-(A2-Spare-Pad7)*%
X145000000Y-113340000D03*
%TO.P,A2,8,Spare*%
%TO.N,unconnected-(A2-Spare-Pad8)*%
X147540000Y-113340000D03*
%TO.P,A2,9,Spare*%
%TO.N,unconnected-(A2-Spare-Pad9)*%
X150080000Y-113340000D03*
%TO.P,A2,10,Spare*%
%TO.N,unconnected-(A2-Spare-Pad10)*%
X152620000Y-113340000D03*
%TO.P,A2,11,SCK*%
%TO.N,Net-(A1-SCK)*%
X155160000Y-113340000D03*
%TO.P,A2,12,MOSI*%
%TO.N,Net-(A1-MOSI)*%
X157700000Y-113340000D03*
%TO.P,A2,13,MISO*%
%TO.N,Net-(A1-MISO)*%
X160240000Y-113340000D03*
%TO.P,A2,14,Spare*%
%TO.N,unconnected-(A2-Spare-Pad14)*%
X162780000Y-113340000D03*
%TO.P,A2,15,Spare*%
%TO.N,unconnected-(A2-Spare-Pad15)*%
X165320000Y-113340000D03*
%TO.P,A2,16,Spare*%
%TO.N,unconnected-(A2-Spare-Pad16)*%
X167860000Y-113340000D03*
%TO.P,A2,17,Spare*%
%TO.N,unconnected-(A2-Spare-Pad17)*%
X167860000Y-93620000D03*
%TO.P,A2,18,Spare*%
%TO.N,unconnected-(A2-Spare-Pad18)*%
X165320000Y-93620000D03*
%TO.P,A2,19,Spare*%
%TO.N,unconnected-(A2-Spare-Pad19)*%
X162780000Y-93620000D03*
%TO.P,A2,20,Spare*%
%TO.N,unconnected-(A2-Spare-Pad20)*%
X160240000Y-93620000D03*
%TO.P,A2,21,Spare*%
%TO.N,unconnected-(A2-Spare-Pad21)*%
X157700000Y-93620000D03*
%TO.P,A2,22,CS*%
%TO.N,Net-(A1-D13)*%
X155160000Y-93620000D03*
%TO.P,A2,23,Spare*%
%TO.N,unconnected-(A2-Spare-Pad23)*%
X152620000Y-93620000D03*
%TO.P,A2,24,Spare*%
%TO.N,unconnected-(A2-Spare-Pad24)*%
X150080000Y-93620000D03*
%TO.P,A2,25,Spare*%
%TO.N,unconnected-(A2-Spare-Pad25)*%
X147540000Y-93620000D03*
%TO.P,A2,26,USB*%
%TO.N,unconnected-(A2-USB-Pad26)*%
X145000000Y-93620000D03*
%TO.P,A2,27,EN*%
%TO.N,unconnected-(A2-EN-Pad27)*%
X142460000Y-93620000D03*
%TO.P,A2,28,VBAT*%
%TO.N,unconnected-(A2-VBAT-Pad28)*%
X139920000Y-93620000D03*
%TD*%
D13*
%TO.P,J4,1,Pin_1*%
%TO.N,Net-(A1-SCL)*%
X161850000Y-52315000D03*
D14*
%TO.P,J4,2,Pin_2*%
%TO.N,Net-(A1-A0)*%
X158850000Y-52315000D03*
%TO.P,J4,3,Pin_3*%
%TO.N,Net-(A1-A1)*%
X155850000Y-52315000D03*
%TO.P,J4,4,Pin_4*%
%TO.N,Net-(A1-A2)*%
X152850000Y-52315000D03*
%TO.P,J4,5,Pin_5*%
%TO.N,Net-(A1-A3)*%
X149850000Y-52315000D03*
%TO.P,J4,6,Pin_6*%
%TO.N,unconnected-(J4-Pin_6-Pad6)*%
X146850000Y-52315000D03*
D15*
%TO.P,J4,7*%
%TO.N,N/C*%
X164000000Y-52315000D03*
%TO.P,J4,8*%
X144700000Y-52315000D03*
%TD*%
D10*
%TO.P,J9,1,Pin_1*%
%TO.N,Net-(A1-CANH)*%
X164000000Y-121000000D03*
%TD*%
D16*
%TO.P,REF\u002A\u002A,1*%
%TO.N,N/C*%
X198500000Y-51000000D03*
%TD*%
D17*
%TO.P,J14,1,Pin_1*%
%TO.N,5v*%
X175500000Y-52250000D03*
D18*
%TO.P,J14,2,Pin_2*%
%TO.N,GND*%
X178040000Y-52250000D03*
%TD*%
D10*
%TO.P,J5,1,Pin_1*%
%TO.N,5v*%
X190125000Y-112000000D03*
%TD*%
D19*
%TO.P,D6,1,K*%
%TO.N,GND*%
X190230000Y-104750000D03*
D20*
%TO.P,D6,2,A*%
%TO.N,Net-(A1-D4)*%
X192770000Y-104750000D03*
%TD*%
D19*
%TO.P,D5,1,K*%
%TO.N,GND*%
X190230000Y-97750000D03*
D20*
%TO.P,D5,2,A*%
%TO.N,Net-(A1-D10)*%
X192770000Y-97750000D03*
%TD*%
D21*
%TO.P,A1,1,~{RESET}*%
%TO.N,unconnected-(A1-~{RESET}-Pad1)*%
X168330000Y-59300000D03*
D12*
%TO.P,A1,2,3V3*%
%TO.N,Net-(A1-3V3)*%
X165790000Y-59300000D03*
%TO.P,A1,3,3v3*%
%TO.N,unconnected-(A1-3v3-Pad3)*%
X163250000Y-59300000D03*
%TO.P,A1,4,GND*%
%TO.N,unconnected-(A1-GND-Pad4)*%
X160710000Y-59300000D03*
%TO.P,A1,5,A0*%
%TO.N,Net-(A1-A0)*%
X158170000Y-59300000D03*
%TO.P,A1,6,A1*%
%TO.N,Net-(A1-A1)*%
X155630000Y-59300000D03*
%TO.P,A1,7,A2*%
%TO.N,Net-(A1-A2)*%
X153090000Y-59300000D03*
%TO.P,A1,8,A3*%
%TO.N,Net-(A1-A3)*%
X150550000Y-59300000D03*
%TO.P,A1,9,D24*%
%TO.N,Net-(A1-D24)*%
X148010000Y-59300000D03*
%TO.P,A1,10,D25*%
%TO.N,unconnected-(A1-D25-Pad10)*%
X145470000Y-59300000D03*
%TO.P,A1,11,SCK*%
%TO.N,Net-(A1-SCK)*%
X142930000Y-59300000D03*
%TO.P,A1,12,MOSI*%
%TO.N,Net-(A1-MOSI)*%
X140390000Y-59300000D03*
%TO.P,A1,13,MISO*%
%TO.N,Net-(A1-MISO)*%
X137850000Y-59300000D03*
%TO.P,A1,14,RX*%
%TO.N,unconnected-(A1-RX-Pad14)*%
X135310000Y-59300000D03*
%TO.P,A1,15,TX*%
%TO.N,unconnected-(A1-TX-Pad15)*%
X132770000Y-59300000D03*
%TO.P,A1,16,D4*%
%TO.N,Net-(A1-D4)*%
X130230000Y-59300000D03*
%TO.P,A1,17,SDA*%
%TO.N,Net-(A1-SDA)*%
X130230000Y-79020000D03*
%TO.P,A1,18,SCL*%
%TO.N,Net-(A1-SCL)*%
X132770000Y-79020000D03*
%TO.P,A1,19,D5*%
%TO.N,Net-(A1-D5)*%
X135310000Y-79020000D03*
%TO.P,A1,20,D6*%
%TO.N,Net-(A1-D6)*%
X137850000Y-79020000D03*
%TO.P,A1,21,D9*%
%TO.N,Net-(A1-D9)*%
X140390000Y-79020000D03*
%TO.P,A1,22,D10*%
%TO.N,Net-(A1-D10)*%
X142930000Y-79020000D03*
%TO.P,A1,23,D11*%
%TO.N,Net-(A1-D11)*%
X145470000Y-79020000D03*
%TO.P,A1,24,D12*%
%TO.N,Net-(A1-D12)*%
X148010000Y-79020000D03*
%TO.P,A1,25,D13*%
%TO.N,Net-(A1-D13)*%
X150550000Y-79020000D03*
%TO.P,A1,26,USB*%
%TO.N,5v*%
X153090000Y-79020000D03*
%TO.P,A1,27,EN*%
%TO.N,unconnected-(A1-EN-Pad27)*%
X155630000Y-79020000D03*
%TO.P,A1,28,VBAT*%
%TO.N,unconnected-(A1-VBAT-Pad28)*%
X158170000Y-79020000D03*
%TD*%
D16*
%TO.P,REF\u002A\u002A,1*%
%TO.N,N/C*%
X198500000Y-126000000D03*
%TD*%
D22*
%TO.P,R1,1*%
%TO.N,5v*%
X189000000Y-67340000D03*
D23*
%TO.P,R1,2*%
%TO.N,Net-(U1-V1)*%
X189000000Y-77500000D03*
%TD*%
D22*
%TO.P,R2,1*%
%TO.N,Net-(U1-V1)*%
X189000000Y-81590000D03*
D23*
%TO.P,R2,2*%
%TO.N,GND*%
X189000000Y-91750000D03*
%TD*%
D24*
%TO.P,C1,1*%
%TO.N,5v*%
X194750000Y-58117349D03*
D22*
%TO.P,C1,2*%
%TO.N,GND*%
X194750000Y-61917349D03*
%TD*%
D19*
%TO.P,D4,1,K*%
%TO.N,GND*%
X177980000Y-104750000D03*
D20*
%TO.P,D4,2,A*%
%TO.N,Net-(A1-D9)*%
X180520000Y-104750000D03*
%TD*%
D17*
%TO.P,J15,1,Pin_1*%
%TO.N,5v*%
X189025000Y-52250000D03*
D18*
%TO.P,J15,2,Pin_2*%
%TO.N,GND*%
X191565000Y-52250000D03*
%TD*%
D19*
%TO.P,D2,1,K*%
%TO.N,5v*%
X177690000Y-74420000D03*
D25*
%TO.P,D2,2,A*%
%TO.N,GND*%
X185310000Y-74420000D03*
%TD*%
D10*
%TO.P,J11,1,Pin_1*%
%TO.N,Net-(A1-3V3)*%
X195000000Y-112000000D03*
%TD*%
D26*
%TO.P,J1,1,CANH*%
%TO.N,Net-(A1-CANH)*%
X132382500Y-119855000D03*
D10*
%TO.P,J1,2,GND*%
%TO.N,GND*%
X132382500Y-122395000D03*
%TO.P,J1,3,CANL*%
%TO.N,Net-(A1-CANL)*%
X132382500Y-124935000D03*
%TD*%
D27*
%TO.P,J7,1,Pin_1*%
%TO.N,5v*%
X187100000Y-121900000D03*
D28*
%TO.P,J7,2,Pin_2*%
%TO.N,GND*%
X190100000Y-121900000D03*
%TO.P,J7,3,Pin_3*%
%TO.N,Net-(A1-CANH)*%
X187100000Y-124900000D03*
%TO.P,J7,4,Pin_4*%
%TO.N,Net-(A1-CANL)*%
X190100000Y-124900000D03*
%TD*%
D10*
%TO.P,J8,1,Pin_1*%
%TO.N,Net-(A1-CANL)*%
X164000000Y-126750000D03*
%TD*%
D16*
%TO.P,REF\u002A\u002A,1*%
%TO.N,N/C*%
X123500000Y-126000000D03*
%TD*%
D19*
%TO.P,D3,1,K*%
%TO.N,GND*%
X177980000Y-97750000D03*
D20*
%TO.P,D3,2,A*%
%TO.N,Net-(A1-D6)*%
X180520000Y-97750000D03*
%TD*%
D16*
%TO.P,REF\u002A\u002A,1*%
%TO.N,N/C*%
X123500000Y-51000000D03*
%TD*%
D24*
%TO.P,C2,1*%
%TO.N,5v*%
X180500000Y-58117349D03*
D22*
%TO.P,C2,2*%
%TO.N,GND*%
X180500000Y-61917349D03*
%TD*%
D19*
%TO.P,D1,1,K*%
%TO.N,5v*%
X177690000Y-68420000D03*
D25*
%TO.P,D1,2,A*%
%TO.N,GND*%
X185310000Y-68420000D03*
%TD*%
D10*
%TO.P,J10,1,Pin_1*%
%TO.N,GND*%
X185250000Y-112000000D03*
%TD*%
D13*
%TO.P,J3,1,Pin_1*%
%TO.N,5v*%
X142500000Y-123505000D03*
D14*
%TO.P,J3,2,Pin_2*%
%TO.N,GND*%
X145500000Y-123505000D03*
%TO.P,J3,3,Pin_3*%
%TO.N,Net-(A1-D11)*%
X148500000Y-123505000D03*
%TO.P,J3,4,Pin_4*%
%TO.N,Net-(A1-D12)*%
X151500000Y-123505000D03*
%TO.P,J3,5,Pin_5*%
%TO.N,Net-(A1-D5)*%
X154500000Y-123505000D03*
%TO.P,J3,6,Pin_6*%
%TO.N,Net-(A1-D24)*%
X157500000Y-123505000D03*
D15*
%TO.P,J3,7*%
%TO.N,N/C*%
X140350000Y-123505000D03*
%TO.P,J3,8*%
X159650000Y-123505000D03*
%TD*%
D27*
%TO.P,J2,1,Pin_1*%
%TO.N,5v*%
X174300000Y-121900000D03*
D28*
%TO.P,J2,2,Pin_2*%
%TO.N,GND*%
X177300000Y-121900000D03*
%TO.P,J2,3,Pin_3*%
%TO.N,Net-(A1-CANH)*%
X174300000Y-124900000D03*
%TO.P,J2,4,Pin_4*%
%TO.N,Net-(A1-CANL)*%
X177300000Y-124900000D03*
%TD*%
D29*
%TO.N,Net-(A1-D5)*%
X128800000Y-87400000D03*
X128700000Y-94200000D03*
X156400000Y-116100000D03*
D30*
%TO.N,Net-(A1-D9)*%
X133750000Y-91500000D03*
X138500000Y-84750000D03*
X153500000Y-104000000D03*
X161500000Y-107250000D03*
D29*
%TO.N,Net-(A1-D11)*%
X136000000Y-90500000D03*
X143000000Y-85000000D03*
X151300000Y-116900000D03*
X141600000Y-102200000D03*
%TO.N,Net-(A1-D24)*%
X145400000Y-121600000D03*
X143200000Y-120455000D03*
X140100000Y-102100000D03*
X143200000Y-115400000D03*
%TO.N,Net-(A1-3V3)*%
X132421609Y-93078391D03*
X154500000Y-84000000D03*
D30*
%TO.N,Net-(A1-D13)*%
X155000000Y-89250000D03*
D29*
%TO.N,Net-(A1-SCL)*%
X170200000Y-73600000D03*
X197600000Y-83400000D03*
X161850000Y-71000000D03*
%TO.N,Net-(A1-SDA)*%
X176400000Y-89400000D03*
D30*
%TO.N,Net-(A1-D4)*%
X133375000Y-107625000D03*
X155250000Y-106000000D03*
X160000000Y-108750000D03*
%TO.N,Net-(A1-D10)*%
X162250000Y-106500000D03*
X152500000Y-103000000D03*
X134500000Y-91250000D03*
X141500000Y-84750000D03*
D29*
%TO.N,Net-(A1-SCK)*%
X167800000Y-70800000D03*
%TO.N,Net-(A1-D12)*%
X147800000Y-85500000D03*
X146500000Y-91600000D03*
X153900000Y-116000000D03*
X145400000Y-101600000D03*
D30*
%TO.N,Net-(A1-D6)*%
X160750000Y-108000000D03*
X131750000Y-90750000D03*
X154250000Y-105000000D03*
D29*
%TO.N,5v*%
X171600000Y-81400000D03*
X170750000Y-109750000D03*
X169600000Y-83400000D03*
%TO.N,Net-(U1-V1)*%
X193000000Y-78000000D03*
%TD*%
D31*
%TO.N,Net-(A1-D5)*%
X156400000Y-121605000D02*
X154500000Y-123505000D01*
X128700000Y-87500000D02*
X128800000Y-87400000D01*
X156400000Y-116100000D02*
X156400000Y-121605000D01*
X128700000Y-94200000D02*
X128700000Y-87500000D01*
D32*
%TO.N,Net-(A1-D9)*%
X133750000Y-92354756D02*
X133750000Y-91500000D01*
X179169000Y-103399000D02*
X180520000Y-104750000D01*
X138500000Y-84750000D02*
X140390000Y-82860000D01*
X137750000Y-96354756D02*
X133750000Y-92354756D01*
X153500000Y-104000000D02*
X150500000Y-104000000D01*
X142250000Y-109250000D02*
X137750000Y-104750000D01*
X137750000Y-104750000D02*
X137750000Y-96354756D01*
X145250000Y-109250000D02*
X142250000Y-109250000D01*
X176000000Y-105250000D02*
X176000000Y-104028000D01*
X140390000Y-82860000D02*
X140390000Y-79320000D01*
X174000000Y-107250000D02*
X161500000Y-107250000D01*
X176629000Y-103399000D02*
X179169000Y-103399000D01*
X150500000Y-104000000D02*
X145250000Y-109250000D01*
X176000000Y-105250000D02*
X174000000Y-107250000D01*
X176000000Y-104028000D02*
X176629000Y-103399000D01*
%TO.N,Net-(A1-D11)*%
X145470000Y-82530000D02*
X145470000Y-79320000D01*
D31*
X151300000Y-120705000D02*
X148500000Y-123505000D01*
X141600000Y-102200000D02*
X141600000Y-97427760D01*
X136000000Y-91827760D02*
X136000000Y-90500000D01*
X151300000Y-116900000D02*
X151300000Y-120705000D01*
X141600000Y-97427760D02*
X136000000Y-91827760D01*
D32*
X143000000Y-85000000D02*
X145470000Y-82530000D01*
D33*
%TO.N,Net-(A1-A1)*%
X155850000Y-58780000D02*
X155630000Y-59000000D01*
X155850000Y-52315000D02*
X155850000Y-58780000D01*
%TO.N,Net-(A1-D24)*%
X150742006Y-127000000D02*
X145400000Y-121657994D01*
X140100000Y-96565570D02*
X135399000Y-91864570D01*
X157500000Y-123505000D02*
X154005000Y-127000000D01*
X135399000Y-89566100D02*
X129129000Y-83296100D01*
X143200000Y-120455000D02*
X143200000Y-115400000D01*
X140100000Y-102100000D02*
X140100000Y-96565570D01*
X129129000Y-83296100D02*
X129129000Y-77881000D01*
X129129000Y-77881000D02*
X148010000Y-59000000D01*
X135399000Y-91864570D02*
X135399000Y-89566100D01*
X145400000Y-121657994D02*
X145400000Y-121600000D01*
X154005000Y-127000000D02*
X150742006Y-127000000D01*
D32*
%TO.N,Net-(A1-3V3)*%
X132500000Y-93156782D02*
X132500000Y-113440000D01*
X158500000Y-84000000D02*
X165790000Y-76710000D01*
X132421609Y-93078391D02*
X132500000Y-93156782D01*
X132500000Y-113440000D02*
X132300000Y-113640000D01*
X154500000Y-84000000D02*
X158500000Y-84000000D01*
X165790000Y-76710000D02*
X165790000Y-59000000D01*
%TO.N,Net-(A1-D13)*%
X150550000Y-81550000D02*
X150550000Y-79320000D01*
X155000000Y-89250000D02*
X155000000Y-86000000D01*
X155000000Y-86000000D02*
X150550000Y-81550000D01*
D33*
%TO.N,Net-(A1-A0)*%
X159000000Y-52465000D02*
X159000000Y-58170000D01*
X159000000Y-58170000D02*
X158170000Y-59000000D01*
X158850000Y-52315000D02*
X159000000Y-52465000D01*
%TO.N,Net-(A1-SCL)*%
X175400000Y-78800000D02*
X170200000Y-73600000D01*
X161850000Y-71000000D02*
X161800000Y-71000000D01*
X193800000Y-83200000D02*
X190200000Y-79600000D01*
X177000000Y-78800000D02*
X175400000Y-78800000D01*
X161850000Y-52315000D02*
X161850000Y-71000000D01*
X161800000Y-71000000D02*
X160800000Y-72000000D01*
X195000000Y-83400000D02*
X194800000Y-83200000D01*
X197600000Y-83400000D02*
X195000000Y-83400000D01*
X194800000Y-83200000D02*
X193800000Y-83200000D01*
X177800000Y-79600000D02*
X177000000Y-78800000D01*
X140090000Y-72000000D02*
X132770000Y-79320000D01*
X160800000Y-72000000D02*
X140090000Y-72000000D01*
X190200000Y-79600000D02*
X177800000Y-79600000D01*
%TO.N,Net-(A1-SDA)*%
X135200000Y-87000000D02*
X133400000Y-87000000D01*
X164000000Y-89400000D02*
X162600000Y-90800000D01*
X139000000Y-90800000D02*
X135200000Y-87000000D01*
X130230000Y-83830000D02*
X130230000Y-79320000D01*
X133400000Y-87000000D02*
X130230000Y-83830000D01*
X162600000Y-90800000D02*
X139000000Y-90800000D01*
X176400000Y-89400000D02*
X164000000Y-89400000D01*
D32*
%TO.N,Net-(A1-D4)*%
X150500000Y-106000000D02*
X155250000Y-106000000D01*
X145750000Y-110750000D02*
X150500000Y-106000000D01*
X133375000Y-107625000D02*
X136500000Y-110750000D01*
X136500000Y-110750000D02*
X145750000Y-110750000D01*
X188770000Y-108750000D02*
X192770000Y-104750000D01*
X160000000Y-108750000D02*
X188770000Y-108750000D01*
%TO.N,Net-(A1-D10)*%
X175600000Y-103400000D02*
X175600000Y-96600000D01*
X175600000Y-96600000D02*
X176800000Y-95400000D01*
X176800000Y-95400000D02*
X190420000Y-95400000D01*
X134500000Y-92015392D02*
X134500000Y-91250000D01*
X138451000Y-104162549D02*
X138451000Y-96064392D01*
X190420000Y-95400000D02*
X192770000Y-97750000D01*
X152500000Y-103000000D02*
X150508636Y-103000000D01*
X142930000Y-83320000D02*
X142930000Y-79320000D01*
X150508636Y-103000000D02*
X144959636Y-108549000D01*
X141500000Y-84750000D02*
X142930000Y-83320000D01*
X162250000Y-106500000D02*
X172500000Y-106500000D01*
X142837451Y-108549000D02*
X138451000Y-104162549D01*
X172500000Y-106500000D02*
X175600000Y-103400000D01*
X144959636Y-108549000D02*
X142837451Y-108549000D01*
X138451000Y-96064392D02*
X134451000Y-92064392D01*
X134451000Y-92064392D02*
X134500000Y-92015392D01*
D33*
%TO.N,Net-(A1-A2)*%
X152850000Y-52315000D02*
X152850000Y-58760000D01*
X152850000Y-58760000D02*
X153090000Y-59000000D01*
D32*
%TO.N,Net-(A1-SCK)*%
X167749000Y-74749000D02*
X167749000Y-70851000D01*
X161549000Y-106209636D02*
X161959636Y-105799000D01*
X155160000Y-113640000D02*
X155160000Y-112640000D01*
X159709636Y-108049000D02*
X159751000Y-108049000D01*
X167749000Y-70851000D02*
X167800000Y-70800000D01*
X177800000Y-91400000D02*
X177800000Y-84800000D01*
X160049000Y-107709636D02*
X160459636Y-107299000D01*
X161549000Y-106251000D02*
X161549000Y-106209636D01*
X160459636Y-107299000D02*
X160501000Y-107299000D01*
X155160000Y-112640000D02*
X159299000Y-108501000D01*
X161251000Y-106549000D02*
X161549000Y-106251000D01*
X160049000Y-107751000D02*
X160049000Y-107709636D01*
X159299000Y-108459636D02*
X159709636Y-108049000D01*
X160799000Y-106959636D02*
X161209636Y-106549000D01*
X160799000Y-107001000D02*
X160799000Y-106959636D01*
X159299000Y-108501000D02*
X159299000Y-108459636D01*
X159751000Y-108049000D02*
X160049000Y-107751000D01*
X177800000Y-84800000D02*
X167749000Y-74749000D01*
X172600000Y-96600000D02*
X177800000Y-91400000D01*
X162001000Y-105799000D02*
X171200000Y-96600000D01*
X171200000Y-96600000D02*
X172600000Y-96600000D01*
X161959636Y-105799000D02*
X162001000Y-105799000D01*
X160501000Y-107299000D02*
X160799000Y-107001000D01*
X161209636Y-106549000D02*
X161251000Y-106549000D01*
D31*
%TO.N,Net-(A1-D12)*%
X153900000Y-121105000D02*
X151500000Y-123505000D01*
X146389000Y-91711000D02*
X146500000Y-91600000D01*
X147800000Y-85500000D02*
X147800000Y-79530000D01*
X145400000Y-101600000D02*
X146389000Y-100611000D01*
X147800000Y-79530000D02*
X148010000Y-79320000D01*
X146389000Y-100611000D02*
X146389000Y-91711000D01*
X153900000Y-116000000D02*
X153900000Y-121105000D01*
D33*
%TO.N,Net-(A1-A3)*%
X149850000Y-58300000D02*
X150550000Y-59000000D01*
X149850000Y-52315000D02*
X149850000Y-58300000D01*
D32*
%TO.N,Net-(A1-D6)*%
X154250000Y-105000000D02*
X150500000Y-105000000D01*
X150500000Y-105000000D02*
X148500000Y-107000000D01*
X160750000Y-108000000D02*
X179180603Y-108000000D01*
X181871000Y-99101000D02*
X180520000Y-97750000D01*
X179180603Y-108000000D02*
X181871000Y-105309603D01*
X181871000Y-105309603D02*
X181871000Y-99101000D01*
X131750000Y-91346120D02*
X131750000Y-90750000D01*
X148500000Y-107000000D02*
X148491364Y-107000000D01*
X148491364Y-107000000D02*
X145540364Y-109951000D01*
X137000000Y-105250000D02*
X137000000Y-96596120D01*
X137000000Y-96596120D02*
X131750000Y-91346120D01*
X145540364Y-109951000D02*
X141701000Y-109951000D01*
X141701000Y-109951000D02*
X137000000Y-105250000D01*
D33*
%TO.N,Net-(A1-CANH)*%
X167900000Y-124900000D02*
X164000000Y-121000000D01*
X186049000Y-123849000D02*
X187100000Y-124900000D01*
X175351000Y-123849000D02*
X186049000Y-123849000D01*
X174300000Y-124900000D02*
X167900000Y-124900000D01*
X174300000Y-124900000D02*
X175351000Y-123849000D01*
D32*
%TO.N,5v*%
X170750000Y-109750000D02*
X175000000Y-114000000D01*
X187100000Y-121900000D02*
X187100000Y-115025000D01*
D34*
X194750000Y-58117349D02*
X180500000Y-58117349D01*
D32*
X188125000Y-114000000D02*
X190125000Y-112000000D01*
X187100000Y-115025000D02*
X190125000Y-112000000D01*
X169600000Y-83400000D02*
X171600000Y-81400000D01*
X142500000Y-122800000D02*
X142500000Y-123505000D01*
X173909000Y-115091000D02*
X175000000Y-114000000D01*
X150209000Y-115091000D02*
X142500000Y-122800000D01*
X150209000Y-115091000D02*
X173909000Y-115091000D01*
X175000000Y-114000000D02*
X188125000Y-114000000D01*
D33*
%TO.N,Net-(U1-V1)*%
X192500000Y-77500000D02*
X189000000Y-77500000D01*
X193000000Y-78000000D02*
X192500000Y-77500000D01*
%TD*%
M02*
