M48
; DRILL file {KiCad 9.0.0} date 2025-04-04T06:59:11-0700
; FORMAT={-:-/ absolute / metric / decimal}
; #@! TF.CreationDate,2025-04-04T06:59:11-07:00
; #@! TF.GenerationSoftware,Kicad,Pcbnew,9.0.0
; #@! TF.FileFunction,Plated,1,4,PTH
FMAT,2
METRIC
; #@! TA.AperFunction,Plated,PTH,ViaDrill
T1C0.300
; #@! TA.AperFunction,Plated,PTH,ComponentDrill
T2C1.000
; #@! TA.AperFunction,Plated,PTH,ComponentDrill
T3C3.000
%
G90
G05
T1
X110.2Y-82.6
X110.2Y-85.8
X111.8Y-76.4
X116.824Y-77.776
X118.8Y-85.4
X118.8Y-97.4
X119.4Y-87.2
X119.4Y-91.8
X120.625Y-89.6
X120.625Y-90.6
X121.2Y-87.6
X121.6Y-91.8
X121.824Y-88.776
X122.2Y-79.8
X122.6Y-82.2
X123.6Y-83.0
X123.6Y-93.0
X123.6Y-97.2
X124.4Y-86.4
X124.4Y-94.351
X124.4Y-96.4
X125.2Y-90.6
X126.0Y-93.8
T2
X102.24Y-99.4
X104.78Y-99.4
X106.277Y-69.045
X106.277Y-71.045
X106.277Y-73.045
X106.277Y-75.045
X106.277Y-77.045
X106.277Y-79.045
X106.277Y-81.045
X106.277Y-83.045
X106.277Y-85.045
X106.277Y-87.045
X108.277Y-69.045
X108.277Y-71.045
X108.277Y-73.045
X108.277Y-75.045
X108.277Y-77.045
X108.277Y-79.045
X108.277Y-81.045
X108.277Y-83.045
X108.277Y-85.045
X108.277Y-87.045
X109.86Y-99.4
X109.86Y-101.94
X112.4Y-99.4
X112.4Y-101.94
X114.94Y-99.4
X114.94Y-101.94
X117.48Y-99.4
X117.48Y-101.94
X120.02Y-99.4
X120.02Y-101.94
X122.56Y-99.4
X122.56Y-101.94
X125.1Y-99.4
X125.1Y-101.94
X127.64Y-99.4
X127.64Y-101.94
X130.18Y-99.4
X130.18Y-101.94
X130.278Y-69.045
X130.278Y-71.045
X130.278Y-73.045
X130.278Y-75.045
X130.278Y-77.045
X130.278Y-79.045
X130.278Y-81.045
X130.278Y-83.045
X130.278Y-85.045
X130.278Y-87.045
X132.278Y-69.045
X132.278Y-71.045
X132.278Y-73.045
X132.278Y-75.045
X132.278Y-77.045
X132.278Y-79.045
X132.278Y-81.045
X132.278Y-83.045
X132.278Y-85.045
X132.278Y-87.045
X132.72Y-99.4
X132.72Y-101.94
T3
X106.6Y-61.8
X106.6Y-111.8
X131.6Y-61.8
X131.6Y-111.8
M30
