%TF.GenerationSoftware,KiCad,Pcbnew,9.0.0*%
%TF.CreationDate,2025-04-09T18:23:43-07:00*%
%TF.ProjectId,PAC Board,50414320-426f-4617-9264-2e6b69636164,rev?*%
%TF.SameCoordinates,Original*%
%TF.FileFunction,Drillmap*%
%TF.FilePolarity,Positive*%
%FSLAX45Y45*%
G04 Gerber Fmt 4.5, Leading zero omitted, Abs format (unit mm)*
G04 Created by KiCad (PCBNEW 9.0.0) date 2025-04-09 18:23:43*
%MOMM*%
%LPD*%
G01*
G04 APERTURE LIST*
%ADD10C,0.050000*%
%ADD11C,0.200000*%
%ADD12C,0.100000*%
%ADD13C,0.102000*%
%ADD14C,0.120000*%
%ADD15C,0.241000*%
%ADD16C,0.300000*%
G04 APERTURE END LIST*
D10*
X12050000Y-4800000D02*
X20150000Y-4800000D01*
X20150000Y-12900000D01*
X12050000Y-12900000D01*
X12050000Y-4800000D01*
D11*
D12*
X12855000Y-9405000D02*
X12885000Y-9435000D01*
X12885000Y-9405000D02*
X12855000Y-9435000D01*
X12865000Y-8725000D02*
X12895000Y-8755000D01*
X12895000Y-8725000D02*
X12865000Y-8755000D01*
X13160000Y-9060000D02*
X13190000Y-9090000D01*
X13190000Y-9060000D02*
X13160000Y-9090000D01*
X13227161Y-9292839D02*
X13257161Y-9322839D01*
X13257161Y-9292839D02*
X13227161Y-9322839D01*
X13322500Y-10747500D02*
X13352500Y-10777500D01*
X13352500Y-10747500D02*
X13322500Y-10777500D01*
X13360000Y-9135000D02*
X13390000Y-9165000D01*
X13390000Y-9135000D02*
X13360000Y-9165000D01*
X13435000Y-9110000D02*
X13465000Y-9140000D01*
X13465000Y-9110000D02*
X13435000Y-9140000D01*
X13585000Y-9035000D02*
X13615000Y-9065000D01*
X13615000Y-9035000D02*
X13585000Y-9065000D01*
X13835000Y-8460000D02*
X13865000Y-8490000D01*
X13865000Y-8460000D02*
X13835000Y-8490000D01*
X13995000Y-10195000D02*
X14025000Y-10225000D01*
X14025000Y-10195000D02*
X13995000Y-10225000D01*
X14135000Y-8460000D02*
X14165000Y-8490000D01*
X14165000Y-8460000D02*
X14135000Y-8490000D01*
X14145000Y-10205000D02*
X14175000Y-10235000D01*
X14175000Y-10205000D02*
X14145000Y-10235000D01*
X14285000Y-8485000D02*
X14315000Y-8515000D01*
X14315000Y-8485000D02*
X14285000Y-8515000D01*
X14305000Y-11525000D02*
X14335000Y-11555000D01*
X14335000Y-11525000D02*
X14305000Y-11555000D01*
X14305000Y-12030500D02*
X14335000Y-12060500D01*
X14335000Y-12030500D02*
X14305000Y-12060500D01*
X14525000Y-10145000D02*
X14555000Y-10175000D01*
X14555000Y-10145000D02*
X14525000Y-10175000D01*
X14525000Y-12145000D02*
X14555000Y-12175000D01*
X14555000Y-12145000D02*
X14525000Y-12175000D01*
X14635000Y-9145000D02*
X14665000Y-9175000D01*
X14665000Y-9145000D02*
X14635000Y-9175000D01*
X14765000Y-8535000D02*
X14795000Y-8565000D01*
X14795000Y-8535000D02*
X14765000Y-8565000D01*
X15115000Y-11675000D02*
X15145000Y-11705000D01*
X15145000Y-11675000D02*
X15115000Y-11705000D01*
X15235000Y-10285000D02*
X15265000Y-10315000D01*
X15265000Y-10285000D02*
X15235000Y-10315000D01*
X15335000Y-10385000D02*
X15365000Y-10415000D01*
X15365000Y-10385000D02*
X15335000Y-10415000D01*
X15375000Y-11585000D02*
X15405000Y-11615000D01*
X15405000Y-11585000D02*
X15375000Y-11615000D01*
X15410000Y-10485000D02*
X15440000Y-10515000D01*
X15440000Y-10485000D02*
X15410000Y-10515000D01*
X15435000Y-8385000D02*
X15465000Y-8415000D01*
X15465000Y-8385000D02*
X15435000Y-8415000D01*
X15485000Y-8910000D02*
X15515000Y-8940000D01*
X15515000Y-8910000D02*
X15485000Y-8940000D01*
X15510000Y-10585000D02*
X15540000Y-10615000D01*
X15540000Y-10585000D02*
X15510000Y-10615000D01*
X15625000Y-11595000D02*
X15655000Y-11625000D01*
X15655000Y-11595000D02*
X15625000Y-11625000D01*
X15985000Y-10860000D02*
X16015000Y-10890000D01*
X16015000Y-10860000D02*
X15985000Y-10890000D01*
X16060000Y-10785000D02*
X16090000Y-10815000D01*
X16090000Y-10785000D02*
X16060000Y-10815000D01*
X16135000Y-10710000D02*
X16165000Y-10740000D01*
X16165000Y-10710000D02*
X16135000Y-10740000D01*
X16170000Y-7085000D02*
X16200000Y-7115000D01*
X16200000Y-7085000D02*
X16170000Y-7115000D01*
X16210000Y-10635000D02*
X16240000Y-10665000D01*
X16240000Y-10635000D02*
X16210000Y-10665000D01*
X16765000Y-7065000D02*
X16795000Y-7095000D01*
X16795000Y-7065000D02*
X16765000Y-7095000D01*
X16945000Y-8325000D02*
X16975000Y-8355000D01*
X16975000Y-8325000D02*
X16945000Y-8355000D01*
X17005000Y-7345000D02*
X17035000Y-7375000D01*
X17035000Y-7345000D02*
X17005000Y-7375000D01*
X17060000Y-10960000D02*
X17090000Y-10990000D01*
X17090000Y-10960000D02*
X17060000Y-10990000D01*
X17145000Y-8125000D02*
X17175000Y-8155000D01*
X17175000Y-8125000D02*
X17145000Y-8155000D01*
X17625000Y-8925000D02*
X17655000Y-8955000D01*
X17655000Y-8925000D02*
X17625000Y-8955000D01*
X19285000Y-7785000D02*
X19315000Y-7815000D01*
X19315000Y-7785000D02*
X19285000Y-7815000D01*
X19745000Y-8325000D02*
X19775000Y-8355000D01*
X19775000Y-8325000D02*
X19745000Y-8355000D01*
X18090000Y-5811735D02*
G75*
G02*
X18010000Y-5811735I-40000J0D01*
G01*
X18010000Y-5811735D02*
G75*
G02*
X18090000Y-5811735I40000J0D01*
G01*
X18090000Y-6191735D02*
G75*
G02*
X18010000Y-6191735I-40000J0D01*
G01*
X18010000Y-6191735D02*
G75*
G02*
X18090000Y-6191735I40000J0D01*
G01*
X18940000Y-6734000D02*
G75*
G02*
X18860000Y-6734000I-40000J0D01*
G01*
X18860000Y-6734000D02*
G75*
G02*
X18940000Y-6734000I40000J0D01*
G01*
X18940000Y-7750000D02*
G75*
G02*
X18860000Y-7750000I-40000J0D01*
G01*
X18860000Y-7750000D02*
G75*
G02*
X18940000Y-7750000I40000J0D01*
G01*
X18940000Y-8159000D02*
G75*
G02*
X18860000Y-8159000I-40000J0D01*
G01*
X18860000Y-8159000D02*
G75*
G02*
X18940000Y-8159000I40000J0D01*
G01*
X18940000Y-9175000D02*
G75*
G02*
X18860000Y-9175000I-40000J0D01*
G01*
X18860000Y-9175000D02*
G75*
G02*
X18940000Y-9175000I40000J0D01*
G01*
X19515000Y-5811735D02*
G75*
G02*
X19435000Y-5811735I-40000J0D01*
G01*
X19435000Y-5811735D02*
G75*
G02*
X19515000Y-5811735I40000J0D01*
G01*
X19515000Y-6191735D02*
G75*
G02*
X19435000Y-6191735I-40000J0D01*
G01*
X19435000Y-6191735D02*
G75*
G02*
X19515000Y-6191735I40000J0D01*
G01*
X17769000Y-6797000D02*
X17769000Y-6887000D01*
X17724000Y-6842000D02*
X17814000Y-6842000D01*
X17769000Y-7397000D02*
X17769000Y-7487000D01*
X17724000Y-7442000D02*
X17814000Y-7442000D01*
X17798000Y-9730000D02*
X17798000Y-9820000D01*
X17753000Y-9775000D02*
X17843000Y-9775000D01*
X17798000Y-10430000D02*
X17798000Y-10520000D01*
X17753000Y-10475000D02*
X17843000Y-10475000D01*
X18052000Y-9730000D02*
X18052000Y-9820000D01*
X18007000Y-9775000D02*
X18097000Y-9775000D01*
X18052000Y-10430000D02*
X18052000Y-10520000D01*
X18007000Y-10475000D02*
X18097000Y-10475000D01*
X18531000Y-6797000D02*
X18531000Y-6887000D01*
X18486000Y-6842000D02*
X18576000Y-6842000D01*
X18531000Y-7397000D02*
X18531000Y-7487000D01*
X18486000Y-7442000D02*
X18576000Y-7442000D01*
X19023000Y-9730000D02*
X19023000Y-9820000D01*
X18978000Y-9775000D02*
X19068000Y-9775000D01*
X19023000Y-10430000D02*
X19023000Y-10520000D01*
X18978000Y-10475000D02*
X19068000Y-10475000D01*
X19277000Y-9730000D02*
X19277000Y-9820000D01*
X19232000Y-9775000D02*
X19322000Y-9775000D01*
X19277000Y-10430000D02*
X19277000Y-10520000D01*
X19232000Y-10475000D02*
X19322000Y-10475000D01*
X13011356Y-11399356D02*
X13011356Y-11328644D01*
X12940644Y-11328644D01*
X12940644Y-11399356D01*
X13011356Y-11399356D01*
X13058356Y-5935356D02*
X13058356Y-5864644D01*
X12987644Y-5864644D01*
X12987644Y-5935356D01*
X13058356Y-5935356D01*
X13058356Y-7967356D02*
X13058356Y-7896644D01*
X12987644Y-7896644D01*
X12987644Y-7967356D01*
X13058356Y-7967356D01*
X13265356Y-11399356D02*
X13265356Y-11328644D01*
X13194644Y-11328644D01*
X13194644Y-11399356D01*
X13265356Y-11399356D01*
X13312356Y-5935356D02*
X13312356Y-5864644D01*
X13241644Y-5864644D01*
X13241644Y-5935356D01*
X13312356Y-5935356D01*
X13312356Y-7967356D02*
X13312356Y-7896644D01*
X13241644Y-7896644D01*
X13241644Y-7967356D01*
X13312356Y-7967356D01*
X13519356Y-11399356D02*
X13519356Y-11328644D01*
X13448644Y-11328644D01*
X13448644Y-11399356D01*
X13519356Y-11399356D01*
X13566356Y-5935356D02*
X13566356Y-5864644D01*
X13495644Y-5864644D01*
X13495644Y-5935356D01*
X13566356Y-5935356D01*
X13566356Y-7967356D02*
X13566356Y-7896644D01*
X13495644Y-7896644D01*
X13495644Y-7967356D01*
X13566356Y-7967356D01*
X13773356Y-11399356D02*
X13773356Y-11328644D01*
X13702644Y-11328644D01*
X13702644Y-11399356D01*
X13773356Y-11399356D01*
X13820356Y-5935356D02*
X13820356Y-5864644D01*
X13749644Y-5864644D01*
X13749644Y-5935356D01*
X13820356Y-5935356D01*
X13820356Y-7967356D02*
X13820356Y-7896644D01*
X13749644Y-7896644D01*
X13749644Y-7967356D01*
X13820356Y-7967356D01*
X14027356Y-9367356D02*
X14027356Y-9296644D01*
X13956644Y-9296644D01*
X13956644Y-9367356D01*
X14027356Y-9367356D01*
X14027356Y-11399356D02*
X14027356Y-11328644D01*
X13956644Y-11328644D01*
X13956644Y-11399356D01*
X14027356Y-11399356D01*
X14074356Y-5935356D02*
X14074356Y-5864644D01*
X14003644Y-5864644D01*
X14003644Y-5935356D01*
X14074356Y-5935356D01*
X14074356Y-7967356D02*
X14074356Y-7896644D01*
X14003644Y-7896644D01*
X14003644Y-7967356D01*
X14074356Y-7967356D01*
X14281356Y-9367356D02*
X14281356Y-9296644D01*
X14210644Y-9296644D01*
X14210644Y-9367356D01*
X14281356Y-9367356D01*
X14281356Y-11399356D02*
X14281356Y-11328644D01*
X14210644Y-11328644D01*
X14210644Y-11399356D01*
X14281356Y-11399356D01*
X14328356Y-5935356D02*
X14328356Y-5864644D01*
X14257644Y-5864644D01*
X14257644Y-5935356D01*
X14328356Y-5935356D01*
X14328356Y-7967356D02*
X14328356Y-7896644D01*
X14257644Y-7896644D01*
X14257644Y-7967356D01*
X14328356Y-7967356D01*
X14535356Y-9367356D02*
X14535356Y-9296644D01*
X14464644Y-9296644D01*
X14464644Y-9367356D01*
X14535356Y-9367356D01*
X14535356Y-11399356D02*
X14535356Y-11328644D01*
X14464644Y-11328644D01*
X14464644Y-11399356D01*
X14535356Y-11399356D01*
X14582356Y-5935356D02*
X14582356Y-5864644D01*
X14511644Y-5864644D01*
X14511644Y-5935356D01*
X14582356Y-5935356D01*
X14582356Y-7967356D02*
X14582356Y-7896644D01*
X14511644Y-7896644D01*
X14511644Y-7967356D01*
X14582356Y-7967356D01*
X14789356Y-9367356D02*
X14789356Y-9296644D01*
X14718644Y-9296644D01*
X14718644Y-9367356D01*
X14789356Y-9367356D01*
X14789356Y-11399356D02*
X14789356Y-11328644D01*
X14718644Y-11328644D01*
X14718644Y-11399356D01*
X14789356Y-11399356D01*
X14836356Y-5935356D02*
X14836356Y-5864644D01*
X14765644Y-5864644D01*
X14765644Y-5935356D01*
X14836356Y-5935356D01*
X14836356Y-7967356D02*
X14836356Y-7896644D01*
X14765644Y-7896644D01*
X14765644Y-7967356D01*
X14836356Y-7967356D01*
X15043356Y-9367356D02*
X15043356Y-9296644D01*
X14972644Y-9296644D01*
X14972644Y-9367356D01*
X15043356Y-9367356D01*
X15043356Y-11399356D02*
X15043356Y-11328644D01*
X14972644Y-11328644D01*
X14972644Y-11399356D01*
X15043356Y-11399356D01*
X15090356Y-5935356D02*
X15090356Y-5864644D01*
X15019644Y-5864644D01*
X15019644Y-5935356D01*
X15090356Y-5935356D01*
X15090356Y-7967356D02*
X15090356Y-7896644D01*
X15019644Y-7896644D01*
X15019644Y-7967356D01*
X15090356Y-7967356D01*
X15297356Y-9367356D02*
X15297356Y-9296644D01*
X15226644Y-9296644D01*
X15226644Y-9367356D01*
X15297356Y-9367356D01*
X15297356Y-11399356D02*
X15297356Y-11328644D01*
X15226644Y-11328644D01*
X15226644Y-11399356D01*
X15297356Y-11399356D01*
X15344356Y-5935356D02*
X15344356Y-5864644D01*
X15273644Y-5864644D01*
X15273644Y-5935356D01*
X15344356Y-5935356D01*
X15344356Y-7967356D02*
X15344356Y-7896644D01*
X15273644Y-7896644D01*
X15273644Y-7967356D01*
X15344356Y-7967356D01*
X15551356Y-9367356D02*
X15551356Y-9296644D01*
X15480644Y-9296644D01*
X15480644Y-9367356D01*
X15551356Y-9367356D01*
X15551356Y-11399356D02*
X15551356Y-11328644D01*
X15480644Y-11328644D01*
X15480644Y-11399356D01*
X15551356Y-11399356D01*
X15598356Y-5935356D02*
X15598356Y-5864644D01*
X15527644Y-5864644D01*
X15527644Y-5935356D01*
X15598356Y-5935356D01*
X15598356Y-7967356D02*
X15598356Y-7896644D01*
X15527644Y-7896644D01*
X15527644Y-7967356D01*
X15598356Y-7967356D01*
X15805356Y-9367356D02*
X15805356Y-9296644D01*
X15734644Y-9296644D01*
X15734644Y-9367356D01*
X15805356Y-9367356D01*
X15805356Y-11399356D02*
X15805356Y-11328644D01*
X15734644Y-11328644D01*
X15734644Y-11399356D01*
X15805356Y-11399356D01*
X15852356Y-5935356D02*
X15852356Y-5864644D01*
X15781644Y-5864644D01*
X15781644Y-5935356D01*
X15852356Y-5935356D01*
X15852356Y-7967356D02*
X15852356Y-7896644D01*
X15781644Y-7896644D01*
X15781644Y-7967356D01*
X15852356Y-7967356D01*
X16059356Y-9367356D02*
X16059356Y-9296644D01*
X15988644Y-9296644D01*
X15988644Y-9367356D01*
X16059356Y-9367356D01*
X16059356Y-11399356D02*
X16059356Y-11328644D01*
X15988644Y-11328644D01*
X15988644Y-11399356D01*
X16059356Y-11399356D01*
X16106356Y-5935356D02*
X16106356Y-5864644D01*
X16035644Y-5864644D01*
X16035644Y-5935356D01*
X16106356Y-5935356D01*
X16313356Y-9367356D02*
X16313356Y-9296644D01*
X16242644Y-9296644D01*
X16242644Y-9367356D01*
X16313356Y-9367356D01*
X16313356Y-11399356D02*
X16313356Y-11328644D01*
X16242644Y-11328644D01*
X16242644Y-11399356D01*
X16313356Y-11399356D01*
X16360356Y-5935356D02*
X16360356Y-5864644D01*
X16289644Y-5864644D01*
X16289644Y-5935356D01*
X16360356Y-5935356D01*
X16435356Y-12135356D02*
X16435356Y-12064644D01*
X16364644Y-12064644D01*
X16364644Y-12135356D01*
X16435356Y-12135356D01*
X16435356Y-12710356D02*
X16435356Y-12639644D01*
X16364644Y-12639644D01*
X16364644Y-12710356D01*
X16435356Y-12710356D01*
X16567356Y-9367356D02*
X16567356Y-9296644D01*
X16496644Y-9296644D01*
X16496644Y-9367356D01*
X16567356Y-9367356D01*
X16567356Y-11399356D02*
X16567356Y-11328644D01*
X16496644Y-11328644D01*
X16496644Y-11399356D01*
X16567356Y-11399356D01*
X16614356Y-5935356D02*
X16614356Y-5864644D01*
X16543644Y-5864644D01*
X16543644Y-5935356D01*
X16614356Y-5935356D01*
X16821356Y-9367356D02*
X16821356Y-9296644D01*
X16750644Y-9296644D01*
X16750644Y-9367356D01*
X16821356Y-9367356D01*
X16821356Y-11399356D02*
X16821356Y-11328644D01*
X16750644Y-11328644D01*
X16750644Y-11399356D01*
X16821356Y-11399356D01*
X16868356Y-5935356D02*
X16868356Y-5864644D01*
X16797644Y-5864644D01*
X16797644Y-5935356D01*
X16868356Y-5935356D01*
X17585356Y-5260356D02*
X17585356Y-5189644D01*
X17514644Y-5189644D01*
X17514644Y-5260356D01*
X17585356Y-5260356D01*
X17839356Y-5260356D02*
X17839356Y-5189644D01*
X17768644Y-5189644D01*
X17768644Y-5260356D01*
X17839356Y-5260356D01*
X18560356Y-11235356D02*
X18560356Y-11164644D01*
X18489644Y-11164644D01*
X18489644Y-11235356D01*
X18560356Y-11235356D01*
X18937856Y-5260356D02*
X18937856Y-5189644D01*
X18867144Y-5189644D01*
X18867144Y-5260356D01*
X18937856Y-5260356D01*
X19047856Y-11235356D02*
X19047856Y-11164644D01*
X18977144Y-11164644D01*
X18977144Y-11235356D01*
X19047856Y-11235356D01*
X19191856Y-5260356D02*
X19191856Y-5189644D01*
X19121144Y-5189644D01*
X19121144Y-5260356D01*
X19191856Y-5260356D01*
X19215356Y-7505356D02*
X19215356Y-7434644D01*
X19144644Y-7434644D01*
X19144644Y-7505356D01*
X19215356Y-7505356D01*
X19235356Y-8455356D02*
X19235356Y-8384644D01*
X19164644Y-8384644D01*
X19164644Y-8455356D01*
X19235356Y-8455356D01*
X19535356Y-11235356D02*
X19535356Y-11164644D01*
X19464644Y-11164644D01*
X19464644Y-11235356D01*
X19535356Y-11235356D01*
D13*
X14250000Y-12401500D02*
X14301000Y-12350500D01*
X14250000Y-12299500D01*
X14199000Y-12350500D01*
X14250000Y-12401500D01*
X14550000Y-12401500D02*
X14601000Y-12350500D01*
X14550000Y-12299500D01*
X14499000Y-12350500D01*
X14550000Y-12401500D01*
X14685000Y-5282500D02*
X14736000Y-5231500D01*
X14685000Y-5180500D01*
X14634000Y-5231500D01*
X14685000Y-5282500D01*
X14850000Y-12401500D02*
X14901000Y-12350500D01*
X14850000Y-12299500D01*
X14799000Y-12350500D01*
X14850000Y-12401500D01*
X14985000Y-5282500D02*
X15036000Y-5231500D01*
X14985000Y-5180500D01*
X14934000Y-5231500D01*
X14985000Y-5282500D01*
X15150000Y-12401500D02*
X15201000Y-12350500D01*
X15150000Y-12299500D01*
X15099000Y-12350500D01*
X15150000Y-12401500D01*
X15285000Y-5282500D02*
X15336000Y-5231500D01*
X15285000Y-5180500D01*
X15234000Y-5231500D01*
X15285000Y-5282500D01*
X15450000Y-12401500D02*
X15501000Y-12350500D01*
X15450000Y-12299500D01*
X15399000Y-12350500D01*
X15450000Y-12401500D01*
X15585000Y-5282500D02*
X15636000Y-5231500D01*
X15585000Y-5180500D01*
X15534000Y-5231500D01*
X15585000Y-5282500D01*
X15750000Y-12401500D02*
X15801000Y-12350500D01*
X15750000Y-12299500D01*
X15699000Y-12350500D01*
X15750000Y-12401500D01*
X15885000Y-5282500D02*
X15936000Y-5231500D01*
X15885000Y-5180500D01*
X15834000Y-5231500D01*
X15885000Y-5282500D01*
X16185000Y-5282500D02*
X16236000Y-5231500D01*
X16185000Y-5180500D01*
X16134000Y-5231500D01*
X16185000Y-5282500D01*
X17430000Y-12241000D02*
X17481000Y-12190000D01*
X17430000Y-12139000D01*
X17379000Y-12190000D01*
X17430000Y-12241000D01*
X17430000Y-12541000D02*
X17481000Y-12490000D01*
X17430000Y-12439000D01*
X17379000Y-12490000D01*
X17430000Y-12541000D01*
X17730000Y-12241000D02*
X17781000Y-12190000D01*
X17730000Y-12139000D01*
X17679000Y-12190000D01*
X17730000Y-12241000D01*
X17730000Y-12541000D02*
X17781000Y-12490000D01*
X17730000Y-12439000D01*
X17679000Y-12490000D01*
X17730000Y-12541000D01*
X18710000Y-12241000D02*
X18761000Y-12190000D01*
X18710000Y-12139000D01*
X18659000Y-12190000D01*
X18710000Y-12241000D01*
X18710000Y-12541000D02*
X18761000Y-12490000D01*
X18710000Y-12439000D01*
X18659000Y-12490000D01*
X18710000Y-12541000D01*
X19010000Y-12241000D02*
X19061000Y-12190000D01*
X19010000Y-12139000D01*
X18959000Y-12190000D01*
X19010000Y-12241000D01*
X19010000Y-12541000D02*
X19061000Y-12490000D01*
X19010000Y-12439000D01*
X18959000Y-12490000D01*
X19010000Y-12541000D01*
D14*
X13178250Y-11925500D02*
X13298250Y-12045500D01*
X13298250Y-11925500D02*
X13178250Y-12045500D01*
X13298250Y-11985500D02*
G75*
G02*
X13178250Y-11985500I-60000J0D01*
G01*
X13178250Y-11985500D02*
G75*
G02*
X13298250Y-11985500I60000J0D01*
G01*
X13178250Y-12179500D02*
X13298250Y-12299500D01*
X13298250Y-12179500D02*
X13178250Y-12299500D01*
X13298250Y-12239500D02*
G75*
G02*
X13178250Y-12239500I-60000J0D01*
G01*
X13178250Y-12239500D02*
G75*
G02*
X13298250Y-12239500I60000J0D01*
G01*
X13178250Y-12433500D02*
X13298250Y-12553500D01*
X13298250Y-12433500D02*
X13178250Y-12553500D01*
X13298250Y-12493500D02*
G75*
G02*
X13178250Y-12493500I-60000J0D01*
G01*
X13178250Y-12493500D02*
G75*
G02*
X13298250Y-12493500I60000J0D01*
G01*
D15*
X13914500Y-12230000D02*
X14155500Y-12471000D01*
X14155500Y-12230000D02*
X13914500Y-12471000D01*
X14035000Y-12230000D02*
X14035000Y-12471000D01*
X13914500Y-12350500D02*
X14155500Y-12350500D01*
X14349500Y-5111000D02*
X14590500Y-5352000D01*
X14590500Y-5111000D02*
X14349500Y-5352000D01*
X14470000Y-5111000D02*
X14470000Y-5352000D01*
X14349500Y-5231500D02*
X14590500Y-5231500D01*
X15844500Y-12230000D02*
X16085500Y-12471000D01*
X16085500Y-12230000D02*
X15844500Y-12471000D01*
X15965000Y-12230000D02*
X15965000Y-12471000D01*
X15844500Y-12350500D02*
X16085500Y-12350500D01*
X16279500Y-5111000D02*
X16520500Y-5352000D01*
X16520500Y-5111000D02*
X16279500Y-5352000D01*
X16400000Y-5111000D02*
X16400000Y-5352000D01*
X16279500Y-5231500D02*
X16520500Y-5231500D01*
D16*
X12200000Y-4950000D02*
X12500000Y-5250000D01*
X12500000Y-4950000D02*
X12200000Y-5250000D01*
X12456067Y-5206067D02*
X12456067Y-4993933D01*
X12243933Y-4993933D01*
X12243933Y-5206067D01*
X12456067Y-5206067D01*
X12200000Y-12450000D02*
X12500000Y-12750000D01*
X12500000Y-12450000D02*
X12200000Y-12750000D01*
X12456067Y-12706067D02*
X12456067Y-12493933D01*
X12243933Y-12493933D01*
X12243933Y-12706067D01*
X12456067Y-12706067D01*
X19700000Y-4950000D02*
X20000000Y-5250000D01*
X20000000Y-4950000D02*
X19700000Y-5250000D01*
X19956067Y-5206067D02*
X19956067Y-4993933D01*
X19743933Y-4993933D01*
X19743933Y-5206067D01*
X19956067Y-5206067D01*
X19700000Y-12450000D02*
X20000000Y-12750000D01*
X20000000Y-12450000D02*
X19700000Y-12750000D01*
X19956067Y-12706067D02*
X19956067Y-12493933D01*
X19743933Y-12493933D01*
X19743933Y-12706067D01*
X19956067Y-12706067D01*
D11*
X12308277Y-13213984D02*
X12308277Y-13013984D01*
X12308277Y-13013984D02*
X12355896Y-13013984D01*
X12355896Y-13013984D02*
X12384467Y-13023508D01*
X12384467Y-13023508D02*
X12403515Y-13042555D01*
X12403515Y-13042555D02*
X12413039Y-13061603D01*
X12413039Y-13061603D02*
X12422562Y-13099698D01*
X12422562Y-13099698D02*
X12422562Y-13128269D01*
X12422562Y-13128269D02*
X12413039Y-13166365D01*
X12413039Y-13166365D02*
X12403515Y-13185412D01*
X12403515Y-13185412D02*
X12384467Y-13204460D01*
X12384467Y-13204460D02*
X12355896Y-13213984D01*
X12355896Y-13213984D02*
X12308277Y-13213984D01*
X12508277Y-13213984D02*
X12508277Y-13080650D01*
X12508277Y-13118746D02*
X12517801Y-13099698D01*
X12517801Y-13099698D02*
X12527324Y-13090174D01*
X12527324Y-13090174D02*
X12546372Y-13080650D01*
X12546372Y-13080650D02*
X12565420Y-13080650D01*
X12632086Y-13213984D02*
X12632086Y-13080650D01*
X12632086Y-13013984D02*
X12622562Y-13023508D01*
X12622562Y-13023508D02*
X12632086Y-13033031D01*
X12632086Y-13033031D02*
X12641610Y-13023508D01*
X12641610Y-13023508D02*
X12632086Y-13013984D01*
X12632086Y-13013984D02*
X12632086Y-13033031D01*
X12755896Y-13213984D02*
X12736848Y-13204460D01*
X12736848Y-13204460D02*
X12727324Y-13185412D01*
X12727324Y-13185412D02*
X12727324Y-13013984D01*
X12860658Y-13213984D02*
X12841610Y-13204460D01*
X12841610Y-13204460D02*
X12832086Y-13185412D01*
X12832086Y-13185412D02*
X12832086Y-13013984D01*
X13089229Y-13213984D02*
X13089229Y-13013984D01*
X13089229Y-13013984D02*
X13155896Y-13156841D01*
X13155896Y-13156841D02*
X13222562Y-13013984D01*
X13222562Y-13013984D02*
X13222562Y-13213984D01*
X13403515Y-13213984D02*
X13403515Y-13109222D01*
X13403515Y-13109222D02*
X13393991Y-13090174D01*
X13393991Y-13090174D02*
X13374943Y-13080650D01*
X13374943Y-13080650D02*
X13336848Y-13080650D01*
X13336848Y-13080650D02*
X13317801Y-13090174D01*
X13403515Y-13204460D02*
X13384467Y-13213984D01*
X13384467Y-13213984D02*
X13336848Y-13213984D01*
X13336848Y-13213984D02*
X13317801Y-13204460D01*
X13317801Y-13204460D02*
X13308277Y-13185412D01*
X13308277Y-13185412D02*
X13308277Y-13166365D01*
X13308277Y-13166365D02*
X13317801Y-13147317D01*
X13317801Y-13147317D02*
X13336848Y-13137793D01*
X13336848Y-13137793D02*
X13384467Y-13137793D01*
X13384467Y-13137793D02*
X13403515Y-13128269D01*
X13498753Y-13080650D02*
X13498753Y-13280650D01*
X13498753Y-13090174D02*
X13517801Y-13080650D01*
X13517801Y-13080650D02*
X13555896Y-13080650D01*
X13555896Y-13080650D02*
X13574943Y-13090174D01*
X13574943Y-13090174D02*
X13584467Y-13099698D01*
X13584467Y-13099698D02*
X13593991Y-13118746D01*
X13593991Y-13118746D02*
X13593991Y-13175888D01*
X13593991Y-13175888D02*
X13584467Y-13194936D01*
X13584467Y-13194936D02*
X13574943Y-13204460D01*
X13574943Y-13204460D02*
X13555896Y-13213984D01*
X13555896Y-13213984D02*
X13517801Y-13213984D01*
X13517801Y-13213984D02*
X13498753Y-13204460D01*
X13679705Y-13194936D02*
X13689229Y-13204460D01*
X13689229Y-13204460D02*
X13679705Y-13213984D01*
X13679705Y-13213984D02*
X13670182Y-13204460D01*
X13670182Y-13204460D02*
X13679705Y-13194936D01*
X13679705Y-13194936D02*
X13679705Y-13213984D01*
X13679705Y-13090174D02*
X13689229Y-13099698D01*
X13689229Y-13099698D02*
X13679705Y-13109222D01*
X13679705Y-13109222D02*
X13670182Y-13099698D01*
X13670182Y-13099698D02*
X13679705Y-13090174D01*
X13679705Y-13090174D02*
X13679705Y-13109222D01*
D12*
X12017500Y-13527500D02*
X12047500Y-13557500D01*
X12047500Y-13527500D02*
X12017500Y-13557500D01*
D11*
X12346372Y-13433984D02*
X12365420Y-13433984D01*
X12365420Y-13433984D02*
X12384467Y-13443508D01*
X12384467Y-13443508D02*
X12393991Y-13453031D01*
X12393991Y-13453031D02*
X12403515Y-13472079D01*
X12403515Y-13472079D02*
X12413039Y-13510174D01*
X12413039Y-13510174D02*
X12413039Y-13557793D01*
X12413039Y-13557793D02*
X12403515Y-13595888D01*
X12403515Y-13595888D02*
X12393991Y-13614936D01*
X12393991Y-13614936D02*
X12384467Y-13624460D01*
X12384467Y-13624460D02*
X12365420Y-13633984D01*
X12365420Y-13633984D02*
X12346372Y-13633984D01*
X12346372Y-13633984D02*
X12327324Y-13624460D01*
X12327324Y-13624460D02*
X12317801Y-13614936D01*
X12317801Y-13614936D02*
X12308277Y-13595888D01*
X12308277Y-13595888D02*
X12298753Y-13557793D01*
X12298753Y-13557793D02*
X12298753Y-13510174D01*
X12298753Y-13510174D02*
X12308277Y-13472079D01*
X12308277Y-13472079D02*
X12317801Y-13453031D01*
X12317801Y-13453031D02*
X12327324Y-13443508D01*
X12327324Y-13443508D02*
X12346372Y-13433984D01*
X12498753Y-13614936D02*
X12508277Y-13624460D01*
X12508277Y-13624460D02*
X12498753Y-13633984D01*
X12498753Y-13633984D02*
X12489229Y-13624460D01*
X12489229Y-13624460D02*
X12498753Y-13614936D01*
X12498753Y-13614936D02*
X12498753Y-13633984D01*
X12574943Y-13433984D02*
X12698753Y-13433984D01*
X12698753Y-13433984D02*
X12632086Y-13510174D01*
X12632086Y-13510174D02*
X12660658Y-13510174D01*
X12660658Y-13510174D02*
X12679705Y-13519698D01*
X12679705Y-13519698D02*
X12689229Y-13529222D01*
X12689229Y-13529222D02*
X12698753Y-13548269D01*
X12698753Y-13548269D02*
X12698753Y-13595888D01*
X12698753Y-13595888D02*
X12689229Y-13614936D01*
X12689229Y-13614936D02*
X12679705Y-13624460D01*
X12679705Y-13624460D02*
X12660658Y-13633984D01*
X12660658Y-13633984D02*
X12603515Y-13633984D01*
X12603515Y-13633984D02*
X12584467Y-13624460D01*
X12584467Y-13624460D02*
X12574943Y-13614936D01*
X12822562Y-13433984D02*
X12841610Y-13433984D01*
X12841610Y-13433984D02*
X12860658Y-13443508D01*
X12860658Y-13443508D02*
X12870182Y-13453031D01*
X12870182Y-13453031D02*
X12879705Y-13472079D01*
X12879705Y-13472079D02*
X12889229Y-13510174D01*
X12889229Y-13510174D02*
X12889229Y-13557793D01*
X12889229Y-13557793D02*
X12879705Y-13595888D01*
X12879705Y-13595888D02*
X12870182Y-13614936D01*
X12870182Y-13614936D02*
X12860658Y-13624460D01*
X12860658Y-13624460D02*
X12841610Y-13633984D01*
X12841610Y-13633984D02*
X12822562Y-13633984D01*
X12822562Y-13633984D02*
X12803515Y-13624460D01*
X12803515Y-13624460D02*
X12793991Y-13614936D01*
X12793991Y-13614936D02*
X12784467Y-13595888D01*
X12784467Y-13595888D02*
X12774943Y-13557793D01*
X12774943Y-13557793D02*
X12774943Y-13510174D01*
X12774943Y-13510174D02*
X12784467Y-13472079D01*
X12784467Y-13472079D02*
X12793991Y-13453031D01*
X12793991Y-13453031D02*
X12803515Y-13443508D01*
X12803515Y-13443508D02*
X12822562Y-13433984D01*
X13013039Y-13433984D02*
X13032086Y-13433984D01*
X13032086Y-13433984D02*
X13051134Y-13443508D01*
X13051134Y-13443508D02*
X13060658Y-13453031D01*
X13060658Y-13453031D02*
X13070182Y-13472079D01*
X13070182Y-13472079D02*
X13079705Y-13510174D01*
X13079705Y-13510174D02*
X13079705Y-13557793D01*
X13079705Y-13557793D02*
X13070182Y-13595888D01*
X13070182Y-13595888D02*
X13060658Y-13614936D01*
X13060658Y-13614936D02*
X13051134Y-13624460D01*
X13051134Y-13624460D02*
X13032086Y-13633984D01*
X13032086Y-13633984D02*
X13013039Y-13633984D01*
X13013039Y-13633984D02*
X12993991Y-13624460D01*
X12993991Y-13624460D02*
X12984467Y-13614936D01*
X12984467Y-13614936D02*
X12974943Y-13595888D01*
X12974943Y-13595888D02*
X12965420Y-13557793D01*
X12965420Y-13557793D02*
X12965420Y-13510174D01*
X12965420Y-13510174D02*
X12974943Y-13472079D01*
X12974943Y-13472079D02*
X12984467Y-13453031D01*
X12984467Y-13453031D02*
X12993991Y-13443508D01*
X12993991Y-13443508D02*
X13013039Y-13433984D01*
X13165420Y-13633984D02*
X13165420Y-13500650D01*
X13165420Y-13519698D02*
X13174943Y-13510174D01*
X13174943Y-13510174D02*
X13193991Y-13500650D01*
X13193991Y-13500650D02*
X13222563Y-13500650D01*
X13222563Y-13500650D02*
X13241610Y-13510174D01*
X13241610Y-13510174D02*
X13251134Y-13529222D01*
X13251134Y-13529222D02*
X13251134Y-13633984D01*
X13251134Y-13529222D02*
X13260658Y-13510174D01*
X13260658Y-13510174D02*
X13279705Y-13500650D01*
X13279705Y-13500650D02*
X13308277Y-13500650D01*
X13308277Y-13500650D02*
X13327324Y-13510174D01*
X13327324Y-13510174D02*
X13336848Y-13529222D01*
X13336848Y-13529222D02*
X13336848Y-13633984D01*
X13432086Y-13633984D02*
X13432086Y-13500650D01*
X13432086Y-13519698D02*
X13441610Y-13510174D01*
X13441610Y-13510174D02*
X13460658Y-13500650D01*
X13460658Y-13500650D02*
X13489229Y-13500650D01*
X13489229Y-13500650D02*
X13508277Y-13510174D01*
X13508277Y-13510174D02*
X13517801Y-13529222D01*
X13517801Y-13529222D02*
X13517801Y-13633984D01*
X13517801Y-13529222D02*
X13527324Y-13510174D01*
X13527324Y-13510174D02*
X13546372Y-13500650D01*
X13546372Y-13500650D02*
X13574943Y-13500650D01*
X13574943Y-13500650D02*
X13593991Y-13510174D01*
X13593991Y-13510174D02*
X13603515Y-13529222D01*
X13603515Y-13529222D02*
X13603515Y-13633984D01*
X13993991Y-13424460D02*
X13822563Y-13681603D01*
X14251134Y-13433984D02*
X14270182Y-13433984D01*
X14270182Y-13433984D02*
X14289229Y-13443508D01*
X14289229Y-13443508D02*
X14298753Y-13453031D01*
X14298753Y-13453031D02*
X14308277Y-13472079D01*
X14308277Y-13472079D02*
X14317801Y-13510174D01*
X14317801Y-13510174D02*
X14317801Y-13557793D01*
X14317801Y-13557793D02*
X14308277Y-13595888D01*
X14308277Y-13595888D02*
X14298753Y-13614936D01*
X14298753Y-13614936D02*
X14289229Y-13624460D01*
X14289229Y-13624460D02*
X14270182Y-13633984D01*
X14270182Y-13633984D02*
X14251134Y-13633984D01*
X14251134Y-13633984D02*
X14232086Y-13624460D01*
X14232086Y-13624460D02*
X14222563Y-13614936D01*
X14222563Y-13614936D02*
X14213039Y-13595888D01*
X14213039Y-13595888D02*
X14203515Y-13557793D01*
X14203515Y-13557793D02*
X14203515Y-13510174D01*
X14203515Y-13510174D02*
X14213039Y-13472079D01*
X14213039Y-13472079D02*
X14222563Y-13453031D01*
X14222563Y-13453031D02*
X14232086Y-13443508D01*
X14232086Y-13443508D02*
X14251134Y-13433984D01*
X14403515Y-13614936D02*
X14413039Y-13624460D01*
X14413039Y-13624460D02*
X14403515Y-13633984D01*
X14403515Y-13633984D02*
X14393991Y-13624460D01*
X14393991Y-13624460D02*
X14403515Y-13614936D01*
X14403515Y-13614936D02*
X14403515Y-13633984D01*
X14536848Y-13433984D02*
X14555896Y-13433984D01*
X14555896Y-13433984D02*
X14574944Y-13443508D01*
X14574944Y-13443508D02*
X14584467Y-13453031D01*
X14584467Y-13453031D02*
X14593991Y-13472079D01*
X14593991Y-13472079D02*
X14603515Y-13510174D01*
X14603515Y-13510174D02*
X14603515Y-13557793D01*
X14603515Y-13557793D02*
X14593991Y-13595888D01*
X14593991Y-13595888D02*
X14584467Y-13614936D01*
X14584467Y-13614936D02*
X14574944Y-13624460D01*
X14574944Y-13624460D02*
X14555896Y-13633984D01*
X14555896Y-13633984D02*
X14536848Y-13633984D01*
X14536848Y-13633984D02*
X14517801Y-13624460D01*
X14517801Y-13624460D02*
X14508277Y-13614936D01*
X14508277Y-13614936D02*
X14498753Y-13595888D01*
X14498753Y-13595888D02*
X14489229Y-13557793D01*
X14489229Y-13557793D02*
X14489229Y-13510174D01*
X14489229Y-13510174D02*
X14498753Y-13472079D01*
X14498753Y-13472079D02*
X14508277Y-13453031D01*
X14508277Y-13453031D02*
X14517801Y-13443508D01*
X14517801Y-13443508D02*
X14536848Y-13433984D01*
X14793991Y-13633984D02*
X14679706Y-13633984D01*
X14736848Y-13633984D02*
X14736848Y-13433984D01*
X14736848Y-13433984D02*
X14717801Y-13462555D01*
X14717801Y-13462555D02*
X14698753Y-13481603D01*
X14698753Y-13481603D02*
X14679706Y-13491127D01*
X14984467Y-13633984D02*
X14870182Y-13633984D01*
X14927325Y-13633984D02*
X14927325Y-13433984D01*
X14927325Y-13433984D02*
X14908277Y-13462555D01*
X14908277Y-13462555D02*
X14889229Y-13481603D01*
X14889229Y-13481603D02*
X14870182Y-13491127D01*
X15098753Y-13519698D02*
X15079706Y-13510174D01*
X15079706Y-13510174D02*
X15070182Y-13500650D01*
X15070182Y-13500650D02*
X15060658Y-13481603D01*
X15060658Y-13481603D02*
X15060658Y-13472079D01*
X15060658Y-13472079D02*
X15070182Y-13453031D01*
X15070182Y-13453031D02*
X15079706Y-13443508D01*
X15079706Y-13443508D02*
X15098753Y-13433984D01*
X15098753Y-13433984D02*
X15136848Y-13433984D01*
X15136848Y-13433984D02*
X15155896Y-13443508D01*
X15155896Y-13443508D02*
X15165420Y-13453031D01*
X15165420Y-13453031D02*
X15174944Y-13472079D01*
X15174944Y-13472079D02*
X15174944Y-13481603D01*
X15174944Y-13481603D02*
X15165420Y-13500650D01*
X15165420Y-13500650D02*
X15155896Y-13510174D01*
X15155896Y-13510174D02*
X15136848Y-13519698D01*
X15136848Y-13519698D02*
X15098753Y-13519698D01*
X15098753Y-13519698D02*
X15079706Y-13529222D01*
X15079706Y-13529222D02*
X15070182Y-13538746D01*
X15070182Y-13538746D02*
X15060658Y-13557793D01*
X15060658Y-13557793D02*
X15060658Y-13595888D01*
X15060658Y-13595888D02*
X15070182Y-13614936D01*
X15070182Y-13614936D02*
X15079706Y-13624460D01*
X15079706Y-13624460D02*
X15098753Y-13633984D01*
X15098753Y-13633984D02*
X15136848Y-13633984D01*
X15136848Y-13633984D02*
X15155896Y-13624460D01*
X15155896Y-13624460D02*
X15165420Y-13614936D01*
X15165420Y-13614936D02*
X15174944Y-13595888D01*
X15174944Y-13595888D02*
X15174944Y-13557793D01*
X15174944Y-13557793D02*
X15165420Y-13538746D01*
X15165420Y-13538746D02*
X15155896Y-13529222D01*
X15155896Y-13529222D02*
X15136848Y-13519698D01*
X15251134Y-13433984D02*
X15251134Y-13472079D01*
X15327325Y-13433984D02*
X15327325Y-13472079D01*
X15622563Y-13710174D02*
X15613039Y-13700650D01*
X15613039Y-13700650D02*
X15593991Y-13672079D01*
X15593991Y-13672079D02*
X15584468Y-13653031D01*
X15584468Y-13653031D02*
X15574944Y-13624460D01*
X15574944Y-13624460D02*
X15565420Y-13576841D01*
X15565420Y-13576841D02*
X15565420Y-13538746D01*
X15565420Y-13538746D02*
X15574944Y-13491127D01*
X15574944Y-13491127D02*
X15584468Y-13462555D01*
X15584468Y-13462555D02*
X15593991Y-13443508D01*
X15593991Y-13443508D02*
X15613039Y-13414936D01*
X15613039Y-13414936D02*
X15622563Y-13405412D01*
X15784468Y-13500650D02*
X15784468Y-13633984D01*
X15736848Y-13424460D02*
X15689229Y-13567317D01*
X15689229Y-13567317D02*
X15813039Y-13567317D01*
X15993991Y-13633984D02*
X15879706Y-13633984D01*
X15936848Y-13633984D02*
X15936848Y-13433984D01*
X15936848Y-13433984D02*
X15917801Y-13462555D01*
X15917801Y-13462555D02*
X15898753Y-13481603D01*
X15898753Y-13481603D02*
X15879706Y-13491127D01*
X16232087Y-13633984D02*
X16232087Y-13433984D01*
X16317801Y-13633984D02*
X16317801Y-13529222D01*
X16317801Y-13529222D02*
X16308277Y-13510174D01*
X16308277Y-13510174D02*
X16289230Y-13500650D01*
X16289230Y-13500650D02*
X16260658Y-13500650D01*
X16260658Y-13500650D02*
X16241610Y-13510174D01*
X16241610Y-13510174D02*
X16232087Y-13519698D01*
X16441610Y-13633984D02*
X16422563Y-13624460D01*
X16422563Y-13624460D02*
X16413039Y-13614936D01*
X16413039Y-13614936D02*
X16403515Y-13595888D01*
X16403515Y-13595888D02*
X16403515Y-13538746D01*
X16403515Y-13538746D02*
X16413039Y-13519698D01*
X16413039Y-13519698D02*
X16422563Y-13510174D01*
X16422563Y-13510174D02*
X16441610Y-13500650D01*
X16441610Y-13500650D02*
X16470182Y-13500650D01*
X16470182Y-13500650D02*
X16489230Y-13510174D01*
X16489230Y-13510174D02*
X16498753Y-13519698D01*
X16498753Y-13519698D02*
X16508277Y-13538746D01*
X16508277Y-13538746D02*
X16508277Y-13595888D01*
X16508277Y-13595888D02*
X16498753Y-13614936D01*
X16498753Y-13614936D02*
X16489230Y-13624460D01*
X16489230Y-13624460D02*
X16470182Y-13633984D01*
X16470182Y-13633984D02*
X16441610Y-13633984D01*
X16622563Y-13633984D02*
X16603515Y-13624460D01*
X16603515Y-13624460D02*
X16593991Y-13605412D01*
X16593991Y-13605412D02*
X16593991Y-13433984D01*
X16774944Y-13624460D02*
X16755896Y-13633984D01*
X16755896Y-13633984D02*
X16717801Y-13633984D01*
X16717801Y-13633984D02*
X16698753Y-13624460D01*
X16698753Y-13624460D02*
X16689230Y-13605412D01*
X16689230Y-13605412D02*
X16689230Y-13529222D01*
X16689230Y-13529222D02*
X16698753Y-13510174D01*
X16698753Y-13510174D02*
X16717801Y-13500650D01*
X16717801Y-13500650D02*
X16755896Y-13500650D01*
X16755896Y-13500650D02*
X16774944Y-13510174D01*
X16774944Y-13510174D02*
X16784468Y-13529222D01*
X16784468Y-13529222D02*
X16784468Y-13548269D01*
X16784468Y-13548269D02*
X16689230Y-13567317D01*
X16860658Y-13624460D02*
X16879706Y-13633984D01*
X16879706Y-13633984D02*
X16917801Y-13633984D01*
X16917801Y-13633984D02*
X16936849Y-13624460D01*
X16936849Y-13624460D02*
X16946373Y-13605412D01*
X16946373Y-13605412D02*
X16946373Y-13595888D01*
X16946373Y-13595888D02*
X16936849Y-13576841D01*
X16936849Y-13576841D02*
X16917801Y-13567317D01*
X16917801Y-13567317D02*
X16889230Y-13567317D01*
X16889230Y-13567317D02*
X16870182Y-13557793D01*
X16870182Y-13557793D02*
X16860658Y-13538746D01*
X16860658Y-13538746D02*
X16860658Y-13529222D01*
X16860658Y-13529222D02*
X16870182Y-13510174D01*
X16870182Y-13510174D02*
X16889230Y-13500650D01*
X16889230Y-13500650D02*
X16917801Y-13500650D01*
X16917801Y-13500650D02*
X16936849Y-13510174D01*
X17013039Y-13710174D02*
X17022563Y-13700650D01*
X17022563Y-13700650D02*
X17041611Y-13672079D01*
X17041611Y-13672079D02*
X17051134Y-13653031D01*
X17051134Y-13653031D02*
X17060658Y-13624460D01*
X17060658Y-13624460D02*
X17070182Y-13576841D01*
X17070182Y-13576841D02*
X17070182Y-13538746D01*
X17070182Y-13538746D02*
X17060658Y-13491127D01*
X17060658Y-13491127D02*
X17051134Y-13462555D01*
X17051134Y-13462555D02*
X17041611Y-13443508D01*
X17041611Y-13443508D02*
X17022563Y-13414936D01*
X17022563Y-13414936D02*
X17013039Y-13405412D01*
D12*
X12047500Y-13806500D02*
G75*
G02*
X11967500Y-13806500I-40000J0D01*
G01*
X11967500Y-13806500D02*
G75*
G02*
X12047500Y-13806500I40000J0D01*
G01*
D11*
X12346372Y-13697984D02*
X12365420Y-13697984D01*
X12365420Y-13697984D02*
X12384467Y-13707508D01*
X12384467Y-13707508D02*
X12393991Y-13717031D01*
X12393991Y-13717031D02*
X12403515Y-13736079D01*
X12403515Y-13736079D02*
X12413039Y-13774174D01*
X12413039Y-13774174D02*
X12413039Y-13821793D01*
X12413039Y-13821793D02*
X12403515Y-13859888D01*
X12403515Y-13859888D02*
X12393991Y-13878936D01*
X12393991Y-13878936D02*
X12384467Y-13888460D01*
X12384467Y-13888460D02*
X12365420Y-13897984D01*
X12365420Y-13897984D02*
X12346372Y-13897984D01*
X12346372Y-13897984D02*
X12327324Y-13888460D01*
X12327324Y-13888460D02*
X12317801Y-13878936D01*
X12317801Y-13878936D02*
X12308277Y-13859888D01*
X12308277Y-13859888D02*
X12298753Y-13821793D01*
X12298753Y-13821793D02*
X12298753Y-13774174D01*
X12298753Y-13774174D02*
X12308277Y-13736079D01*
X12308277Y-13736079D02*
X12317801Y-13717031D01*
X12317801Y-13717031D02*
X12327324Y-13707508D01*
X12327324Y-13707508D02*
X12346372Y-13697984D01*
X12498753Y-13878936D02*
X12508277Y-13888460D01*
X12508277Y-13888460D02*
X12498753Y-13897984D01*
X12498753Y-13897984D02*
X12489229Y-13888460D01*
X12489229Y-13888460D02*
X12498753Y-13878936D01*
X12498753Y-13878936D02*
X12498753Y-13897984D01*
X12622562Y-13783698D02*
X12603515Y-13774174D01*
X12603515Y-13774174D02*
X12593991Y-13764650D01*
X12593991Y-13764650D02*
X12584467Y-13745603D01*
X12584467Y-13745603D02*
X12584467Y-13736079D01*
X12584467Y-13736079D02*
X12593991Y-13717031D01*
X12593991Y-13717031D02*
X12603515Y-13707508D01*
X12603515Y-13707508D02*
X12622562Y-13697984D01*
X12622562Y-13697984D02*
X12660658Y-13697984D01*
X12660658Y-13697984D02*
X12679705Y-13707508D01*
X12679705Y-13707508D02*
X12689229Y-13717031D01*
X12689229Y-13717031D02*
X12698753Y-13736079D01*
X12698753Y-13736079D02*
X12698753Y-13745603D01*
X12698753Y-13745603D02*
X12689229Y-13764650D01*
X12689229Y-13764650D02*
X12679705Y-13774174D01*
X12679705Y-13774174D02*
X12660658Y-13783698D01*
X12660658Y-13783698D02*
X12622562Y-13783698D01*
X12622562Y-13783698D02*
X12603515Y-13793222D01*
X12603515Y-13793222D02*
X12593991Y-13802746D01*
X12593991Y-13802746D02*
X12584467Y-13821793D01*
X12584467Y-13821793D02*
X12584467Y-13859888D01*
X12584467Y-13859888D02*
X12593991Y-13878936D01*
X12593991Y-13878936D02*
X12603515Y-13888460D01*
X12603515Y-13888460D02*
X12622562Y-13897984D01*
X12622562Y-13897984D02*
X12660658Y-13897984D01*
X12660658Y-13897984D02*
X12679705Y-13888460D01*
X12679705Y-13888460D02*
X12689229Y-13878936D01*
X12689229Y-13878936D02*
X12698753Y-13859888D01*
X12698753Y-13859888D02*
X12698753Y-13821793D01*
X12698753Y-13821793D02*
X12689229Y-13802746D01*
X12689229Y-13802746D02*
X12679705Y-13793222D01*
X12679705Y-13793222D02*
X12660658Y-13783698D01*
X12822562Y-13697984D02*
X12841610Y-13697984D01*
X12841610Y-13697984D02*
X12860658Y-13707508D01*
X12860658Y-13707508D02*
X12870182Y-13717031D01*
X12870182Y-13717031D02*
X12879705Y-13736079D01*
X12879705Y-13736079D02*
X12889229Y-13774174D01*
X12889229Y-13774174D02*
X12889229Y-13821793D01*
X12889229Y-13821793D02*
X12879705Y-13859888D01*
X12879705Y-13859888D02*
X12870182Y-13878936D01*
X12870182Y-13878936D02*
X12860658Y-13888460D01*
X12860658Y-13888460D02*
X12841610Y-13897984D01*
X12841610Y-13897984D02*
X12822562Y-13897984D01*
X12822562Y-13897984D02*
X12803515Y-13888460D01*
X12803515Y-13888460D02*
X12793991Y-13878936D01*
X12793991Y-13878936D02*
X12784467Y-13859888D01*
X12784467Y-13859888D02*
X12774943Y-13821793D01*
X12774943Y-13821793D02*
X12774943Y-13774174D01*
X12774943Y-13774174D02*
X12784467Y-13736079D01*
X12784467Y-13736079D02*
X12793991Y-13717031D01*
X12793991Y-13717031D02*
X12803515Y-13707508D01*
X12803515Y-13707508D02*
X12822562Y-13697984D01*
X13013039Y-13697984D02*
X13032086Y-13697984D01*
X13032086Y-13697984D02*
X13051134Y-13707508D01*
X13051134Y-13707508D02*
X13060658Y-13717031D01*
X13060658Y-13717031D02*
X13070182Y-13736079D01*
X13070182Y-13736079D02*
X13079705Y-13774174D01*
X13079705Y-13774174D02*
X13079705Y-13821793D01*
X13079705Y-13821793D02*
X13070182Y-13859888D01*
X13070182Y-13859888D02*
X13060658Y-13878936D01*
X13060658Y-13878936D02*
X13051134Y-13888460D01*
X13051134Y-13888460D02*
X13032086Y-13897984D01*
X13032086Y-13897984D02*
X13013039Y-13897984D01*
X13013039Y-13897984D02*
X12993991Y-13888460D01*
X12993991Y-13888460D02*
X12984467Y-13878936D01*
X12984467Y-13878936D02*
X12974943Y-13859888D01*
X12974943Y-13859888D02*
X12965420Y-13821793D01*
X12965420Y-13821793D02*
X12965420Y-13774174D01*
X12965420Y-13774174D02*
X12974943Y-13736079D01*
X12974943Y-13736079D02*
X12984467Y-13717031D01*
X12984467Y-13717031D02*
X12993991Y-13707508D01*
X12993991Y-13707508D02*
X13013039Y-13697984D01*
X13165420Y-13897984D02*
X13165420Y-13764650D01*
X13165420Y-13783698D02*
X13174943Y-13774174D01*
X13174943Y-13774174D02*
X13193991Y-13764650D01*
X13193991Y-13764650D02*
X13222563Y-13764650D01*
X13222563Y-13764650D02*
X13241610Y-13774174D01*
X13241610Y-13774174D02*
X13251134Y-13793222D01*
X13251134Y-13793222D02*
X13251134Y-13897984D01*
X13251134Y-13793222D02*
X13260658Y-13774174D01*
X13260658Y-13774174D02*
X13279705Y-13764650D01*
X13279705Y-13764650D02*
X13308277Y-13764650D01*
X13308277Y-13764650D02*
X13327324Y-13774174D01*
X13327324Y-13774174D02*
X13336848Y-13793222D01*
X13336848Y-13793222D02*
X13336848Y-13897984D01*
X13432086Y-13897984D02*
X13432086Y-13764650D01*
X13432086Y-13783698D02*
X13441610Y-13774174D01*
X13441610Y-13774174D02*
X13460658Y-13764650D01*
X13460658Y-13764650D02*
X13489229Y-13764650D01*
X13489229Y-13764650D02*
X13508277Y-13774174D01*
X13508277Y-13774174D02*
X13517801Y-13793222D01*
X13517801Y-13793222D02*
X13517801Y-13897984D01*
X13517801Y-13793222D02*
X13527324Y-13774174D01*
X13527324Y-13774174D02*
X13546372Y-13764650D01*
X13546372Y-13764650D02*
X13574943Y-13764650D01*
X13574943Y-13764650D02*
X13593991Y-13774174D01*
X13593991Y-13774174D02*
X13603515Y-13793222D01*
X13603515Y-13793222D02*
X13603515Y-13897984D01*
X13993991Y-13688460D02*
X13822563Y-13945603D01*
X14251134Y-13697984D02*
X14270182Y-13697984D01*
X14270182Y-13697984D02*
X14289229Y-13707508D01*
X14289229Y-13707508D02*
X14298753Y-13717031D01*
X14298753Y-13717031D02*
X14308277Y-13736079D01*
X14308277Y-13736079D02*
X14317801Y-13774174D01*
X14317801Y-13774174D02*
X14317801Y-13821793D01*
X14317801Y-13821793D02*
X14308277Y-13859888D01*
X14308277Y-13859888D02*
X14298753Y-13878936D01*
X14298753Y-13878936D02*
X14289229Y-13888460D01*
X14289229Y-13888460D02*
X14270182Y-13897984D01*
X14270182Y-13897984D02*
X14251134Y-13897984D01*
X14251134Y-13897984D02*
X14232086Y-13888460D01*
X14232086Y-13888460D02*
X14222563Y-13878936D01*
X14222563Y-13878936D02*
X14213039Y-13859888D01*
X14213039Y-13859888D02*
X14203515Y-13821793D01*
X14203515Y-13821793D02*
X14203515Y-13774174D01*
X14203515Y-13774174D02*
X14213039Y-13736079D01*
X14213039Y-13736079D02*
X14222563Y-13717031D01*
X14222563Y-13717031D02*
X14232086Y-13707508D01*
X14232086Y-13707508D02*
X14251134Y-13697984D01*
X14403515Y-13878936D02*
X14413039Y-13888460D01*
X14413039Y-13888460D02*
X14403515Y-13897984D01*
X14403515Y-13897984D02*
X14393991Y-13888460D01*
X14393991Y-13888460D02*
X14403515Y-13878936D01*
X14403515Y-13878936D02*
X14403515Y-13897984D01*
X14536848Y-13697984D02*
X14555896Y-13697984D01*
X14555896Y-13697984D02*
X14574944Y-13707508D01*
X14574944Y-13707508D02*
X14584467Y-13717031D01*
X14584467Y-13717031D02*
X14593991Y-13736079D01*
X14593991Y-13736079D02*
X14603515Y-13774174D01*
X14603515Y-13774174D02*
X14603515Y-13821793D01*
X14603515Y-13821793D02*
X14593991Y-13859888D01*
X14593991Y-13859888D02*
X14584467Y-13878936D01*
X14584467Y-13878936D02*
X14574944Y-13888460D01*
X14574944Y-13888460D02*
X14555896Y-13897984D01*
X14555896Y-13897984D02*
X14536848Y-13897984D01*
X14536848Y-13897984D02*
X14517801Y-13888460D01*
X14517801Y-13888460D02*
X14508277Y-13878936D01*
X14508277Y-13878936D02*
X14498753Y-13859888D01*
X14498753Y-13859888D02*
X14489229Y-13821793D01*
X14489229Y-13821793D02*
X14489229Y-13774174D01*
X14489229Y-13774174D02*
X14498753Y-13736079D01*
X14498753Y-13736079D02*
X14508277Y-13717031D01*
X14508277Y-13717031D02*
X14517801Y-13707508D01*
X14517801Y-13707508D02*
X14536848Y-13697984D01*
X14670182Y-13697984D02*
X14793991Y-13697984D01*
X14793991Y-13697984D02*
X14727325Y-13774174D01*
X14727325Y-13774174D02*
X14755896Y-13774174D01*
X14755896Y-13774174D02*
X14774944Y-13783698D01*
X14774944Y-13783698D02*
X14784467Y-13793222D01*
X14784467Y-13793222D02*
X14793991Y-13812269D01*
X14793991Y-13812269D02*
X14793991Y-13859888D01*
X14793991Y-13859888D02*
X14784467Y-13878936D01*
X14784467Y-13878936D02*
X14774944Y-13888460D01*
X14774944Y-13888460D02*
X14755896Y-13897984D01*
X14755896Y-13897984D02*
X14698753Y-13897984D01*
X14698753Y-13897984D02*
X14679706Y-13888460D01*
X14679706Y-13888460D02*
X14670182Y-13878936D01*
X14984467Y-13897984D02*
X14870182Y-13897984D01*
X14927325Y-13897984D02*
X14927325Y-13697984D01*
X14927325Y-13697984D02*
X14908277Y-13726555D01*
X14908277Y-13726555D02*
X14889229Y-13745603D01*
X14889229Y-13745603D02*
X14870182Y-13755127D01*
X15165420Y-13697984D02*
X15070182Y-13697984D01*
X15070182Y-13697984D02*
X15060658Y-13793222D01*
X15060658Y-13793222D02*
X15070182Y-13783698D01*
X15070182Y-13783698D02*
X15089229Y-13774174D01*
X15089229Y-13774174D02*
X15136848Y-13774174D01*
X15136848Y-13774174D02*
X15155896Y-13783698D01*
X15155896Y-13783698D02*
X15165420Y-13793222D01*
X15165420Y-13793222D02*
X15174944Y-13812269D01*
X15174944Y-13812269D02*
X15174944Y-13859888D01*
X15174944Y-13859888D02*
X15165420Y-13878936D01*
X15165420Y-13878936D02*
X15155896Y-13888460D01*
X15155896Y-13888460D02*
X15136848Y-13897984D01*
X15136848Y-13897984D02*
X15089229Y-13897984D01*
X15089229Y-13897984D02*
X15070182Y-13888460D01*
X15070182Y-13888460D02*
X15060658Y-13878936D01*
X15251134Y-13697984D02*
X15251134Y-13736079D01*
X15327325Y-13697984D02*
X15327325Y-13736079D01*
X15622563Y-13974174D02*
X15613039Y-13964650D01*
X15613039Y-13964650D02*
X15593991Y-13936079D01*
X15593991Y-13936079D02*
X15584468Y-13917031D01*
X15584468Y-13917031D02*
X15574944Y-13888460D01*
X15574944Y-13888460D02*
X15565420Y-13840841D01*
X15565420Y-13840841D02*
X15565420Y-13802746D01*
X15565420Y-13802746D02*
X15574944Y-13755127D01*
X15574944Y-13755127D02*
X15584468Y-13726555D01*
X15584468Y-13726555D02*
X15593991Y-13707508D01*
X15593991Y-13707508D02*
X15613039Y-13678936D01*
X15613039Y-13678936D02*
X15622563Y-13669412D01*
X15727325Y-13783698D02*
X15708277Y-13774174D01*
X15708277Y-13774174D02*
X15698753Y-13764650D01*
X15698753Y-13764650D02*
X15689229Y-13745603D01*
X15689229Y-13745603D02*
X15689229Y-13736079D01*
X15689229Y-13736079D02*
X15698753Y-13717031D01*
X15698753Y-13717031D02*
X15708277Y-13707508D01*
X15708277Y-13707508D02*
X15727325Y-13697984D01*
X15727325Y-13697984D02*
X15765420Y-13697984D01*
X15765420Y-13697984D02*
X15784468Y-13707508D01*
X15784468Y-13707508D02*
X15793991Y-13717031D01*
X15793991Y-13717031D02*
X15803515Y-13736079D01*
X15803515Y-13736079D02*
X15803515Y-13745603D01*
X15803515Y-13745603D02*
X15793991Y-13764650D01*
X15793991Y-13764650D02*
X15784468Y-13774174D01*
X15784468Y-13774174D02*
X15765420Y-13783698D01*
X15765420Y-13783698D02*
X15727325Y-13783698D01*
X15727325Y-13783698D02*
X15708277Y-13793222D01*
X15708277Y-13793222D02*
X15698753Y-13802746D01*
X15698753Y-13802746D02*
X15689229Y-13821793D01*
X15689229Y-13821793D02*
X15689229Y-13859888D01*
X15689229Y-13859888D02*
X15698753Y-13878936D01*
X15698753Y-13878936D02*
X15708277Y-13888460D01*
X15708277Y-13888460D02*
X15727325Y-13897984D01*
X15727325Y-13897984D02*
X15765420Y-13897984D01*
X15765420Y-13897984D02*
X15784468Y-13888460D01*
X15784468Y-13888460D02*
X15793991Y-13878936D01*
X15793991Y-13878936D02*
X15803515Y-13859888D01*
X15803515Y-13859888D02*
X15803515Y-13821793D01*
X15803515Y-13821793D02*
X15793991Y-13802746D01*
X15793991Y-13802746D02*
X15784468Y-13793222D01*
X15784468Y-13793222D02*
X15765420Y-13783698D01*
X16041610Y-13897984D02*
X16041610Y-13697984D01*
X16127325Y-13897984D02*
X16127325Y-13793222D01*
X16127325Y-13793222D02*
X16117801Y-13774174D01*
X16117801Y-13774174D02*
X16098753Y-13764650D01*
X16098753Y-13764650D02*
X16070182Y-13764650D01*
X16070182Y-13764650D02*
X16051134Y-13774174D01*
X16051134Y-13774174D02*
X16041610Y-13783698D01*
X16251134Y-13897984D02*
X16232087Y-13888460D01*
X16232087Y-13888460D02*
X16222563Y-13878936D01*
X16222563Y-13878936D02*
X16213039Y-13859888D01*
X16213039Y-13859888D02*
X16213039Y-13802746D01*
X16213039Y-13802746D02*
X16222563Y-13783698D01*
X16222563Y-13783698D02*
X16232087Y-13774174D01*
X16232087Y-13774174D02*
X16251134Y-13764650D01*
X16251134Y-13764650D02*
X16279706Y-13764650D01*
X16279706Y-13764650D02*
X16298753Y-13774174D01*
X16298753Y-13774174D02*
X16308277Y-13783698D01*
X16308277Y-13783698D02*
X16317801Y-13802746D01*
X16317801Y-13802746D02*
X16317801Y-13859888D01*
X16317801Y-13859888D02*
X16308277Y-13878936D01*
X16308277Y-13878936D02*
X16298753Y-13888460D01*
X16298753Y-13888460D02*
X16279706Y-13897984D01*
X16279706Y-13897984D02*
X16251134Y-13897984D01*
X16432087Y-13897984D02*
X16413039Y-13888460D01*
X16413039Y-13888460D02*
X16403515Y-13869412D01*
X16403515Y-13869412D02*
X16403515Y-13697984D01*
X16584468Y-13888460D02*
X16565420Y-13897984D01*
X16565420Y-13897984D02*
X16527325Y-13897984D01*
X16527325Y-13897984D02*
X16508277Y-13888460D01*
X16508277Y-13888460D02*
X16498753Y-13869412D01*
X16498753Y-13869412D02*
X16498753Y-13793222D01*
X16498753Y-13793222D02*
X16508277Y-13774174D01*
X16508277Y-13774174D02*
X16527325Y-13764650D01*
X16527325Y-13764650D02*
X16565420Y-13764650D01*
X16565420Y-13764650D02*
X16584468Y-13774174D01*
X16584468Y-13774174D02*
X16593991Y-13793222D01*
X16593991Y-13793222D02*
X16593991Y-13812269D01*
X16593991Y-13812269D02*
X16498753Y-13831317D01*
X16670182Y-13888460D02*
X16689230Y-13897984D01*
X16689230Y-13897984D02*
X16727325Y-13897984D01*
X16727325Y-13897984D02*
X16746372Y-13888460D01*
X16746372Y-13888460D02*
X16755896Y-13869412D01*
X16755896Y-13869412D02*
X16755896Y-13859888D01*
X16755896Y-13859888D02*
X16746372Y-13840841D01*
X16746372Y-13840841D02*
X16727325Y-13831317D01*
X16727325Y-13831317D02*
X16698753Y-13831317D01*
X16698753Y-13831317D02*
X16679706Y-13821793D01*
X16679706Y-13821793D02*
X16670182Y-13802746D01*
X16670182Y-13802746D02*
X16670182Y-13793222D01*
X16670182Y-13793222D02*
X16679706Y-13774174D01*
X16679706Y-13774174D02*
X16698753Y-13764650D01*
X16698753Y-13764650D02*
X16727325Y-13764650D01*
X16727325Y-13764650D02*
X16746372Y-13774174D01*
X16822563Y-13974174D02*
X16832087Y-13964650D01*
X16832087Y-13964650D02*
X16851134Y-13936079D01*
X16851134Y-13936079D02*
X16860658Y-13917031D01*
X16860658Y-13917031D02*
X16870182Y-13888460D01*
X16870182Y-13888460D02*
X16879706Y-13840841D01*
X16879706Y-13840841D02*
X16879706Y-13802746D01*
X16879706Y-13802746D02*
X16870182Y-13755127D01*
X16870182Y-13755127D02*
X16860658Y-13726555D01*
X16860658Y-13726555D02*
X16851134Y-13707508D01*
X16851134Y-13707508D02*
X16832087Y-13678936D01*
X16832087Y-13678936D02*
X16822563Y-13669412D01*
D12*
X12002500Y-14025500D02*
X12002500Y-14115500D01*
X11957500Y-14070500D02*
X12047500Y-14070500D01*
D11*
X12346372Y-13961984D02*
X12365420Y-13961984D01*
X12365420Y-13961984D02*
X12384467Y-13971508D01*
X12384467Y-13971508D02*
X12393991Y-13981031D01*
X12393991Y-13981031D02*
X12403515Y-14000079D01*
X12403515Y-14000079D02*
X12413039Y-14038174D01*
X12413039Y-14038174D02*
X12413039Y-14085793D01*
X12413039Y-14085793D02*
X12403515Y-14123888D01*
X12403515Y-14123888D02*
X12393991Y-14142936D01*
X12393991Y-14142936D02*
X12384467Y-14152460D01*
X12384467Y-14152460D02*
X12365420Y-14161984D01*
X12365420Y-14161984D02*
X12346372Y-14161984D01*
X12346372Y-14161984D02*
X12327324Y-14152460D01*
X12327324Y-14152460D02*
X12317801Y-14142936D01*
X12317801Y-14142936D02*
X12308277Y-14123888D01*
X12308277Y-14123888D02*
X12298753Y-14085793D01*
X12298753Y-14085793D02*
X12298753Y-14038174D01*
X12298753Y-14038174D02*
X12308277Y-14000079D01*
X12308277Y-14000079D02*
X12317801Y-13981031D01*
X12317801Y-13981031D02*
X12327324Y-13971508D01*
X12327324Y-13971508D02*
X12346372Y-13961984D01*
X12498753Y-14142936D02*
X12508277Y-14152460D01*
X12508277Y-14152460D02*
X12498753Y-14161984D01*
X12498753Y-14161984D02*
X12489229Y-14152460D01*
X12489229Y-14152460D02*
X12498753Y-14142936D01*
X12498753Y-14142936D02*
X12498753Y-14161984D01*
X12603515Y-14161984D02*
X12641610Y-14161984D01*
X12641610Y-14161984D02*
X12660658Y-14152460D01*
X12660658Y-14152460D02*
X12670182Y-14142936D01*
X12670182Y-14142936D02*
X12689229Y-14114365D01*
X12689229Y-14114365D02*
X12698753Y-14076269D01*
X12698753Y-14076269D02*
X12698753Y-14000079D01*
X12698753Y-14000079D02*
X12689229Y-13981031D01*
X12689229Y-13981031D02*
X12679705Y-13971508D01*
X12679705Y-13971508D02*
X12660658Y-13961984D01*
X12660658Y-13961984D02*
X12622562Y-13961984D01*
X12622562Y-13961984D02*
X12603515Y-13971508D01*
X12603515Y-13971508D02*
X12593991Y-13981031D01*
X12593991Y-13981031D02*
X12584467Y-14000079D01*
X12584467Y-14000079D02*
X12584467Y-14047698D01*
X12584467Y-14047698D02*
X12593991Y-14066746D01*
X12593991Y-14066746D02*
X12603515Y-14076269D01*
X12603515Y-14076269D02*
X12622562Y-14085793D01*
X12622562Y-14085793D02*
X12660658Y-14085793D01*
X12660658Y-14085793D02*
X12679705Y-14076269D01*
X12679705Y-14076269D02*
X12689229Y-14066746D01*
X12689229Y-14066746D02*
X12698753Y-14047698D01*
X12822562Y-13961984D02*
X12841610Y-13961984D01*
X12841610Y-13961984D02*
X12860658Y-13971508D01*
X12860658Y-13971508D02*
X12870182Y-13981031D01*
X12870182Y-13981031D02*
X12879705Y-14000079D01*
X12879705Y-14000079D02*
X12889229Y-14038174D01*
X12889229Y-14038174D02*
X12889229Y-14085793D01*
X12889229Y-14085793D02*
X12879705Y-14123888D01*
X12879705Y-14123888D02*
X12870182Y-14142936D01*
X12870182Y-14142936D02*
X12860658Y-14152460D01*
X12860658Y-14152460D02*
X12841610Y-14161984D01*
X12841610Y-14161984D02*
X12822562Y-14161984D01*
X12822562Y-14161984D02*
X12803515Y-14152460D01*
X12803515Y-14152460D02*
X12793991Y-14142936D01*
X12793991Y-14142936D02*
X12784467Y-14123888D01*
X12784467Y-14123888D02*
X12774943Y-14085793D01*
X12774943Y-14085793D02*
X12774943Y-14038174D01*
X12774943Y-14038174D02*
X12784467Y-14000079D01*
X12784467Y-14000079D02*
X12793991Y-13981031D01*
X12793991Y-13981031D02*
X12803515Y-13971508D01*
X12803515Y-13971508D02*
X12822562Y-13961984D01*
X13013039Y-13961984D02*
X13032086Y-13961984D01*
X13032086Y-13961984D02*
X13051134Y-13971508D01*
X13051134Y-13971508D02*
X13060658Y-13981031D01*
X13060658Y-13981031D02*
X13070182Y-14000079D01*
X13070182Y-14000079D02*
X13079705Y-14038174D01*
X13079705Y-14038174D02*
X13079705Y-14085793D01*
X13079705Y-14085793D02*
X13070182Y-14123888D01*
X13070182Y-14123888D02*
X13060658Y-14142936D01*
X13060658Y-14142936D02*
X13051134Y-14152460D01*
X13051134Y-14152460D02*
X13032086Y-14161984D01*
X13032086Y-14161984D02*
X13013039Y-14161984D01*
X13013039Y-14161984D02*
X12993991Y-14152460D01*
X12993991Y-14152460D02*
X12984467Y-14142936D01*
X12984467Y-14142936D02*
X12974943Y-14123888D01*
X12974943Y-14123888D02*
X12965420Y-14085793D01*
X12965420Y-14085793D02*
X12965420Y-14038174D01*
X12965420Y-14038174D02*
X12974943Y-14000079D01*
X12974943Y-14000079D02*
X12984467Y-13981031D01*
X12984467Y-13981031D02*
X12993991Y-13971508D01*
X12993991Y-13971508D02*
X13013039Y-13961984D01*
X13165420Y-14161984D02*
X13165420Y-14028650D01*
X13165420Y-14047698D02*
X13174943Y-14038174D01*
X13174943Y-14038174D02*
X13193991Y-14028650D01*
X13193991Y-14028650D02*
X13222563Y-14028650D01*
X13222563Y-14028650D02*
X13241610Y-14038174D01*
X13241610Y-14038174D02*
X13251134Y-14057222D01*
X13251134Y-14057222D02*
X13251134Y-14161984D01*
X13251134Y-14057222D02*
X13260658Y-14038174D01*
X13260658Y-14038174D02*
X13279705Y-14028650D01*
X13279705Y-14028650D02*
X13308277Y-14028650D01*
X13308277Y-14028650D02*
X13327324Y-14038174D01*
X13327324Y-14038174D02*
X13336848Y-14057222D01*
X13336848Y-14057222D02*
X13336848Y-14161984D01*
X13432086Y-14161984D02*
X13432086Y-14028650D01*
X13432086Y-14047698D02*
X13441610Y-14038174D01*
X13441610Y-14038174D02*
X13460658Y-14028650D01*
X13460658Y-14028650D02*
X13489229Y-14028650D01*
X13489229Y-14028650D02*
X13508277Y-14038174D01*
X13508277Y-14038174D02*
X13517801Y-14057222D01*
X13517801Y-14057222D02*
X13517801Y-14161984D01*
X13517801Y-14057222D02*
X13527324Y-14038174D01*
X13527324Y-14038174D02*
X13546372Y-14028650D01*
X13546372Y-14028650D02*
X13574943Y-14028650D01*
X13574943Y-14028650D02*
X13593991Y-14038174D01*
X13593991Y-14038174D02*
X13603515Y-14057222D01*
X13603515Y-14057222D02*
X13603515Y-14161984D01*
X13993991Y-13952460D02*
X13822563Y-14209603D01*
X14251134Y-13961984D02*
X14270182Y-13961984D01*
X14270182Y-13961984D02*
X14289229Y-13971508D01*
X14289229Y-13971508D02*
X14298753Y-13981031D01*
X14298753Y-13981031D02*
X14308277Y-14000079D01*
X14308277Y-14000079D02*
X14317801Y-14038174D01*
X14317801Y-14038174D02*
X14317801Y-14085793D01*
X14317801Y-14085793D02*
X14308277Y-14123888D01*
X14308277Y-14123888D02*
X14298753Y-14142936D01*
X14298753Y-14142936D02*
X14289229Y-14152460D01*
X14289229Y-14152460D02*
X14270182Y-14161984D01*
X14270182Y-14161984D02*
X14251134Y-14161984D01*
X14251134Y-14161984D02*
X14232086Y-14152460D01*
X14232086Y-14152460D02*
X14222563Y-14142936D01*
X14222563Y-14142936D02*
X14213039Y-14123888D01*
X14213039Y-14123888D02*
X14203515Y-14085793D01*
X14203515Y-14085793D02*
X14203515Y-14038174D01*
X14203515Y-14038174D02*
X14213039Y-14000079D01*
X14213039Y-14000079D02*
X14222563Y-13981031D01*
X14222563Y-13981031D02*
X14232086Y-13971508D01*
X14232086Y-13971508D02*
X14251134Y-13961984D01*
X14403515Y-14142936D02*
X14413039Y-14152460D01*
X14413039Y-14152460D02*
X14403515Y-14161984D01*
X14403515Y-14161984D02*
X14393991Y-14152460D01*
X14393991Y-14152460D02*
X14403515Y-14142936D01*
X14403515Y-14142936D02*
X14403515Y-14161984D01*
X14536848Y-13961984D02*
X14555896Y-13961984D01*
X14555896Y-13961984D02*
X14574944Y-13971508D01*
X14574944Y-13971508D02*
X14584467Y-13981031D01*
X14584467Y-13981031D02*
X14593991Y-14000079D01*
X14593991Y-14000079D02*
X14603515Y-14038174D01*
X14603515Y-14038174D02*
X14603515Y-14085793D01*
X14603515Y-14085793D02*
X14593991Y-14123888D01*
X14593991Y-14123888D02*
X14584467Y-14142936D01*
X14584467Y-14142936D02*
X14574944Y-14152460D01*
X14574944Y-14152460D02*
X14555896Y-14161984D01*
X14555896Y-14161984D02*
X14536848Y-14161984D01*
X14536848Y-14161984D02*
X14517801Y-14152460D01*
X14517801Y-14152460D02*
X14508277Y-14142936D01*
X14508277Y-14142936D02*
X14498753Y-14123888D01*
X14498753Y-14123888D02*
X14489229Y-14085793D01*
X14489229Y-14085793D02*
X14489229Y-14038174D01*
X14489229Y-14038174D02*
X14498753Y-14000079D01*
X14498753Y-14000079D02*
X14508277Y-13981031D01*
X14508277Y-13981031D02*
X14517801Y-13971508D01*
X14517801Y-13971508D02*
X14536848Y-13961984D01*
X14670182Y-13961984D02*
X14793991Y-13961984D01*
X14793991Y-13961984D02*
X14727325Y-14038174D01*
X14727325Y-14038174D02*
X14755896Y-14038174D01*
X14755896Y-14038174D02*
X14774944Y-14047698D01*
X14774944Y-14047698D02*
X14784467Y-14057222D01*
X14784467Y-14057222D02*
X14793991Y-14076269D01*
X14793991Y-14076269D02*
X14793991Y-14123888D01*
X14793991Y-14123888D02*
X14784467Y-14142936D01*
X14784467Y-14142936D02*
X14774944Y-14152460D01*
X14774944Y-14152460D02*
X14755896Y-14161984D01*
X14755896Y-14161984D02*
X14698753Y-14161984D01*
X14698753Y-14161984D02*
X14679706Y-14152460D01*
X14679706Y-14152460D02*
X14670182Y-14142936D01*
X14974944Y-13961984D02*
X14879706Y-13961984D01*
X14879706Y-13961984D02*
X14870182Y-14057222D01*
X14870182Y-14057222D02*
X14879706Y-14047698D01*
X14879706Y-14047698D02*
X14898753Y-14038174D01*
X14898753Y-14038174D02*
X14946372Y-14038174D01*
X14946372Y-14038174D02*
X14965420Y-14047698D01*
X14965420Y-14047698D02*
X14974944Y-14057222D01*
X14974944Y-14057222D02*
X14984467Y-14076269D01*
X14984467Y-14076269D02*
X14984467Y-14123888D01*
X14984467Y-14123888D02*
X14974944Y-14142936D01*
X14974944Y-14142936D02*
X14965420Y-14152460D01*
X14965420Y-14152460D02*
X14946372Y-14161984D01*
X14946372Y-14161984D02*
X14898753Y-14161984D01*
X14898753Y-14161984D02*
X14879706Y-14152460D01*
X14879706Y-14152460D02*
X14870182Y-14142936D01*
X15155896Y-14028650D02*
X15155896Y-14161984D01*
X15108277Y-13952460D02*
X15060658Y-14095317D01*
X15060658Y-14095317D02*
X15184467Y-14095317D01*
X15251134Y-13961984D02*
X15251134Y-14000079D01*
X15327325Y-13961984D02*
X15327325Y-14000079D01*
X15622563Y-14238174D02*
X15613039Y-14228650D01*
X15613039Y-14228650D02*
X15593991Y-14200079D01*
X15593991Y-14200079D02*
X15584468Y-14181031D01*
X15584468Y-14181031D02*
X15574944Y-14152460D01*
X15574944Y-14152460D02*
X15565420Y-14104841D01*
X15565420Y-14104841D02*
X15565420Y-14066746D01*
X15565420Y-14066746D02*
X15574944Y-14019127D01*
X15574944Y-14019127D02*
X15584468Y-13990555D01*
X15584468Y-13990555D02*
X15593991Y-13971508D01*
X15593991Y-13971508D02*
X15613039Y-13942936D01*
X15613039Y-13942936D02*
X15622563Y-13933412D01*
X15803515Y-14161984D02*
X15689229Y-14161984D01*
X15746372Y-14161984D02*
X15746372Y-13961984D01*
X15746372Y-13961984D02*
X15727325Y-13990555D01*
X15727325Y-13990555D02*
X15708277Y-14009603D01*
X15708277Y-14009603D02*
X15689229Y-14019127D01*
X15879706Y-13981031D02*
X15889229Y-13971508D01*
X15889229Y-13971508D02*
X15908277Y-13961984D01*
X15908277Y-13961984D02*
X15955896Y-13961984D01*
X15955896Y-13961984D02*
X15974944Y-13971508D01*
X15974944Y-13971508D02*
X15984468Y-13981031D01*
X15984468Y-13981031D02*
X15993991Y-14000079D01*
X15993991Y-14000079D02*
X15993991Y-14019127D01*
X15993991Y-14019127D02*
X15984468Y-14047698D01*
X15984468Y-14047698D02*
X15870182Y-14161984D01*
X15870182Y-14161984D02*
X15993991Y-14161984D01*
X16232087Y-14161984D02*
X16232087Y-13961984D01*
X16317801Y-14161984D02*
X16317801Y-14057222D01*
X16317801Y-14057222D02*
X16308277Y-14038174D01*
X16308277Y-14038174D02*
X16289230Y-14028650D01*
X16289230Y-14028650D02*
X16260658Y-14028650D01*
X16260658Y-14028650D02*
X16241610Y-14038174D01*
X16241610Y-14038174D02*
X16232087Y-14047698D01*
X16441610Y-14161984D02*
X16422563Y-14152460D01*
X16422563Y-14152460D02*
X16413039Y-14142936D01*
X16413039Y-14142936D02*
X16403515Y-14123888D01*
X16403515Y-14123888D02*
X16403515Y-14066746D01*
X16403515Y-14066746D02*
X16413039Y-14047698D01*
X16413039Y-14047698D02*
X16422563Y-14038174D01*
X16422563Y-14038174D02*
X16441610Y-14028650D01*
X16441610Y-14028650D02*
X16470182Y-14028650D01*
X16470182Y-14028650D02*
X16489230Y-14038174D01*
X16489230Y-14038174D02*
X16498753Y-14047698D01*
X16498753Y-14047698D02*
X16508277Y-14066746D01*
X16508277Y-14066746D02*
X16508277Y-14123888D01*
X16508277Y-14123888D02*
X16498753Y-14142936D01*
X16498753Y-14142936D02*
X16489230Y-14152460D01*
X16489230Y-14152460D02*
X16470182Y-14161984D01*
X16470182Y-14161984D02*
X16441610Y-14161984D01*
X16622563Y-14161984D02*
X16603515Y-14152460D01*
X16603515Y-14152460D02*
X16593991Y-14133412D01*
X16593991Y-14133412D02*
X16593991Y-13961984D01*
X16774944Y-14152460D02*
X16755896Y-14161984D01*
X16755896Y-14161984D02*
X16717801Y-14161984D01*
X16717801Y-14161984D02*
X16698753Y-14152460D01*
X16698753Y-14152460D02*
X16689230Y-14133412D01*
X16689230Y-14133412D02*
X16689230Y-14057222D01*
X16689230Y-14057222D02*
X16698753Y-14038174D01*
X16698753Y-14038174D02*
X16717801Y-14028650D01*
X16717801Y-14028650D02*
X16755896Y-14028650D01*
X16755896Y-14028650D02*
X16774944Y-14038174D01*
X16774944Y-14038174D02*
X16784468Y-14057222D01*
X16784468Y-14057222D02*
X16784468Y-14076269D01*
X16784468Y-14076269D02*
X16689230Y-14095317D01*
X16860658Y-14152460D02*
X16879706Y-14161984D01*
X16879706Y-14161984D02*
X16917801Y-14161984D01*
X16917801Y-14161984D02*
X16936849Y-14152460D01*
X16936849Y-14152460D02*
X16946373Y-14133412D01*
X16946373Y-14133412D02*
X16946373Y-14123888D01*
X16946373Y-14123888D02*
X16936849Y-14104841D01*
X16936849Y-14104841D02*
X16917801Y-14095317D01*
X16917801Y-14095317D02*
X16889230Y-14095317D01*
X16889230Y-14095317D02*
X16870182Y-14085793D01*
X16870182Y-14085793D02*
X16860658Y-14066746D01*
X16860658Y-14066746D02*
X16860658Y-14057222D01*
X16860658Y-14057222D02*
X16870182Y-14038174D01*
X16870182Y-14038174D02*
X16889230Y-14028650D01*
X16889230Y-14028650D02*
X16917801Y-14028650D01*
X16917801Y-14028650D02*
X16936849Y-14038174D01*
X17013039Y-14238174D02*
X17022563Y-14228650D01*
X17022563Y-14228650D02*
X17041611Y-14200079D01*
X17041611Y-14200079D02*
X17051134Y-14181031D01*
X17051134Y-14181031D02*
X17060658Y-14152460D01*
X17060658Y-14152460D02*
X17070182Y-14104841D01*
X17070182Y-14104841D02*
X17070182Y-14066746D01*
X17070182Y-14066746D02*
X17060658Y-14019127D01*
X17060658Y-14019127D02*
X17051134Y-13990555D01*
X17051134Y-13990555D02*
X17041611Y-13971508D01*
X17041611Y-13971508D02*
X17022563Y-13942936D01*
X17022563Y-13942936D02*
X17013039Y-13933412D01*
D12*
X12032856Y-14369856D02*
X12032856Y-14299144D01*
X11962144Y-14299144D01*
X11962144Y-14369856D01*
X12032856Y-14369856D01*
D11*
X12413039Y-14425984D02*
X12298753Y-14425984D01*
X12355896Y-14425984D02*
X12355896Y-14225984D01*
X12355896Y-14225984D02*
X12336848Y-14254555D01*
X12336848Y-14254555D02*
X12317801Y-14273603D01*
X12317801Y-14273603D02*
X12298753Y-14283127D01*
X12498753Y-14406936D02*
X12508277Y-14416460D01*
X12508277Y-14416460D02*
X12498753Y-14425984D01*
X12498753Y-14425984D02*
X12489229Y-14416460D01*
X12489229Y-14416460D02*
X12498753Y-14406936D01*
X12498753Y-14406936D02*
X12498753Y-14425984D01*
X12632086Y-14225984D02*
X12651134Y-14225984D01*
X12651134Y-14225984D02*
X12670182Y-14235508D01*
X12670182Y-14235508D02*
X12679705Y-14245031D01*
X12679705Y-14245031D02*
X12689229Y-14264079D01*
X12689229Y-14264079D02*
X12698753Y-14302174D01*
X12698753Y-14302174D02*
X12698753Y-14349793D01*
X12698753Y-14349793D02*
X12689229Y-14387888D01*
X12689229Y-14387888D02*
X12679705Y-14406936D01*
X12679705Y-14406936D02*
X12670182Y-14416460D01*
X12670182Y-14416460D02*
X12651134Y-14425984D01*
X12651134Y-14425984D02*
X12632086Y-14425984D01*
X12632086Y-14425984D02*
X12613039Y-14416460D01*
X12613039Y-14416460D02*
X12603515Y-14406936D01*
X12603515Y-14406936D02*
X12593991Y-14387888D01*
X12593991Y-14387888D02*
X12584467Y-14349793D01*
X12584467Y-14349793D02*
X12584467Y-14302174D01*
X12584467Y-14302174D02*
X12593991Y-14264079D01*
X12593991Y-14264079D02*
X12603515Y-14245031D01*
X12603515Y-14245031D02*
X12613039Y-14235508D01*
X12613039Y-14235508D02*
X12632086Y-14225984D01*
X12822562Y-14225984D02*
X12841610Y-14225984D01*
X12841610Y-14225984D02*
X12860658Y-14235508D01*
X12860658Y-14235508D02*
X12870182Y-14245031D01*
X12870182Y-14245031D02*
X12879705Y-14264079D01*
X12879705Y-14264079D02*
X12889229Y-14302174D01*
X12889229Y-14302174D02*
X12889229Y-14349793D01*
X12889229Y-14349793D02*
X12879705Y-14387888D01*
X12879705Y-14387888D02*
X12870182Y-14406936D01*
X12870182Y-14406936D02*
X12860658Y-14416460D01*
X12860658Y-14416460D02*
X12841610Y-14425984D01*
X12841610Y-14425984D02*
X12822562Y-14425984D01*
X12822562Y-14425984D02*
X12803515Y-14416460D01*
X12803515Y-14416460D02*
X12793991Y-14406936D01*
X12793991Y-14406936D02*
X12784467Y-14387888D01*
X12784467Y-14387888D02*
X12774943Y-14349793D01*
X12774943Y-14349793D02*
X12774943Y-14302174D01*
X12774943Y-14302174D02*
X12784467Y-14264079D01*
X12784467Y-14264079D02*
X12793991Y-14245031D01*
X12793991Y-14245031D02*
X12803515Y-14235508D01*
X12803515Y-14235508D02*
X12822562Y-14225984D01*
X13013039Y-14225984D02*
X13032086Y-14225984D01*
X13032086Y-14225984D02*
X13051134Y-14235508D01*
X13051134Y-14235508D02*
X13060658Y-14245031D01*
X13060658Y-14245031D02*
X13070182Y-14264079D01*
X13070182Y-14264079D02*
X13079705Y-14302174D01*
X13079705Y-14302174D02*
X13079705Y-14349793D01*
X13079705Y-14349793D02*
X13070182Y-14387888D01*
X13070182Y-14387888D02*
X13060658Y-14406936D01*
X13060658Y-14406936D02*
X13051134Y-14416460D01*
X13051134Y-14416460D02*
X13032086Y-14425984D01*
X13032086Y-14425984D02*
X13013039Y-14425984D01*
X13013039Y-14425984D02*
X12993991Y-14416460D01*
X12993991Y-14416460D02*
X12984467Y-14406936D01*
X12984467Y-14406936D02*
X12974943Y-14387888D01*
X12974943Y-14387888D02*
X12965420Y-14349793D01*
X12965420Y-14349793D02*
X12965420Y-14302174D01*
X12965420Y-14302174D02*
X12974943Y-14264079D01*
X12974943Y-14264079D02*
X12984467Y-14245031D01*
X12984467Y-14245031D02*
X12993991Y-14235508D01*
X12993991Y-14235508D02*
X13013039Y-14225984D01*
X13165420Y-14425984D02*
X13165420Y-14292650D01*
X13165420Y-14311698D02*
X13174943Y-14302174D01*
X13174943Y-14302174D02*
X13193991Y-14292650D01*
X13193991Y-14292650D02*
X13222563Y-14292650D01*
X13222563Y-14292650D02*
X13241610Y-14302174D01*
X13241610Y-14302174D02*
X13251134Y-14321222D01*
X13251134Y-14321222D02*
X13251134Y-14425984D01*
X13251134Y-14321222D02*
X13260658Y-14302174D01*
X13260658Y-14302174D02*
X13279705Y-14292650D01*
X13279705Y-14292650D02*
X13308277Y-14292650D01*
X13308277Y-14292650D02*
X13327324Y-14302174D01*
X13327324Y-14302174D02*
X13336848Y-14321222D01*
X13336848Y-14321222D02*
X13336848Y-14425984D01*
X13432086Y-14425984D02*
X13432086Y-14292650D01*
X13432086Y-14311698D02*
X13441610Y-14302174D01*
X13441610Y-14302174D02*
X13460658Y-14292650D01*
X13460658Y-14292650D02*
X13489229Y-14292650D01*
X13489229Y-14292650D02*
X13508277Y-14302174D01*
X13508277Y-14302174D02*
X13517801Y-14321222D01*
X13517801Y-14321222D02*
X13517801Y-14425984D01*
X13517801Y-14321222D02*
X13527324Y-14302174D01*
X13527324Y-14302174D02*
X13546372Y-14292650D01*
X13546372Y-14292650D02*
X13574943Y-14292650D01*
X13574943Y-14292650D02*
X13593991Y-14302174D01*
X13593991Y-14302174D02*
X13603515Y-14321222D01*
X13603515Y-14321222D02*
X13603515Y-14425984D01*
X13993991Y-14216460D02*
X13822563Y-14473603D01*
X14251134Y-14225984D02*
X14270182Y-14225984D01*
X14270182Y-14225984D02*
X14289229Y-14235508D01*
X14289229Y-14235508D02*
X14298753Y-14245031D01*
X14298753Y-14245031D02*
X14308277Y-14264079D01*
X14308277Y-14264079D02*
X14317801Y-14302174D01*
X14317801Y-14302174D02*
X14317801Y-14349793D01*
X14317801Y-14349793D02*
X14308277Y-14387888D01*
X14308277Y-14387888D02*
X14298753Y-14406936D01*
X14298753Y-14406936D02*
X14289229Y-14416460D01*
X14289229Y-14416460D02*
X14270182Y-14425984D01*
X14270182Y-14425984D02*
X14251134Y-14425984D01*
X14251134Y-14425984D02*
X14232086Y-14416460D01*
X14232086Y-14416460D02*
X14222563Y-14406936D01*
X14222563Y-14406936D02*
X14213039Y-14387888D01*
X14213039Y-14387888D02*
X14203515Y-14349793D01*
X14203515Y-14349793D02*
X14203515Y-14302174D01*
X14203515Y-14302174D02*
X14213039Y-14264079D01*
X14213039Y-14264079D02*
X14222563Y-14245031D01*
X14222563Y-14245031D02*
X14232086Y-14235508D01*
X14232086Y-14235508D02*
X14251134Y-14225984D01*
X14403515Y-14406936D02*
X14413039Y-14416460D01*
X14413039Y-14416460D02*
X14403515Y-14425984D01*
X14403515Y-14425984D02*
X14393991Y-14416460D01*
X14393991Y-14416460D02*
X14403515Y-14406936D01*
X14403515Y-14406936D02*
X14403515Y-14425984D01*
X14536848Y-14225984D02*
X14555896Y-14225984D01*
X14555896Y-14225984D02*
X14574944Y-14235508D01*
X14574944Y-14235508D02*
X14584467Y-14245031D01*
X14584467Y-14245031D02*
X14593991Y-14264079D01*
X14593991Y-14264079D02*
X14603515Y-14302174D01*
X14603515Y-14302174D02*
X14603515Y-14349793D01*
X14603515Y-14349793D02*
X14593991Y-14387888D01*
X14593991Y-14387888D02*
X14584467Y-14406936D01*
X14584467Y-14406936D02*
X14574944Y-14416460D01*
X14574944Y-14416460D02*
X14555896Y-14425984D01*
X14555896Y-14425984D02*
X14536848Y-14425984D01*
X14536848Y-14425984D02*
X14517801Y-14416460D01*
X14517801Y-14416460D02*
X14508277Y-14406936D01*
X14508277Y-14406936D02*
X14498753Y-14387888D01*
X14498753Y-14387888D02*
X14489229Y-14349793D01*
X14489229Y-14349793D02*
X14489229Y-14302174D01*
X14489229Y-14302174D02*
X14498753Y-14264079D01*
X14498753Y-14264079D02*
X14508277Y-14245031D01*
X14508277Y-14245031D02*
X14517801Y-14235508D01*
X14517801Y-14235508D02*
X14536848Y-14225984D01*
X14670182Y-14225984D02*
X14793991Y-14225984D01*
X14793991Y-14225984D02*
X14727325Y-14302174D01*
X14727325Y-14302174D02*
X14755896Y-14302174D01*
X14755896Y-14302174D02*
X14774944Y-14311698D01*
X14774944Y-14311698D02*
X14784467Y-14321222D01*
X14784467Y-14321222D02*
X14793991Y-14340269D01*
X14793991Y-14340269D02*
X14793991Y-14387888D01*
X14793991Y-14387888D02*
X14784467Y-14406936D01*
X14784467Y-14406936D02*
X14774944Y-14416460D01*
X14774944Y-14416460D02*
X14755896Y-14425984D01*
X14755896Y-14425984D02*
X14698753Y-14425984D01*
X14698753Y-14425984D02*
X14679706Y-14416460D01*
X14679706Y-14416460D02*
X14670182Y-14406936D01*
X14889229Y-14425984D02*
X14927325Y-14425984D01*
X14927325Y-14425984D02*
X14946372Y-14416460D01*
X14946372Y-14416460D02*
X14955896Y-14406936D01*
X14955896Y-14406936D02*
X14974944Y-14378365D01*
X14974944Y-14378365D02*
X14984467Y-14340269D01*
X14984467Y-14340269D02*
X14984467Y-14264079D01*
X14984467Y-14264079D02*
X14974944Y-14245031D01*
X14974944Y-14245031D02*
X14965420Y-14235508D01*
X14965420Y-14235508D02*
X14946372Y-14225984D01*
X14946372Y-14225984D02*
X14908277Y-14225984D01*
X14908277Y-14225984D02*
X14889229Y-14235508D01*
X14889229Y-14235508D02*
X14879706Y-14245031D01*
X14879706Y-14245031D02*
X14870182Y-14264079D01*
X14870182Y-14264079D02*
X14870182Y-14311698D01*
X14870182Y-14311698D02*
X14879706Y-14330746D01*
X14879706Y-14330746D02*
X14889229Y-14340269D01*
X14889229Y-14340269D02*
X14908277Y-14349793D01*
X14908277Y-14349793D02*
X14946372Y-14349793D01*
X14946372Y-14349793D02*
X14965420Y-14340269D01*
X14965420Y-14340269D02*
X14974944Y-14330746D01*
X14974944Y-14330746D02*
X14984467Y-14311698D01*
X15155896Y-14292650D02*
X15155896Y-14425984D01*
X15108277Y-14216460D02*
X15060658Y-14359317D01*
X15060658Y-14359317D02*
X15184467Y-14359317D01*
X15251134Y-14225984D02*
X15251134Y-14264079D01*
X15327325Y-14225984D02*
X15327325Y-14264079D01*
X15622563Y-14502174D02*
X15613039Y-14492650D01*
X15613039Y-14492650D02*
X15593991Y-14464079D01*
X15593991Y-14464079D02*
X15584468Y-14445031D01*
X15584468Y-14445031D02*
X15574944Y-14416460D01*
X15574944Y-14416460D02*
X15565420Y-14368841D01*
X15565420Y-14368841D02*
X15565420Y-14330746D01*
X15565420Y-14330746D02*
X15574944Y-14283127D01*
X15574944Y-14283127D02*
X15584468Y-14254555D01*
X15584468Y-14254555D02*
X15593991Y-14235508D01*
X15593991Y-14235508D02*
X15613039Y-14206936D01*
X15613039Y-14206936D02*
X15622563Y-14197412D01*
X15784468Y-14225984D02*
X15746372Y-14225984D01*
X15746372Y-14225984D02*
X15727325Y-14235508D01*
X15727325Y-14235508D02*
X15717801Y-14245031D01*
X15717801Y-14245031D02*
X15698753Y-14273603D01*
X15698753Y-14273603D02*
X15689229Y-14311698D01*
X15689229Y-14311698D02*
X15689229Y-14387888D01*
X15689229Y-14387888D02*
X15698753Y-14406936D01*
X15698753Y-14406936D02*
X15708277Y-14416460D01*
X15708277Y-14416460D02*
X15727325Y-14425984D01*
X15727325Y-14425984D02*
X15765420Y-14425984D01*
X15765420Y-14425984D02*
X15784468Y-14416460D01*
X15784468Y-14416460D02*
X15793991Y-14406936D01*
X15793991Y-14406936D02*
X15803515Y-14387888D01*
X15803515Y-14387888D02*
X15803515Y-14340269D01*
X15803515Y-14340269D02*
X15793991Y-14321222D01*
X15793991Y-14321222D02*
X15784468Y-14311698D01*
X15784468Y-14311698D02*
X15765420Y-14302174D01*
X15765420Y-14302174D02*
X15727325Y-14302174D01*
X15727325Y-14302174D02*
X15708277Y-14311698D01*
X15708277Y-14311698D02*
X15698753Y-14321222D01*
X15698753Y-14321222D02*
X15689229Y-14340269D01*
X15870182Y-14225984D02*
X16003515Y-14225984D01*
X16003515Y-14225984D02*
X15917801Y-14425984D01*
X16232087Y-14425984D02*
X16232087Y-14225984D01*
X16317801Y-14425984D02*
X16317801Y-14321222D01*
X16317801Y-14321222D02*
X16308277Y-14302174D01*
X16308277Y-14302174D02*
X16289230Y-14292650D01*
X16289230Y-14292650D02*
X16260658Y-14292650D01*
X16260658Y-14292650D02*
X16241610Y-14302174D01*
X16241610Y-14302174D02*
X16232087Y-14311698D01*
X16441610Y-14425984D02*
X16422563Y-14416460D01*
X16422563Y-14416460D02*
X16413039Y-14406936D01*
X16413039Y-14406936D02*
X16403515Y-14387888D01*
X16403515Y-14387888D02*
X16403515Y-14330746D01*
X16403515Y-14330746D02*
X16413039Y-14311698D01*
X16413039Y-14311698D02*
X16422563Y-14302174D01*
X16422563Y-14302174D02*
X16441610Y-14292650D01*
X16441610Y-14292650D02*
X16470182Y-14292650D01*
X16470182Y-14292650D02*
X16489230Y-14302174D01*
X16489230Y-14302174D02*
X16498753Y-14311698D01*
X16498753Y-14311698D02*
X16508277Y-14330746D01*
X16508277Y-14330746D02*
X16508277Y-14387888D01*
X16508277Y-14387888D02*
X16498753Y-14406936D01*
X16498753Y-14406936D02*
X16489230Y-14416460D01*
X16489230Y-14416460D02*
X16470182Y-14425984D01*
X16470182Y-14425984D02*
X16441610Y-14425984D01*
X16622563Y-14425984D02*
X16603515Y-14416460D01*
X16603515Y-14416460D02*
X16593991Y-14397412D01*
X16593991Y-14397412D02*
X16593991Y-14225984D01*
X16774944Y-14416460D02*
X16755896Y-14425984D01*
X16755896Y-14425984D02*
X16717801Y-14425984D01*
X16717801Y-14425984D02*
X16698753Y-14416460D01*
X16698753Y-14416460D02*
X16689230Y-14397412D01*
X16689230Y-14397412D02*
X16689230Y-14321222D01*
X16689230Y-14321222D02*
X16698753Y-14302174D01*
X16698753Y-14302174D02*
X16717801Y-14292650D01*
X16717801Y-14292650D02*
X16755896Y-14292650D01*
X16755896Y-14292650D02*
X16774944Y-14302174D01*
X16774944Y-14302174D02*
X16784468Y-14321222D01*
X16784468Y-14321222D02*
X16784468Y-14340269D01*
X16784468Y-14340269D02*
X16689230Y-14359317D01*
X16860658Y-14416460D02*
X16879706Y-14425984D01*
X16879706Y-14425984D02*
X16917801Y-14425984D01*
X16917801Y-14425984D02*
X16936849Y-14416460D01*
X16936849Y-14416460D02*
X16946373Y-14397412D01*
X16946373Y-14397412D02*
X16946373Y-14387888D01*
X16946373Y-14387888D02*
X16936849Y-14368841D01*
X16936849Y-14368841D02*
X16917801Y-14359317D01*
X16917801Y-14359317D02*
X16889230Y-14359317D01*
X16889230Y-14359317D02*
X16870182Y-14349793D01*
X16870182Y-14349793D02*
X16860658Y-14330746D01*
X16860658Y-14330746D02*
X16860658Y-14321222D01*
X16860658Y-14321222D02*
X16870182Y-14302174D01*
X16870182Y-14302174D02*
X16889230Y-14292650D01*
X16889230Y-14292650D02*
X16917801Y-14292650D01*
X16917801Y-14292650D02*
X16936849Y-14302174D01*
X17013039Y-14502174D02*
X17022563Y-14492650D01*
X17022563Y-14492650D02*
X17041611Y-14464079D01*
X17041611Y-14464079D02*
X17051134Y-14445031D01*
X17051134Y-14445031D02*
X17060658Y-14416460D01*
X17060658Y-14416460D02*
X17070182Y-14368841D01*
X17070182Y-14368841D02*
X17070182Y-14330746D01*
X17070182Y-14330746D02*
X17060658Y-14283127D01*
X17060658Y-14283127D02*
X17051134Y-14254555D01*
X17051134Y-14254555D02*
X17041611Y-14235508D01*
X17041611Y-14235508D02*
X17022563Y-14206936D01*
X17022563Y-14206936D02*
X17013039Y-14197412D01*
D13*
X11996500Y-14649500D02*
X12047500Y-14598500D01*
X11996500Y-14547500D01*
X11945500Y-14598500D01*
X11996500Y-14649500D01*
D11*
X12413039Y-14689984D02*
X12298753Y-14689984D01*
X12355896Y-14689984D02*
X12355896Y-14489984D01*
X12355896Y-14489984D02*
X12336848Y-14518555D01*
X12336848Y-14518555D02*
X12317801Y-14537603D01*
X12317801Y-14537603D02*
X12298753Y-14547127D01*
X12498753Y-14670936D02*
X12508277Y-14680460D01*
X12508277Y-14680460D02*
X12498753Y-14689984D01*
X12498753Y-14689984D02*
X12489229Y-14680460D01*
X12489229Y-14680460D02*
X12498753Y-14670936D01*
X12498753Y-14670936D02*
X12498753Y-14689984D01*
X12632086Y-14489984D02*
X12651134Y-14489984D01*
X12651134Y-14489984D02*
X12670182Y-14499508D01*
X12670182Y-14499508D02*
X12679705Y-14509031D01*
X12679705Y-14509031D02*
X12689229Y-14528079D01*
X12689229Y-14528079D02*
X12698753Y-14566174D01*
X12698753Y-14566174D02*
X12698753Y-14613793D01*
X12698753Y-14613793D02*
X12689229Y-14651888D01*
X12689229Y-14651888D02*
X12679705Y-14670936D01*
X12679705Y-14670936D02*
X12670182Y-14680460D01*
X12670182Y-14680460D02*
X12651134Y-14689984D01*
X12651134Y-14689984D02*
X12632086Y-14689984D01*
X12632086Y-14689984D02*
X12613039Y-14680460D01*
X12613039Y-14680460D02*
X12603515Y-14670936D01*
X12603515Y-14670936D02*
X12593991Y-14651888D01*
X12593991Y-14651888D02*
X12584467Y-14613793D01*
X12584467Y-14613793D02*
X12584467Y-14566174D01*
X12584467Y-14566174D02*
X12593991Y-14528079D01*
X12593991Y-14528079D02*
X12603515Y-14509031D01*
X12603515Y-14509031D02*
X12613039Y-14499508D01*
X12613039Y-14499508D02*
X12632086Y-14489984D01*
X12774943Y-14509031D02*
X12784467Y-14499508D01*
X12784467Y-14499508D02*
X12803515Y-14489984D01*
X12803515Y-14489984D02*
X12851134Y-14489984D01*
X12851134Y-14489984D02*
X12870182Y-14499508D01*
X12870182Y-14499508D02*
X12879705Y-14509031D01*
X12879705Y-14509031D02*
X12889229Y-14528079D01*
X12889229Y-14528079D02*
X12889229Y-14547127D01*
X12889229Y-14547127D02*
X12879705Y-14575698D01*
X12879705Y-14575698D02*
X12765420Y-14689984D01*
X12765420Y-14689984D02*
X12889229Y-14689984D01*
X13013039Y-14489984D02*
X13032086Y-14489984D01*
X13032086Y-14489984D02*
X13051134Y-14499508D01*
X13051134Y-14499508D02*
X13060658Y-14509031D01*
X13060658Y-14509031D02*
X13070182Y-14528079D01*
X13070182Y-14528079D02*
X13079705Y-14566174D01*
X13079705Y-14566174D02*
X13079705Y-14613793D01*
X13079705Y-14613793D02*
X13070182Y-14651888D01*
X13070182Y-14651888D02*
X13060658Y-14670936D01*
X13060658Y-14670936D02*
X13051134Y-14680460D01*
X13051134Y-14680460D02*
X13032086Y-14689984D01*
X13032086Y-14689984D02*
X13013039Y-14689984D01*
X13013039Y-14689984D02*
X12993991Y-14680460D01*
X12993991Y-14680460D02*
X12984467Y-14670936D01*
X12984467Y-14670936D02*
X12974943Y-14651888D01*
X12974943Y-14651888D02*
X12965420Y-14613793D01*
X12965420Y-14613793D02*
X12965420Y-14566174D01*
X12965420Y-14566174D02*
X12974943Y-14528079D01*
X12974943Y-14528079D02*
X12984467Y-14509031D01*
X12984467Y-14509031D02*
X12993991Y-14499508D01*
X12993991Y-14499508D02*
X13013039Y-14489984D01*
X13165420Y-14689984D02*
X13165420Y-14556650D01*
X13165420Y-14575698D02*
X13174943Y-14566174D01*
X13174943Y-14566174D02*
X13193991Y-14556650D01*
X13193991Y-14556650D02*
X13222563Y-14556650D01*
X13222563Y-14556650D02*
X13241610Y-14566174D01*
X13241610Y-14566174D02*
X13251134Y-14585222D01*
X13251134Y-14585222D02*
X13251134Y-14689984D01*
X13251134Y-14585222D02*
X13260658Y-14566174D01*
X13260658Y-14566174D02*
X13279705Y-14556650D01*
X13279705Y-14556650D02*
X13308277Y-14556650D01*
X13308277Y-14556650D02*
X13327324Y-14566174D01*
X13327324Y-14566174D02*
X13336848Y-14585222D01*
X13336848Y-14585222D02*
X13336848Y-14689984D01*
X13432086Y-14689984D02*
X13432086Y-14556650D01*
X13432086Y-14575698D02*
X13441610Y-14566174D01*
X13441610Y-14566174D02*
X13460658Y-14556650D01*
X13460658Y-14556650D02*
X13489229Y-14556650D01*
X13489229Y-14556650D02*
X13508277Y-14566174D01*
X13508277Y-14566174D02*
X13517801Y-14585222D01*
X13517801Y-14585222D02*
X13517801Y-14689984D01*
X13517801Y-14585222D02*
X13527324Y-14566174D01*
X13527324Y-14566174D02*
X13546372Y-14556650D01*
X13546372Y-14556650D02*
X13574943Y-14556650D01*
X13574943Y-14556650D02*
X13593991Y-14566174D01*
X13593991Y-14566174D02*
X13603515Y-14585222D01*
X13603515Y-14585222D02*
X13603515Y-14689984D01*
X13993991Y-14480460D02*
X13822563Y-14737603D01*
X14251134Y-14489984D02*
X14270182Y-14489984D01*
X14270182Y-14489984D02*
X14289229Y-14499508D01*
X14289229Y-14499508D02*
X14298753Y-14509031D01*
X14298753Y-14509031D02*
X14308277Y-14528079D01*
X14308277Y-14528079D02*
X14317801Y-14566174D01*
X14317801Y-14566174D02*
X14317801Y-14613793D01*
X14317801Y-14613793D02*
X14308277Y-14651888D01*
X14308277Y-14651888D02*
X14298753Y-14670936D01*
X14298753Y-14670936D02*
X14289229Y-14680460D01*
X14289229Y-14680460D02*
X14270182Y-14689984D01*
X14270182Y-14689984D02*
X14251134Y-14689984D01*
X14251134Y-14689984D02*
X14232086Y-14680460D01*
X14232086Y-14680460D02*
X14222563Y-14670936D01*
X14222563Y-14670936D02*
X14213039Y-14651888D01*
X14213039Y-14651888D02*
X14203515Y-14613793D01*
X14203515Y-14613793D02*
X14203515Y-14566174D01*
X14203515Y-14566174D02*
X14213039Y-14528079D01*
X14213039Y-14528079D02*
X14222563Y-14509031D01*
X14222563Y-14509031D02*
X14232086Y-14499508D01*
X14232086Y-14499508D02*
X14251134Y-14489984D01*
X14403515Y-14670936D02*
X14413039Y-14680460D01*
X14413039Y-14680460D02*
X14403515Y-14689984D01*
X14403515Y-14689984D02*
X14393991Y-14680460D01*
X14393991Y-14680460D02*
X14403515Y-14670936D01*
X14403515Y-14670936D02*
X14403515Y-14689984D01*
X14536848Y-14489984D02*
X14555896Y-14489984D01*
X14555896Y-14489984D02*
X14574944Y-14499508D01*
X14574944Y-14499508D02*
X14584467Y-14509031D01*
X14584467Y-14509031D02*
X14593991Y-14528079D01*
X14593991Y-14528079D02*
X14603515Y-14566174D01*
X14603515Y-14566174D02*
X14603515Y-14613793D01*
X14603515Y-14613793D02*
X14593991Y-14651888D01*
X14593991Y-14651888D02*
X14584467Y-14670936D01*
X14584467Y-14670936D02*
X14574944Y-14680460D01*
X14574944Y-14680460D02*
X14555896Y-14689984D01*
X14555896Y-14689984D02*
X14536848Y-14689984D01*
X14536848Y-14689984D02*
X14517801Y-14680460D01*
X14517801Y-14680460D02*
X14508277Y-14670936D01*
X14508277Y-14670936D02*
X14498753Y-14651888D01*
X14498753Y-14651888D02*
X14489229Y-14613793D01*
X14489229Y-14613793D02*
X14489229Y-14566174D01*
X14489229Y-14566174D02*
X14498753Y-14528079D01*
X14498753Y-14528079D02*
X14508277Y-14509031D01*
X14508277Y-14509031D02*
X14517801Y-14499508D01*
X14517801Y-14499508D02*
X14536848Y-14489984D01*
X14774944Y-14556650D02*
X14774944Y-14689984D01*
X14727325Y-14480460D02*
X14679706Y-14623317D01*
X14679706Y-14623317D02*
X14803515Y-14623317D01*
X14917801Y-14489984D02*
X14936848Y-14489984D01*
X14936848Y-14489984D02*
X14955896Y-14499508D01*
X14955896Y-14499508D02*
X14965420Y-14509031D01*
X14965420Y-14509031D02*
X14974944Y-14528079D01*
X14974944Y-14528079D02*
X14984467Y-14566174D01*
X14984467Y-14566174D02*
X14984467Y-14613793D01*
X14984467Y-14613793D02*
X14974944Y-14651888D01*
X14974944Y-14651888D02*
X14965420Y-14670936D01*
X14965420Y-14670936D02*
X14955896Y-14680460D01*
X14955896Y-14680460D02*
X14936848Y-14689984D01*
X14936848Y-14689984D02*
X14917801Y-14689984D01*
X14917801Y-14689984D02*
X14898753Y-14680460D01*
X14898753Y-14680460D02*
X14889229Y-14670936D01*
X14889229Y-14670936D02*
X14879706Y-14651888D01*
X14879706Y-14651888D02*
X14870182Y-14613793D01*
X14870182Y-14613793D02*
X14870182Y-14566174D01*
X14870182Y-14566174D02*
X14879706Y-14528079D01*
X14879706Y-14528079D02*
X14889229Y-14509031D01*
X14889229Y-14509031D02*
X14898753Y-14499508D01*
X14898753Y-14499508D02*
X14917801Y-14489984D01*
X15060658Y-14509031D02*
X15070182Y-14499508D01*
X15070182Y-14499508D02*
X15089229Y-14489984D01*
X15089229Y-14489984D02*
X15136848Y-14489984D01*
X15136848Y-14489984D02*
X15155896Y-14499508D01*
X15155896Y-14499508D02*
X15165420Y-14509031D01*
X15165420Y-14509031D02*
X15174944Y-14528079D01*
X15174944Y-14528079D02*
X15174944Y-14547127D01*
X15174944Y-14547127D02*
X15165420Y-14575698D01*
X15165420Y-14575698D02*
X15051134Y-14689984D01*
X15051134Y-14689984D02*
X15174944Y-14689984D01*
X15251134Y-14489984D02*
X15251134Y-14528079D01*
X15327325Y-14489984D02*
X15327325Y-14528079D01*
X15622563Y-14766174D02*
X15613039Y-14756650D01*
X15613039Y-14756650D02*
X15593991Y-14728079D01*
X15593991Y-14728079D02*
X15584468Y-14709031D01*
X15584468Y-14709031D02*
X15574944Y-14680460D01*
X15574944Y-14680460D02*
X15565420Y-14632841D01*
X15565420Y-14632841D02*
X15565420Y-14594746D01*
X15565420Y-14594746D02*
X15574944Y-14547127D01*
X15574944Y-14547127D02*
X15584468Y-14518555D01*
X15584468Y-14518555D02*
X15593991Y-14499508D01*
X15593991Y-14499508D02*
X15613039Y-14470936D01*
X15613039Y-14470936D02*
X15622563Y-14461412D01*
X15689229Y-14509031D02*
X15698753Y-14499508D01*
X15698753Y-14499508D02*
X15717801Y-14489984D01*
X15717801Y-14489984D02*
X15765420Y-14489984D01*
X15765420Y-14489984D02*
X15784468Y-14499508D01*
X15784468Y-14499508D02*
X15793991Y-14509031D01*
X15793991Y-14509031D02*
X15803515Y-14528079D01*
X15803515Y-14528079D02*
X15803515Y-14547127D01*
X15803515Y-14547127D02*
X15793991Y-14575698D01*
X15793991Y-14575698D02*
X15679706Y-14689984D01*
X15679706Y-14689984D02*
X15803515Y-14689984D01*
X15927325Y-14489984D02*
X15946372Y-14489984D01*
X15946372Y-14489984D02*
X15965420Y-14499508D01*
X15965420Y-14499508D02*
X15974944Y-14509031D01*
X15974944Y-14509031D02*
X15984468Y-14528079D01*
X15984468Y-14528079D02*
X15993991Y-14566174D01*
X15993991Y-14566174D02*
X15993991Y-14613793D01*
X15993991Y-14613793D02*
X15984468Y-14651888D01*
X15984468Y-14651888D02*
X15974944Y-14670936D01*
X15974944Y-14670936D02*
X15965420Y-14680460D01*
X15965420Y-14680460D02*
X15946372Y-14689984D01*
X15946372Y-14689984D02*
X15927325Y-14689984D01*
X15927325Y-14689984D02*
X15908277Y-14680460D01*
X15908277Y-14680460D02*
X15898753Y-14670936D01*
X15898753Y-14670936D02*
X15889229Y-14651888D01*
X15889229Y-14651888D02*
X15879706Y-14613793D01*
X15879706Y-14613793D02*
X15879706Y-14566174D01*
X15879706Y-14566174D02*
X15889229Y-14528079D01*
X15889229Y-14528079D02*
X15898753Y-14509031D01*
X15898753Y-14509031D02*
X15908277Y-14499508D01*
X15908277Y-14499508D02*
X15927325Y-14489984D01*
X16232087Y-14689984D02*
X16232087Y-14489984D01*
X16317801Y-14689984D02*
X16317801Y-14585222D01*
X16317801Y-14585222D02*
X16308277Y-14566174D01*
X16308277Y-14566174D02*
X16289230Y-14556650D01*
X16289230Y-14556650D02*
X16260658Y-14556650D01*
X16260658Y-14556650D02*
X16241610Y-14566174D01*
X16241610Y-14566174D02*
X16232087Y-14575698D01*
X16441610Y-14689984D02*
X16422563Y-14680460D01*
X16422563Y-14680460D02*
X16413039Y-14670936D01*
X16413039Y-14670936D02*
X16403515Y-14651888D01*
X16403515Y-14651888D02*
X16403515Y-14594746D01*
X16403515Y-14594746D02*
X16413039Y-14575698D01*
X16413039Y-14575698D02*
X16422563Y-14566174D01*
X16422563Y-14566174D02*
X16441610Y-14556650D01*
X16441610Y-14556650D02*
X16470182Y-14556650D01*
X16470182Y-14556650D02*
X16489230Y-14566174D01*
X16489230Y-14566174D02*
X16498753Y-14575698D01*
X16498753Y-14575698D02*
X16508277Y-14594746D01*
X16508277Y-14594746D02*
X16508277Y-14651888D01*
X16508277Y-14651888D02*
X16498753Y-14670936D01*
X16498753Y-14670936D02*
X16489230Y-14680460D01*
X16489230Y-14680460D02*
X16470182Y-14689984D01*
X16470182Y-14689984D02*
X16441610Y-14689984D01*
X16622563Y-14689984D02*
X16603515Y-14680460D01*
X16603515Y-14680460D02*
X16593991Y-14661412D01*
X16593991Y-14661412D02*
X16593991Y-14489984D01*
X16774944Y-14680460D02*
X16755896Y-14689984D01*
X16755896Y-14689984D02*
X16717801Y-14689984D01*
X16717801Y-14689984D02*
X16698753Y-14680460D01*
X16698753Y-14680460D02*
X16689230Y-14661412D01*
X16689230Y-14661412D02*
X16689230Y-14585222D01*
X16689230Y-14585222D02*
X16698753Y-14566174D01*
X16698753Y-14566174D02*
X16717801Y-14556650D01*
X16717801Y-14556650D02*
X16755896Y-14556650D01*
X16755896Y-14556650D02*
X16774944Y-14566174D01*
X16774944Y-14566174D02*
X16784468Y-14585222D01*
X16784468Y-14585222D02*
X16784468Y-14604269D01*
X16784468Y-14604269D02*
X16689230Y-14623317D01*
X16860658Y-14680460D02*
X16879706Y-14689984D01*
X16879706Y-14689984D02*
X16917801Y-14689984D01*
X16917801Y-14689984D02*
X16936849Y-14680460D01*
X16936849Y-14680460D02*
X16946373Y-14661412D01*
X16946373Y-14661412D02*
X16946373Y-14651888D01*
X16946373Y-14651888D02*
X16936849Y-14632841D01*
X16936849Y-14632841D02*
X16917801Y-14623317D01*
X16917801Y-14623317D02*
X16889230Y-14623317D01*
X16889230Y-14623317D02*
X16870182Y-14613793D01*
X16870182Y-14613793D02*
X16860658Y-14594746D01*
X16860658Y-14594746D02*
X16860658Y-14585222D01*
X16860658Y-14585222D02*
X16870182Y-14566174D01*
X16870182Y-14566174D02*
X16889230Y-14556650D01*
X16889230Y-14556650D02*
X16917801Y-14556650D01*
X16917801Y-14556650D02*
X16936849Y-14566174D01*
X17013039Y-14766174D02*
X17022563Y-14756650D01*
X17022563Y-14756650D02*
X17041611Y-14728079D01*
X17041611Y-14728079D02*
X17051134Y-14709031D01*
X17051134Y-14709031D02*
X17060658Y-14680460D01*
X17060658Y-14680460D02*
X17070182Y-14632841D01*
X17070182Y-14632841D02*
X17070182Y-14594746D01*
X17070182Y-14594746D02*
X17060658Y-14547127D01*
X17060658Y-14547127D02*
X17051134Y-14518555D01*
X17051134Y-14518555D02*
X17041611Y-14499508D01*
X17041611Y-14499508D02*
X17022563Y-14470936D01*
X17022563Y-14470936D02*
X17013039Y-14461412D01*
D14*
X11927500Y-14802500D02*
X12047500Y-14922500D01*
X12047500Y-14802500D02*
X11927500Y-14922500D01*
X12047500Y-14862500D02*
G75*
G02*
X11927500Y-14862500I-60000J0D01*
G01*
X11927500Y-14862500D02*
G75*
G02*
X12047500Y-14862500I60000J0D01*
G01*
D11*
X12413039Y-14953984D02*
X12298753Y-14953984D01*
X12355896Y-14953984D02*
X12355896Y-14753984D01*
X12355896Y-14753984D02*
X12336848Y-14782555D01*
X12336848Y-14782555D02*
X12317801Y-14801603D01*
X12317801Y-14801603D02*
X12298753Y-14811127D01*
X12498753Y-14934936D02*
X12508277Y-14944460D01*
X12508277Y-14944460D02*
X12498753Y-14953984D01*
X12498753Y-14953984D02*
X12489229Y-14944460D01*
X12489229Y-14944460D02*
X12498753Y-14934936D01*
X12498753Y-14934936D02*
X12498753Y-14953984D01*
X12584467Y-14773031D02*
X12593991Y-14763508D01*
X12593991Y-14763508D02*
X12613039Y-14753984D01*
X12613039Y-14753984D02*
X12660658Y-14753984D01*
X12660658Y-14753984D02*
X12679705Y-14763508D01*
X12679705Y-14763508D02*
X12689229Y-14773031D01*
X12689229Y-14773031D02*
X12698753Y-14792079D01*
X12698753Y-14792079D02*
X12698753Y-14811127D01*
X12698753Y-14811127D02*
X12689229Y-14839698D01*
X12689229Y-14839698D02*
X12574943Y-14953984D01*
X12574943Y-14953984D02*
X12698753Y-14953984D01*
X12822562Y-14753984D02*
X12841610Y-14753984D01*
X12841610Y-14753984D02*
X12860658Y-14763508D01*
X12860658Y-14763508D02*
X12870182Y-14773031D01*
X12870182Y-14773031D02*
X12879705Y-14792079D01*
X12879705Y-14792079D02*
X12889229Y-14830174D01*
X12889229Y-14830174D02*
X12889229Y-14877793D01*
X12889229Y-14877793D02*
X12879705Y-14915888D01*
X12879705Y-14915888D02*
X12870182Y-14934936D01*
X12870182Y-14934936D02*
X12860658Y-14944460D01*
X12860658Y-14944460D02*
X12841610Y-14953984D01*
X12841610Y-14953984D02*
X12822562Y-14953984D01*
X12822562Y-14953984D02*
X12803515Y-14944460D01*
X12803515Y-14944460D02*
X12793991Y-14934936D01*
X12793991Y-14934936D02*
X12784467Y-14915888D01*
X12784467Y-14915888D02*
X12774943Y-14877793D01*
X12774943Y-14877793D02*
X12774943Y-14830174D01*
X12774943Y-14830174D02*
X12784467Y-14792079D01*
X12784467Y-14792079D02*
X12793991Y-14773031D01*
X12793991Y-14773031D02*
X12803515Y-14763508D01*
X12803515Y-14763508D02*
X12822562Y-14753984D01*
X13013039Y-14753984D02*
X13032086Y-14753984D01*
X13032086Y-14753984D02*
X13051134Y-14763508D01*
X13051134Y-14763508D02*
X13060658Y-14773031D01*
X13060658Y-14773031D02*
X13070182Y-14792079D01*
X13070182Y-14792079D02*
X13079705Y-14830174D01*
X13079705Y-14830174D02*
X13079705Y-14877793D01*
X13079705Y-14877793D02*
X13070182Y-14915888D01*
X13070182Y-14915888D02*
X13060658Y-14934936D01*
X13060658Y-14934936D02*
X13051134Y-14944460D01*
X13051134Y-14944460D02*
X13032086Y-14953984D01*
X13032086Y-14953984D02*
X13013039Y-14953984D01*
X13013039Y-14953984D02*
X12993991Y-14944460D01*
X12993991Y-14944460D02*
X12984467Y-14934936D01*
X12984467Y-14934936D02*
X12974943Y-14915888D01*
X12974943Y-14915888D02*
X12965420Y-14877793D01*
X12965420Y-14877793D02*
X12965420Y-14830174D01*
X12965420Y-14830174D02*
X12974943Y-14792079D01*
X12974943Y-14792079D02*
X12984467Y-14773031D01*
X12984467Y-14773031D02*
X12993991Y-14763508D01*
X12993991Y-14763508D02*
X13013039Y-14753984D01*
X13165420Y-14953984D02*
X13165420Y-14820650D01*
X13165420Y-14839698D02*
X13174943Y-14830174D01*
X13174943Y-14830174D02*
X13193991Y-14820650D01*
X13193991Y-14820650D02*
X13222563Y-14820650D01*
X13222563Y-14820650D02*
X13241610Y-14830174D01*
X13241610Y-14830174D02*
X13251134Y-14849222D01*
X13251134Y-14849222D02*
X13251134Y-14953984D01*
X13251134Y-14849222D02*
X13260658Y-14830174D01*
X13260658Y-14830174D02*
X13279705Y-14820650D01*
X13279705Y-14820650D02*
X13308277Y-14820650D01*
X13308277Y-14820650D02*
X13327324Y-14830174D01*
X13327324Y-14830174D02*
X13336848Y-14849222D01*
X13336848Y-14849222D02*
X13336848Y-14953984D01*
X13432086Y-14953984D02*
X13432086Y-14820650D01*
X13432086Y-14839698D02*
X13441610Y-14830174D01*
X13441610Y-14830174D02*
X13460658Y-14820650D01*
X13460658Y-14820650D02*
X13489229Y-14820650D01*
X13489229Y-14820650D02*
X13508277Y-14830174D01*
X13508277Y-14830174D02*
X13517801Y-14849222D01*
X13517801Y-14849222D02*
X13517801Y-14953984D01*
X13517801Y-14849222D02*
X13527324Y-14830174D01*
X13527324Y-14830174D02*
X13546372Y-14820650D01*
X13546372Y-14820650D02*
X13574943Y-14820650D01*
X13574943Y-14820650D02*
X13593991Y-14830174D01*
X13593991Y-14830174D02*
X13603515Y-14849222D01*
X13603515Y-14849222D02*
X13603515Y-14953984D01*
X13993991Y-14744460D02*
X13822563Y-15001603D01*
X14251134Y-14753984D02*
X14270182Y-14753984D01*
X14270182Y-14753984D02*
X14289229Y-14763508D01*
X14289229Y-14763508D02*
X14298753Y-14773031D01*
X14298753Y-14773031D02*
X14308277Y-14792079D01*
X14308277Y-14792079D02*
X14317801Y-14830174D01*
X14317801Y-14830174D02*
X14317801Y-14877793D01*
X14317801Y-14877793D02*
X14308277Y-14915888D01*
X14308277Y-14915888D02*
X14298753Y-14934936D01*
X14298753Y-14934936D02*
X14289229Y-14944460D01*
X14289229Y-14944460D02*
X14270182Y-14953984D01*
X14270182Y-14953984D02*
X14251134Y-14953984D01*
X14251134Y-14953984D02*
X14232086Y-14944460D01*
X14232086Y-14944460D02*
X14222563Y-14934936D01*
X14222563Y-14934936D02*
X14213039Y-14915888D01*
X14213039Y-14915888D02*
X14203515Y-14877793D01*
X14203515Y-14877793D02*
X14203515Y-14830174D01*
X14203515Y-14830174D02*
X14213039Y-14792079D01*
X14213039Y-14792079D02*
X14222563Y-14773031D01*
X14222563Y-14773031D02*
X14232086Y-14763508D01*
X14232086Y-14763508D02*
X14251134Y-14753984D01*
X14403515Y-14934936D02*
X14413039Y-14944460D01*
X14413039Y-14944460D02*
X14403515Y-14953984D01*
X14403515Y-14953984D02*
X14393991Y-14944460D01*
X14393991Y-14944460D02*
X14403515Y-14934936D01*
X14403515Y-14934936D02*
X14403515Y-14953984D01*
X14536848Y-14753984D02*
X14555896Y-14753984D01*
X14555896Y-14753984D02*
X14574944Y-14763508D01*
X14574944Y-14763508D02*
X14584467Y-14773031D01*
X14584467Y-14773031D02*
X14593991Y-14792079D01*
X14593991Y-14792079D02*
X14603515Y-14830174D01*
X14603515Y-14830174D02*
X14603515Y-14877793D01*
X14603515Y-14877793D02*
X14593991Y-14915888D01*
X14593991Y-14915888D02*
X14584467Y-14934936D01*
X14584467Y-14934936D02*
X14574944Y-14944460D01*
X14574944Y-14944460D02*
X14555896Y-14953984D01*
X14555896Y-14953984D02*
X14536848Y-14953984D01*
X14536848Y-14953984D02*
X14517801Y-14944460D01*
X14517801Y-14944460D02*
X14508277Y-14934936D01*
X14508277Y-14934936D02*
X14498753Y-14915888D01*
X14498753Y-14915888D02*
X14489229Y-14877793D01*
X14489229Y-14877793D02*
X14489229Y-14830174D01*
X14489229Y-14830174D02*
X14498753Y-14792079D01*
X14498753Y-14792079D02*
X14508277Y-14773031D01*
X14508277Y-14773031D02*
X14517801Y-14763508D01*
X14517801Y-14763508D02*
X14536848Y-14753984D01*
X14774944Y-14820650D02*
X14774944Y-14953984D01*
X14727325Y-14744460D02*
X14679706Y-14887317D01*
X14679706Y-14887317D02*
X14803515Y-14887317D01*
X14860658Y-14753984D02*
X14993991Y-14753984D01*
X14993991Y-14753984D02*
X14908277Y-14953984D01*
X15060658Y-14773031D02*
X15070182Y-14763508D01*
X15070182Y-14763508D02*
X15089229Y-14753984D01*
X15089229Y-14753984D02*
X15136848Y-14753984D01*
X15136848Y-14753984D02*
X15155896Y-14763508D01*
X15155896Y-14763508D02*
X15165420Y-14773031D01*
X15165420Y-14773031D02*
X15174944Y-14792079D01*
X15174944Y-14792079D02*
X15174944Y-14811127D01*
X15174944Y-14811127D02*
X15165420Y-14839698D01*
X15165420Y-14839698D02*
X15051134Y-14953984D01*
X15051134Y-14953984D02*
X15174944Y-14953984D01*
X15251134Y-14753984D02*
X15251134Y-14792079D01*
X15327325Y-14753984D02*
X15327325Y-14792079D01*
X15622563Y-15030174D02*
X15613039Y-15020650D01*
X15613039Y-15020650D02*
X15593991Y-14992079D01*
X15593991Y-14992079D02*
X15584468Y-14973031D01*
X15584468Y-14973031D02*
X15574944Y-14944460D01*
X15574944Y-14944460D02*
X15565420Y-14896841D01*
X15565420Y-14896841D02*
X15565420Y-14858746D01*
X15565420Y-14858746D02*
X15574944Y-14811127D01*
X15574944Y-14811127D02*
X15584468Y-14782555D01*
X15584468Y-14782555D02*
X15593991Y-14763508D01*
X15593991Y-14763508D02*
X15613039Y-14734936D01*
X15613039Y-14734936D02*
X15622563Y-14725412D01*
X15679706Y-14753984D02*
X15803515Y-14753984D01*
X15803515Y-14753984D02*
X15736848Y-14830174D01*
X15736848Y-14830174D02*
X15765420Y-14830174D01*
X15765420Y-14830174D02*
X15784468Y-14839698D01*
X15784468Y-14839698D02*
X15793991Y-14849222D01*
X15793991Y-14849222D02*
X15803515Y-14868269D01*
X15803515Y-14868269D02*
X15803515Y-14915888D01*
X15803515Y-14915888D02*
X15793991Y-14934936D01*
X15793991Y-14934936D02*
X15784468Y-14944460D01*
X15784468Y-14944460D02*
X15765420Y-14953984D01*
X15765420Y-14953984D02*
X15708277Y-14953984D01*
X15708277Y-14953984D02*
X15689229Y-14944460D01*
X15689229Y-14944460D02*
X15679706Y-14934936D01*
X16041610Y-14953984D02*
X16041610Y-14753984D01*
X16127325Y-14953984D02*
X16127325Y-14849222D01*
X16127325Y-14849222D02*
X16117801Y-14830174D01*
X16117801Y-14830174D02*
X16098753Y-14820650D01*
X16098753Y-14820650D02*
X16070182Y-14820650D01*
X16070182Y-14820650D02*
X16051134Y-14830174D01*
X16051134Y-14830174D02*
X16041610Y-14839698D01*
X16251134Y-14953984D02*
X16232087Y-14944460D01*
X16232087Y-14944460D02*
X16222563Y-14934936D01*
X16222563Y-14934936D02*
X16213039Y-14915888D01*
X16213039Y-14915888D02*
X16213039Y-14858746D01*
X16213039Y-14858746D02*
X16222563Y-14839698D01*
X16222563Y-14839698D02*
X16232087Y-14830174D01*
X16232087Y-14830174D02*
X16251134Y-14820650D01*
X16251134Y-14820650D02*
X16279706Y-14820650D01*
X16279706Y-14820650D02*
X16298753Y-14830174D01*
X16298753Y-14830174D02*
X16308277Y-14839698D01*
X16308277Y-14839698D02*
X16317801Y-14858746D01*
X16317801Y-14858746D02*
X16317801Y-14915888D01*
X16317801Y-14915888D02*
X16308277Y-14934936D01*
X16308277Y-14934936D02*
X16298753Y-14944460D01*
X16298753Y-14944460D02*
X16279706Y-14953984D01*
X16279706Y-14953984D02*
X16251134Y-14953984D01*
X16432087Y-14953984D02*
X16413039Y-14944460D01*
X16413039Y-14944460D02*
X16403515Y-14925412D01*
X16403515Y-14925412D02*
X16403515Y-14753984D01*
X16584468Y-14944460D02*
X16565420Y-14953984D01*
X16565420Y-14953984D02*
X16527325Y-14953984D01*
X16527325Y-14953984D02*
X16508277Y-14944460D01*
X16508277Y-14944460D02*
X16498753Y-14925412D01*
X16498753Y-14925412D02*
X16498753Y-14849222D01*
X16498753Y-14849222D02*
X16508277Y-14830174D01*
X16508277Y-14830174D02*
X16527325Y-14820650D01*
X16527325Y-14820650D02*
X16565420Y-14820650D01*
X16565420Y-14820650D02*
X16584468Y-14830174D01*
X16584468Y-14830174D02*
X16593991Y-14849222D01*
X16593991Y-14849222D02*
X16593991Y-14868269D01*
X16593991Y-14868269D02*
X16498753Y-14887317D01*
X16670182Y-14944460D02*
X16689230Y-14953984D01*
X16689230Y-14953984D02*
X16727325Y-14953984D01*
X16727325Y-14953984D02*
X16746372Y-14944460D01*
X16746372Y-14944460D02*
X16755896Y-14925412D01*
X16755896Y-14925412D02*
X16755896Y-14915888D01*
X16755896Y-14915888D02*
X16746372Y-14896841D01*
X16746372Y-14896841D02*
X16727325Y-14887317D01*
X16727325Y-14887317D02*
X16698753Y-14887317D01*
X16698753Y-14887317D02*
X16679706Y-14877793D01*
X16679706Y-14877793D02*
X16670182Y-14858746D01*
X16670182Y-14858746D02*
X16670182Y-14849222D01*
X16670182Y-14849222D02*
X16679706Y-14830174D01*
X16679706Y-14830174D02*
X16698753Y-14820650D01*
X16698753Y-14820650D02*
X16727325Y-14820650D01*
X16727325Y-14820650D02*
X16746372Y-14830174D01*
X16822563Y-15030174D02*
X16832087Y-15020650D01*
X16832087Y-15020650D02*
X16851134Y-14992079D01*
X16851134Y-14992079D02*
X16860658Y-14973031D01*
X16860658Y-14973031D02*
X16870182Y-14944460D01*
X16870182Y-14944460D02*
X16879706Y-14896841D01*
X16879706Y-14896841D02*
X16879706Y-14858746D01*
X16879706Y-14858746D02*
X16870182Y-14811127D01*
X16870182Y-14811127D02*
X16860658Y-14782555D01*
X16860658Y-14782555D02*
X16851134Y-14763508D01*
X16851134Y-14763508D02*
X16832087Y-14734936D01*
X16832087Y-14734936D02*
X16822563Y-14725412D01*
X11847500Y-15026500D02*
X12047500Y-15226500D01*
X12047500Y-15026500D02*
X11847500Y-15226500D01*
X11947500Y-15026500D02*
X11947500Y-15226500D01*
X11847500Y-15126500D02*
X12047500Y-15126500D01*
X12298753Y-15037031D02*
X12308277Y-15027508D01*
X12308277Y-15027508D02*
X12327324Y-15017984D01*
X12327324Y-15017984D02*
X12374943Y-15017984D01*
X12374943Y-15017984D02*
X12393991Y-15027508D01*
X12393991Y-15027508D02*
X12403515Y-15037031D01*
X12403515Y-15037031D02*
X12413039Y-15056079D01*
X12413039Y-15056079D02*
X12413039Y-15075127D01*
X12413039Y-15075127D02*
X12403515Y-15103698D01*
X12403515Y-15103698D02*
X12289229Y-15217984D01*
X12289229Y-15217984D02*
X12413039Y-15217984D01*
X12498753Y-15198936D02*
X12508277Y-15208460D01*
X12508277Y-15208460D02*
X12498753Y-15217984D01*
X12498753Y-15217984D02*
X12489229Y-15208460D01*
X12489229Y-15208460D02*
X12498753Y-15198936D01*
X12498753Y-15198936D02*
X12498753Y-15217984D01*
X12679705Y-15084650D02*
X12679705Y-15217984D01*
X12632086Y-15008460D02*
X12584467Y-15151317D01*
X12584467Y-15151317D02*
X12708277Y-15151317D01*
X12889229Y-15217984D02*
X12774943Y-15217984D01*
X12832086Y-15217984D02*
X12832086Y-15017984D01*
X12832086Y-15017984D02*
X12813039Y-15046555D01*
X12813039Y-15046555D02*
X12793991Y-15065603D01*
X12793991Y-15065603D02*
X12774943Y-15075127D01*
X13013039Y-15017984D02*
X13032086Y-15017984D01*
X13032086Y-15017984D02*
X13051134Y-15027508D01*
X13051134Y-15027508D02*
X13060658Y-15037031D01*
X13060658Y-15037031D02*
X13070182Y-15056079D01*
X13070182Y-15056079D02*
X13079705Y-15094174D01*
X13079705Y-15094174D02*
X13079705Y-15141793D01*
X13079705Y-15141793D02*
X13070182Y-15179888D01*
X13070182Y-15179888D02*
X13060658Y-15198936D01*
X13060658Y-15198936D02*
X13051134Y-15208460D01*
X13051134Y-15208460D02*
X13032086Y-15217984D01*
X13032086Y-15217984D02*
X13013039Y-15217984D01*
X13013039Y-15217984D02*
X12993991Y-15208460D01*
X12993991Y-15208460D02*
X12984467Y-15198936D01*
X12984467Y-15198936D02*
X12974943Y-15179888D01*
X12974943Y-15179888D02*
X12965420Y-15141793D01*
X12965420Y-15141793D02*
X12965420Y-15094174D01*
X12965420Y-15094174D02*
X12974943Y-15056079D01*
X12974943Y-15056079D02*
X12984467Y-15037031D01*
X12984467Y-15037031D02*
X12993991Y-15027508D01*
X12993991Y-15027508D02*
X13013039Y-15017984D01*
X13165420Y-15217984D02*
X13165420Y-15084650D01*
X13165420Y-15103698D02*
X13174943Y-15094174D01*
X13174943Y-15094174D02*
X13193991Y-15084650D01*
X13193991Y-15084650D02*
X13222563Y-15084650D01*
X13222563Y-15084650D02*
X13241610Y-15094174D01*
X13241610Y-15094174D02*
X13251134Y-15113222D01*
X13251134Y-15113222D02*
X13251134Y-15217984D01*
X13251134Y-15113222D02*
X13260658Y-15094174D01*
X13260658Y-15094174D02*
X13279705Y-15084650D01*
X13279705Y-15084650D02*
X13308277Y-15084650D01*
X13308277Y-15084650D02*
X13327324Y-15094174D01*
X13327324Y-15094174D02*
X13336848Y-15113222D01*
X13336848Y-15113222D02*
X13336848Y-15217984D01*
X13432086Y-15217984D02*
X13432086Y-15084650D01*
X13432086Y-15103698D02*
X13441610Y-15094174D01*
X13441610Y-15094174D02*
X13460658Y-15084650D01*
X13460658Y-15084650D02*
X13489229Y-15084650D01*
X13489229Y-15084650D02*
X13508277Y-15094174D01*
X13508277Y-15094174D02*
X13517801Y-15113222D01*
X13517801Y-15113222D02*
X13517801Y-15217984D01*
X13517801Y-15113222D02*
X13527324Y-15094174D01*
X13527324Y-15094174D02*
X13546372Y-15084650D01*
X13546372Y-15084650D02*
X13574943Y-15084650D01*
X13574943Y-15084650D02*
X13593991Y-15094174D01*
X13593991Y-15094174D02*
X13603515Y-15113222D01*
X13603515Y-15113222D02*
X13603515Y-15217984D01*
X13993991Y-15008460D02*
X13822563Y-15265603D01*
X14251134Y-15017984D02*
X14270182Y-15017984D01*
X14270182Y-15017984D02*
X14289229Y-15027508D01*
X14289229Y-15027508D02*
X14298753Y-15037031D01*
X14298753Y-15037031D02*
X14308277Y-15056079D01*
X14308277Y-15056079D02*
X14317801Y-15094174D01*
X14317801Y-15094174D02*
X14317801Y-15141793D01*
X14317801Y-15141793D02*
X14308277Y-15179888D01*
X14308277Y-15179888D02*
X14298753Y-15198936D01*
X14298753Y-15198936D02*
X14289229Y-15208460D01*
X14289229Y-15208460D02*
X14270182Y-15217984D01*
X14270182Y-15217984D02*
X14251134Y-15217984D01*
X14251134Y-15217984D02*
X14232086Y-15208460D01*
X14232086Y-15208460D02*
X14222563Y-15198936D01*
X14222563Y-15198936D02*
X14213039Y-15179888D01*
X14213039Y-15179888D02*
X14203515Y-15141793D01*
X14203515Y-15141793D02*
X14203515Y-15094174D01*
X14203515Y-15094174D02*
X14213039Y-15056079D01*
X14213039Y-15056079D02*
X14222563Y-15037031D01*
X14222563Y-15037031D02*
X14232086Y-15027508D01*
X14232086Y-15027508D02*
X14251134Y-15017984D01*
X14403515Y-15198936D02*
X14413039Y-15208460D01*
X14413039Y-15208460D02*
X14403515Y-15217984D01*
X14403515Y-15217984D02*
X14393991Y-15208460D01*
X14393991Y-15208460D02*
X14403515Y-15198936D01*
X14403515Y-15198936D02*
X14403515Y-15217984D01*
X14536848Y-15017984D02*
X14555896Y-15017984D01*
X14555896Y-15017984D02*
X14574944Y-15027508D01*
X14574944Y-15027508D02*
X14584467Y-15037031D01*
X14584467Y-15037031D02*
X14593991Y-15056079D01*
X14593991Y-15056079D02*
X14603515Y-15094174D01*
X14603515Y-15094174D02*
X14603515Y-15141793D01*
X14603515Y-15141793D02*
X14593991Y-15179888D01*
X14593991Y-15179888D02*
X14584467Y-15198936D01*
X14584467Y-15198936D02*
X14574944Y-15208460D01*
X14574944Y-15208460D02*
X14555896Y-15217984D01*
X14555896Y-15217984D02*
X14536848Y-15217984D01*
X14536848Y-15217984D02*
X14517801Y-15208460D01*
X14517801Y-15208460D02*
X14508277Y-15198936D01*
X14508277Y-15198936D02*
X14498753Y-15179888D01*
X14498753Y-15179888D02*
X14489229Y-15141793D01*
X14489229Y-15141793D02*
X14489229Y-15094174D01*
X14489229Y-15094174D02*
X14498753Y-15056079D01*
X14498753Y-15056079D02*
X14508277Y-15037031D01*
X14508277Y-15037031D02*
X14517801Y-15027508D01*
X14517801Y-15027508D02*
X14536848Y-15017984D01*
X14698753Y-15217984D02*
X14736848Y-15217984D01*
X14736848Y-15217984D02*
X14755896Y-15208460D01*
X14755896Y-15208460D02*
X14765420Y-15198936D01*
X14765420Y-15198936D02*
X14784467Y-15170365D01*
X14784467Y-15170365D02*
X14793991Y-15132269D01*
X14793991Y-15132269D02*
X14793991Y-15056079D01*
X14793991Y-15056079D02*
X14784467Y-15037031D01*
X14784467Y-15037031D02*
X14774944Y-15027508D01*
X14774944Y-15027508D02*
X14755896Y-15017984D01*
X14755896Y-15017984D02*
X14717801Y-15017984D01*
X14717801Y-15017984D02*
X14698753Y-15027508D01*
X14698753Y-15027508D02*
X14689229Y-15037031D01*
X14689229Y-15037031D02*
X14679706Y-15056079D01*
X14679706Y-15056079D02*
X14679706Y-15103698D01*
X14679706Y-15103698D02*
X14689229Y-15122746D01*
X14689229Y-15122746D02*
X14698753Y-15132269D01*
X14698753Y-15132269D02*
X14717801Y-15141793D01*
X14717801Y-15141793D02*
X14755896Y-15141793D01*
X14755896Y-15141793D02*
X14774944Y-15132269D01*
X14774944Y-15132269D02*
X14784467Y-15122746D01*
X14784467Y-15122746D02*
X14793991Y-15103698D01*
X14965420Y-15084650D02*
X14965420Y-15217984D01*
X14917801Y-15008460D02*
X14870182Y-15151317D01*
X14870182Y-15151317D02*
X14993991Y-15151317D01*
X15079706Y-15217984D02*
X15117801Y-15217984D01*
X15117801Y-15217984D02*
X15136848Y-15208460D01*
X15136848Y-15208460D02*
X15146372Y-15198936D01*
X15146372Y-15198936D02*
X15165420Y-15170365D01*
X15165420Y-15170365D02*
X15174944Y-15132269D01*
X15174944Y-15132269D02*
X15174944Y-15056079D01*
X15174944Y-15056079D02*
X15165420Y-15037031D01*
X15165420Y-15037031D02*
X15155896Y-15027508D01*
X15155896Y-15027508D02*
X15136848Y-15017984D01*
X15136848Y-15017984D02*
X15098753Y-15017984D01*
X15098753Y-15017984D02*
X15079706Y-15027508D01*
X15079706Y-15027508D02*
X15070182Y-15037031D01*
X15070182Y-15037031D02*
X15060658Y-15056079D01*
X15060658Y-15056079D02*
X15060658Y-15103698D01*
X15060658Y-15103698D02*
X15070182Y-15122746D01*
X15070182Y-15122746D02*
X15079706Y-15132269D01*
X15079706Y-15132269D02*
X15098753Y-15141793D01*
X15098753Y-15141793D02*
X15136848Y-15141793D01*
X15136848Y-15141793D02*
X15155896Y-15132269D01*
X15155896Y-15132269D02*
X15165420Y-15122746D01*
X15165420Y-15122746D02*
X15174944Y-15103698D01*
X15251134Y-15017984D02*
X15251134Y-15056079D01*
X15327325Y-15017984D02*
X15327325Y-15056079D01*
X15622563Y-15294174D02*
X15613039Y-15284650D01*
X15613039Y-15284650D02*
X15593991Y-15256079D01*
X15593991Y-15256079D02*
X15584468Y-15237031D01*
X15584468Y-15237031D02*
X15574944Y-15208460D01*
X15574944Y-15208460D02*
X15565420Y-15160841D01*
X15565420Y-15160841D02*
X15565420Y-15122746D01*
X15565420Y-15122746D02*
X15574944Y-15075127D01*
X15574944Y-15075127D02*
X15584468Y-15046555D01*
X15584468Y-15046555D02*
X15593991Y-15027508D01*
X15593991Y-15027508D02*
X15613039Y-14998936D01*
X15613039Y-14998936D02*
X15622563Y-14989412D01*
X15784468Y-15084650D02*
X15784468Y-15217984D01*
X15736848Y-15008460D02*
X15689229Y-15151317D01*
X15689229Y-15151317D02*
X15813039Y-15151317D01*
X16041610Y-15217984D02*
X16041610Y-15017984D01*
X16127325Y-15217984D02*
X16127325Y-15113222D01*
X16127325Y-15113222D02*
X16117801Y-15094174D01*
X16117801Y-15094174D02*
X16098753Y-15084650D01*
X16098753Y-15084650D02*
X16070182Y-15084650D01*
X16070182Y-15084650D02*
X16051134Y-15094174D01*
X16051134Y-15094174D02*
X16041610Y-15103698D01*
X16251134Y-15217984D02*
X16232087Y-15208460D01*
X16232087Y-15208460D02*
X16222563Y-15198936D01*
X16222563Y-15198936D02*
X16213039Y-15179888D01*
X16213039Y-15179888D02*
X16213039Y-15122746D01*
X16213039Y-15122746D02*
X16222563Y-15103698D01*
X16222563Y-15103698D02*
X16232087Y-15094174D01*
X16232087Y-15094174D02*
X16251134Y-15084650D01*
X16251134Y-15084650D02*
X16279706Y-15084650D01*
X16279706Y-15084650D02*
X16298753Y-15094174D01*
X16298753Y-15094174D02*
X16308277Y-15103698D01*
X16308277Y-15103698D02*
X16317801Y-15122746D01*
X16317801Y-15122746D02*
X16317801Y-15179888D01*
X16317801Y-15179888D02*
X16308277Y-15198936D01*
X16308277Y-15198936D02*
X16298753Y-15208460D01*
X16298753Y-15208460D02*
X16279706Y-15217984D01*
X16279706Y-15217984D02*
X16251134Y-15217984D01*
X16432087Y-15217984D02*
X16413039Y-15208460D01*
X16413039Y-15208460D02*
X16403515Y-15189412D01*
X16403515Y-15189412D02*
X16403515Y-15017984D01*
X16584468Y-15208460D02*
X16565420Y-15217984D01*
X16565420Y-15217984D02*
X16527325Y-15217984D01*
X16527325Y-15217984D02*
X16508277Y-15208460D01*
X16508277Y-15208460D02*
X16498753Y-15189412D01*
X16498753Y-15189412D02*
X16498753Y-15113222D01*
X16498753Y-15113222D02*
X16508277Y-15094174D01*
X16508277Y-15094174D02*
X16527325Y-15084650D01*
X16527325Y-15084650D02*
X16565420Y-15084650D01*
X16565420Y-15084650D02*
X16584468Y-15094174D01*
X16584468Y-15094174D02*
X16593991Y-15113222D01*
X16593991Y-15113222D02*
X16593991Y-15132269D01*
X16593991Y-15132269D02*
X16498753Y-15151317D01*
X16670182Y-15208460D02*
X16689230Y-15217984D01*
X16689230Y-15217984D02*
X16727325Y-15217984D01*
X16727325Y-15217984D02*
X16746372Y-15208460D01*
X16746372Y-15208460D02*
X16755896Y-15189412D01*
X16755896Y-15189412D02*
X16755896Y-15179888D01*
X16755896Y-15179888D02*
X16746372Y-15160841D01*
X16746372Y-15160841D02*
X16727325Y-15151317D01*
X16727325Y-15151317D02*
X16698753Y-15151317D01*
X16698753Y-15151317D02*
X16679706Y-15141793D01*
X16679706Y-15141793D02*
X16670182Y-15122746D01*
X16670182Y-15122746D02*
X16670182Y-15113222D01*
X16670182Y-15113222D02*
X16679706Y-15094174D01*
X16679706Y-15094174D02*
X16698753Y-15084650D01*
X16698753Y-15084650D02*
X16727325Y-15084650D01*
X16727325Y-15084650D02*
X16746372Y-15094174D01*
X16822563Y-15294174D02*
X16832087Y-15284650D01*
X16832087Y-15284650D02*
X16851134Y-15256079D01*
X16851134Y-15256079D02*
X16860658Y-15237031D01*
X16860658Y-15237031D02*
X16870182Y-15208460D01*
X16870182Y-15208460D02*
X16879706Y-15160841D01*
X16879706Y-15160841D02*
X16879706Y-15122746D01*
X16879706Y-15122746D02*
X16870182Y-15075127D01*
X16870182Y-15075127D02*
X16860658Y-15046555D01*
X16860658Y-15046555D02*
X16851134Y-15027508D01*
X16851134Y-15027508D02*
X16832087Y-14998936D01*
X16832087Y-14998936D02*
X16822563Y-14989412D01*
X11847500Y-15346500D02*
X12047500Y-15546500D01*
X12047500Y-15346500D02*
X11847500Y-15546500D01*
X12018211Y-15517211D02*
X12018211Y-15375789D01*
X11876789Y-15375789D01*
X11876789Y-15517211D01*
X12018211Y-15517211D01*
X12289229Y-15337984D02*
X12413039Y-15337984D01*
X12413039Y-15337984D02*
X12346372Y-15414174D01*
X12346372Y-15414174D02*
X12374943Y-15414174D01*
X12374943Y-15414174D02*
X12393991Y-15423698D01*
X12393991Y-15423698D02*
X12403515Y-15433222D01*
X12403515Y-15433222D02*
X12413039Y-15452269D01*
X12413039Y-15452269D02*
X12413039Y-15499888D01*
X12413039Y-15499888D02*
X12403515Y-15518936D01*
X12403515Y-15518936D02*
X12393991Y-15528460D01*
X12393991Y-15528460D02*
X12374943Y-15537984D01*
X12374943Y-15537984D02*
X12317801Y-15537984D01*
X12317801Y-15537984D02*
X12298753Y-15528460D01*
X12298753Y-15528460D02*
X12289229Y-15518936D01*
X12498753Y-15518936D02*
X12508277Y-15528460D01*
X12508277Y-15528460D02*
X12498753Y-15537984D01*
X12498753Y-15537984D02*
X12489229Y-15528460D01*
X12489229Y-15528460D02*
X12498753Y-15518936D01*
X12498753Y-15518936D02*
X12498753Y-15537984D01*
X12632086Y-15337984D02*
X12651134Y-15337984D01*
X12651134Y-15337984D02*
X12670182Y-15347508D01*
X12670182Y-15347508D02*
X12679705Y-15357031D01*
X12679705Y-15357031D02*
X12689229Y-15376079D01*
X12689229Y-15376079D02*
X12698753Y-15414174D01*
X12698753Y-15414174D02*
X12698753Y-15461793D01*
X12698753Y-15461793D02*
X12689229Y-15499888D01*
X12689229Y-15499888D02*
X12679705Y-15518936D01*
X12679705Y-15518936D02*
X12670182Y-15528460D01*
X12670182Y-15528460D02*
X12651134Y-15537984D01*
X12651134Y-15537984D02*
X12632086Y-15537984D01*
X12632086Y-15537984D02*
X12613039Y-15528460D01*
X12613039Y-15528460D02*
X12603515Y-15518936D01*
X12603515Y-15518936D02*
X12593991Y-15499888D01*
X12593991Y-15499888D02*
X12584467Y-15461793D01*
X12584467Y-15461793D02*
X12584467Y-15414174D01*
X12584467Y-15414174D02*
X12593991Y-15376079D01*
X12593991Y-15376079D02*
X12603515Y-15357031D01*
X12603515Y-15357031D02*
X12613039Y-15347508D01*
X12613039Y-15347508D02*
X12632086Y-15337984D01*
X12822562Y-15337984D02*
X12841610Y-15337984D01*
X12841610Y-15337984D02*
X12860658Y-15347508D01*
X12860658Y-15347508D02*
X12870182Y-15357031D01*
X12870182Y-15357031D02*
X12879705Y-15376079D01*
X12879705Y-15376079D02*
X12889229Y-15414174D01*
X12889229Y-15414174D02*
X12889229Y-15461793D01*
X12889229Y-15461793D02*
X12879705Y-15499888D01*
X12879705Y-15499888D02*
X12870182Y-15518936D01*
X12870182Y-15518936D02*
X12860658Y-15528460D01*
X12860658Y-15528460D02*
X12841610Y-15537984D01*
X12841610Y-15537984D02*
X12822562Y-15537984D01*
X12822562Y-15537984D02*
X12803515Y-15528460D01*
X12803515Y-15528460D02*
X12793991Y-15518936D01*
X12793991Y-15518936D02*
X12784467Y-15499888D01*
X12784467Y-15499888D02*
X12774943Y-15461793D01*
X12774943Y-15461793D02*
X12774943Y-15414174D01*
X12774943Y-15414174D02*
X12784467Y-15376079D01*
X12784467Y-15376079D02*
X12793991Y-15357031D01*
X12793991Y-15357031D02*
X12803515Y-15347508D01*
X12803515Y-15347508D02*
X12822562Y-15337984D01*
X13013039Y-15337984D02*
X13032086Y-15337984D01*
X13032086Y-15337984D02*
X13051134Y-15347508D01*
X13051134Y-15347508D02*
X13060658Y-15357031D01*
X13060658Y-15357031D02*
X13070182Y-15376079D01*
X13070182Y-15376079D02*
X13079705Y-15414174D01*
X13079705Y-15414174D02*
X13079705Y-15461793D01*
X13079705Y-15461793D02*
X13070182Y-15499888D01*
X13070182Y-15499888D02*
X13060658Y-15518936D01*
X13060658Y-15518936D02*
X13051134Y-15528460D01*
X13051134Y-15528460D02*
X13032086Y-15537984D01*
X13032086Y-15537984D02*
X13013039Y-15537984D01*
X13013039Y-15537984D02*
X12993991Y-15528460D01*
X12993991Y-15528460D02*
X12984467Y-15518936D01*
X12984467Y-15518936D02*
X12974943Y-15499888D01*
X12974943Y-15499888D02*
X12965420Y-15461793D01*
X12965420Y-15461793D02*
X12965420Y-15414174D01*
X12965420Y-15414174D02*
X12974943Y-15376079D01*
X12974943Y-15376079D02*
X12984467Y-15357031D01*
X12984467Y-15357031D02*
X12993991Y-15347508D01*
X12993991Y-15347508D02*
X13013039Y-15337984D01*
X13165420Y-15537984D02*
X13165420Y-15404650D01*
X13165420Y-15423698D02*
X13174943Y-15414174D01*
X13174943Y-15414174D02*
X13193991Y-15404650D01*
X13193991Y-15404650D02*
X13222563Y-15404650D01*
X13222563Y-15404650D02*
X13241610Y-15414174D01*
X13241610Y-15414174D02*
X13251134Y-15433222D01*
X13251134Y-15433222D02*
X13251134Y-15537984D01*
X13251134Y-15433222D02*
X13260658Y-15414174D01*
X13260658Y-15414174D02*
X13279705Y-15404650D01*
X13279705Y-15404650D02*
X13308277Y-15404650D01*
X13308277Y-15404650D02*
X13327324Y-15414174D01*
X13327324Y-15414174D02*
X13336848Y-15433222D01*
X13336848Y-15433222D02*
X13336848Y-15537984D01*
X13432086Y-15537984D02*
X13432086Y-15404650D01*
X13432086Y-15423698D02*
X13441610Y-15414174D01*
X13441610Y-15414174D02*
X13460658Y-15404650D01*
X13460658Y-15404650D02*
X13489229Y-15404650D01*
X13489229Y-15404650D02*
X13508277Y-15414174D01*
X13508277Y-15414174D02*
X13517801Y-15433222D01*
X13517801Y-15433222D02*
X13517801Y-15537984D01*
X13517801Y-15433222D02*
X13527324Y-15414174D01*
X13527324Y-15414174D02*
X13546372Y-15404650D01*
X13546372Y-15404650D02*
X13574943Y-15404650D01*
X13574943Y-15404650D02*
X13593991Y-15414174D01*
X13593991Y-15414174D02*
X13603515Y-15433222D01*
X13603515Y-15433222D02*
X13603515Y-15537984D01*
X13993991Y-15328460D02*
X13822563Y-15585603D01*
X14251134Y-15337984D02*
X14270182Y-15337984D01*
X14270182Y-15337984D02*
X14289229Y-15347508D01*
X14289229Y-15347508D02*
X14298753Y-15357031D01*
X14298753Y-15357031D02*
X14308277Y-15376079D01*
X14308277Y-15376079D02*
X14317801Y-15414174D01*
X14317801Y-15414174D02*
X14317801Y-15461793D01*
X14317801Y-15461793D02*
X14308277Y-15499888D01*
X14308277Y-15499888D02*
X14298753Y-15518936D01*
X14298753Y-15518936D02*
X14289229Y-15528460D01*
X14289229Y-15528460D02*
X14270182Y-15537984D01*
X14270182Y-15537984D02*
X14251134Y-15537984D01*
X14251134Y-15537984D02*
X14232086Y-15528460D01*
X14232086Y-15528460D02*
X14222563Y-15518936D01*
X14222563Y-15518936D02*
X14213039Y-15499888D01*
X14213039Y-15499888D02*
X14203515Y-15461793D01*
X14203515Y-15461793D02*
X14203515Y-15414174D01*
X14203515Y-15414174D02*
X14213039Y-15376079D01*
X14213039Y-15376079D02*
X14222563Y-15357031D01*
X14222563Y-15357031D02*
X14232086Y-15347508D01*
X14232086Y-15347508D02*
X14251134Y-15337984D01*
X14403515Y-15518936D02*
X14413039Y-15528460D01*
X14413039Y-15528460D02*
X14403515Y-15537984D01*
X14403515Y-15537984D02*
X14393991Y-15528460D01*
X14393991Y-15528460D02*
X14403515Y-15518936D01*
X14403515Y-15518936D02*
X14403515Y-15537984D01*
X14603515Y-15537984D02*
X14489229Y-15537984D01*
X14546372Y-15537984D02*
X14546372Y-15337984D01*
X14546372Y-15337984D02*
X14527325Y-15366555D01*
X14527325Y-15366555D02*
X14508277Y-15385603D01*
X14508277Y-15385603D02*
X14489229Y-15395127D01*
X14793991Y-15537984D02*
X14679706Y-15537984D01*
X14736848Y-15537984D02*
X14736848Y-15337984D01*
X14736848Y-15337984D02*
X14717801Y-15366555D01*
X14717801Y-15366555D02*
X14698753Y-15385603D01*
X14698753Y-15385603D02*
X14679706Y-15395127D01*
X14908277Y-15423698D02*
X14889229Y-15414174D01*
X14889229Y-15414174D02*
X14879706Y-15404650D01*
X14879706Y-15404650D02*
X14870182Y-15385603D01*
X14870182Y-15385603D02*
X14870182Y-15376079D01*
X14870182Y-15376079D02*
X14879706Y-15357031D01*
X14879706Y-15357031D02*
X14889229Y-15347508D01*
X14889229Y-15347508D02*
X14908277Y-15337984D01*
X14908277Y-15337984D02*
X14946372Y-15337984D01*
X14946372Y-15337984D02*
X14965420Y-15347508D01*
X14965420Y-15347508D02*
X14974944Y-15357031D01*
X14974944Y-15357031D02*
X14984467Y-15376079D01*
X14984467Y-15376079D02*
X14984467Y-15385603D01*
X14984467Y-15385603D02*
X14974944Y-15404650D01*
X14974944Y-15404650D02*
X14965420Y-15414174D01*
X14965420Y-15414174D02*
X14946372Y-15423698D01*
X14946372Y-15423698D02*
X14908277Y-15423698D01*
X14908277Y-15423698D02*
X14889229Y-15433222D01*
X14889229Y-15433222D02*
X14879706Y-15442746D01*
X14879706Y-15442746D02*
X14870182Y-15461793D01*
X14870182Y-15461793D02*
X14870182Y-15499888D01*
X14870182Y-15499888D02*
X14879706Y-15518936D01*
X14879706Y-15518936D02*
X14889229Y-15528460D01*
X14889229Y-15528460D02*
X14908277Y-15537984D01*
X14908277Y-15537984D02*
X14946372Y-15537984D01*
X14946372Y-15537984D02*
X14965420Y-15528460D01*
X14965420Y-15528460D02*
X14974944Y-15518936D01*
X14974944Y-15518936D02*
X14984467Y-15499888D01*
X14984467Y-15499888D02*
X14984467Y-15461793D01*
X14984467Y-15461793D02*
X14974944Y-15442746D01*
X14974944Y-15442746D02*
X14965420Y-15433222D01*
X14965420Y-15433222D02*
X14946372Y-15423698D01*
X15174944Y-15537984D02*
X15060658Y-15537984D01*
X15117801Y-15537984D02*
X15117801Y-15337984D01*
X15117801Y-15337984D02*
X15098753Y-15366555D01*
X15098753Y-15366555D02*
X15079706Y-15385603D01*
X15079706Y-15385603D02*
X15060658Y-15395127D01*
X15251134Y-15337984D02*
X15251134Y-15376079D01*
X15327325Y-15337984D02*
X15327325Y-15376079D01*
X15622563Y-15614174D02*
X15613039Y-15604650D01*
X15613039Y-15604650D02*
X15593991Y-15576079D01*
X15593991Y-15576079D02*
X15584468Y-15557031D01*
X15584468Y-15557031D02*
X15574944Y-15528460D01*
X15574944Y-15528460D02*
X15565420Y-15480841D01*
X15565420Y-15480841D02*
X15565420Y-15442746D01*
X15565420Y-15442746D02*
X15574944Y-15395127D01*
X15574944Y-15395127D02*
X15584468Y-15366555D01*
X15584468Y-15366555D02*
X15593991Y-15347508D01*
X15593991Y-15347508D02*
X15613039Y-15318936D01*
X15613039Y-15318936D02*
X15622563Y-15309412D01*
X15784468Y-15404650D02*
X15784468Y-15537984D01*
X15736848Y-15328460D02*
X15689229Y-15471317D01*
X15689229Y-15471317D02*
X15813039Y-15471317D01*
X16041610Y-15537984D02*
X16041610Y-15337984D01*
X16127325Y-15537984D02*
X16127325Y-15433222D01*
X16127325Y-15433222D02*
X16117801Y-15414174D01*
X16117801Y-15414174D02*
X16098753Y-15404650D01*
X16098753Y-15404650D02*
X16070182Y-15404650D01*
X16070182Y-15404650D02*
X16051134Y-15414174D01*
X16051134Y-15414174D02*
X16041610Y-15423698D01*
X16251134Y-15537984D02*
X16232087Y-15528460D01*
X16232087Y-15528460D02*
X16222563Y-15518936D01*
X16222563Y-15518936D02*
X16213039Y-15499888D01*
X16213039Y-15499888D02*
X16213039Y-15442746D01*
X16213039Y-15442746D02*
X16222563Y-15423698D01*
X16222563Y-15423698D02*
X16232087Y-15414174D01*
X16232087Y-15414174D02*
X16251134Y-15404650D01*
X16251134Y-15404650D02*
X16279706Y-15404650D01*
X16279706Y-15404650D02*
X16298753Y-15414174D01*
X16298753Y-15414174D02*
X16308277Y-15423698D01*
X16308277Y-15423698D02*
X16317801Y-15442746D01*
X16317801Y-15442746D02*
X16317801Y-15499888D01*
X16317801Y-15499888D02*
X16308277Y-15518936D01*
X16308277Y-15518936D02*
X16298753Y-15528460D01*
X16298753Y-15528460D02*
X16279706Y-15537984D01*
X16279706Y-15537984D02*
X16251134Y-15537984D01*
X16432087Y-15537984D02*
X16413039Y-15528460D01*
X16413039Y-15528460D02*
X16403515Y-15509412D01*
X16403515Y-15509412D02*
X16403515Y-15337984D01*
X16584468Y-15528460D02*
X16565420Y-15537984D01*
X16565420Y-15537984D02*
X16527325Y-15537984D01*
X16527325Y-15537984D02*
X16508277Y-15528460D01*
X16508277Y-15528460D02*
X16498753Y-15509412D01*
X16498753Y-15509412D02*
X16498753Y-15433222D01*
X16498753Y-15433222D02*
X16508277Y-15414174D01*
X16508277Y-15414174D02*
X16527325Y-15404650D01*
X16527325Y-15404650D02*
X16565420Y-15404650D01*
X16565420Y-15404650D02*
X16584468Y-15414174D01*
X16584468Y-15414174D02*
X16593991Y-15433222D01*
X16593991Y-15433222D02*
X16593991Y-15452269D01*
X16593991Y-15452269D02*
X16498753Y-15471317D01*
X16670182Y-15528460D02*
X16689230Y-15537984D01*
X16689230Y-15537984D02*
X16727325Y-15537984D01*
X16727325Y-15537984D02*
X16746372Y-15528460D01*
X16746372Y-15528460D02*
X16755896Y-15509412D01*
X16755896Y-15509412D02*
X16755896Y-15499888D01*
X16755896Y-15499888D02*
X16746372Y-15480841D01*
X16746372Y-15480841D02*
X16727325Y-15471317D01*
X16727325Y-15471317D02*
X16698753Y-15471317D01*
X16698753Y-15471317D02*
X16679706Y-15461793D01*
X16679706Y-15461793D02*
X16670182Y-15442746D01*
X16670182Y-15442746D02*
X16670182Y-15433222D01*
X16670182Y-15433222D02*
X16679706Y-15414174D01*
X16679706Y-15414174D02*
X16698753Y-15404650D01*
X16698753Y-15404650D02*
X16727325Y-15404650D01*
X16727325Y-15404650D02*
X16746372Y-15414174D01*
X16822563Y-15614174D02*
X16832087Y-15604650D01*
X16832087Y-15604650D02*
X16851134Y-15576079D01*
X16851134Y-15576079D02*
X16860658Y-15557031D01*
X16860658Y-15557031D02*
X16870182Y-15528460D01*
X16870182Y-15528460D02*
X16879706Y-15480841D01*
X16879706Y-15480841D02*
X16879706Y-15442746D01*
X16879706Y-15442746D02*
X16870182Y-15395127D01*
X16870182Y-15395127D02*
X16860658Y-15366555D01*
X16860658Y-15366555D02*
X16851134Y-15347508D01*
X16851134Y-15347508D02*
X16832087Y-15318936D01*
X16832087Y-15318936D02*
X16822563Y-15309412D01*
M02*
