%TF.GenerationSoftware,KiCad,Pcbnew,9.0.0*%
%TF.CreationDate,2025-04-09T18:23:43-07:00*%
%TF.ProjectId,PAC Board,50414320-426f-4617-9264-2e6b69636164,rev?*%
%TF.SameCoordinates,Original*%
%TF.FileFunction,Drillmap*%
%TF.FilePolarity,Positive*%
%FSLAX45Y45*%
G04 Gerber Fmt 4.5, Leading zero omitted, Abs format (unit mm)*
G04 Created by KiCad (PCBNEW 9.0.0) date 2025-04-09 18:23:43*
%MOMM*%
%LPD*%
G01*
G04 APERTURE LIST*
%ADD10C,0.050000*%
%ADD11C,0.200000*%
%ADD12C,0.102000*%
G04 APERTURE END LIST*
D10*
X12050000Y-4800000D02*
X20150000Y-4800000D01*
X20150000Y-12900000D01*
X12050000Y-12900000D01*
X12050000Y-4800000D01*
D11*
D12*
X17079000Y-12533000D02*
X17181000Y-12635000D01*
X17181000Y-12533000D02*
X17079000Y-12635000D01*
X17979000Y-12533000D02*
X18081000Y-12635000D01*
X18081000Y-12533000D02*
X17979000Y-12635000D01*
X18359000Y-12533000D02*
X18461000Y-12635000D01*
X18461000Y-12533000D02*
X18359000Y-12635000D01*
X19259000Y-12533000D02*
X19361000Y-12635000D01*
X19361000Y-12533000D02*
X19259000Y-12635000D01*
D11*
X12308277Y-13213984D02*
X12308277Y-13013984D01*
X12308277Y-13013984D02*
X12355896Y-13013984D01*
X12355896Y-13013984D02*
X12384467Y-13023508D01*
X12384467Y-13023508D02*
X12403515Y-13042555D01*
X12403515Y-13042555D02*
X12413039Y-13061603D01*
X12413039Y-13061603D02*
X12422562Y-13099698D01*
X12422562Y-13099698D02*
X12422562Y-13128269D01*
X12422562Y-13128269D02*
X12413039Y-13166365D01*
X12413039Y-13166365D02*
X12403515Y-13185412D01*
X12403515Y-13185412D02*
X12384467Y-13204460D01*
X12384467Y-13204460D02*
X12355896Y-13213984D01*
X12355896Y-13213984D02*
X12308277Y-13213984D01*
X12508277Y-13213984D02*
X12508277Y-13080650D01*
X12508277Y-13118746D02*
X12517801Y-13099698D01*
X12517801Y-13099698D02*
X12527324Y-13090174D01*
X12527324Y-13090174D02*
X12546372Y-13080650D01*
X12546372Y-13080650D02*
X12565420Y-13080650D01*
X12632086Y-13213984D02*
X12632086Y-13080650D01*
X12632086Y-13013984D02*
X12622562Y-13023508D01*
X12622562Y-13023508D02*
X12632086Y-13033031D01*
X12632086Y-13033031D02*
X12641610Y-13023508D01*
X12641610Y-13023508D02*
X12632086Y-13013984D01*
X12632086Y-13013984D02*
X12632086Y-13033031D01*
X12755896Y-13213984D02*
X12736848Y-13204460D01*
X12736848Y-13204460D02*
X12727324Y-13185412D01*
X12727324Y-13185412D02*
X12727324Y-13013984D01*
X12860658Y-13213984D02*
X12841610Y-13204460D01*
X12841610Y-13204460D02*
X12832086Y-13185412D01*
X12832086Y-13185412D02*
X12832086Y-13013984D01*
X13089229Y-13213984D02*
X13089229Y-13013984D01*
X13089229Y-13013984D02*
X13155896Y-13156841D01*
X13155896Y-13156841D02*
X13222562Y-13013984D01*
X13222562Y-13013984D02*
X13222562Y-13213984D01*
X13403515Y-13213984D02*
X13403515Y-13109222D01*
X13403515Y-13109222D02*
X13393991Y-13090174D01*
X13393991Y-13090174D02*
X13374943Y-13080650D01*
X13374943Y-13080650D02*
X13336848Y-13080650D01*
X13336848Y-13080650D02*
X13317801Y-13090174D01*
X13403515Y-13204460D02*
X13384467Y-13213984D01*
X13384467Y-13213984D02*
X13336848Y-13213984D01*
X13336848Y-13213984D02*
X13317801Y-13204460D01*
X13317801Y-13204460D02*
X13308277Y-13185412D01*
X13308277Y-13185412D02*
X13308277Y-13166365D01*
X13308277Y-13166365D02*
X13317801Y-13147317D01*
X13317801Y-13147317D02*
X13336848Y-13137793D01*
X13336848Y-13137793D02*
X13384467Y-13137793D01*
X13384467Y-13137793D02*
X13403515Y-13128269D01*
X13498753Y-13080650D02*
X13498753Y-13280650D01*
X13498753Y-13090174D02*
X13517801Y-13080650D01*
X13517801Y-13080650D02*
X13555896Y-13080650D01*
X13555896Y-13080650D02*
X13574943Y-13090174D01*
X13574943Y-13090174D02*
X13584467Y-13099698D01*
X13584467Y-13099698D02*
X13593991Y-13118746D01*
X13593991Y-13118746D02*
X13593991Y-13175888D01*
X13593991Y-13175888D02*
X13584467Y-13194936D01*
X13584467Y-13194936D02*
X13574943Y-13204460D01*
X13574943Y-13204460D02*
X13555896Y-13213984D01*
X13555896Y-13213984D02*
X13517801Y-13213984D01*
X13517801Y-13213984D02*
X13498753Y-13204460D01*
X13679705Y-13194936D02*
X13689229Y-13204460D01*
X13689229Y-13204460D02*
X13679705Y-13213984D01*
X13679705Y-13213984D02*
X13670182Y-13204460D01*
X13670182Y-13204460D02*
X13679705Y-13194936D01*
X13679705Y-13194936D02*
X13679705Y-13213984D01*
X13679705Y-13090174D02*
X13689229Y-13099698D01*
X13689229Y-13099698D02*
X13679705Y-13109222D01*
X13679705Y-13109222D02*
X13670182Y-13099698D01*
X13670182Y-13099698D02*
X13679705Y-13090174D01*
X13679705Y-13090174D02*
X13679705Y-13109222D01*
D12*
X11945500Y-13491500D02*
X12047500Y-13593500D01*
X12047500Y-13491500D02*
X11945500Y-13593500D01*
D11*
X12413039Y-13633984D02*
X12298753Y-13633984D01*
X12355896Y-13633984D02*
X12355896Y-13433984D01*
X12355896Y-13433984D02*
X12336848Y-13462555D01*
X12336848Y-13462555D02*
X12317801Y-13481603D01*
X12317801Y-13481603D02*
X12298753Y-13491127D01*
X12498753Y-13614936D02*
X12508277Y-13624460D01*
X12508277Y-13624460D02*
X12498753Y-13633984D01*
X12498753Y-13633984D02*
X12489229Y-13624460D01*
X12489229Y-13624460D02*
X12498753Y-13614936D01*
X12498753Y-13614936D02*
X12498753Y-13633984D01*
X12632086Y-13433984D02*
X12651134Y-13433984D01*
X12651134Y-13433984D02*
X12670182Y-13443508D01*
X12670182Y-13443508D02*
X12679705Y-13453031D01*
X12679705Y-13453031D02*
X12689229Y-13472079D01*
X12689229Y-13472079D02*
X12698753Y-13510174D01*
X12698753Y-13510174D02*
X12698753Y-13557793D01*
X12698753Y-13557793D02*
X12689229Y-13595888D01*
X12689229Y-13595888D02*
X12679705Y-13614936D01*
X12679705Y-13614936D02*
X12670182Y-13624460D01*
X12670182Y-13624460D02*
X12651134Y-13633984D01*
X12651134Y-13633984D02*
X12632086Y-13633984D01*
X12632086Y-13633984D02*
X12613039Y-13624460D01*
X12613039Y-13624460D02*
X12603515Y-13614936D01*
X12603515Y-13614936D02*
X12593991Y-13595888D01*
X12593991Y-13595888D02*
X12584467Y-13557793D01*
X12584467Y-13557793D02*
X12584467Y-13510174D01*
X12584467Y-13510174D02*
X12593991Y-13472079D01*
X12593991Y-13472079D02*
X12603515Y-13453031D01*
X12603515Y-13453031D02*
X12613039Y-13443508D01*
X12613039Y-13443508D02*
X12632086Y-13433984D01*
X12774943Y-13453031D02*
X12784467Y-13443508D01*
X12784467Y-13443508D02*
X12803515Y-13433984D01*
X12803515Y-13433984D02*
X12851134Y-13433984D01*
X12851134Y-13433984D02*
X12870182Y-13443508D01*
X12870182Y-13443508D02*
X12879705Y-13453031D01*
X12879705Y-13453031D02*
X12889229Y-13472079D01*
X12889229Y-13472079D02*
X12889229Y-13491127D01*
X12889229Y-13491127D02*
X12879705Y-13519698D01*
X12879705Y-13519698D02*
X12765420Y-13633984D01*
X12765420Y-13633984D02*
X12889229Y-13633984D01*
X13013039Y-13433984D02*
X13032086Y-13433984D01*
X13032086Y-13433984D02*
X13051134Y-13443508D01*
X13051134Y-13443508D02*
X13060658Y-13453031D01*
X13060658Y-13453031D02*
X13070182Y-13472079D01*
X13070182Y-13472079D02*
X13079705Y-13510174D01*
X13079705Y-13510174D02*
X13079705Y-13557793D01*
X13079705Y-13557793D02*
X13070182Y-13595888D01*
X13070182Y-13595888D02*
X13060658Y-13614936D01*
X13060658Y-13614936D02*
X13051134Y-13624460D01*
X13051134Y-13624460D02*
X13032086Y-13633984D01*
X13032086Y-13633984D02*
X13013039Y-13633984D01*
X13013039Y-13633984D02*
X12993991Y-13624460D01*
X12993991Y-13624460D02*
X12984467Y-13614936D01*
X12984467Y-13614936D02*
X12974943Y-13595888D01*
X12974943Y-13595888D02*
X12965420Y-13557793D01*
X12965420Y-13557793D02*
X12965420Y-13510174D01*
X12965420Y-13510174D02*
X12974943Y-13472079D01*
X12974943Y-13472079D02*
X12984467Y-13453031D01*
X12984467Y-13453031D02*
X12993991Y-13443508D01*
X12993991Y-13443508D02*
X13013039Y-13433984D01*
X13165420Y-13633984D02*
X13165420Y-13500650D01*
X13165420Y-13519698D02*
X13174943Y-13510174D01*
X13174943Y-13510174D02*
X13193991Y-13500650D01*
X13193991Y-13500650D02*
X13222563Y-13500650D01*
X13222563Y-13500650D02*
X13241610Y-13510174D01*
X13241610Y-13510174D02*
X13251134Y-13529222D01*
X13251134Y-13529222D02*
X13251134Y-13633984D01*
X13251134Y-13529222D02*
X13260658Y-13510174D01*
X13260658Y-13510174D02*
X13279705Y-13500650D01*
X13279705Y-13500650D02*
X13308277Y-13500650D01*
X13308277Y-13500650D02*
X13327324Y-13510174D01*
X13327324Y-13510174D02*
X13336848Y-13529222D01*
X13336848Y-13529222D02*
X13336848Y-13633984D01*
X13432086Y-13633984D02*
X13432086Y-13500650D01*
X13432086Y-13519698D02*
X13441610Y-13510174D01*
X13441610Y-13510174D02*
X13460658Y-13500650D01*
X13460658Y-13500650D02*
X13489229Y-13500650D01*
X13489229Y-13500650D02*
X13508277Y-13510174D01*
X13508277Y-13510174D02*
X13517801Y-13529222D01*
X13517801Y-13529222D02*
X13517801Y-13633984D01*
X13517801Y-13529222D02*
X13527324Y-13510174D01*
X13527324Y-13510174D02*
X13546372Y-13500650D01*
X13546372Y-13500650D02*
X13574943Y-13500650D01*
X13574943Y-13500650D02*
X13593991Y-13510174D01*
X13593991Y-13510174D02*
X13603515Y-13529222D01*
X13603515Y-13529222D02*
X13603515Y-13633984D01*
X13993991Y-13424460D02*
X13822563Y-13681603D01*
X14251134Y-13433984D02*
X14270182Y-13433984D01*
X14270182Y-13433984D02*
X14289229Y-13443508D01*
X14289229Y-13443508D02*
X14298753Y-13453031D01*
X14298753Y-13453031D02*
X14308277Y-13472079D01*
X14308277Y-13472079D02*
X14317801Y-13510174D01*
X14317801Y-13510174D02*
X14317801Y-13557793D01*
X14317801Y-13557793D02*
X14308277Y-13595888D01*
X14308277Y-13595888D02*
X14298753Y-13614936D01*
X14298753Y-13614936D02*
X14289229Y-13624460D01*
X14289229Y-13624460D02*
X14270182Y-13633984D01*
X14270182Y-13633984D02*
X14251134Y-13633984D01*
X14251134Y-13633984D02*
X14232086Y-13624460D01*
X14232086Y-13624460D02*
X14222563Y-13614936D01*
X14222563Y-13614936D02*
X14213039Y-13595888D01*
X14213039Y-13595888D02*
X14203515Y-13557793D01*
X14203515Y-13557793D02*
X14203515Y-13510174D01*
X14203515Y-13510174D02*
X14213039Y-13472079D01*
X14213039Y-13472079D02*
X14222563Y-13453031D01*
X14222563Y-13453031D02*
X14232086Y-13443508D01*
X14232086Y-13443508D02*
X14251134Y-13433984D01*
X14403515Y-13614936D02*
X14413039Y-13624460D01*
X14413039Y-13624460D02*
X14403515Y-13633984D01*
X14403515Y-13633984D02*
X14393991Y-13624460D01*
X14393991Y-13624460D02*
X14403515Y-13614936D01*
X14403515Y-13614936D02*
X14403515Y-13633984D01*
X14536848Y-13433984D02*
X14555896Y-13433984D01*
X14555896Y-13433984D02*
X14574944Y-13443508D01*
X14574944Y-13443508D02*
X14584467Y-13453031D01*
X14584467Y-13453031D02*
X14593991Y-13472079D01*
X14593991Y-13472079D02*
X14603515Y-13510174D01*
X14603515Y-13510174D02*
X14603515Y-13557793D01*
X14603515Y-13557793D02*
X14593991Y-13595888D01*
X14593991Y-13595888D02*
X14584467Y-13614936D01*
X14584467Y-13614936D02*
X14574944Y-13624460D01*
X14574944Y-13624460D02*
X14555896Y-13633984D01*
X14555896Y-13633984D02*
X14536848Y-13633984D01*
X14536848Y-13633984D02*
X14517801Y-13624460D01*
X14517801Y-13624460D02*
X14508277Y-13614936D01*
X14508277Y-13614936D02*
X14498753Y-13595888D01*
X14498753Y-13595888D02*
X14489229Y-13557793D01*
X14489229Y-13557793D02*
X14489229Y-13510174D01*
X14489229Y-13510174D02*
X14498753Y-13472079D01*
X14498753Y-13472079D02*
X14508277Y-13453031D01*
X14508277Y-13453031D02*
X14517801Y-13443508D01*
X14517801Y-13443508D02*
X14536848Y-13433984D01*
X14774944Y-13500650D02*
X14774944Y-13633984D01*
X14727325Y-13424460D02*
X14679706Y-13567317D01*
X14679706Y-13567317D02*
X14803515Y-13567317D01*
X14917801Y-13433984D02*
X14936848Y-13433984D01*
X14936848Y-13433984D02*
X14955896Y-13443508D01*
X14955896Y-13443508D02*
X14965420Y-13453031D01*
X14965420Y-13453031D02*
X14974944Y-13472079D01*
X14974944Y-13472079D02*
X14984467Y-13510174D01*
X14984467Y-13510174D02*
X14984467Y-13557793D01*
X14984467Y-13557793D02*
X14974944Y-13595888D01*
X14974944Y-13595888D02*
X14965420Y-13614936D01*
X14965420Y-13614936D02*
X14955896Y-13624460D01*
X14955896Y-13624460D02*
X14936848Y-13633984D01*
X14936848Y-13633984D02*
X14917801Y-13633984D01*
X14917801Y-13633984D02*
X14898753Y-13624460D01*
X14898753Y-13624460D02*
X14889229Y-13614936D01*
X14889229Y-13614936D02*
X14879706Y-13595888D01*
X14879706Y-13595888D02*
X14870182Y-13557793D01*
X14870182Y-13557793D02*
X14870182Y-13510174D01*
X14870182Y-13510174D02*
X14879706Y-13472079D01*
X14879706Y-13472079D02*
X14889229Y-13453031D01*
X14889229Y-13453031D02*
X14898753Y-13443508D01*
X14898753Y-13443508D02*
X14917801Y-13433984D01*
X15060658Y-13453031D02*
X15070182Y-13443508D01*
X15070182Y-13443508D02*
X15089229Y-13433984D01*
X15089229Y-13433984D02*
X15136848Y-13433984D01*
X15136848Y-13433984D02*
X15155896Y-13443508D01*
X15155896Y-13443508D02*
X15165420Y-13453031D01*
X15165420Y-13453031D02*
X15174944Y-13472079D01*
X15174944Y-13472079D02*
X15174944Y-13491127D01*
X15174944Y-13491127D02*
X15165420Y-13519698D01*
X15165420Y-13519698D02*
X15051134Y-13633984D01*
X15051134Y-13633984D02*
X15174944Y-13633984D01*
X15251134Y-13433984D02*
X15251134Y-13472079D01*
X15327325Y-13433984D02*
X15327325Y-13472079D01*
X15622563Y-13710174D02*
X15613039Y-13700650D01*
X15613039Y-13700650D02*
X15593991Y-13672079D01*
X15593991Y-13672079D02*
X15584468Y-13653031D01*
X15584468Y-13653031D02*
X15574944Y-13624460D01*
X15574944Y-13624460D02*
X15565420Y-13576841D01*
X15565420Y-13576841D02*
X15565420Y-13538746D01*
X15565420Y-13538746D02*
X15574944Y-13491127D01*
X15574944Y-13491127D02*
X15584468Y-13462555D01*
X15584468Y-13462555D02*
X15593991Y-13443508D01*
X15593991Y-13443508D02*
X15613039Y-13414936D01*
X15613039Y-13414936D02*
X15622563Y-13405412D01*
X15784468Y-13500650D02*
X15784468Y-13633984D01*
X15736848Y-13424460D02*
X15689229Y-13567317D01*
X15689229Y-13567317D02*
X15813039Y-13567317D01*
X16041610Y-13633984D02*
X16041610Y-13433984D01*
X16127325Y-13633984D02*
X16127325Y-13529222D01*
X16127325Y-13529222D02*
X16117801Y-13510174D01*
X16117801Y-13510174D02*
X16098753Y-13500650D01*
X16098753Y-13500650D02*
X16070182Y-13500650D01*
X16070182Y-13500650D02*
X16051134Y-13510174D01*
X16051134Y-13510174D02*
X16041610Y-13519698D01*
X16251134Y-13633984D02*
X16232087Y-13624460D01*
X16232087Y-13624460D02*
X16222563Y-13614936D01*
X16222563Y-13614936D02*
X16213039Y-13595888D01*
X16213039Y-13595888D02*
X16213039Y-13538746D01*
X16213039Y-13538746D02*
X16222563Y-13519698D01*
X16222563Y-13519698D02*
X16232087Y-13510174D01*
X16232087Y-13510174D02*
X16251134Y-13500650D01*
X16251134Y-13500650D02*
X16279706Y-13500650D01*
X16279706Y-13500650D02*
X16298753Y-13510174D01*
X16298753Y-13510174D02*
X16308277Y-13519698D01*
X16308277Y-13519698D02*
X16317801Y-13538746D01*
X16317801Y-13538746D02*
X16317801Y-13595888D01*
X16317801Y-13595888D02*
X16308277Y-13614936D01*
X16308277Y-13614936D02*
X16298753Y-13624460D01*
X16298753Y-13624460D02*
X16279706Y-13633984D01*
X16279706Y-13633984D02*
X16251134Y-13633984D01*
X16432087Y-13633984D02*
X16413039Y-13624460D01*
X16413039Y-13624460D02*
X16403515Y-13605412D01*
X16403515Y-13605412D02*
X16403515Y-13433984D01*
X16584468Y-13624460D02*
X16565420Y-13633984D01*
X16565420Y-13633984D02*
X16527325Y-13633984D01*
X16527325Y-13633984D02*
X16508277Y-13624460D01*
X16508277Y-13624460D02*
X16498753Y-13605412D01*
X16498753Y-13605412D02*
X16498753Y-13529222D01*
X16498753Y-13529222D02*
X16508277Y-13510174D01*
X16508277Y-13510174D02*
X16527325Y-13500650D01*
X16527325Y-13500650D02*
X16565420Y-13500650D01*
X16565420Y-13500650D02*
X16584468Y-13510174D01*
X16584468Y-13510174D02*
X16593991Y-13529222D01*
X16593991Y-13529222D02*
X16593991Y-13548269D01*
X16593991Y-13548269D02*
X16498753Y-13567317D01*
X16670182Y-13624460D02*
X16689230Y-13633984D01*
X16689230Y-13633984D02*
X16727325Y-13633984D01*
X16727325Y-13633984D02*
X16746372Y-13624460D01*
X16746372Y-13624460D02*
X16755896Y-13605412D01*
X16755896Y-13605412D02*
X16755896Y-13595888D01*
X16755896Y-13595888D02*
X16746372Y-13576841D01*
X16746372Y-13576841D02*
X16727325Y-13567317D01*
X16727325Y-13567317D02*
X16698753Y-13567317D01*
X16698753Y-13567317D02*
X16679706Y-13557793D01*
X16679706Y-13557793D02*
X16670182Y-13538746D01*
X16670182Y-13538746D02*
X16670182Y-13529222D01*
X16670182Y-13529222D02*
X16679706Y-13510174D01*
X16679706Y-13510174D02*
X16698753Y-13500650D01*
X16698753Y-13500650D02*
X16727325Y-13500650D01*
X16727325Y-13500650D02*
X16746372Y-13510174D01*
X16822563Y-13710174D02*
X16832087Y-13700650D01*
X16832087Y-13700650D02*
X16851134Y-13672079D01*
X16851134Y-13672079D02*
X16860658Y-13653031D01*
X16860658Y-13653031D02*
X16870182Y-13624460D01*
X16870182Y-13624460D02*
X16879706Y-13576841D01*
X16879706Y-13576841D02*
X16879706Y-13538746D01*
X16879706Y-13538746D02*
X16870182Y-13491127D01*
X16870182Y-13491127D02*
X16860658Y-13462555D01*
X16860658Y-13462555D02*
X16851134Y-13443508D01*
X16851134Y-13443508D02*
X16832087Y-13414936D01*
X16832087Y-13414936D02*
X16822563Y-13405412D01*
X17184468Y-13710174D02*
X17174944Y-13700650D01*
X17174944Y-13700650D02*
X17155896Y-13672079D01*
X17155896Y-13672079D02*
X17146373Y-13653031D01*
X17146373Y-13653031D02*
X17136849Y-13624460D01*
X17136849Y-13624460D02*
X17127325Y-13576841D01*
X17127325Y-13576841D02*
X17127325Y-13538746D01*
X17127325Y-13538746D02*
X17136849Y-13491127D01*
X17136849Y-13491127D02*
X17146373Y-13462555D01*
X17146373Y-13462555D02*
X17155896Y-13443508D01*
X17155896Y-13443508D02*
X17174944Y-13414936D01*
X17174944Y-13414936D02*
X17184468Y-13405412D01*
X17260658Y-13500650D02*
X17260658Y-13633984D01*
X17260658Y-13519698D02*
X17270182Y-13510174D01*
X17270182Y-13510174D02*
X17289230Y-13500650D01*
X17289230Y-13500650D02*
X17317801Y-13500650D01*
X17317801Y-13500650D02*
X17336849Y-13510174D01*
X17336849Y-13510174D02*
X17346373Y-13529222D01*
X17346373Y-13529222D02*
X17346373Y-13633984D01*
X17470182Y-13633984D02*
X17451134Y-13624460D01*
X17451134Y-13624460D02*
X17441611Y-13614936D01*
X17441611Y-13614936D02*
X17432087Y-13595888D01*
X17432087Y-13595888D02*
X17432087Y-13538746D01*
X17432087Y-13538746D02*
X17441611Y-13519698D01*
X17441611Y-13519698D02*
X17451134Y-13510174D01*
X17451134Y-13510174D02*
X17470182Y-13500650D01*
X17470182Y-13500650D02*
X17498754Y-13500650D01*
X17498754Y-13500650D02*
X17517801Y-13510174D01*
X17517801Y-13510174D02*
X17527325Y-13519698D01*
X17527325Y-13519698D02*
X17536849Y-13538746D01*
X17536849Y-13538746D02*
X17536849Y-13595888D01*
X17536849Y-13595888D02*
X17527325Y-13614936D01*
X17527325Y-13614936D02*
X17517801Y-13624460D01*
X17517801Y-13624460D02*
X17498754Y-13633984D01*
X17498754Y-13633984D02*
X17470182Y-13633984D01*
X17593992Y-13500650D02*
X17670182Y-13500650D01*
X17622563Y-13433984D02*
X17622563Y-13605412D01*
X17622563Y-13605412D02*
X17632087Y-13624460D01*
X17632087Y-13624460D02*
X17651134Y-13633984D01*
X17651134Y-13633984D02*
X17670182Y-13633984D01*
X17889230Y-13500650D02*
X17889230Y-13700650D01*
X17889230Y-13510174D02*
X17908277Y-13500650D01*
X17908277Y-13500650D02*
X17946373Y-13500650D01*
X17946373Y-13500650D02*
X17965420Y-13510174D01*
X17965420Y-13510174D02*
X17974944Y-13519698D01*
X17974944Y-13519698D02*
X17984468Y-13538746D01*
X17984468Y-13538746D02*
X17984468Y-13595888D01*
X17984468Y-13595888D02*
X17974944Y-13614936D01*
X17974944Y-13614936D02*
X17965420Y-13624460D01*
X17965420Y-13624460D02*
X17946373Y-13633984D01*
X17946373Y-13633984D02*
X17908277Y-13633984D01*
X17908277Y-13633984D02*
X17889230Y-13624460D01*
X18098754Y-13633984D02*
X18079706Y-13624460D01*
X18079706Y-13624460D02*
X18070182Y-13605412D01*
X18070182Y-13605412D02*
X18070182Y-13433984D01*
X18260658Y-13633984D02*
X18260658Y-13529222D01*
X18260658Y-13529222D02*
X18251135Y-13510174D01*
X18251135Y-13510174D02*
X18232087Y-13500650D01*
X18232087Y-13500650D02*
X18193992Y-13500650D01*
X18193992Y-13500650D02*
X18174944Y-13510174D01*
X18260658Y-13624460D02*
X18241611Y-13633984D01*
X18241611Y-13633984D02*
X18193992Y-13633984D01*
X18193992Y-13633984D02*
X18174944Y-13624460D01*
X18174944Y-13624460D02*
X18165420Y-13605412D01*
X18165420Y-13605412D02*
X18165420Y-13586365D01*
X18165420Y-13586365D02*
X18174944Y-13567317D01*
X18174944Y-13567317D02*
X18193992Y-13557793D01*
X18193992Y-13557793D02*
X18241611Y-13557793D01*
X18241611Y-13557793D02*
X18260658Y-13548269D01*
X18327325Y-13500650D02*
X18403515Y-13500650D01*
X18355896Y-13433984D02*
X18355896Y-13605412D01*
X18355896Y-13605412D02*
X18365420Y-13624460D01*
X18365420Y-13624460D02*
X18384468Y-13633984D01*
X18384468Y-13633984D02*
X18403515Y-13633984D01*
X18546373Y-13624460D02*
X18527325Y-13633984D01*
X18527325Y-13633984D02*
X18489230Y-13633984D01*
X18489230Y-13633984D02*
X18470182Y-13624460D01*
X18470182Y-13624460D02*
X18460658Y-13605412D01*
X18460658Y-13605412D02*
X18460658Y-13529222D01*
X18460658Y-13529222D02*
X18470182Y-13510174D01*
X18470182Y-13510174D02*
X18489230Y-13500650D01*
X18489230Y-13500650D02*
X18527325Y-13500650D01*
X18527325Y-13500650D02*
X18546373Y-13510174D01*
X18546373Y-13510174D02*
X18555896Y-13529222D01*
X18555896Y-13529222D02*
X18555896Y-13548269D01*
X18555896Y-13548269D02*
X18460658Y-13567317D01*
X18727325Y-13633984D02*
X18727325Y-13433984D01*
X18727325Y-13624460D02*
X18708277Y-13633984D01*
X18708277Y-13633984D02*
X18670182Y-13633984D01*
X18670182Y-13633984D02*
X18651135Y-13624460D01*
X18651135Y-13624460D02*
X18641611Y-13614936D01*
X18641611Y-13614936D02*
X18632087Y-13595888D01*
X18632087Y-13595888D02*
X18632087Y-13538746D01*
X18632087Y-13538746D02*
X18641611Y-13519698D01*
X18641611Y-13519698D02*
X18651135Y-13510174D01*
X18651135Y-13510174D02*
X18670182Y-13500650D01*
X18670182Y-13500650D02*
X18708277Y-13500650D01*
X18708277Y-13500650D02*
X18727325Y-13510174D01*
X18803516Y-13710174D02*
X18813039Y-13700650D01*
X18813039Y-13700650D02*
X18832087Y-13672079D01*
X18832087Y-13672079D02*
X18841611Y-13653031D01*
X18841611Y-13653031D02*
X18851135Y-13624460D01*
X18851135Y-13624460D02*
X18860658Y-13576841D01*
X18860658Y-13576841D02*
X18860658Y-13538746D01*
X18860658Y-13538746D02*
X18851135Y-13491127D01*
X18851135Y-13491127D02*
X18841611Y-13462555D01*
X18841611Y-13462555D02*
X18832087Y-13443508D01*
X18832087Y-13443508D02*
X18813039Y-13414936D01*
X18813039Y-13414936D02*
X18803516Y-13405412D01*
M02*
