%TF.GenerationSoftware,KiCad,Pcbnew,9.0.0*%
%TF.CreationDate,2025-04-09T18:23:38-07:00*%
%TF.ProjectId,PAC Board,50414320-426f-4617-9264-2e6b69636164,rev?*%
%TF.SameCoordinates,Original*%
%TF.FileFunction,Legend,Top*%
%TF.FilePolarity,Positive*%
%FSLAX46Y46*%
G04 Gerber Fmt 4.6, Leading zero omitted, Abs format (unit mm)*
G04 Created by KiCad (PCBNEW 9.0.0) date 2025-04-09 18:23:38*
%MOMM*%
%LPD*%
G01*
G04 APERTURE LIST*
G04 Aperture macros list*
%AMRoundRect*
0 Rectangle with rounded corners*
0 $1 Rounding radius*
0 $2 $3 $4 $5 $6 $7 $8 $9 X,Y pos of 4 corners*
0 Add a 4 corners polygon primitive as box body*
4,1,4,$2,$3,$4,$5,$6,$7,$8,$9,$2,$3,0*
0 Add four circle primitives for the rounded corners*
1,1,$1+$1,$2,$3*
1,1,$1+$1,$4,$5*
1,1,$1+$1,$6,$7*
1,1,$1+$1,$8,$9*
0 Add four rect primitives between the rounded corners*
20,1,$1+$1,$2,$3,$4,$5,0*
20,1,$1+$1,$4,$5,$6,$7,0*
20,1,$1+$1,$6,$7,$8,$9,0*
20,1,$1+$1,$8,$9,$2,$3,0*%
G04 Aperture macros list end*
%ADD10C,0.100000*%
%ADD11C,0.300000*%
%ADD12C,0.150000*%
%ADD13C,0.120000*%
%ADD14C,0.127000*%
%ADD15C,2.000000*%
%ADD16RoundRect,0.087500X-0.725000X-0.087500X0.725000X-0.087500X0.725000X0.087500X-0.725000X0.087500X0*%
%ADD17RoundRect,0.250000X0.550000X-1.050000X0.550000X1.050000X-0.550000X1.050000X-0.550000X-1.050000X0*%
%ADD18O,1.600000X2.600000*%
%ADD19R,1.170000X1.170000*%
%ADD20C,1.170000*%
%ADD21C,2.560000*%
%ADD22C,6.000000*%
%ADD23R,1.700000X1.700000*%
%ADD24O,1.700000X1.700000*%
%ADD25R,1.800000X1.800000*%
%ADD26C,1.800000*%
%ADD27RoundRect,0.250000X-0.550000X1.050000X-0.550000X-1.050000X0.550000X-1.050000X0.550000X1.050000X0*%
%ADD28C,1.600000*%
%ADD29O,1.600000X1.600000*%
%ADD30R,1.600000X1.600000*%
%ADD31O,1.800000X1.800000*%
%ADD32RoundRect,0.250000X-0.750000X0.750000X-0.750000X-0.750000X0.750000X-0.750000X0.750000X0.750000X0*%
%ADD33C,1.020000*%
%ADD34RoundRect,0.250001X-0.499999X-0.499999X0.499999X-0.499999X0.499999X0.499999X-0.499999X0.499999X0*%
%ADD35C,1.500000*%
%ADD36RoundRect,0.250000X0.412500X1.100000X-0.412500X1.100000X-0.412500X-1.100000X0.412500X-1.100000X0*%
G04 APERTURE END LIST*
D10*
X182256265Y-97909800D02*
X182399122Y-97957419D01*
X182399122Y-97957419D02*
X182637217Y-97957419D01*
X182637217Y-97957419D02*
X182732455Y-97909800D01*
X182732455Y-97909800D02*
X182780074Y-97862180D01*
X182780074Y-97862180D02*
X182827693Y-97766942D01*
X182827693Y-97766942D02*
X182827693Y-97671704D01*
X182827693Y-97671704D02*
X182780074Y-97576466D01*
X182780074Y-97576466D02*
X182732455Y-97528847D01*
X182732455Y-97528847D02*
X182637217Y-97481228D01*
X182637217Y-97481228D02*
X182446741Y-97433609D01*
X182446741Y-97433609D02*
X182351503Y-97385990D01*
X182351503Y-97385990D02*
X182303884Y-97338371D01*
X182303884Y-97338371D02*
X182256265Y-97243133D01*
X182256265Y-97243133D02*
X182256265Y-97147895D01*
X182256265Y-97147895D02*
X182303884Y-97052657D01*
X182303884Y-97052657D02*
X182351503Y-97005038D01*
X182351503Y-97005038D02*
X182446741Y-96957419D01*
X182446741Y-96957419D02*
X182684836Y-96957419D01*
X182684836Y-96957419D02*
X182827693Y-97005038D01*
X183113408Y-96957419D02*
X183684836Y-96957419D01*
X183399122Y-97957419D02*
X183399122Y-96957419D01*
X183970551Y-97671704D02*
X184446741Y-97671704D01*
X183875313Y-97957419D02*
X184208646Y-96957419D01*
X184208646Y-96957419D02*
X184541979Y-97957419D01*
X184732456Y-96957419D02*
X185303884Y-96957419D01*
X185018170Y-97957419D02*
X185018170Y-96957419D01*
X185637218Y-96957419D02*
X185637218Y-97766942D01*
X185637218Y-97766942D02*
X185684837Y-97862180D01*
X185684837Y-97862180D02*
X185732456Y-97909800D01*
X185732456Y-97909800D02*
X185827694Y-97957419D01*
X185827694Y-97957419D02*
X186018170Y-97957419D01*
X186018170Y-97957419D02*
X186113408Y-97909800D01*
X186113408Y-97909800D02*
X186161027Y-97862180D01*
X186161027Y-97862180D02*
X186208646Y-97766942D01*
X186208646Y-97766942D02*
X186208646Y-96957419D01*
X186637218Y-97909800D02*
X186780075Y-97957419D01*
X186780075Y-97957419D02*
X187018170Y-97957419D01*
X187018170Y-97957419D02*
X187113408Y-97909800D01*
X187113408Y-97909800D02*
X187161027Y-97862180D01*
X187161027Y-97862180D02*
X187208646Y-97766942D01*
X187208646Y-97766942D02*
X187208646Y-97671704D01*
X187208646Y-97671704D02*
X187161027Y-97576466D01*
X187161027Y-97576466D02*
X187113408Y-97528847D01*
X187113408Y-97528847D02*
X187018170Y-97481228D01*
X187018170Y-97481228D02*
X186827694Y-97433609D01*
X186827694Y-97433609D02*
X186732456Y-97385990D01*
X186732456Y-97385990D02*
X186684837Y-97338371D01*
X186684837Y-97338371D02*
X186637218Y-97243133D01*
X186637218Y-97243133D02*
X186637218Y-97147895D01*
X186637218Y-97147895D02*
X186684837Y-97052657D01*
X186684837Y-97052657D02*
X186732456Y-97005038D01*
X186732456Y-97005038D02*
X186827694Y-96957419D01*
X186827694Y-96957419D02*
X187065789Y-96957419D01*
X187065789Y-96957419D02*
X187208646Y-97005038D01*
D11*
X145857143Y-70178328D02*
X145357143Y-69464042D01*
X145000000Y-70178328D02*
X145000000Y-68678328D01*
X145000000Y-68678328D02*
X145571429Y-68678328D01*
X145571429Y-68678328D02*
X145714286Y-68749757D01*
X145714286Y-68749757D02*
X145785715Y-68821185D01*
X145785715Y-68821185D02*
X145857143Y-68964042D01*
X145857143Y-68964042D02*
X145857143Y-69178328D01*
X145857143Y-69178328D02*
X145785715Y-69321185D01*
X145785715Y-69321185D02*
X145714286Y-69392614D01*
X145714286Y-69392614D02*
X145571429Y-69464042D01*
X145571429Y-69464042D02*
X145000000Y-69464042D01*
X146500000Y-70178328D02*
X146500000Y-68678328D01*
X146500000Y-68678328D02*
X147071429Y-68678328D01*
X147071429Y-68678328D02*
X147214286Y-68749757D01*
X147214286Y-68749757D02*
X147285715Y-68821185D01*
X147285715Y-68821185D02*
X147357143Y-68964042D01*
X147357143Y-68964042D02*
X147357143Y-69178328D01*
X147357143Y-69178328D02*
X147285715Y-69321185D01*
X147285715Y-69321185D02*
X147214286Y-69392614D01*
X147214286Y-69392614D02*
X147071429Y-69464042D01*
X147071429Y-69464042D02*
X146500000Y-69464042D01*
X147928572Y-68821185D02*
X148000000Y-68749757D01*
X148000000Y-68749757D02*
X148142858Y-68678328D01*
X148142858Y-68678328D02*
X148500000Y-68678328D01*
X148500000Y-68678328D02*
X148642858Y-68749757D01*
X148642858Y-68749757D02*
X148714286Y-68821185D01*
X148714286Y-68821185D02*
X148785715Y-68964042D01*
X148785715Y-68964042D02*
X148785715Y-69106900D01*
X148785715Y-69106900D02*
X148714286Y-69321185D01*
X148714286Y-69321185D02*
X147857143Y-70178328D01*
X147857143Y-70178328D02*
X148785715Y-70178328D01*
X149714286Y-68678328D02*
X149857143Y-68678328D01*
X149857143Y-68678328D02*
X150000000Y-68749757D01*
X150000000Y-68749757D02*
X150071429Y-68821185D01*
X150071429Y-68821185D02*
X150142857Y-68964042D01*
X150142857Y-68964042D02*
X150214286Y-69249757D01*
X150214286Y-69249757D02*
X150214286Y-69606900D01*
X150214286Y-69606900D02*
X150142857Y-69892614D01*
X150142857Y-69892614D02*
X150071429Y-70035471D01*
X150071429Y-70035471D02*
X150000000Y-70106900D01*
X150000000Y-70106900D02*
X149857143Y-70178328D01*
X149857143Y-70178328D02*
X149714286Y-70178328D01*
X149714286Y-70178328D02*
X149571429Y-70106900D01*
X149571429Y-70106900D02*
X149500000Y-70035471D01*
X149500000Y-70035471D02*
X149428571Y-69892614D01*
X149428571Y-69892614D02*
X149357143Y-69606900D01*
X149357143Y-69606900D02*
X149357143Y-69249757D01*
X149357143Y-69249757D02*
X149428571Y-68964042D01*
X149428571Y-68964042D02*
X149500000Y-68821185D01*
X149500000Y-68821185D02*
X149571429Y-68749757D01*
X149571429Y-68749757D02*
X149714286Y-68678328D01*
X151500000Y-69178328D02*
X151500000Y-70178328D01*
X151142857Y-68606900D02*
X150785714Y-69678328D01*
X150785714Y-69678328D02*
X151714285Y-69678328D01*
X152571428Y-68678328D02*
X152714285Y-68678328D01*
X152714285Y-68678328D02*
X152857142Y-68749757D01*
X152857142Y-68749757D02*
X152928571Y-68821185D01*
X152928571Y-68821185D02*
X152999999Y-68964042D01*
X152999999Y-68964042D02*
X153071428Y-69249757D01*
X153071428Y-69249757D02*
X153071428Y-69606900D01*
X153071428Y-69606900D02*
X152999999Y-69892614D01*
X152999999Y-69892614D02*
X152928571Y-70035471D01*
X152928571Y-70035471D02*
X152857142Y-70106900D01*
X152857142Y-70106900D02*
X152714285Y-70178328D01*
X152714285Y-70178328D02*
X152571428Y-70178328D01*
X152571428Y-70178328D02*
X152428571Y-70106900D01*
X152428571Y-70106900D02*
X152357142Y-70035471D01*
X152357142Y-70035471D02*
X152285713Y-69892614D01*
X152285713Y-69892614D02*
X152214285Y-69606900D01*
X152214285Y-69606900D02*
X152214285Y-69249757D01*
X152214285Y-69249757D02*
X152285713Y-68964042D01*
X152285713Y-68964042D02*
X152357142Y-68821185D01*
X152357142Y-68821185D02*
X152428571Y-68749757D01*
X152428571Y-68749757D02*
X152571428Y-68678328D01*
X144464285Y-101435156D02*
X144964285Y-101435156D01*
X145178571Y-102220870D02*
X144464285Y-102220870D01*
X144464285Y-102220870D02*
X144464285Y-100720870D01*
X144464285Y-100720870D02*
X145178571Y-100720870D01*
X145607143Y-101220870D02*
X146178571Y-101220870D01*
X145821428Y-100720870D02*
X145821428Y-102006584D01*
X145821428Y-102006584D02*
X145892857Y-102149442D01*
X145892857Y-102149442D02*
X146035714Y-102220870D01*
X146035714Y-102220870D02*
X146178571Y-102220870D01*
X146678571Y-102220870D02*
X146678571Y-100720870D01*
X147321429Y-102220870D02*
X147321429Y-101435156D01*
X147321429Y-101435156D02*
X147250000Y-101292299D01*
X147250000Y-101292299D02*
X147107143Y-101220870D01*
X147107143Y-101220870D02*
X146892857Y-101220870D01*
X146892857Y-101220870D02*
X146750000Y-101292299D01*
X146750000Y-101292299D02*
X146678571Y-101363727D01*
X148607143Y-102149442D02*
X148464286Y-102220870D01*
X148464286Y-102220870D02*
X148178572Y-102220870D01*
X148178572Y-102220870D02*
X148035714Y-102149442D01*
X148035714Y-102149442D02*
X147964286Y-102006584D01*
X147964286Y-102006584D02*
X147964286Y-101435156D01*
X147964286Y-101435156D02*
X148035714Y-101292299D01*
X148035714Y-101292299D02*
X148178572Y-101220870D01*
X148178572Y-101220870D02*
X148464286Y-101220870D01*
X148464286Y-101220870D02*
X148607143Y-101292299D01*
X148607143Y-101292299D02*
X148678572Y-101435156D01*
X148678572Y-101435156D02*
X148678572Y-101578013D01*
X148678572Y-101578013D02*
X147964286Y-101720870D01*
X149321428Y-102220870D02*
X149321428Y-101220870D01*
X149321428Y-101506584D02*
X149392857Y-101363727D01*
X149392857Y-101363727D02*
X149464286Y-101292299D01*
X149464286Y-101292299D02*
X149607143Y-101220870D01*
X149607143Y-101220870D02*
X149750000Y-101220870D01*
X150249999Y-101220870D02*
X150249999Y-102220870D01*
X150249999Y-101363727D02*
X150321428Y-101292299D01*
X150321428Y-101292299D02*
X150464285Y-101220870D01*
X150464285Y-101220870D02*
X150678571Y-101220870D01*
X150678571Y-101220870D02*
X150821428Y-101292299D01*
X150821428Y-101292299D02*
X150892857Y-101435156D01*
X150892857Y-101435156D02*
X150892857Y-102220870D01*
X152178571Y-102149442D02*
X152035714Y-102220870D01*
X152035714Y-102220870D02*
X151750000Y-102220870D01*
X151750000Y-102220870D02*
X151607142Y-102149442D01*
X151607142Y-102149442D02*
X151535714Y-102006584D01*
X151535714Y-102006584D02*
X151535714Y-101435156D01*
X151535714Y-101435156D02*
X151607142Y-101292299D01*
X151607142Y-101292299D02*
X151750000Y-101220870D01*
X151750000Y-101220870D02*
X152035714Y-101220870D01*
X152035714Y-101220870D02*
X152178571Y-101292299D01*
X152178571Y-101292299D02*
X152250000Y-101435156D01*
X152250000Y-101435156D02*
X152250000Y-101578013D01*
X152250000Y-101578013D02*
X151535714Y-101720870D01*
X152678571Y-101220870D02*
X153249999Y-101220870D01*
X152892856Y-100720870D02*
X152892856Y-102006584D01*
X152892856Y-102006584D02*
X152964285Y-102149442D01*
X152964285Y-102149442D02*
X153107142Y-102220870D01*
X153107142Y-102220870D02*
X153249999Y-102220870D01*
X142928571Y-103850072D02*
X142428571Y-103850072D01*
X142428571Y-104635786D02*
X142428571Y-103135786D01*
X142428571Y-103135786D02*
X143142857Y-103135786D01*
X144285714Y-104564358D02*
X144142857Y-104635786D01*
X144142857Y-104635786D02*
X143857143Y-104635786D01*
X143857143Y-104635786D02*
X143714285Y-104564358D01*
X143714285Y-104564358D02*
X143642857Y-104421500D01*
X143642857Y-104421500D02*
X143642857Y-103850072D01*
X143642857Y-103850072D02*
X143714285Y-103707215D01*
X143714285Y-103707215D02*
X143857143Y-103635786D01*
X143857143Y-103635786D02*
X144142857Y-103635786D01*
X144142857Y-103635786D02*
X144285714Y-103707215D01*
X144285714Y-103707215D02*
X144357143Y-103850072D01*
X144357143Y-103850072D02*
X144357143Y-103992929D01*
X144357143Y-103992929D02*
X143642857Y-104135786D01*
X145642857Y-104635786D02*
X145642857Y-103850072D01*
X145642857Y-103850072D02*
X145571428Y-103707215D01*
X145571428Y-103707215D02*
X145428571Y-103635786D01*
X145428571Y-103635786D02*
X145142857Y-103635786D01*
X145142857Y-103635786D02*
X144999999Y-103707215D01*
X145642857Y-104564358D02*
X145499999Y-104635786D01*
X145499999Y-104635786D02*
X145142857Y-104635786D01*
X145142857Y-104635786D02*
X144999999Y-104564358D01*
X144999999Y-104564358D02*
X144928571Y-104421500D01*
X144928571Y-104421500D02*
X144928571Y-104278643D01*
X144928571Y-104278643D02*
X144999999Y-104135786D01*
X144999999Y-104135786D02*
X145142857Y-104064358D01*
X145142857Y-104064358D02*
X145499999Y-104064358D01*
X145499999Y-104064358D02*
X145642857Y-103992929D01*
X146142857Y-103635786D02*
X146714285Y-103635786D01*
X146357142Y-103135786D02*
X146357142Y-104421500D01*
X146357142Y-104421500D02*
X146428571Y-104564358D01*
X146428571Y-104564358D02*
X146571428Y-104635786D01*
X146571428Y-104635786D02*
X146714285Y-104635786D01*
X147214285Y-104635786D02*
X147214285Y-103135786D01*
X147857143Y-104635786D02*
X147857143Y-103850072D01*
X147857143Y-103850072D02*
X147785714Y-103707215D01*
X147785714Y-103707215D02*
X147642857Y-103635786D01*
X147642857Y-103635786D02*
X147428571Y-103635786D01*
X147428571Y-103635786D02*
X147285714Y-103707215D01*
X147285714Y-103707215D02*
X147214285Y-103778643D01*
X149142857Y-104564358D02*
X149000000Y-104635786D01*
X149000000Y-104635786D02*
X148714286Y-104635786D01*
X148714286Y-104635786D02*
X148571428Y-104564358D01*
X148571428Y-104564358D02*
X148500000Y-104421500D01*
X148500000Y-104421500D02*
X148500000Y-103850072D01*
X148500000Y-103850072D02*
X148571428Y-103707215D01*
X148571428Y-103707215D02*
X148714286Y-103635786D01*
X148714286Y-103635786D02*
X149000000Y-103635786D01*
X149000000Y-103635786D02*
X149142857Y-103707215D01*
X149142857Y-103707215D02*
X149214286Y-103850072D01*
X149214286Y-103850072D02*
X149214286Y-103992929D01*
X149214286Y-103992929D02*
X148500000Y-104135786D01*
X149857142Y-104635786D02*
X149857142Y-103635786D01*
X149857142Y-103921500D02*
X149928571Y-103778643D01*
X149928571Y-103778643D02*
X150000000Y-103707215D01*
X150000000Y-103707215D02*
X150142857Y-103635786D01*
X150142857Y-103635786D02*
X150285714Y-103635786D01*
X150642856Y-103635786D02*
X150928571Y-104635786D01*
X150928571Y-104635786D02*
X151214285Y-103921500D01*
X151214285Y-103921500D02*
X151499999Y-104635786D01*
X151499999Y-104635786D02*
X151785713Y-103635786D01*
X152357142Y-104635786D02*
X152357142Y-103635786D01*
X152357142Y-103135786D02*
X152285714Y-103207215D01*
X152285714Y-103207215D02*
X152357142Y-103278643D01*
X152357142Y-103278643D02*
X152428571Y-103207215D01*
X152428571Y-103207215D02*
X152357142Y-103135786D01*
X152357142Y-103135786D02*
X152357142Y-103278643D01*
X153071428Y-103635786D02*
X153071428Y-104635786D01*
X153071428Y-103778643D02*
X153142857Y-103707215D01*
X153142857Y-103707215D02*
X153285714Y-103635786D01*
X153285714Y-103635786D02*
X153500000Y-103635786D01*
X153500000Y-103635786D02*
X153642857Y-103707215D01*
X153642857Y-103707215D02*
X153714286Y-103850072D01*
X153714286Y-103850072D02*
X153714286Y-104635786D01*
X155071429Y-103635786D02*
X155071429Y-104850072D01*
X155071429Y-104850072D02*
X155000000Y-104992929D01*
X155000000Y-104992929D02*
X154928571Y-105064358D01*
X154928571Y-105064358D02*
X154785714Y-105135786D01*
X154785714Y-105135786D02*
X154571429Y-105135786D01*
X154571429Y-105135786D02*
X154428571Y-105064358D01*
X155071429Y-104564358D02*
X154928571Y-104635786D01*
X154928571Y-104635786D02*
X154642857Y-104635786D01*
X154642857Y-104635786D02*
X154500000Y-104564358D01*
X154500000Y-104564358D02*
X154428571Y-104492929D01*
X154428571Y-104492929D02*
X154357143Y-104350072D01*
X154357143Y-104350072D02*
X154357143Y-103921500D01*
X154357143Y-103921500D02*
X154428571Y-103778643D01*
X154428571Y-103778643D02*
X154500000Y-103707215D01*
X154500000Y-103707215D02*
X154642857Y-103635786D01*
X154642857Y-103635786D02*
X154928571Y-103635786D01*
X154928571Y-103635786D02*
X155071429Y-103707215D01*
D10*
X165952380Y-121362180D02*
X165904761Y-121409800D01*
X165904761Y-121409800D02*
X165761904Y-121457419D01*
X165761904Y-121457419D02*
X165666666Y-121457419D01*
X165666666Y-121457419D02*
X165523809Y-121409800D01*
X165523809Y-121409800D02*
X165428571Y-121314561D01*
X165428571Y-121314561D02*
X165380952Y-121219323D01*
X165380952Y-121219323D02*
X165333333Y-121028847D01*
X165333333Y-121028847D02*
X165333333Y-120885990D01*
X165333333Y-120885990D02*
X165380952Y-120695514D01*
X165380952Y-120695514D02*
X165428571Y-120600276D01*
X165428571Y-120600276D02*
X165523809Y-120505038D01*
X165523809Y-120505038D02*
X165666666Y-120457419D01*
X165666666Y-120457419D02*
X165761904Y-120457419D01*
X165761904Y-120457419D02*
X165904761Y-120505038D01*
X165904761Y-120505038D02*
X165952380Y-120552657D01*
X166333333Y-121171704D02*
X166809523Y-121171704D01*
X166238095Y-121457419D02*
X166571428Y-120457419D01*
X166571428Y-120457419D02*
X166904761Y-121457419D01*
X167238095Y-121457419D02*
X167238095Y-120457419D01*
X167238095Y-120457419D02*
X167809523Y-121457419D01*
X167809523Y-121457419D02*
X167809523Y-120457419D01*
X168761904Y-121457419D02*
X168285714Y-121457419D01*
X168285714Y-121457419D02*
X168285714Y-120457419D01*
X182208646Y-103957419D02*
X182446741Y-104957419D01*
X182446741Y-104957419D02*
X182637217Y-104243133D01*
X182637217Y-104243133D02*
X182827693Y-104957419D01*
X182827693Y-104957419D02*
X183065789Y-103957419D01*
X183399122Y-104671704D02*
X183875312Y-104671704D01*
X183303884Y-104957419D02*
X183637217Y-103957419D01*
X183637217Y-103957419D02*
X183970550Y-104957419D01*
X184875312Y-104957419D02*
X184541979Y-104481228D01*
X184303884Y-104957419D02*
X184303884Y-103957419D01*
X184303884Y-103957419D02*
X184684836Y-103957419D01*
X184684836Y-103957419D02*
X184780074Y-104005038D01*
X184780074Y-104005038D02*
X184827693Y-104052657D01*
X184827693Y-104052657D02*
X184875312Y-104147895D01*
X184875312Y-104147895D02*
X184875312Y-104290752D01*
X184875312Y-104290752D02*
X184827693Y-104385990D01*
X184827693Y-104385990D02*
X184780074Y-104433609D01*
X184780074Y-104433609D02*
X184684836Y-104481228D01*
X184684836Y-104481228D02*
X184303884Y-104481228D01*
X185303884Y-104957419D02*
X185303884Y-103957419D01*
X185303884Y-103957419D02*
X185875312Y-104957419D01*
X185875312Y-104957419D02*
X185875312Y-103957419D01*
X186351503Y-104957419D02*
X186351503Y-103957419D01*
X186827693Y-104957419D02*
X186827693Y-103957419D01*
X186827693Y-103957419D02*
X187399121Y-104957419D01*
X187399121Y-104957419D02*
X187399121Y-103957419D01*
X188399121Y-104005038D02*
X188303883Y-103957419D01*
X188303883Y-103957419D02*
X188161026Y-103957419D01*
X188161026Y-103957419D02*
X188018169Y-104005038D01*
X188018169Y-104005038D02*
X187922931Y-104100276D01*
X187922931Y-104100276D02*
X187875312Y-104195514D01*
X187875312Y-104195514D02*
X187827693Y-104385990D01*
X187827693Y-104385990D02*
X187827693Y-104528847D01*
X187827693Y-104528847D02*
X187875312Y-104719323D01*
X187875312Y-104719323D02*
X187922931Y-104814561D01*
X187922931Y-104814561D02*
X188018169Y-104909800D01*
X188018169Y-104909800D02*
X188161026Y-104957419D01*
X188161026Y-104957419D02*
X188256264Y-104957419D01*
X188256264Y-104957419D02*
X188399121Y-104909800D01*
X188399121Y-104909800D02*
X188446740Y-104862180D01*
X188446740Y-104862180D02*
X188446740Y-104528847D01*
X188446740Y-104528847D02*
X188256264Y-104528847D01*
X127524687Y-119632531D02*
X127524687Y-118632531D01*
X127524687Y-119108721D02*
X128096115Y-119108721D01*
X128096115Y-119632531D02*
X128096115Y-118632531D01*
X126286591Y-121900038D02*
X126191353Y-121852419D01*
X126191353Y-121852419D02*
X126048496Y-121852419D01*
X126048496Y-121852419D02*
X125905639Y-121900038D01*
X125905639Y-121900038D02*
X125810401Y-121995276D01*
X125810401Y-121995276D02*
X125762782Y-122090514D01*
X125762782Y-122090514D02*
X125715163Y-122280990D01*
X125715163Y-122280990D02*
X125715163Y-122423847D01*
X125715163Y-122423847D02*
X125762782Y-122614323D01*
X125762782Y-122614323D02*
X125810401Y-122709561D01*
X125810401Y-122709561D02*
X125905639Y-122804800D01*
X125905639Y-122804800D02*
X126048496Y-122852419D01*
X126048496Y-122852419D02*
X126143734Y-122852419D01*
X126143734Y-122852419D02*
X126286591Y-122804800D01*
X126286591Y-122804800D02*
X126334210Y-122757180D01*
X126334210Y-122757180D02*
X126334210Y-122423847D01*
X126334210Y-122423847D02*
X126143734Y-122423847D01*
X126762782Y-122185752D02*
X126762782Y-122852419D01*
X126762782Y-122280990D02*
X126810401Y-122233371D01*
X126810401Y-122233371D02*
X126905639Y-122185752D01*
X126905639Y-122185752D02*
X127048496Y-122185752D01*
X127048496Y-122185752D02*
X127143734Y-122233371D01*
X127143734Y-122233371D02*
X127191353Y-122328609D01*
X127191353Y-122328609D02*
X127191353Y-122852419D01*
X128096115Y-122852419D02*
X128096115Y-121852419D01*
X128096115Y-122804800D02*
X128000877Y-122852419D01*
X128000877Y-122852419D02*
X127810401Y-122852419D01*
X127810401Y-122852419D02*
X127715163Y-122804800D01*
X127715163Y-122804800D02*
X127667544Y-122757180D01*
X127667544Y-122757180D02*
X127619925Y-122661942D01*
X127619925Y-122661942D02*
X127619925Y-122376228D01*
X127619925Y-122376228D02*
X127667544Y-122280990D01*
X127667544Y-122280990D02*
X127715163Y-122233371D01*
X127715163Y-122233371D02*
X127810401Y-122185752D01*
X127810401Y-122185752D02*
X128000877Y-122185752D01*
X128000877Y-122185752D02*
X128096115Y-122233371D01*
X128238972Y-126072307D02*
X127762782Y-126072307D01*
X127762782Y-126072307D02*
X127762782Y-125072307D01*
X190599999Y-128262180D02*
X190552380Y-128309800D01*
X190552380Y-128309800D02*
X190409523Y-128357419D01*
X190409523Y-128357419D02*
X190314285Y-128357419D01*
X190314285Y-128357419D02*
X190171428Y-128309800D01*
X190171428Y-128309800D02*
X190076190Y-128214561D01*
X190076190Y-128214561D02*
X190028571Y-128119323D01*
X190028571Y-128119323D02*
X189980952Y-127928847D01*
X189980952Y-127928847D02*
X189980952Y-127785990D01*
X189980952Y-127785990D02*
X190028571Y-127595514D01*
X190028571Y-127595514D02*
X190076190Y-127500276D01*
X190076190Y-127500276D02*
X190171428Y-127405038D01*
X190171428Y-127405038D02*
X190314285Y-127357419D01*
X190314285Y-127357419D02*
X190409523Y-127357419D01*
X190409523Y-127357419D02*
X190552380Y-127405038D01*
X190552380Y-127405038D02*
X190599999Y-127452657D01*
X190980952Y-128071704D02*
X191457142Y-128071704D01*
X190885714Y-128357419D02*
X191219047Y-127357419D01*
X191219047Y-127357419D02*
X191552380Y-128357419D01*
X191885714Y-128357419D02*
X191885714Y-127357419D01*
X191885714Y-127357419D02*
X192457142Y-128357419D01*
X192457142Y-128357419D02*
X192457142Y-127357419D01*
X193647619Y-127452657D02*
X193695238Y-127405038D01*
X193695238Y-127405038D02*
X193790476Y-127357419D01*
X193790476Y-127357419D02*
X194028571Y-127357419D01*
X194028571Y-127357419D02*
X194123809Y-127405038D01*
X194123809Y-127405038D02*
X194171428Y-127452657D01*
X194171428Y-127452657D02*
X194219047Y-127547895D01*
X194219047Y-127547895D02*
X194219047Y-127643133D01*
X194219047Y-127643133D02*
X194171428Y-127785990D01*
X194171428Y-127785990D02*
X193600000Y-128357419D01*
X193600000Y-128357419D02*
X194219047Y-128357419D01*
X144009523Y-126957419D02*
X144580951Y-126957419D01*
X144295237Y-127957419D02*
X144295237Y-126957419D01*
X145057142Y-127957419D02*
X144961904Y-127909800D01*
X144961904Y-127909800D02*
X144914285Y-127862180D01*
X144914285Y-127862180D02*
X144866666Y-127766942D01*
X144866666Y-127766942D02*
X144866666Y-127481228D01*
X144866666Y-127481228D02*
X144914285Y-127385990D01*
X144914285Y-127385990D02*
X144961904Y-127338371D01*
X144961904Y-127338371D02*
X145057142Y-127290752D01*
X145057142Y-127290752D02*
X145199999Y-127290752D01*
X145199999Y-127290752D02*
X145295237Y-127338371D01*
X145295237Y-127338371D02*
X145342856Y-127385990D01*
X145342856Y-127385990D02*
X145390475Y-127481228D01*
X145390475Y-127481228D02*
X145390475Y-127766942D01*
X145390475Y-127766942D02*
X145342856Y-127862180D01*
X145342856Y-127862180D02*
X145295237Y-127909800D01*
X145295237Y-127909800D02*
X145199999Y-127957419D01*
X145199999Y-127957419D02*
X145057142Y-127957419D01*
X147152380Y-127957419D02*
X146819047Y-127481228D01*
X146580952Y-127957419D02*
X146580952Y-126957419D01*
X146580952Y-126957419D02*
X146961904Y-126957419D01*
X146961904Y-126957419D02*
X147057142Y-127005038D01*
X147057142Y-127005038D02*
X147104761Y-127052657D01*
X147104761Y-127052657D02*
X147152380Y-127147895D01*
X147152380Y-127147895D02*
X147152380Y-127290752D01*
X147152380Y-127290752D02*
X147104761Y-127385990D01*
X147104761Y-127385990D02*
X147057142Y-127433609D01*
X147057142Y-127433609D02*
X146961904Y-127481228D01*
X146961904Y-127481228D02*
X146580952Y-127481228D01*
X147961904Y-127909800D02*
X147866666Y-127957419D01*
X147866666Y-127957419D02*
X147676190Y-127957419D01*
X147676190Y-127957419D02*
X147580952Y-127909800D01*
X147580952Y-127909800D02*
X147533333Y-127814561D01*
X147533333Y-127814561D02*
X147533333Y-127433609D01*
X147533333Y-127433609D02*
X147580952Y-127338371D01*
X147580952Y-127338371D02*
X147676190Y-127290752D01*
X147676190Y-127290752D02*
X147866666Y-127290752D01*
X147866666Y-127290752D02*
X147961904Y-127338371D01*
X147961904Y-127338371D02*
X148009523Y-127433609D01*
X148009523Y-127433609D02*
X148009523Y-127528847D01*
X148009523Y-127528847D02*
X147533333Y-127624085D01*
X148580952Y-127957419D02*
X148485714Y-127909800D01*
X148485714Y-127909800D02*
X148438095Y-127814561D01*
X148438095Y-127814561D02*
X148438095Y-126957419D01*
X149390476Y-127957419D02*
X149390476Y-127433609D01*
X149390476Y-127433609D02*
X149342857Y-127338371D01*
X149342857Y-127338371D02*
X149247619Y-127290752D01*
X149247619Y-127290752D02*
X149057143Y-127290752D01*
X149057143Y-127290752D02*
X148961905Y-127338371D01*
X149390476Y-127909800D02*
X149295238Y-127957419D01*
X149295238Y-127957419D02*
X149057143Y-127957419D01*
X149057143Y-127957419D02*
X148961905Y-127909800D01*
X148961905Y-127909800D02*
X148914286Y-127814561D01*
X148914286Y-127814561D02*
X148914286Y-127719323D01*
X148914286Y-127719323D02*
X148961905Y-127624085D01*
X148961905Y-127624085D02*
X149057143Y-127576466D01*
X149057143Y-127576466D02*
X149295238Y-127576466D01*
X149295238Y-127576466D02*
X149390476Y-127528847D01*
X149771429Y-127290752D02*
X150009524Y-127957419D01*
X150247619Y-127290752D02*
X150009524Y-127957419D01*
X150009524Y-127957419D02*
X149914286Y-128195514D01*
X149914286Y-128195514D02*
X149866667Y-128243133D01*
X149866667Y-128243133D02*
X149771429Y-128290752D01*
X151723810Y-127433609D02*
X151866667Y-127481228D01*
X151866667Y-127481228D02*
X151914286Y-127528847D01*
X151914286Y-127528847D02*
X151961905Y-127624085D01*
X151961905Y-127624085D02*
X151961905Y-127766942D01*
X151961905Y-127766942D02*
X151914286Y-127862180D01*
X151914286Y-127862180D02*
X151866667Y-127909800D01*
X151866667Y-127909800D02*
X151771429Y-127957419D01*
X151771429Y-127957419D02*
X151390477Y-127957419D01*
X151390477Y-127957419D02*
X151390477Y-126957419D01*
X151390477Y-126957419D02*
X151723810Y-126957419D01*
X151723810Y-126957419D02*
X151819048Y-127005038D01*
X151819048Y-127005038D02*
X151866667Y-127052657D01*
X151866667Y-127052657D02*
X151914286Y-127147895D01*
X151914286Y-127147895D02*
X151914286Y-127243133D01*
X151914286Y-127243133D02*
X151866667Y-127338371D01*
X151866667Y-127338371D02*
X151819048Y-127385990D01*
X151819048Y-127385990D02*
X151723810Y-127433609D01*
X151723810Y-127433609D02*
X151390477Y-127433609D01*
X152533334Y-127957419D02*
X152438096Y-127909800D01*
X152438096Y-127909800D02*
X152390477Y-127862180D01*
X152390477Y-127862180D02*
X152342858Y-127766942D01*
X152342858Y-127766942D02*
X152342858Y-127481228D01*
X152342858Y-127481228D02*
X152390477Y-127385990D01*
X152390477Y-127385990D02*
X152438096Y-127338371D01*
X152438096Y-127338371D02*
X152533334Y-127290752D01*
X152533334Y-127290752D02*
X152676191Y-127290752D01*
X152676191Y-127290752D02*
X152771429Y-127338371D01*
X152771429Y-127338371D02*
X152819048Y-127385990D01*
X152819048Y-127385990D02*
X152866667Y-127481228D01*
X152866667Y-127481228D02*
X152866667Y-127766942D01*
X152866667Y-127766942D02*
X152819048Y-127862180D01*
X152819048Y-127862180D02*
X152771429Y-127909800D01*
X152771429Y-127909800D02*
X152676191Y-127957419D01*
X152676191Y-127957419D02*
X152533334Y-127957419D01*
X153723810Y-127957419D02*
X153723810Y-127433609D01*
X153723810Y-127433609D02*
X153676191Y-127338371D01*
X153676191Y-127338371D02*
X153580953Y-127290752D01*
X153580953Y-127290752D02*
X153390477Y-127290752D01*
X153390477Y-127290752D02*
X153295239Y-127338371D01*
X153723810Y-127909800D02*
X153628572Y-127957419D01*
X153628572Y-127957419D02*
X153390477Y-127957419D01*
X153390477Y-127957419D02*
X153295239Y-127909800D01*
X153295239Y-127909800D02*
X153247620Y-127814561D01*
X153247620Y-127814561D02*
X153247620Y-127719323D01*
X153247620Y-127719323D02*
X153295239Y-127624085D01*
X153295239Y-127624085D02*
X153390477Y-127576466D01*
X153390477Y-127576466D02*
X153628572Y-127576466D01*
X153628572Y-127576466D02*
X153723810Y-127528847D01*
X154200001Y-127957419D02*
X154200001Y-127290752D01*
X154200001Y-127481228D02*
X154247620Y-127385990D01*
X154247620Y-127385990D02*
X154295239Y-127338371D01*
X154295239Y-127338371D02*
X154390477Y-127290752D01*
X154390477Y-127290752D02*
X154485715Y-127290752D01*
X155247620Y-127957419D02*
X155247620Y-126957419D01*
X155247620Y-127909800D02*
X155152382Y-127957419D01*
X155152382Y-127957419D02*
X154961906Y-127957419D01*
X154961906Y-127957419D02*
X154866668Y-127909800D01*
X154866668Y-127909800D02*
X154819049Y-127862180D01*
X154819049Y-127862180D02*
X154771430Y-127766942D01*
X154771430Y-127766942D02*
X154771430Y-127481228D01*
X154771430Y-127481228D02*
X154819049Y-127385990D01*
X154819049Y-127385990D02*
X154866668Y-127338371D01*
X154866668Y-127338371D02*
X154961906Y-127290752D01*
X154961906Y-127290752D02*
X155152382Y-127290752D01*
X155152382Y-127290752D02*
X155247620Y-127338371D01*
X193821429Y-113207419D02*
X194440476Y-113207419D01*
X194440476Y-113207419D02*
X194107143Y-113588371D01*
X194107143Y-113588371D02*
X194250000Y-113588371D01*
X194250000Y-113588371D02*
X194345238Y-113635990D01*
X194345238Y-113635990D02*
X194392857Y-113683609D01*
X194392857Y-113683609D02*
X194440476Y-113778847D01*
X194440476Y-113778847D02*
X194440476Y-114016942D01*
X194440476Y-114016942D02*
X194392857Y-114112180D01*
X194392857Y-114112180D02*
X194345238Y-114159800D01*
X194345238Y-114159800D02*
X194250000Y-114207419D01*
X194250000Y-114207419D02*
X193964286Y-114207419D01*
X193964286Y-114207419D02*
X193869048Y-114159800D01*
X193869048Y-114159800D02*
X193821429Y-114112180D01*
X194869048Y-114112180D02*
X194916667Y-114159800D01*
X194916667Y-114159800D02*
X194869048Y-114207419D01*
X194869048Y-114207419D02*
X194821429Y-114159800D01*
X194821429Y-114159800D02*
X194869048Y-114112180D01*
X194869048Y-114112180D02*
X194869048Y-114207419D01*
X195250000Y-113207419D02*
X195869047Y-113207419D01*
X195869047Y-113207419D02*
X195535714Y-113588371D01*
X195535714Y-113588371D02*
X195678571Y-113588371D01*
X195678571Y-113588371D02*
X195773809Y-113635990D01*
X195773809Y-113635990D02*
X195821428Y-113683609D01*
X195821428Y-113683609D02*
X195869047Y-113778847D01*
X195869047Y-113778847D02*
X195869047Y-114016942D01*
X195869047Y-114016942D02*
X195821428Y-114112180D01*
X195821428Y-114112180D02*
X195773809Y-114159800D01*
X195773809Y-114159800D02*
X195678571Y-114207419D01*
X195678571Y-114207419D02*
X195392857Y-114207419D01*
X195392857Y-114207419D02*
X195297619Y-114159800D01*
X195297619Y-114159800D02*
X195250000Y-114112180D01*
X196202381Y-113540752D02*
X196440476Y-114207419D01*
X196440476Y-114207419D02*
X196678571Y-113540752D01*
X185273808Y-49207419D02*
X184797618Y-49207419D01*
X184797618Y-49207419D02*
X184749999Y-49683609D01*
X184749999Y-49683609D02*
X184797618Y-49635990D01*
X184797618Y-49635990D02*
X184892856Y-49588371D01*
X184892856Y-49588371D02*
X185130951Y-49588371D01*
X185130951Y-49588371D02*
X185226189Y-49635990D01*
X185226189Y-49635990D02*
X185273808Y-49683609D01*
X185273808Y-49683609D02*
X185321427Y-49778847D01*
X185321427Y-49778847D02*
X185321427Y-50016942D01*
X185321427Y-50016942D02*
X185273808Y-50112180D01*
X185273808Y-50112180D02*
X185226189Y-50159800D01*
X185226189Y-50159800D02*
X185130951Y-50207419D01*
X185130951Y-50207419D02*
X184892856Y-50207419D01*
X184892856Y-50207419D02*
X184797618Y-50159800D01*
X184797618Y-50159800D02*
X184749999Y-50112180D01*
X185654761Y-49540752D02*
X185892856Y-50207419D01*
X185892856Y-50207419D02*
X186130951Y-49540752D01*
X187273809Y-50207419D02*
X187273809Y-49207419D01*
X187273809Y-49207419D02*
X187654761Y-49207419D01*
X187654761Y-49207419D02*
X187749999Y-49255038D01*
X187749999Y-49255038D02*
X187797618Y-49302657D01*
X187797618Y-49302657D02*
X187845237Y-49397895D01*
X187845237Y-49397895D02*
X187845237Y-49540752D01*
X187845237Y-49540752D02*
X187797618Y-49635990D01*
X187797618Y-49635990D02*
X187749999Y-49683609D01*
X187749999Y-49683609D02*
X187654761Y-49731228D01*
X187654761Y-49731228D02*
X187273809Y-49731228D01*
X188416666Y-50207419D02*
X188321428Y-50159800D01*
X188321428Y-50159800D02*
X188273809Y-50112180D01*
X188273809Y-50112180D02*
X188226190Y-50016942D01*
X188226190Y-50016942D02*
X188226190Y-49731228D01*
X188226190Y-49731228D02*
X188273809Y-49635990D01*
X188273809Y-49635990D02*
X188321428Y-49588371D01*
X188321428Y-49588371D02*
X188416666Y-49540752D01*
X188416666Y-49540752D02*
X188559523Y-49540752D01*
X188559523Y-49540752D02*
X188654761Y-49588371D01*
X188654761Y-49588371D02*
X188702380Y-49635990D01*
X188702380Y-49635990D02*
X188749999Y-49731228D01*
X188749999Y-49731228D02*
X188749999Y-50016942D01*
X188749999Y-50016942D02*
X188702380Y-50112180D01*
X188702380Y-50112180D02*
X188654761Y-50159800D01*
X188654761Y-50159800D02*
X188559523Y-50207419D01*
X188559523Y-50207419D02*
X188416666Y-50207419D01*
X189083333Y-49540752D02*
X189273809Y-50207419D01*
X189273809Y-50207419D02*
X189464285Y-49731228D01*
X189464285Y-49731228D02*
X189654761Y-50207419D01*
X189654761Y-50207419D02*
X189845237Y-49540752D01*
X190607142Y-50159800D02*
X190511904Y-50207419D01*
X190511904Y-50207419D02*
X190321428Y-50207419D01*
X190321428Y-50207419D02*
X190226190Y-50159800D01*
X190226190Y-50159800D02*
X190178571Y-50064561D01*
X190178571Y-50064561D02*
X190178571Y-49683609D01*
X190178571Y-49683609D02*
X190226190Y-49588371D01*
X190226190Y-49588371D02*
X190321428Y-49540752D01*
X190321428Y-49540752D02*
X190511904Y-49540752D01*
X190511904Y-49540752D02*
X190607142Y-49588371D01*
X190607142Y-49588371D02*
X190654761Y-49683609D01*
X190654761Y-49683609D02*
X190654761Y-49778847D01*
X190654761Y-49778847D02*
X190178571Y-49874085D01*
X191083333Y-50207419D02*
X191083333Y-49540752D01*
X191083333Y-49731228D02*
X191130952Y-49635990D01*
X191130952Y-49635990D02*
X191178571Y-49588371D01*
X191178571Y-49588371D02*
X191273809Y-49540752D01*
X191273809Y-49540752D02*
X191369047Y-49540752D01*
X192797619Y-49683609D02*
X192940476Y-49731228D01*
X192940476Y-49731228D02*
X192988095Y-49778847D01*
X192988095Y-49778847D02*
X193035714Y-49874085D01*
X193035714Y-49874085D02*
X193035714Y-50016942D01*
X193035714Y-50016942D02*
X192988095Y-50112180D01*
X192988095Y-50112180D02*
X192940476Y-50159800D01*
X192940476Y-50159800D02*
X192845238Y-50207419D01*
X192845238Y-50207419D02*
X192464286Y-50207419D01*
X192464286Y-50207419D02*
X192464286Y-49207419D01*
X192464286Y-49207419D02*
X192797619Y-49207419D01*
X192797619Y-49207419D02*
X192892857Y-49255038D01*
X192892857Y-49255038D02*
X192940476Y-49302657D01*
X192940476Y-49302657D02*
X192988095Y-49397895D01*
X192988095Y-49397895D02*
X192988095Y-49493133D01*
X192988095Y-49493133D02*
X192940476Y-49588371D01*
X192940476Y-49588371D02*
X192892857Y-49635990D01*
X192892857Y-49635990D02*
X192797619Y-49683609D01*
X192797619Y-49683609D02*
X192464286Y-49683609D01*
X193892857Y-49540752D02*
X193892857Y-50207419D01*
X193464286Y-49540752D02*
X193464286Y-50064561D01*
X193464286Y-50064561D02*
X193511905Y-50159800D01*
X193511905Y-50159800D02*
X193607143Y-50207419D01*
X193607143Y-50207419D02*
X193750000Y-50207419D01*
X193750000Y-50207419D02*
X193845238Y-50159800D01*
X193845238Y-50159800D02*
X193892857Y-50112180D01*
X194321429Y-50159800D02*
X194416667Y-50207419D01*
X194416667Y-50207419D02*
X194607143Y-50207419D01*
X194607143Y-50207419D02*
X194702381Y-50159800D01*
X194702381Y-50159800D02*
X194750000Y-50064561D01*
X194750000Y-50064561D02*
X194750000Y-50016942D01*
X194750000Y-50016942D02*
X194702381Y-49921704D01*
X194702381Y-49921704D02*
X194607143Y-49874085D01*
X194607143Y-49874085D02*
X194464286Y-49874085D01*
X194464286Y-49874085D02*
X194369048Y-49826466D01*
X194369048Y-49826466D02*
X194321429Y-49731228D01*
X194321429Y-49731228D02*
X194321429Y-49683609D01*
X194321429Y-49683609D02*
X194369048Y-49588371D01*
X194369048Y-49588371D02*
X194464286Y-49540752D01*
X194464286Y-49540752D02*
X194607143Y-49540752D01*
X194607143Y-49540752D02*
X194702381Y-49588371D01*
X194303884Y-104433609D02*
X194637217Y-104433609D01*
X194780074Y-104957419D02*
X194303884Y-104957419D01*
X194303884Y-104957419D02*
X194303884Y-103957419D01*
X194303884Y-103957419D02*
X194780074Y-103957419D01*
X195780074Y-104957419D02*
X195446741Y-104481228D01*
X195208646Y-104957419D02*
X195208646Y-103957419D01*
X195208646Y-103957419D02*
X195589598Y-103957419D01*
X195589598Y-103957419D02*
X195684836Y-104005038D01*
X195684836Y-104005038D02*
X195732455Y-104052657D01*
X195732455Y-104052657D02*
X195780074Y-104147895D01*
X195780074Y-104147895D02*
X195780074Y-104290752D01*
X195780074Y-104290752D02*
X195732455Y-104385990D01*
X195732455Y-104385990D02*
X195684836Y-104433609D01*
X195684836Y-104433609D02*
X195589598Y-104481228D01*
X195589598Y-104481228D02*
X195208646Y-104481228D01*
X196780074Y-104957419D02*
X196446741Y-104481228D01*
X196208646Y-104957419D02*
X196208646Y-103957419D01*
X196208646Y-103957419D02*
X196589598Y-103957419D01*
X196589598Y-103957419D02*
X196684836Y-104005038D01*
X196684836Y-104005038D02*
X196732455Y-104052657D01*
X196732455Y-104052657D02*
X196780074Y-104147895D01*
X196780074Y-104147895D02*
X196780074Y-104290752D01*
X196780074Y-104290752D02*
X196732455Y-104385990D01*
X196732455Y-104385990D02*
X196684836Y-104433609D01*
X196684836Y-104433609D02*
X196589598Y-104481228D01*
X196589598Y-104481228D02*
X196208646Y-104481228D01*
X197399122Y-103957419D02*
X197589598Y-103957419D01*
X197589598Y-103957419D02*
X197684836Y-104005038D01*
X197684836Y-104005038D02*
X197780074Y-104100276D01*
X197780074Y-104100276D02*
X197827693Y-104290752D01*
X197827693Y-104290752D02*
X197827693Y-104624085D01*
X197827693Y-104624085D02*
X197780074Y-104814561D01*
X197780074Y-104814561D02*
X197684836Y-104909800D01*
X197684836Y-104909800D02*
X197589598Y-104957419D01*
X197589598Y-104957419D02*
X197399122Y-104957419D01*
X197399122Y-104957419D02*
X197303884Y-104909800D01*
X197303884Y-104909800D02*
X197208646Y-104814561D01*
X197208646Y-104814561D02*
X197161027Y-104624085D01*
X197161027Y-104624085D02*
X197161027Y-104290752D01*
X197161027Y-104290752D02*
X197208646Y-104100276D01*
X197208646Y-104100276D02*
X197303884Y-104005038D01*
X197303884Y-104005038D02*
X197399122Y-103957419D01*
X198827693Y-104957419D02*
X198494360Y-104481228D01*
X198256265Y-104957419D02*
X198256265Y-103957419D01*
X198256265Y-103957419D02*
X198637217Y-103957419D01*
X198637217Y-103957419D02*
X198732455Y-104005038D01*
X198732455Y-104005038D02*
X198780074Y-104052657D01*
X198780074Y-104052657D02*
X198827693Y-104147895D01*
X198827693Y-104147895D02*
X198827693Y-104290752D01*
X198827693Y-104290752D02*
X198780074Y-104385990D01*
X198780074Y-104385990D02*
X198732455Y-104433609D01*
X198732455Y-104433609D02*
X198637217Y-104481228D01*
X198637217Y-104481228D02*
X198256265Y-104481228D01*
X189857142Y-113207419D02*
X189380952Y-113207419D01*
X189380952Y-113207419D02*
X189333333Y-113683609D01*
X189333333Y-113683609D02*
X189380952Y-113635990D01*
X189380952Y-113635990D02*
X189476190Y-113588371D01*
X189476190Y-113588371D02*
X189714285Y-113588371D01*
X189714285Y-113588371D02*
X189809523Y-113635990D01*
X189809523Y-113635990D02*
X189857142Y-113683609D01*
X189857142Y-113683609D02*
X189904761Y-113778847D01*
X189904761Y-113778847D02*
X189904761Y-114016942D01*
X189904761Y-114016942D02*
X189857142Y-114112180D01*
X189857142Y-114112180D02*
X189809523Y-114159800D01*
X189809523Y-114159800D02*
X189714285Y-114207419D01*
X189714285Y-114207419D02*
X189476190Y-114207419D01*
X189476190Y-114207419D02*
X189380952Y-114159800D01*
X189380952Y-114159800D02*
X189333333Y-114112180D01*
X190238095Y-113540752D02*
X190476190Y-114207419D01*
X190476190Y-114207419D02*
X190714285Y-113540752D01*
X194303884Y-97957419D02*
X194303884Y-96957419D01*
X194303884Y-96957419D02*
X194684836Y-96957419D01*
X194684836Y-96957419D02*
X194780074Y-97005038D01*
X194780074Y-97005038D02*
X194827693Y-97052657D01*
X194827693Y-97052657D02*
X194875312Y-97147895D01*
X194875312Y-97147895D02*
X194875312Y-97290752D01*
X194875312Y-97290752D02*
X194827693Y-97385990D01*
X194827693Y-97385990D02*
X194780074Y-97433609D01*
X194780074Y-97433609D02*
X194684836Y-97481228D01*
X194684836Y-97481228D02*
X194303884Y-97481228D01*
X195494360Y-96957419D02*
X195684836Y-96957419D01*
X195684836Y-96957419D02*
X195780074Y-97005038D01*
X195780074Y-97005038D02*
X195875312Y-97100276D01*
X195875312Y-97100276D02*
X195922931Y-97290752D01*
X195922931Y-97290752D02*
X195922931Y-97624085D01*
X195922931Y-97624085D02*
X195875312Y-97814561D01*
X195875312Y-97814561D02*
X195780074Y-97909800D01*
X195780074Y-97909800D02*
X195684836Y-97957419D01*
X195684836Y-97957419D02*
X195494360Y-97957419D01*
X195494360Y-97957419D02*
X195399122Y-97909800D01*
X195399122Y-97909800D02*
X195303884Y-97814561D01*
X195303884Y-97814561D02*
X195256265Y-97624085D01*
X195256265Y-97624085D02*
X195256265Y-97290752D01*
X195256265Y-97290752D02*
X195303884Y-97100276D01*
X195303884Y-97100276D02*
X195399122Y-97005038D01*
X195399122Y-97005038D02*
X195494360Y-96957419D01*
X196256265Y-96957419D02*
X196494360Y-97957419D01*
X196494360Y-97957419D02*
X196684836Y-97243133D01*
X196684836Y-97243133D02*
X196875312Y-97957419D01*
X196875312Y-97957419D02*
X197113408Y-96957419D01*
X197494360Y-97433609D02*
X197827693Y-97433609D01*
X197970550Y-97957419D02*
X197494360Y-97957419D01*
X197494360Y-97957419D02*
X197494360Y-96957419D01*
X197494360Y-96957419D02*
X197970550Y-96957419D01*
X198970550Y-97957419D02*
X198637217Y-97481228D01*
X198399122Y-97957419D02*
X198399122Y-96957419D01*
X198399122Y-96957419D02*
X198780074Y-96957419D01*
X198780074Y-96957419D02*
X198875312Y-97005038D01*
X198875312Y-97005038D02*
X198922931Y-97052657D01*
X198922931Y-97052657D02*
X198970550Y-97147895D01*
X198970550Y-97147895D02*
X198970550Y-97290752D01*
X198970550Y-97290752D02*
X198922931Y-97385990D01*
X198922931Y-97385990D02*
X198875312Y-97433609D01*
X198875312Y-97433609D02*
X198780074Y-97481228D01*
X198780074Y-97481228D02*
X198399122Y-97481228D01*
X177799999Y-128462180D02*
X177752380Y-128509800D01*
X177752380Y-128509800D02*
X177609523Y-128557419D01*
X177609523Y-128557419D02*
X177514285Y-128557419D01*
X177514285Y-128557419D02*
X177371428Y-128509800D01*
X177371428Y-128509800D02*
X177276190Y-128414561D01*
X177276190Y-128414561D02*
X177228571Y-128319323D01*
X177228571Y-128319323D02*
X177180952Y-128128847D01*
X177180952Y-128128847D02*
X177180952Y-127985990D01*
X177180952Y-127985990D02*
X177228571Y-127795514D01*
X177228571Y-127795514D02*
X177276190Y-127700276D01*
X177276190Y-127700276D02*
X177371428Y-127605038D01*
X177371428Y-127605038D02*
X177514285Y-127557419D01*
X177514285Y-127557419D02*
X177609523Y-127557419D01*
X177609523Y-127557419D02*
X177752380Y-127605038D01*
X177752380Y-127605038D02*
X177799999Y-127652657D01*
X178180952Y-128271704D02*
X178657142Y-128271704D01*
X178085714Y-128557419D02*
X178419047Y-127557419D01*
X178419047Y-127557419D02*
X178752380Y-128557419D01*
X179085714Y-128557419D02*
X179085714Y-127557419D01*
X179085714Y-127557419D02*
X179657142Y-128557419D01*
X179657142Y-128557419D02*
X179657142Y-127557419D01*
X181419047Y-128557419D02*
X180847619Y-128557419D01*
X181133333Y-128557419D02*
X181133333Y-127557419D01*
X181133333Y-127557419D02*
X181038095Y-127700276D01*
X181038095Y-127700276D02*
X180942857Y-127795514D01*
X180942857Y-127795514D02*
X180847619Y-127843133D01*
X184488095Y-113255038D02*
X184392857Y-113207419D01*
X184392857Y-113207419D02*
X184250000Y-113207419D01*
X184250000Y-113207419D02*
X184107143Y-113255038D01*
X184107143Y-113255038D02*
X184011905Y-113350276D01*
X184011905Y-113350276D02*
X183964286Y-113445514D01*
X183964286Y-113445514D02*
X183916667Y-113635990D01*
X183916667Y-113635990D02*
X183916667Y-113778847D01*
X183916667Y-113778847D02*
X183964286Y-113969323D01*
X183964286Y-113969323D02*
X184011905Y-114064561D01*
X184011905Y-114064561D02*
X184107143Y-114159800D01*
X184107143Y-114159800D02*
X184250000Y-114207419D01*
X184250000Y-114207419D02*
X184345238Y-114207419D01*
X184345238Y-114207419D02*
X184488095Y-114159800D01*
X184488095Y-114159800D02*
X184535714Y-114112180D01*
X184535714Y-114112180D02*
X184535714Y-113778847D01*
X184535714Y-113778847D02*
X184345238Y-113778847D01*
X184964286Y-114207419D02*
X184964286Y-113207419D01*
X184964286Y-113207419D02*
X185535714Y-114207419D01*
X185535714Y-114207419D02*
X185535714Y-113207419D01*
X186011905Y-114207419D02*
X186011905Y-113207419D01*
X186011905Y-113207419D02*
X186250000Y-113207419D01*
X186250000Y-113207419D02*
X186392857Y-113255038D01*
X186392857Y-113255038D02*
X186488095Y-113350276D01*
X186488095Y-113350276D02*
X186535714Y-113445514D01*
X186535714Y-113445514D02*
X186583333Y-113635990D01*
X186583333Y-113635990D02*
X186583333Y-113778847D01*
X186583333Y-113778847D02*
X186535714Y-113969323D01*
X186535714Y-113969323D02*
X186488095Y-114064561D01*
X186488095Y-114064561D02*
X186392857Y-114159800D01*
X186392857Y-114159800D02*
X186250000Y-114207419D01*
X186250000Y-114207419D02*
X186011905Y-114207419D01*
X131885713Y-50252447D02*
X132457141Y-50252447D01*
X132171427Y-51252447D02*
X132171427Y-50252447D01*
X132933332Y-51252447D02*
X132838094Y-51204828D01*
X132838094Y-51204828D02*
X132790475Y-51157208D01*
X132790475Y-51157208D02*
X132742856Y-51061970D01*
X132742856Y-51061970D02*
X132742856Y-50776256D01*
X132742856Y-50776256D02*
X132790475Y-50681018D01*
X132790475Y-50681018D02*
X132838094Y-50633399D01*
X132838094Y-50633399D02*
X132933332Y-50585780D01*
X132933332Y-50585780D02*
X133076189Y-50585780D01*
X133076189Y-50585780D02*
X133171427Y-50633399D01*
X133171427Y-50633399D02*
X133219046Y-50681018D01*
X133219046Y-50681018D02*
X133266665Y-50776256D01*
X133266665Y-50776256D02*
X133266665Y-51061970D01*
X133266665Y-51061970D02*
X133219046Y-51157208D01*
X133219046Y-51157208D02*
X133171427Y-51204828D01*
X133171427Y-51204828D02*
X133076189Y-51252447D01*
X133076189Y-51252447D02*
X132933332Y-51252447D01*
X134933332Y-51252447D02*
X134457142Y-51252447D01*
X134457142Y-51252447D02*
X134457142Y-50252447D01*
X135409523Y-51252447D02*
X135314285Y-51204828D01*
X135314285Y-51204828D02*
X135266666Y-51157208D01*
X135266666Y-51157208D02*
X135219047Y-51061970D01*
X135219047Y-51061970D02*
X135219047Y-50776256D01*
X135219047Y-50776256D02*
X135266666Y-50681018D01*
X135266666Y-50681018D02*
X135314285Y-50633399D01*
X135314285Y-50633399D02*
X135409523Y-50585780D01*
X135409523Y-50585780D02*
X135552380Y-50585780D01*
X135552380Y-50585780D02*
X135647618Y-50633399D01*
X135647618Y-50633399D02*
X135695237Y-50681018D01*
X135695237Y-50681018D02*
X135742856Y-50776256D01*
X135742856Y-50776256D02*
X135742856Y-51061970D01*
X135742856Y-51061970D02*
X135695237Y-51157208D01*
X135695237Y-51157208D02*
X135647618Y-51204828D01*
X135647618Y-51204828D02*
X135552380Y-51252447D01*
X135552380Y-51252447D02*
X135409523Y-51252447D01*
X136599999Y-51252447D02*
X136599999Y-50728637D01*
X136599999Y-50728637D02*
X136552380Y-50633399D01*
X136552380Y-50633399D02*
X136457142Y-50585780D01*
X136457142Y-50585780D02*
X136266666Y-50585780D01*
X136266666Y-50585780D02*
X136171428Y-50633399D01*
X136599999Y-51204828D02*
X136504761Y-51252447D01*
X136504761Y-51252447D02*
X136266666Y-51252447D01*
X136266666Y-51252447D02*
X136171428Y-51204828D01*
X136171428Y-51204828D02*
X136123809Y-51109589D01*
X136123809Y-51109589D02*
X136123809Y-51014351D01*
X136123809Y-51014351D02*
X136171428Y-50919113D01*
X136171428Y-50919113D02*
X136266666Y-50871494D01*
X136266666Y-50871494D02*
X136504761Y-50871494D01*
X136504761Y-50871494D02*
X136599999Y-50823875D01*
X137504761Y-51252447D02*
X137504761Y-50252447D01*
X137504761Y-51204828D02*
X137409523Y-51252447D01*
X137409523Y-51252447D02*
X137219047Y-51252447D01*
X137219047Y-51252447D02*
X137123809Y-51204828D01*
X137123809Y-51204828D02*
X137076190Y-51157208D01*
X137076190Y-51157208D02*
X137028571Y-51061970D01*
X137028571Y-51061970D02*
X137028571Y-50776256D01*
X137028571Y-50776256D02*
X137076190Y-50681018D01*
X137076190Y-50681018D02*
X137123809Y-50633399D01*
X137123809Y-50633399D02*
X137219047Y-50585780D01*
X137219047Y-50585780D02*
X137409523Y-50585780D01*
X137409523Y-50585780D02*
X137504761Y-50633399D01*
X139314285Y-51157208D02*
X139266666Y-51204828D01*
X139266666Y-51204828D02*
X139123809Y-51252447D01*
X139123809Y-51252447D02*
X139028571Y-51252447D01*
X139028571Y-51252447D02*
X138885714Y-51204828D01*
X138885714Y-51204828D02*
X138790476Y-51109589D01*
X138790476Y-51109589D02*
X138742857Y-51014351D01*
X138742857Y-51014351D02*
X138695238Y-50823875D01*
X138695238Y-50823875D02*
X138695238Y-50681018D01*
X138695238Y-50681018D02*
X138742857Y-50490542D01*
X138742857Y-50490542D02*
X138790476Y-50395304D01*
X138790476Y-50395304D02*
X138885714Y-50300066D01*
X138885714Y-50300066D02*
X139028571Y-50252447D01*
X139028571Y-50252447D02*
X139123809Y-50252447D01*
X139123809Y-50252447D02*
X139266666Y-50300066D01*
X139266666Y-50300066D02*
X139314285Y-50347685D01*
X140123809Y-51204828D02*
X140028571Y-51252447D01*
X140028571Y-51252447D02*
X139838095Y-51252447D01*
X139838095Y-51252447D02*
X139742857Y-51204828D01*
X139742857Y-51204828D02*
X139695238Y-51109589D01*
X139695238Y-51109589D02*
X139695238Y-50728637D01*
X139695238Y-50728637D02*
X139742857Y-50633399D01*
X139742857Y-50633399D02*
X139838095Y-50585780D01*
X139838095Y-50585780D02*
X140028571Y-50585780D01*
X140028571Y-50585780D02*
X140123809Y-50633399D01*
X140123809Y-50633399D02*
X140171428Y-50728637D01*
X140171428Y-50728637D02*
X140171428Y-50823875D01*
X140171428Y-50823875D02*
X139695238Y-50919113D01*
X140742857Y-51252447D02*
X140647619Y-51204828D01*
X140647619Y-51204828D02*
X140600000Y-51109589D01*
X140600000Y-51109589D02*
X140600000Y-50252447D01*
X141266667Y-51252447D02*
X141171429Y-51204828D01*
X141171429Y-51204828D02*
X141123810Y-51109589D01*
X141123810Y-51109589D02*
X141123810Y-50252447D01*
X132695238Y-52576676D02*
X133171428Y-52576676D01*
X132600000Y-52862391D02*
X132933333Y-51862391D01*
X132933333Y-51862391D02*
X133266666Y-52862391D01*
X133600000Y-52862391D02*
X133600000Y-52195724D01*
X133600000Y-52290962D02*
X133647619Y-52243343D01*
X133647619Y-52243343D02*
X133742857Y-52195724D01*
X133742857Y-52195724D02*
X133885714Y-52195724D01*
X133885714Y-52195724D02*
X133980952Y-52243343D01*
X133980952Y-52243343D02*
X134028571Y-52338581D01*
X134028571Y-52338581D02*
X134028571Y-52862391D01*
X134028571Y-52338581D02*
X134076190Y-52243343D01*
X134076190Y-52243343D02*
X134171428Y-52195724D01*
X134171428Y-52195724D02*
X134314285Y-52195724D01*
X134314285Y-52195724D02*
X134409524Y-52243343D01*
X134409524Y-52243343D02*
X134457143Y-52338581D01*
X134457143Y-52338581D02*
X134457143Y-52862391D01*
X134933333Y-52195724D02*
X134933333Y-53195724D01*
X134933333Y-52243343D02*
X135028571Y-52195724D01*
X135028571Y-52195724D02*
X135219047Y-52195724D01*
X135219047Y-52195724D02*
X135314285Y-52243343D01*
X135314285Y-52243343D02*
X135361904Y-52290962D01*
X135361904Y-52290962D02*
X135409523Y-52386200D01*
X135409523Y-52386200D02*
X135409523Y-52671914D01*
X135409523Y-52671914D02*
X135361904Y-52767152D01*
X135361904Y-52767152D02*
X135314285Y-52814772D01*
X135314285Y-52814772D02*
X135219047Y-52862391D01*
X135219047Y-52862391D02*
X135028571Y-52862391D01*
X135028571Y-52862391D02*
X134933333Y-52814772D01*
X136933333Y-52338581D02*
X137076190Y-52386200D01*
X137076190Y-52386200D02*
X137123809Y-52433819D01*
X137123809Y-52433819D02*
X137171428Y-52529057D01*
X137171428Y-52529057D02*
X137171428Y-52671914D01*
X137171428Y-52671914D02*
X137123809Y-52767152D01*
X137123809Y-52767152D02*
X137076190Y-52814772D01*
X137076190Y-52814772D02*
X136980952Y-52862391D01*
X136980952Y-52862391D02*
X136600000Y-52862391D01*
X136600000Y-52862391D02*
X136600000Y-51862391D01*
X136600000Y-51862391D02*
X136933333Y-51862391D01*
X136933333Y-51862391D02*
X137028571Y-51910010D01*
X137028571Y-51910010D02*
X137076190Y-51957629D01*
X137076190Y-51957629D02*
X137123809Y-52052867D01*
X137123809Y-52052867D02*
X137123809Y-52148105D01*
X137123809Y-52148105D02*
X137076190Y-52243343D01*
X137076190Y-52243343D02*
X137028571Y-52290962D01*
X137028571Y-52290962D02*
X136933333Y-52338581D01*
X136933333Y-52338581D02*
X136600000Y-52338581D01*
X137742857Y-52862391D02*
X137647619Y-52814772D01*
X137647619Y-52814772D02*
X137600000Y-52767152D01*
X137600000Y-52767152D02*
X137552381Y-52671914D01*
X137552381Y-52671914D02*
X137552381Y-52386200D01*
X137552381Y-52386200D02*
X137600000Y-52290962D01*
X137600000Y-52290962D02*
X137647619Y-52243343D01*
X137647619Y-52243343D02*
X137742857Y-52195724D01*
X137742857Y-52195724D02*
X137885714Y-52195724D01*
X137885714Y-52195724D02*
X137980952Y-52243343D01*
X137980952Y-52243343D02*
X138028571Y-52290962D01*
X138028571Y-52290962D02*
X138076190Y-52386200D01*
X138076190Y-52386200D02*
X138076190Y-52671914D01*
X138076190Y-52671914D02*
X138028571Y-52767152D01*
X138028571Y-52767152D02*
X137980952Y-52814772D01*
X137980952Y-52814772D02*
X137885714Y-52862391D01*
X137885714Y-52862391D02*
X137742857Y-52862391D01*
X138933333Y-52862391D02*
X138933333Y-52338581D01*
X138933333Y-52338581D02*
X138885714Y-52243343D01*
X138885714Y-52243343D02*
X138790476Y-52195724D01*
X138790476Y-52195724D02*
X138600000Y-52195724D01*
X138600000Y-52195724D02*
X138504762Y-52243343D01*
X138933333Y-52814772D02*
X138838095Y-52862391D01*
X138838095Y-52862391D02*
X138600000Y-52862391D01*
X138600000Y-52862391D02*
X138504762Y-52814772D01*
X138504762Y-52814772D02*
X138457143Y-52719533D01*
X138457143Y-52719533D02*
X138457143Y-52624295D01*
X138457143Y-52624295D02*
X138504762Y-52529057D01*
X138504762Y-52529057D02*
X138600000Y-52481438D01*
X138600000Y-52481438D02*
X138838095Y-52481438D01*
X138838095Y-52481438D02*
X138933333Y-52433819D01*
X139409524Y-52862391D02*
X139409524Y-52195724D01*
X139409524Y-52386200D02*
X139457143Y-52290962D01*
X139457143Y-52290962D02*
X139504762Y-52243343D01*
X139504762Y-52243343D02*
X139600000Y-52195724D01*
X139600000Y-52195724D02*
X139695238Y-52195724D01*
X140457143Y-52862391D02*
X140457143Y-51862391D01*
X140457143Y-52814772D02*
X140361905Y-52862391D01*
X140361905Y-52862391D02*
X140171429Y-52862391D01*
X140171429Y-52862391D02*
X140076191Y-52814772D01*
X140076191Y-52814772D02*
X140028572Y-52767152D01*
X140028572Y-52767152D02*
X139980953Y-52671914D01*
X139980953Y-52671914D02*
X139980953Y-52386200D01*
X139980953Y-52386200D02*
X140028572Y-52290962D01*
X140028572Y-52290962D02*
X140076191Y-52243343D01*
X140076191Y-52243343D02*
X140171429Y-52195724D01*
X140171429Y-52195724D02*
X140361905Y-52195724D01*
X140361905Y-52195724D02*
X140457143Y-52243343D01*
X172678570Y-49207419D02*
X172202380Y-49207419D01*
X172202380Y-49207419D02*
X172154761Y-49683609D01*
X172154761Y-49683609D02*
X172202380Y-49635990D01*
X172202380Y-49635990D02*
X172297618Y-49588371D01*
X172297618Y-49588371D02*
X172535713Y-49588371D01*
X172535713Y-49588371D02*
X172630951Y-49635990D01*
X172630951Y-49635990D02*
X172678570Y-49683609D01*
X172678570Y-49683609D02*
X172726189Y-49778847D01*
X172726189Y-49778847D02*
X172726189Y-50016942D01*
X172726189Y-50016942D02*
X172678570Y-50112180D01*
X172678570Y-50112180D02*
X172630951Y-50159800D01*
X172630951Y-50159800D02*
X172535713Y-50207419D01*
X172535713Y-50207419D02*
X172297618Y-50207419D01*
X172297618Y-50207419D02*
X172202380Y-50159800D01*
X172202380Y-50159800D02*
X172154761Y-50112180D01*
X173059523Y-49540752D02*
X173297618Y-50207419D01*
X173297618Y-50207419D02*
X173535713Y-49540752D01*
X175249999Y-50112180D02*
X175202380Y-50159800D01*
X175202380Y-50159800D02*
X175059523Y-50207419D01*
X175059523Y-50207419D02*
X174964285Y-50207419D01*
X174964285Y-50207419D02*
X174821428Y-50159800D01*
X174821428Y-50159800D02*
X174726190Y-50064561D01*
X174726190Y-50064561D02*
X174678571Y-49969323D01*
X174678571Y-49969323D02*
X174630952Y-49778847D01*
X174630952Y-49778847D02*
X174630952Y-49635990D01*
X174630952Y-49635990D02*
X174678571Y-49445514D01*
X174678571Y-49445514D02*
X174726190Y-49350276D01*
X174726190Y-49350276D02*
X174821428Y-49255038D01*
X174821428Y-49255038D02*
X174964285Y-49207419D01*
X174964285Y-49207419D02*
X175059523Y-49207419D01*
X175059523Y-49207419D02*
X175202380Y-49255038D01*
X175202380Y-49255038D02*
X175249999Y-49302657D01*
X175821428Y-50207419D02*
X175726190Y-50159800D01*
X175726190Y-50159800D02*
X175678571Y-50112180D01*
X175678571Y-50112180D02*
X175630952Y-50016942D01*
X175630952Y-50016942D02*
X175630952Y-49731228D01*
X175630952Y-49731228D02*
X175678571Y-49635990D01*
X175678571Y-49635990D02*
X175726190Y-49588371D01*
X175726190Y-49588371D02*
X175821428Y-49540752D01*
X175821428Y-49540752D02*
X175964285Y-49540752D01*
X175964285Y-49540752D02*
X176059523Y-49588371D01*
X176059523Y-49588371D02*
X176107142Y-49635990D01*
X176107142Y-49635990D02*
X176154761Y-49731228D01*
X176154761Y-49731228D02*
X176154761Y-50016942D01*
X176154761Y-50016942D02*
X176107142Y-50112180D01*
X176107142Y-50112180D02*
X176059523Y-50159800D01*
X176059523Y-50159800D02*
X175964285Y-50207419D01*
X175964285Y-50207419D02*
X175821428Y-50207419D01*
X176583333Y-49540752D02*
X176583333Y-50207419D01*
X176583333Y-49635990D02*
X176630952Y-49588371D01*
X176630952Y-49588371D02*
X176726190Y-49540752D01*
X176726190Y-49540752D02*
X176869047Y-49540752D01*
X176869047Y-49540752D02*
X176964285Y-49588371D01*
X176964285Y-49588371D02*
X177011904Y-49683609D01*
X177011904Y-49683609D02*
X177011904Y-50207419D01*
X177392857Y-49540752D02*
X177630952Y-50207419D01*
X177630952Y-50207419D02*
X177869047Y-49540752D01*
X178630952Y-50159800D02*
X178535714Y-50207419D01*
X178535714Y-50207419D02*
X178345238Y-50207419D01*
X178345238Y-50207419D02*
X178250000Y-50159800D01*
X178250000Y-50159800D02*
X178202381Y-50064561D01*
X178202381Y-50064561D02*
X178202381Y-49683609D01*
X178202381Y-49683609D02*
X178250000Y-49588371D01*
X178250000Y-49588371D02*
X178345238Y-49540752D01*
X178345238Y-49540752D02*
X178535714Y-49540752D01*
X178535714Y-49540752D02*
X178630952Y-49588371D01*
X178630952Y-49588371D02*
X178678571Y-49683609D01*
X178678571Y-49683609D02*
X178678571Y-49778847D01*
X178678571Y-49778847D02*
X178202381Y-49874085D01*
X179107143Y-50207419D02*
X179107143Y-49540752D01*
X179107143Y-49731228D02*
X179154762Y-49635990D01*
X179154762Y-49635990D02*
X179202381Y-49588371D01*
X179202381Y-49588371D02*
X179297619Y-49540752D01*
X179297619Y-49540752D02*
X179392857Y-49540752D01*
X179583334Y-49540752D02*
X179964286Y-49540752D01*
X179726191Y-49207419D02*
X179726191Y-50064561D01*
X179726191Y-50064561D02*
X179773810Y-50159800D01*
X179773810Y-50159800D02*
X179869048Y-50207419D01*
X179869048Y-50207419D02*
X179964286Y-50207419D01*
X180678572Y-50159800D02*
X180583334Y-50207419D01*
X180583334Y-50207419D02*
X180392858Y-50207419D01*
X180392858Y-50207419D02*
X180297620Y-50159800D01*
X180297620Y-50159800D02*
X180250001Y-50064561D01*
X180250001Y-50064561D02*
X180250001Y-49683609D01*
X180250001Y-49683609D02*
X180297620Y-49588371D01*
X180297620Y-49588371D02*
X180392858Y-49540752D01*
X180392858Y-49540752D02*
X180583334Y-49540752D01*
X180583334Y-49540752D02*
X180678572Y-49588371D01*
X180678572Y-49588371D02*
X180726191Y-49683609D01*
X180726191Y-49683609D02*
X180726191Y-49778847D01*
X180726191Y-49778847D02*
X180250001Y-49874085D01*
X181154763Y-50207419D02*
X181154763Y-49540752D01*
X181154763Y-49731228D02*
X181202382Y-49635990D01*
X181202382Y-49635990D02*
X181250001Y-49588371D01*
X181250001Y-49588371D02*
X181345239Y-49540752D01*
X181345239Y-49540752D02*
X181440477Y-49540752D01*
X165833333Y-127112180D02*
X165785714Y-127159800D01*
X165785714Y-127159800D02*
X165642857Y-127207419D01*
X165642857Y-127207419D02*
X165547619Y-127207419D01*
X165547619Y-127207419D02*
X165404762Y-127159800D01*
X165404762Y-127159800D02*
X165309524Y-127064561D01*
X165309524Y-127064561D02*
X165261905Y-126969323D01*
X165261905Y-126969323D02*
X165214286Y-126778847D01*
X165214286Y-126778847D02*
X165214286Y-126635990D01*
X165214286Y-126635990D02*
X165261905Y-126445514D01*
X165261905Y-126445514D02*
X165309524Y-126350276D01*
X165309524Y-126350276D02*
X165404762Y-126255038D01*
X165404762Y-126255038D02*
X165547619Y-126207419D01*
X165547619Y-126207419D02*
X165642857Y-126207419D01*
X165642857Y-126207419D02*
X165785714Y-126255038D01*
X165785714Y-126255038D02*
X165833333Y-126302657D01*
X166214286Y-126921704D02*
X166690476Y-126921704D01*
X166119048Y-127207419D02*
X166452381Y-126207419D01*
X166452381Y-126207419D02*
X166785714Y-127207419D01*
X167119048Y-127207419D02*
X167119048Y-126207419D01*
X167119048Y-126207419D02*
X167690476Y-127207419D01*
X167690476Y-127207419D02*
X167690476Y-126207419D01*
X168166667Y-127207419D02*
X168166667Y-126207419D01*
X168166667Y-126683609D02*
X168738095Y-126683609D01*
X168738095Y-127207419D02*
X168738095Y-126207419D01*
D12*
X195838095Y-83054819D02*
X195838095Y-83864342D01*
X195838095Y-83864342D02*
X195885714Y-83959580D01*
X195885714Y-83959580D02*
X195933333Y-84007200D01*
X195933333Y-84007200D02*
X196028571Y-84054819D01*
X196028571Y-84054819D02*
X196219047Y-84054819D01*
X196219047Y-84054819D02*
X196314285Y-84007200D01*
X196314285Y-84007200D02*
X196361904Y-83959580D01*
X196361904Y-83959580D02*
X196409523Y-83864342D01*
X196409523Y-83864342D02*
X196409523Y-83054819D01*
X197409523Y-84054819D02*
X196838095Y-84054819D01*
X197123809Y-84054819D02*
X197123809Y-83054819D01*
X197123809Y-83054819D02*
X197028571Y-83197676D01*
X197028571Y-83197676D02*
X196933333Y-83292914D01*
X196933333Y-83292914D02*
X196838095Y-83340533D01*
X194078809Y-82654819D02*
X193602619Y-82654819D01*
X193602619Y-82654819D02*
X193602619Y-81654819D01*
X194269286Y-81654819D02*
X194840714Y-81654819D01*
X194555000Y-82654819D02*
X194555000Y-81654819D01*
X195745476Y-82559580D02*
X195697857Y-82607200D01*
X195697857Y-82607200D02*
X195555000Y-82654819D01*
X195555000Y-82654819D02*
X195459762Y-82654819D01*
X195459762Y-82654819D02*
X195316905Y-82607200D01*
X195316905Y-82607200D02*
X195221667Y-82511961D01*
X195221667Y-82511961D02*
X195174048Y-82416723D01*
X195174048Y-82416723D02*
X195126429Y-82226247D01*
X195126429Y-82226247D02*
X195126429Y-82083390D01*
X195126429Y-82083390D02*
X195174048Y-81892914D01*
X195174048Y-81892914D02*
X195221667Y-81797676D01*
X195221667Y-81797676D02*
X195316905Y-81702438D01*
X195316905Y-81702438D02*
X195459762Y-81654819D01*
X195459762Y-81654819D02*
X195555000Y-81654819D01*
X195555000Y-81654819D02*
X195697857Y-81702438D01*
X195697857Y-81702438D02*
X195745476Y-81750057D01*
X196126429Y-81750057D02*
X196174048Y-81702438D01*
X196174048Y-81702438D02*
X196269286Y-81654819D01*
X196269286Y-81654819D02*
X196507381Y-81654819D01*
X196507381Y-81654819D02*
X196602619Y-81702438D01*
X196602619Y-81702438D02*
X196650238Y-81750057D01*
X196650238Y-81750057D02*
X196697857Y-81845295D01*
X196697857Y-81845295D02*
X196697857Y-81940533D01*
X196697857Y-81940533D02*
X196650238Y-82083390D01*
X196650238Y-82083390D02*
X196078810Y-82654819D01*
X196078810Y-82654819D02*
X196697857Y-82654819D01*
X197174048Y-82654819D02*
X197364524Y-82654819D01*
X197364524Y-82654819D02*
X197459762Y-82607200D01*
X197459762Y-82607200D02*
X197507381Y-82559580D01*
X197507381Y-82559580D02*
X197602619Y-82416723D01*
X197602619Y-82416723D02*
X197650238Y-82226247D01*
X197650238Y-82226247D02*
X197650238Y-81845295D01*
X197650238Y-81845295D02*
X197602619Y-81750057D01*
X197602619Y-81750057D02*
X197555000Y-81702438D01*
X197555000Y-81702438D02*
X197459762Y-81654819D01*
X197459762Y-81654819D02*
X197269286Y-81654819D01*
X197269286Y-81654819D02*
X197174048Y-81702438D01*
X197174048Y-81702438D02*
X197126429Y-81750057D01*
X197126429Y-81750057D02*
X197078810Y-81845295D01*
X197078810Y-81845295D02*
X197078810Y-82083390D01*
X197078810Y-82083390D02*
X197126429Y-82178628D01*
X197126429Y-82178628D02*
X197174048Y-82226247D01*
X197174048Y-82226247D02*
X197269286Y-82273866D01*
X197269286Y-82273866D02*
X197459762Y-82273866D01*
X197459762Y-82273866D02*
X197555000Y-82226247D01*
X197555000Y-82226247D02*
X197602619Y-82178628D01*
X197602619Y-82178628D02*
X197650238Y-82083390D01*
X198126429Y-82654819D02*
X198316905Y-82654819D01*
X198316905Y-82654819D02*
X198412143Y-82607200D01*
X198412143Y-82607200D02*
X198459762Y-82559580D01*
X198459762Y-82559580D02*
X198555000Y-82416723D01*
X198555000Y-82416723D02*
X198602619Y-82226247D01*
X198602619Y-82226247D02*
X198602619Y-81845295D01*
X198602619Y-81845295D02*
X198555000Y-81750057D01*
X198555000Y-81750057D02*
X198507381Y-81702438D01*
X198507381Y-81702438D02*
X198412143Y-81654819D01*
X198412143Y-81654819D02*
X198221667Y-81654819D01*
X198221667Y-81654819D02*
X198126429Y-81702438D01*
X198126429Y-81702438D02*
X198078810Y-81750057D01*
X198078810Y-81750057D02*
X198031191Y-81845295D01*
X198031191Y-81845295D02*
X198031191Y-82083390D01*
X198031191Y-82083390D02*
X198078810Y-82178628D01*
X198078810Y-82178628D02*
X198126429Y-82226247D01*
X198126429Y-82226247D02*
X198221667Y-82273866D01*
X198221667Y-82273866D02*
X198412143Y-82273866D01*
X198412143Y-82273866D02*
X198507381Y-82226247D01*
X198507381Y-82226247D02*
X198555000Y-82178628D01*
X198555000Y-82178628D02*
X198602619Y-82083390D01*
X199221667Y-81654819D02*
X199316905Y-81654819D01*
X199316905Y-81654819D02*
X199412143Y-81702438D01*
X199412143Y-81702438D02*
X199459762Y-81750057D01*
X199459762Y-81750057D02*
X199507381Y-81845295D01*
X199507381Y-81845295D02*
X199555000Y-82035771D01*
X199555000Y-82035771D02*
X199555000Y-82273866D01*
X199555000Y-82273866D02*
X199507381Y-82464342D01*
X199507381Y-82464342D02*
X199459762Y-82559580D01*
X199459762Y-82559580D02*
X199412143Y-82607200D01*
X199412143Y-82607200D02*
X199316905Y-82654819D01*
X199316905Y-82654819D02*
X199221667Y-82654819D01*
X199221667Y-82654819D02*
X199126429Y-82607200D01*
X199126429Y-82607200D02*
X199078810Y-82559580D01*
X199078810Y-82559580D02*
X199031191Y-82464342D01*
X199031191Y-82464342D02*
X198983572Y-82273866D01*
X198983572Y-82273866D02*
X198983572Y-82035771D01*
X198983572Y-82035771D02*
X199031191Y-81845295D01*
X199031191Y-81845295D02*
X199078810Y-81750057D01*
X199078810Y-81750057D02*
X199126429Y-81702438D01*
X199126429Y-81702438D02*
X199221667Y-81654819D01*
X121425714Y-103649104D02*
X121901904Y-103649104D01*
X121330476Y-103934819D02*
X121663809Y-102934819D01*
X121663809Y-102934819D02*
X121997142Y-103934819D01*
X122282857Y-103030057D02*
X122330476Y-102982438D01*
X122330476Y-102982438D02*
X122425714Y-102934819D01*
X122425714Y-102934819D02*
X122663809Y-102934819D01*
X122663809Y-102934819D02*
X122759047Y-102982438D01*
X122759047Y-102982438D02*
X122806666Y-103030057D01*
X122806666Y-103030057D02*
X122854285Y-103125295D01*
X122854285Y-103125295D02*
X122854285Y-103220533D01*
X122854285Y-103220533D02*
X122806666Y-103363390D01*
X122806666Y-103363390D02*
X122235238Y-103934819D01*
X122235238Y-103934819D02*
X122854285Y-103934819D01*
X121535714Y-70169104D02*
X122011904Y-70169104D01*
X121440476Y-70454819D02*
X121773809Y-69454819D01*
X121773809Y-69454819D02*
X122107142Y-70454819D01*
X122964285Y-70454819D02*
X122392857Y-70454819D01*
X122678571Y-70454819D02*
X122678571Y-69454819D01*
X122678571Y-69454819D02*
X122583333Y-69597676D01*
X122583333Y-69597676D02*
X122488095Y-69692914D01*
X122488095Y-69692914D02*
X122392857Y-69740533D01*
X191203333Y-72874819D02*
X190870000Y-72398628D01*
X190631905Y-72874819D02*
X190631905Y-71874819D01*
X190631905Y-71874819D02*
X191012857Y-71874819D01*
X191012857Y-71874819D02*
X191108095Y-71922438D01*
X191108095Y-71922438D02*
X191155714Y-71970057D01*
X191155714Y-71970057D02*
X191203333Y-72065295D01*
X191203333Y-72065295D02*
X191203333Y-72208152D01*
X191203333Y-72208152D02*
X191155714Y-72303390D01*
X191155714Y-72303390D02*
X191108095Y-72351009D01*
X191108095Y-72351009D02*
X191012857Y-72398628D01*
X191012857Y-72398628D02*
X190631905Y-72398628D01*
X192155714Y-72874819D02*
X191584286Y-72874819D01*
X191870000Y-72874819D02*
X191870000Y-71874819D01*
X191870000Y-71874819D02*
X191774762Y-72017676D01*
X191774762Y-72017676D02*
X191679524Y-72112914D01*
X191679524Y-72112914D02*
X191584286Y-72160533D01*
X191203333Y-87124819D02*
X190870000Y-86648628D01*
X190631905Y-87124819D02*
X190631905Y-86124819D01*
X190631905Y-86124819D02*
X191012857Y-86124819D01*
X191012857Y-86124819D02*
X191108095Y-86172438D01*
X191108095Y-86172438D02*
X191155714Y-86220057D01*
X191155714Y-86220057D02*
X191203333Y-86315295D01*
X191203333Y-86315295D02*
X191203333Y-86458152D01*
X191203333Y-86458152D02*
X191155714Y-86553390D01*
X191155714Y-86553390D02*
X191108095Y-86601009D01*
X191108095Y-86601009D02*
X191012857Y-86648628D01*
X191012857Y-86648628D02*
X190631905Y-86648628D01*
X191584286Y-86220057D02*
X191631905Y-86172438D01*
X191631905Y-86172438D02*
X191727143Y-86124819D01*
X191727143Y-86124819D02*
X191965238Y-86124819D01*
X191965238Y-86124819D02*
X192060476Y-86172438D01*
X192060476Y-86172438D02*
X192108095Y-86220057D01*
X192108095Y-86220057D02*
X192155714Y-86315295D01*
X192155714Y-86315295D02*
X192155714Y-86410533D01*
X192155714Y-86410533D02*
X192108095Y-86553390D01*
X192108095Y-86553390D02*
X191536667Y-87124819D01*
X191536667Y-87124819D02*
X192155714Y-87124819D01*
X199833333Y-60376929D02*
X199785714Y-60424549D01*
X199785714Y-60424549D02*
X199642857Y-60472168D01*
X199642857Y-60472168D02*
X199547619Y-60472168D01*
X199547619Y-60472168D02*
X199404762Y-60424549D01*
X199404762Y-60424549D02*
X199309524Y-60329310D01*
X199309524Y-60329310D02*
X199261905Y-60234072D01*
X199261905Y-60234072D02*
X199214286Y-60043596D01*
X199214286Y-60043596D02*
X199214286Y-59900739D01*
X199214286Y-59900739D02*
X199261905Y-59710263D01*
X199261905Y-59710263D02*
X199309524Y-59615025D01*
X199309524Y-59615025D02*
X199404762Y-59519787D01*
X199404762Y-59519787D02*
X199547619Y-59472168D01*
X199547619Y-59472168D02*
X199642857Y-59472168D01*
X199642857Y-59472168D02*
X199785714Y-59519787D01*
X199785714Y-59519787D02*
X199833333Y-59567406D01*
X200785714Y-60472168D02*
X200214286Y-60472168D01*
X200500000Y-60472168D02*
X200500000Y-59472168D01*
X200500000Y-59472168D02*
X200404762Y-59615025D01*
X200404762Y-59615025D02*
X200309524Y-59710263D01*
X200309524Y-59710263D02*
X200214286Y-59757882D01*
X180761905Y-72404819D02*
X180761905Y-71404819D01*
X180761905Y-71404819D02*
X181000000Y-71404819D01*
X181000000Y-71404819D02*
X181142857Y-71452438D01*
X181142857Y-71452438D02*
X181238095Y-71547676D01*
X181238095Y-71547676D02*
X181285714Y-71642914D01*
X181285714Y-71642914D02*
X181333333Y-71833390D01*
X181333333Y-71833390D02*
X181333333Y-71976247D01*
X181333333Y-71976247D02*
X181285714Y-72166723D01*
X181285714Y-72166723D02*
X181238095Y-72261961D01*
X181238095Y-72261961D02*
X181142857Y-72357200D01*
X181142857Y-72357200D02*
X181000000Y-72404819D01*
X181000000Y-72404819D02*
X180761905Y-72404819D01*
X181714286Y-71500057D02*
X181761905Y-71452438D01*
X181761905Y-71452438D02*
X181857143Y-71404819D01*
X181857143Y-71404819D02*
X182095238Y-71404819D01*
X182095238Y-71404819D02*
X182190476Y-71452438D01*
X182190476Y-71452438D02*
X182238095Y-71500057D01*
X182238095Y-71500057D02*
X182285714Y-71595295D01*
X182285714Y-71595295D02*
X182285714Y-71690533D01*
X182285714Y-71690533D02*
X182238095Y-71833390D01*
X182238095Y-71833390D02*
X181666667Y-72404819D01*
X181666667Y-72404819D02*
X182285714Y-72404819D01*
X177428095Y-72974819D02*
X177428095Y-71974819D01*
X177999523Y-72974819D02*
X177570952Y-72403390D01*
X177999523Y-71974819D02*
X177428095Y-72546247D01*
X185583333Y-60376929D02*
X185535714Y-60424549D01*
X185535714Y-60424549D02*
X185392857Y-60472168D01*
X185392857Y-60472168D02*
X185297619Y-60472168D01*
X185297619Y-60472168D02*
X185154762Y-60424549D01*
X185154762Y-60424549D02*
X185059524Y-60329310D01*
X185059524Y-60329310D02*
X185011905Y-60234072D01*
X185011905Y-60234072D02*
X184964286Y-60043596D01*
X184964286Y-60043596D02*
X184964286Y-59900739D01*
X184964286Y-59900739D02*
X185011905Y-59710263D01*
X185011905Y-59710263D02*
X185059524Y-59615025D01*
X185059524Y-59615025D02*
X185154762Y-59519787D01*
X185154762Y-59519787D02*
X185297619Y-59472168D01*
X185297619Y-59472168D02*
X185392857Y-59472168D01*
X185392857Y-59472168D02*
X185535714Y-59519787D01*
X185535714Y-59519787D02*
X185583333Y-59567406D01*
X185964286Y-59567406D02*
X186011905Y-59519787D01*
X186011905Y-59519787D02*
X186107143Y-59472168D01*
X186107143Y-59472168D02*
X186345238Y-59472168D01*
X186345238Y-59472168D02*
X186440476Y-59519787D01*
X186440476Y-59519787D02*
X186488095Y-59567406D01*
X186488095Y-59567406D02*
X186535714Y-59662644D01*
X186535714Y-59662644D02*
X186535714Y-59757882D01*
X186535714Y-59757882D02*
X186488095Y-59900739D01*
X186488095Y-59900739D02*
X185916667Y-60472168D01*
X185916667Y-60472168D02*
X186535714Y-60472168D01*
X180761905Y-66404819D02*
X180761905Y-65404819D01*
X180761905Y-65404819D02*
X181000000Y-65404819D01*
X181000000Y-65404819D02*
X181142857Y-65452438D01*
X181142857Y-65452438D02*
X181238095Y-65547676D01*
X181238095Y-65547676D02*
X181285714Y-65642914D01*
X181285714Y-65642914D02*
X181333333Y-65833390D01*
X181333333Y-65833390D02*
X181333333Y-65976247D01*
X181333333Y-65976247D02*
X181285714Y-66166723D01*
X181285714Y-66166723D02*
X181238095Y-66261961D01*
X181238095Y-66261961D02*
X181142857Y-66357200D01*
X181142857Y-66357200D02*
X181000000Y-66404819D01*
X181000000Y-66404819D02*
X180761905Y-66404819D01*
X182285714Y-66404819D02*
X181714286Y-66404819D01*
X182000000Y-66404819D02*
X182000000Y-65404819D01*
X182000000Y-65404819D02*
X181904762Y-65547676D01*
X181904762Y-65547676D02*
X181809524Y-65642914D01*
X181809524Y-65642914D02*
X181714286Y-65690533D01*
X177428095Y-66974819D02*
X177428095Y-65974819D01*
X177999523Y-66974819D02*
X177570952Y-66403390D01*
X177999523Y-65974819D02*
X177428095Y-66546247D01*
X200083333Y-76359580D02*
X200035714Y-76407200D01*
X200035714Y-76407200D02*
X199892857Y-76454819D01*
X199892857Y-76454819D02*
X199797619Y-76454819D01*
X199797619Y-76454819D02*
X199654762Y-76407200D01*
X199654762Y-76407200D02*
X199559524Y-76311961D01*
X199559524Y-76311961D02*
X199511905Y-76216723D01*
X199511905Y-76216723D02*
X199464286Y-76026247D01*
X199464286Y-76026247D02*
X199464286Y-75883390D01*
X199464286Y-75883390D02*
X199511905Y-75692914D01*
X199511905Y-75692914D02*
X199559524Y-75597676D01*
X199559524Y-75597676D02*
X199654762Y-75502438D01*
X199654762Y-75502438D02*
X199797619Y-75454819D01*
X199797619Y-75454819D02*
X199892857Y-75454819D01*
X199892857Y-75454819D02*
X200035714Y-75502438D01*
X200035714Y-75502438D02*
X200083333Y-75550057D01*
X200416667Y-75454819D02*
X201035714Y-75454819D01*
X201035714Y-75454819D02*
X200702381Y-75835771D01*
X200702381Y-75835771D02*
X200845238Y-75835771D01*
X200845238Y-75835771D02*
X200940476Y-75883390D01*
X200940476Y-75883390D02*
X200988095Y-75931009D01*
X200988095Y-75931009D02*
X201035714Y-76026247D01*
X201035714Y-76026247D02*
X201035714Y-76264342D01*
X201035714Y-76264342D02*
X200988095Y-76359580D01*
X200988095Y-76359580D02*
X200940476Y-76407200D01*
X200940476Y-76407200D02*
X200845238Y-76454819D01*
X200845238Y-76454819D02*
X200559524Y-76454819D01*
X200559524Y-76454819D02*
X200464286Y-76407200D01*
X200464286Y-76407200D02*
X200416667Y-76359580D01*
D13*
%TO.C,U1*%
X196555000Y-78140000D02*
X195055000Y-78140000D01*
X196555000Y-78140000D02*
X198055000Y-78140000D01*
X196555000Y-81360000D02*
X195055000Y-81360000D01*
X196555000Y-81360000D02*
X198055000Y-81360000D01*
X194342500Y-78315000D02*
X194102500Y-77985000D01*
X194582500Y-77985000D01*
X194342500Y-78315000D01*
G36*
X194342500Y-78315000D02*
G01*
X194102500Y-77985000D01*
X194582500Y-77985000D01*
X194342500Y-78315000D01*
G37*
%TO.C,A2*%
X123300000Y-94590000D02*
X123300000Y-112370000D01*
X125950000Y-91940000D02*
X171670000Y-91940000D01*
X125950000Y-115020000D02*
X171670000Y-115020000D01*
X130760000Y-115340000D02*
X128760000Y-115340000D01*
X174320000Y-94590000D02*
X174320000Y-112370000D01*
X123300000Y-94590000D02*
G75*
G02*
X125950000Y-91940000I2650000J0D01*
G01*
X125950000Y-115020000D02*
G75*
G02*
X123300000Y-112370000I0J2650000D01*
G01*
X171670000Y-91940000D02*
G75*
G02*
X174320000Y-94590000I0J-2650000D01*
G01*
X174320000Y-112370000D02*
G75*
G02*
X171670000Y-115020000I-2650000J0D01*
G01*
D14*
%TO.C,J4*%
X143525000Y-49215000D02*
X165175000Y-49215000D01*
X165175000Y-54785000D02*
X143525000Y-54785000D01*
X165850000Y-52315000D02*
X166850000Y-51815000D01*
X166850000Y-51815000D02*
X166850000Y-52815000D01*
X166850000Y-52815000D02*
X165850000Y-52315000D01*
D13*
%TO.C,J14*%
X174170000Y-53580000D02*
X174170000Y-52250000D01*
X175500000Y-53580000D02*
X174170000Y-53580000D01*
X176770000Y-50920000D02*
X179370000Y-50920000D01*
X176770000Y-53580000D02*
X176770000Y-50920000D01*
X176770000Y-53580000D02*
X179370000Y-53580000D01*
X179370000Y-53580000D02*
X179370000Y-50920000D01*
%TO.C,D6*%
X189790000Y-103490000D02*
X189790000Y-103670000D01*
X189790000Y-103490000D02*
X193210000Y-103490000D01*
X189790000Y-105830000D02*
X189790000Y-106010000D01*
X189790000Y-106010000D02*
X193210000Y-106010000D01*
X189910000Y-103490000D02*
X189910000Y-103670000D01*
X189910000Y-105830000D02*
X189910000Y-106010000D01*
X190030000Y-103490000D02*
X190030000Y-103670000D01*
X190030000Y-105830000D02*
X190030000Y-106010000D01*
X193210000Y-103490000D02*
X193210000Y-103722000D01*
X193210000Y-105778000D02*
X193210000Y-106010000D01*
%TO.C,D5*%
X189790000Y-96490000D02*
X189790000Y-96670000D01*
X189790000Y-96490000D02*
X193210000Y-96490000D01*
X189790000Y-98830000D02*
X189790000Y-99010000D01*
X189790000Y-99010000D02*
X193210000Y-99010000D01*
X189910000Y-96490000D02*
X189910000Y-96670000D01*
X189910000Y-98830000D02*
X189910000Y-99010000D01*
X190030000Y-96490000D02*
X190030000Y-96670000D01*
X190030000Y-98830000D02*
X190030000Y-99010000D01*
X193210000Y-96490000D02*
X193210000Y-96722000D01*
X193210000Y-98778000D02*
X193210000Y-99010000D01*
%TO.C,A1*%
X123770000Y-78050000D02*
X123770000Y-60270000D01*
X167330000Y-57300000D02*
X169330000Y-57300000D01*
X172140000Y-57620000D02*
X126420000Y-57620000D01*
X172140000Y-80700000D02*
X126420000Y-80700000D01*
X174790000Y-78050000D02*
X174790000Y-60270000D01*
X123770000Y-60270000D02*
G75*
G02*
X126420000Y-57620000I2650000J0D01*
G01*
X126420000Y-80700000D02*
G75*
G02*
X123770000Y-78050000I0J2650000D01*
G01*
X172140000Y-57620000D02*
G75*
G02*
X174790000Y-60270000I0J-2650000D01*
G01*
X174790000Y-78050000D02*
G75*
G02*
X172140000Y-80700000I-2650000J0D01*
G01*
%TO.C,R1*%
X187630000Y-69150000D02*
X187630000Y-75690000D01*
X187630000Y-75690000D02*
X190370000Y-75690000D01*
X189000000Y-68380000D02*
X189000000Y-69150000D01*
X189000000Y-76460000D02*
X189000000Y-75690000D01*
X190370000Y-69150000D02*
X187630000Y-69150000D01*
X190370000Y-75690000D02*
X190370000Y-69150000D01*
%TO.C,R2*%
X187630000Y-83400000D02*
X187630000Y-89940000D01*
X187630000Y-89940000D02*
X190370000Y-89940000D01*
X189000000Y-82630000D02*
X189000000Y-83400000D01*
X189000000Y-90710000D02*
X189000000Y-89940000D01*
X190370000Y-83400000D02*
X187630000Y-83400000D01*
X190370000Y-89940000D02*
X190370000Y-83400000D01*
%TO.C,C1*%
X193710000Y-60898349D02*
X190765000Y-60898349D01*
X193710000Y-60938349D02*
X190774000Y-60938349D01*
X193710000Y-60978349D02*
X190783000Y-60978349D01*
X193710000Y-61018349D02*
X190793000Y-61018349D01*
X193710000Y-61058349D02*
X190803000Y-61058349D01*
X193710000Y-61098349D02*
X190814000Y-61098349D01*
X193710000Y-61138349D02*
X190825000Y-61138349D01*
X193710000Y-61178349D02*
X190836000Y-61178349D01*
X193710000Y-61218349D02*
X190848000Y-61218349D01*
X193710000Y-61258349D02*
X190861000Y-61258349D01*
X193710000Y-61298349D02*
X190873000Y-61298349D01*
X193710000Y-61338349D02*
X190887000Y-61338349D01*
X193710000Y-61378349D02*
X190900000Y-61378349D01*
X193710000Y-61418349D02*
X190915000Y-61418349D01*
X193710000Y-61458349D02*
X190929000Y-61458349D01*
X193710000Y-61498349D02*
X190945000Y-61498349D01*
X193710000Y-61538349D02*
X190960000Y-61538349D01*
X193710000Y-61578349D02*
X190976000Y-61578349D01*
X193710000Y-61618349D02*
X190993000Y-61618349D01*
X193710000Y-61658349D02*
X191010000Y-61658349D01*
X193710000Y-61698349D02*
X191028000Y-61698349D01*
X193710000Y-61738349D02*
X191046000Y-61738349D01*
X193710000Y-61778349D02*
X191064000Y-61778349D01*
X193710000Y-61818349D02*
X191084000Y-61818349D01*
X193710000Y-61858349D02*
X191103000Y-61858349D01*
X193710000Y-61898349D02*
X191123000Y-61898349D01*
X193710000Y-61938349D02*
X191144000Y-61938349D01*
X193710000Y-61978349D02*
X191166000Y-61978349D01*
X193710000Y-62018349D02*
X191188000Y-62018349D01*
X193710000Y-62058349D02*
X191210000Y-62058349D01*
X193710000Y-62098349D02*
X191233000Y-62098349D01*
X193710000Y-62138349D02*
X191257000Y-62138349D01*
X193710000Y-62178349D02*
X191281000Y-62178349D01*
X193710000Y-62218349D02*
X191306000Y-62218349D01*
X193710000Y-62258349D02*
X191332000Y-62258349D01*
X193710000Y-62298349D02*
X191358000Y-62298349D01*
X193710000Y-62338349D02*
X191385000Y-62338349D01*
X193710000Y-62378349D02*
X191412000Y-62378349D01*
X193710000Y-62418349D02*
X191441000Y-62418349D01*
X193710000Y-62458349D02*
X191470000Y-62458349D01*
X193710000Y-62498349D02*
X191500000Y-62498349D01*
X193710000Y-62538349D02*
X191530000Y-62538349D01*
X193710000Y-62578349D02*
X191561000Y-62578349D01*
X193710000Y-62618349D02*
X191594000Y-62618349D01*
X193710000Y-62658349D02*
X191626000Y-62658349D01*
X193710000Y-62698349D02*
X191660000Y-62698349D01*
X193710000Y-62738349D02*
X191695000Y-62738349D01*
X193710000Y-62778349D02*
X191731000Y-62778349D01*
X193710000Y-62818349D02*
X191767000Y-62818349D01*
X193710000Y-62858349D02*
X191805000Y-62858349D01*
X193710000Y-62898349D02*
X191843000Y-62898349D01*
X193710000Y-62938349D02*
X191883000Y-62938349D01*
X195283000Y-64098349D02*
X194217000Y-64098349D01*
X195518000Y-64058349D02*
X193982000Y-64058349D01*
X195698000Y-64018349D02*
X193802000Y-64018349D01*
X195848000Y-63978349D02*
X193652000Y-63978349D01*
X195979000Y-63938349D02*
X193521000Y-63938349D01*
X196096000Y-63898349D02*
X193404000Y-63898349D01*
X196203000Y-63858349D02*
X193297000Y-63858349D01*
X196302000Y-63818349D02*
X193198000Y-63818349D01*
X196395000Y-63778349D02*
X193105000Y-63778349D01*
X196481000Y-63738349D02*
X193019000Y-63738349D01*
X196563000Y-63698349D02*
X192937000Y-63698349D01*
X196640000Y-63658349D02*
X192860000Y-63658349D01*
X196714000Y-63618349D02*
X192786000Y-63618349D01*
X196784000Y-63578349D02*
X192716000Y-63578349D01*
X196852000Y-63538349D02*
X192648000Y-63538349D01*
X196916000Y-63498349D02*
X192584000Y-63498349D01*
X196978000Y-63458349D02*
X192522000Y-63458349D01*
X197037000Y-63418349D02*
X192463000Y-63418349D01*
X197065000Y-55607651D02*
X197065000Y-56407651D01*
X197095000Y-63378349D02*
X192405000Y-63378349D01*
X197150000Y-63338349D02*
X192350000Y-63338349D01*
X197204000Y-63298349D02*
X192296000Y-63298349D01*
X197255000Y-63258349D02*
X192245000Y-63258349D01*
X197306000Y-63218349D02*
X192194000Y-63218349D01*
X197354000Y-63178349D02*
X192146000Y-63178349D01*
X197401000Y-63138349D02*
X192099000Y-63138349D01*
X197447000Y-63098349D02*
X192053000Y-63098349D01*
X197465000Y-56007651D02*
X196665000Y-56007651D01*
X197491000Y-63058349D02*
X192009000Y-63058349D01*
X197534000Y-63018349D02*
X191966000Y-63018349D01*
X197576000Y-62978349D02*
X191924000Y-62978349D01*
X197617000Y-62938349D02*
X195790000Y-62938349D01*
X197657000Y-62898349D02*
X195790000Y-62898349D01*
X197695000Y-62858349D02*
X195790000Y-62858349D01*
X197733000Y-62818349D02*
X195790000Y-62818349D01*
X197769000Y-62778349D02*
X195790000Y-62778349D01*
X197805000Y-62738349D02*
X195790000Y-62738349D01*
X197840000Y-62698349D02*
X195790000Y-62698349D01*
X197874000Y-62658349D02*
X195790000Y-62658349D01*
X197906000Y-62618349D02*
X195790000Y-62618349D01*
X197939000Y-62578349D02*
X195790000Y-62578349D01*
X197970000Y-62538349D02*
X195790000Y-62538349D01*
X198000000Y-62498349D02*
X195790000Y-62498349D01*
X198030000Y-62458349D02*
X195790000Y-62458349D01*
X198059000Y-62418349D02*
X195790000Y-62418349D01*
X198088000Y-62378349D02*
X195790000Y-62378349D01*
X198115000Y-62338349D02*
X195790000Y-62338349D01*
X198142000Y-62298349D02*
X195790000Y-62298349D01*
X198168000Y-62258349D02*
X195790000Y-62258349D01*
X198194000Y-62218349D02*
X195790000Y-62218349D01*
X198219000Y-62178349D02*
X195790000Y-62178349D01*
X198243000Y-62138349D02*
X195790000Y-62138349D01*
X198267000Y-62098349D02*
X195790000Y-62098349D01*
X198290000Y-62058349D02*
X195790000Y-62058349D01*
X198312000Y-62018349D02*
X195790000Y-62018349D01*
X198334000Y-61978349D02*
X195790000Y-61978349D01*
X198356000Y-61938349D02*
X195790000Y-61938349D01*
X198377000Y-61898349D02*
X195790000Y-61898349D01*
X198397000Y-61858349D02*
X195790000Y-61858349D01*
X198416000Y-61818349D02*
X195790000Y-61818349D01*
X198436000Y-61778349D02*
X195790000Y-61778349D01*
X198454000Y-61738349D02*
X195790000Y-61738349D01*
X198472000Y-61698349D02*
X195790000Y-61698349D01*
X198490000Y-61658349D02*
X195790000Y-61658349D01*
X198507000Y-61618349D02*
X195790000Y-61618349D01*
X198524000Y-61578349D02*
X195790000Y-61578349D01*
X198540000Y-61538349D02*
X195790000Y-61538349D01*
X198555000Y-61498349D02*
X195790000Y-61498349D01*
X198571000Y-61458349D02*
X195790000Y-61458349D01*
X198585000Y-61418349D02*
X195790000Y-61418349D01*
X198600000Y-61378349D02*
X195790000Y-61378349D01*
X198613000Y-61338349D02*
X195790000Y-61338349D01*
X198627000Y-61298349D02*
X195790000Y-61298349D01*
X198639000Y-61258349D02*
X195790000Y-61258349D01*
X198652000Y-61218349D02*
X195790000Y-61218349D01*
X198664000Y-61178349D02*
X195790000Y-61178349D01*
X198675000Y-61138349D02*
X195790000Y-61138349D01*
X198686000Y-61098349D02*
X195790000Y-61098349D01*
X198697000Y-61058349D02*
X195790000Y-61058349D01*
X198707000Y-61018349D02*
X195790000Y-61018349D01*
X198717000Y-60978349D02*
X195790000Y-60978349D01*
X198726000Y-60938349D02*
X195790000Y-60938349D01*
X198735000Y-60898349D02*
X195790000Y-60898349D01*
X198744000Y-60858349D02*
X190756000Y-60858349D01*
X198752000Y-60818349D02*
X190748000Y-60818349D01*
X198760000Y-60778349D02*
X190740000Y-60778349D01*
X198767000Y-60738349D02*
X190733000Y-60738349D01*
X198774000Y-60697349D02*
X190726000Y-60697349D01*
X198780000Y-60657349D02*
X190720000Y-60657349D01*
X198787000Y-60617349D02*
X190713000Y-60617349D01*
X198792000Y-60577349D02*
X190708000Y-60577349D01*
X198798000Y-60537349D02*
X190702000Y-60537349D01*
X198802000Y-60497349D02*
X190698000Y-60497349D01*
X198807000Y-60457349D02*
X190693000Y-60457349D01*
X198811000Y-60417349D02*
X190689000Y-60417349D01*
X198815000Y-60377349D02*
X190685000Y-60377349D01*
X198818000Y-60337349D02*
X190682000Y-60337349D01*
X198821000Y-60297349D02*
X190679000Y-60297349D01*
X198824000Y-60257349D02*
X190676000Y-60257349D01*
X198826000Y-60217349D02*
X190674000Y-60217349D01*
X198827000Y-60177349D02*
X190673000Y-60177349D01*
X198829000Y-60137349D02*
X190671000Y-60137349D01*
X198830000Y-60017349D02*
X190670000Y-60017349D01*
X198830000Y-60057349D02*
X190670000Y-60057349D01*
X198830000Y-60097349D02*
X190670000Y-60097349D01*
X198870000Y-60017349D02*
G75*
G02*
X190630000Y-60017349I-4120000J0D01*
G01*
X190630000Y-60017349D02*
G75*
G02*
X198870000Y-60017349I4120000J0D01*
G01*
%TO.C,D4*%
X177540000Y-103490000D02*
X177540000Y-103670000D01*
X177540000Y-103490000D02*
X180960000Y-103490000D01*
X177540000Y-105830000D02*
X177540000Y-106010000D01*
X177540000Y-106010000D02*
X180960000Y-106010000D01*
X177660000Y-103490000D02*
X177660000Y-103670000D01*
X177660000Y-105830000D02*
X177660000Y-106010000D01*
X177780000Y-103490000D02*
X177780000Y-103670000D01*
X177780000Y-105830000D02*
X177780000Y-106010000D01*
X180960000Y-103490000D02*
X180960000Y-103722000D01*
X180960000Y-105778000D02*
X180960000Y-106010000D01*
%TO.C,J15*%
X187695000Y-53580000D02*
X187695000Y-52250000D01*
X189025000Y-53580000D02*
X187695000Y-53580000D01*
X190295000Y-50920000D02*
X192895000Y-50920000D01*
X190295000Y-53580000D02*
X190295000Y-50920000D01*
X190295000Y-53580000D02*
X192895000Y-53580000D01*
X192895000Y-53580000D02*
X192895000Y-50920000D01*
%TO.C,D2*%
X178780000Y-72950000D02*
X184220000Y-72950000D01*
X178780000Y-73280000D02*
X178780000Y-72950000D01*
X178780000Y-75560000D02*
X178780000Y-75890000D01*
X178780000Y-75890000D02*
X184220000Y-75890000D01*
X179560000Y-72950000D02*
X179560000Y-75890000D01*
X179680000Y-72950000D02*
X179680000Y-75890000D01*
X179800000Y-72950000D02*
X179800000Y-75890000D01*
X184220000Y-72950000D02*
X184220000Y-73280000D01*
X184220000Y-75890000D02*
X184220000Y-75560000D01*
%TO.C,J1*%
X128862500Y-118215000D02*
X128862500Y-119555000D01*
X128862500Y-120155000D02*
X128862500Y-126575000D01*
X129782500Y-118215000D02*
X129782500Y-126575000D01*
X130782500Y-118215000D02*
X130782500Y-126575000D01*
X133882500Y-118215000D02*
X133882500Y-126575000D01*
X135602500Y-118215000D02*
X128862500Y-118215000D01*
X135602500Y-118215000D02*
X135602500Y-126575000D01*
X135602500Y-126575000D02*
X128862500Y-126575000D01*
X128862500Y-119855000D02*
X128252500Y-120295000D01*
X128252500Y-119415000D01*
X128862500Y-119855000D01*
G36*
X128862500Y-119855000D02*
G01*
X128252500Y-120295000D01*
X128252500Y-119415000D01*
X128862500Y-119855000D01*
G37*
%TO.C,J7*%
X183415000Y-119320000D02*
X184835000Y-119320000D01*
X183415000Y-125070000D02*
X183415000Y-119320000D01*
X183415000Y-126610000D02*
X183415000Y-126910000D01*
X183415000Y-126910000D02*
X193785000Y-126910000D01*
X184835000Y-119320000D02*
X184835000Y-119820000D01*
X184835000Y-119820000D02*
X192365000Y-119820000D01*
X192365000Y-119320000D02*
X193785000Y-119320000D01*
X192365000Y-119820000D02*
X192365000Y-119320000D01*
X193785000Y-119320000D02*
X193785000Y-125070000D01*
X193785000Y-126910000D02*
X193785000Y-126610000D01*
%TO.C,D3*%
X177540000Y-96490000D02*
X177540000Y-96670000D01*
X177540000Y-96490000D02*
X180960000Y-96490000D01*
X177540000Y-98830000D02*
X177540000Y-99010000D01*
X177540000Y-99010000D02*
X180960000Y-99010000D01*
X177660000Y-96490000D02*
X177660000Y-96670000D01*
X177660000Y-98830000D02*
X177660000Y-99010000D01*
X177780000Y-96490000D02*
X177780000Y-96670000D01*
X177780000Y-98830000D02*
X177780000Y-99010000D01*
X180960000Y-96490000D02*
X180960000Y-96722000D01*
X180960000Y-98778000D02*
X180960000Y-99010000D01*
%TO.C,C2*%
X179460000Y-60898349D02*
X176515000Y-60898349D01*
X179460000Y-60938349D02*
X176524000Y-60938349D01*
X179460000Y-60978349D02*
X176533000Y-60978349D01*
X179460000Y-61018349D02*
X176543000Y-61018349D01*
X179460000Y-61058349D02*
X176553000Y-61058349D01*
X179460000Y-61098349D02*
X176564000Y-61098349D01*
X179460000Y-61138349D02*
X176575000Y-61138349D01*
X179460000Y-61178349D02*
X176586000Y-61178349D01*
X179460000Y-61218349D02*
X176598000Y-61218349D01*
X179460000Y-61258349D02*
X176611000Y-61258349D01*
X179460000Y-61298349D02*
X176623000Y-61298349D01*
X179460000Y-61338349D02*
X176637000Y-61338349D01*
X179460000Y-61378349D02*
X176650000Y-61378349D01*
X179460000Y-61418349D02*
X176665000Y-61418349D01*
X179460000Y-61458349D02*
X176679000Y-61458349D01*
X179460000Y-61498349D02*
X176695000Y-61498349D01*
X179460000Y-61538349D02*
X176710000Y-61538349D01*
X179460000Y-61578349D02*
X176726000Y-61578349D01*
X179460000Y-61618349D02*
X176743000Y-61618349D01*
X179460000Y-61658349D02*
X176760000Y-61658349D01*
X179460000Y-61698349D02*
X176778000Y-61698349D01*
X179460000Y-61738349D02*
X176796000Y-61738349D01*
X179460000Y-61778349D02*
X176814000Y-61778349D01*
X179460000Y-61818349D02*
X176834000Y-61818349D01*
X179460000Y-61858349D02*
X176853000Y-61858349D01*
X179460000Y-61898349D02*
X176873000Y-61898349D01*
X179460000Y-61938349D02*
X176894000Y-61938349D01*
X179460000Y-61978349D02*
X176916000Y-61978349D01*
X179460000Y-62018349D02*
X176938000Y-62018349D01*
X179460000Y-62058349D02*
X176960000Y-62058349D01*
X179460000Y-62098349D02*
X176983000Y-62098349D01*
X179460000Y-62138349D02*
X177007000Y-62138349D01*
X179460000Y-62178349D02*
X177031000Y-62178349D01*
X179460000Y-62218349D02*
X177056000Y-62218349D01*
X179460000Y-62258349D02*
X177082000Y-62258349D01*
X179460000Y-62298349D02*
X177108000Y-62298349D01*
X179460000Y-62338349D02*
X177135000Y-62338349D01*
X179460000Y-62378349D02*
X177162000Y-62378349D01*
X179460000Y-62418349D02*
X177191000Y-62418349D01*
X179460000Y-62458349D02*
X177220000Y-62458349D01*
X179460000Y-62498349D02*
X177250000Y-62498349D01*
X179460000Y-62538349D02*
X177280000Y-62538349D01*
X179460000Y-62578349D02*
X177311000Y-62578349D01*
X179460000Y-62618349D02*
X177344000Y-62618349D01*
X179460000Y-62658349D02*
X177376000Y-62658349D01*
X179460000Y-62698349D02*
X177410000Y-62698349D01*
X179460000Y-62738349D02*
X177445000Y-62738349D01*
X179460000Y-62778349D02*
X177481000Y-62778349D01*
X179460000Y-62818349D02*
X177517000Y-62818349D01*
X179460000Y-62858349D02*
X177555000Y-62858349D01*
X179460000Y-62898349D02*
X177593000Y-62898349D01*
X179460000Y-62938349D02*
X177633000Y-62938349D01*
X181033000Y-64098349D02*
X179967000Y-64098349D01*
X181268000Y-64058349D02*
X179732000Y-64058349D01*
X181448000Y-64018349D02*
X179552000Y-64018349D01*
X181598000Y-63978349D02*
X179402000Y-63978349D01*
X181729000Y-63938349D02*
X179271000Y-63938349D01*
X181846000Y-63898349D02*
X179154000Y-63898349D01*
X181953000Y-63858349D02*
X179047000Y-63858349D01*
X182052000Y-63818349D02*
X178948000Y-63818349D01*
X182145000Y-63778349D02*
X178855000Y-63778349D01*
X182231000Y-63738349D02*
X178769000Y-63738349D01*
X182313000Y-63698349D02*
X178687000Y-63698349D01*
X182390000Y-63658349D02*
X178610000Y-63658349D01*
X182464000Y-63618349D02*
X178536000Y-63618349D01*
X182534000Y-63578349D02*
X178466000Y-63578349D01*
X182602000Y-63538349D02*
X178398000Y-63538349D01*
X182666000Y-63498349D02*
X178334000Y-63498349D01*
X182728000Y-63458349D02*
X178272000Y-63458349D01*
X182787000Y-63418349D02*
X178213000Y-63418349D01*
X182815000Y-55607651D02*
X182815000Y-56407651D01*
X182845000Y-63378349D02*
X178155000Y-63378349D01*
X182900000Y-63338349D02*
X178100000Y-63338349D01*
X182954000Y-63298349D02*
X178046000Y-63298349D01*
X183005000Y-63258349D02*
X177995000Y-63258349D01*
X183056000Y-63218349D02*
X177944000Y-63218349D01*
X183104000Y-63178349D02*
X177896000Y-63178349D01*
X183151000Y-63138349D02*
X177849000Y-63138349D01*
X183197000Y-63098349D02*
X177803000Y-63098349D01*
X183215000Y-56007651D02*
X182415000Y-56007651D01*
X183241000Y-63058349D02*
X177759000Y-63058349D01*
X183284000Y-63018349D02*
X177716000Y-63018349D01*
X183326000Y-62978349D02*
X177674000Y-62978349D01*
X183367000Y-62938349D02*
X181540000Y-62938349D01*
X183407000Y-62898349D02*
X181540000Y-62898349D01*
X183445000Y-62858349D02*
X181540000Y-62858349D01*
X183483000Y-62818349D02*
X181540000Y-62818349D01*
X183519000Y-62778349D02*
X181540000Y-62778349D01*
X183555000Y-62738349D02*
X181540000Y-62738349D01*
X183590000Y-62698349D02*
X181540000Y-62698349D01*
X183624000Y-62658349D02*
X181540000Y-62658349D01*
X183656000Y-62618349D02*
X181540000Y-62618349D01*
X183689000Y-62578349D02*
X181540000Y-62578349D01*
X183720000Y-62538349D02*
X181540000Y-62538349D01*
X183750000Y-62498349D02*
X181540000Y-62498349D01*
X183780000Y-62458349D02*
X181540000Y-62458349D01*
X183809000Y-62418349D02*
X181540000Y-62418349D01*
X183838000Y-62378349D02*
X181540000Y-62378349D01*
X183865000Y-62338349D02*
X181540000Y-62338349D01*
X183892000Y-62298349D02*
X181540000Y-62298349D01*
X183918000Y-62258349D02*
X181540000Y-62258349D01*
X183944000Y-62218349D02*
X181540000Y-62218349D01*
X183969000Y-62178349D02*
X181540000Y-62178349D01*
X183993000Y-62138349D02*
X181540000Y-62138349D01*
X184017000Y-62098349D02*
X181540000Y-62098349D01*
X184040000Y-62058349D02*
X181540000Y-62058349D01*
X184062000Y-62018349D02*
X181540000Y-62018349D01*
X184084000Y-61978349D02*
X181540000Y-61978349D01*
X184106000Y-61938349D02*
X181540000Y-61938349D01*
X184127000Y-61898349D02*
X181540000Y-61898349D01*
X184147000Y-61858349D02*
X181540000Y-61858349D01*
X184166000Y-61818349D02*
X181540000Y-61818349D01*
X184186000Y-61778349D02*
X181540000Y-61778349D01*
X184204000Y-61738349D02*
X181540000Y-61738349D01*
X184222000Y-61698349D02*
X181540000Y-61698349D01*
X184240000Y-61658349D02*
X181540000Y-61658349D01*
X184257000Y-61618349D02*
X181540000Y-61618349D01*
X184274000Y-61578349D02*
X181540000Y-61578349D01*
X184290000Y-61538349D02*
X181540000Y-61538349D01*
X184305000Y-61498349D02*
X181540000Y-61498349D01*
X184321000Y-61458349D02*
X181540000Y-61458349D01*
X184335000Y-61418349D02*
X181540000Y-61418349D01*
X184350000Y-61378349D02*
X181540000Y-61378349D01*
X184363000Y-61338349D02*
X181540000Y-61338349D01*
X184377000Y-61298349D02*
X181540000Y-61298349D01*
X184389000Y-61258349D02*
X181540000Y-61258349D01*
X184402000Y-61218349D02*
X181540000Y-61218349D01*
X184414000Y-61178349D02*
X181540000Y-61178349D01*
X184425000Y-61138349D02*
X181540000Y-61138349D01*
X184436000Y-61098349D02*
X181540000Y-61098349D01*
X184447000Y-61058349D02*
X181540000Y-61058349D01*
X184457000Y-61018349D02*
X181540000Y-61018349D01*
X184467000Y-60978349D02*
X181540000Y-60978349D01*
X184476000Y-60938349D02*
X181540000Y-60938349D01*
X184485000Y-60898349D02*
X181540000Y-60898349D01*
X184494000Y-60858349D02*
X176506000Y-60858349D01*
X184502000Y-60818349D02*
X176498000Y-60818349D01*
X184510000Y-60778349D02*
X176490000Y-60778349D01*
X184517000Y-60738349D02*
X176483000Y-60738349D01*
X184524000Y-60697349D02*
X176476000Y-60697349D01*
X184530000Y-60657349D02*
X176470000Y-60657349D01*
X184537000Y-60617349D02*
X176463000Y-60617349D01*
X184542000Y-60577349D02*
X176458000Y-60577349D01*
X184548000Y-60537349D02*
X176452000Y-60537349D01*
X184552000Y-60497349D02*
X176448000Y-60497349D01*
X184557000Y-60457349D02*
X176443000Y-60457349D01*
X184561000Y-60417349D02*
X176439000Y-60417349D01*
X184565000Y-60377349D02*
X176435000Y-60377349D01*
X184568000Y-60337349D02*
X176432000Y-60337349D01*
X184571000Y-60297349D02*
X176429000Y-60297349D01*
X184574000Y-60257349D02*
X176426000Y-60257349D01*
X184576000Y-60217349D02*
X176424000Y-60217349D01*
X184577000Y-60177349D02*
X176423000Y-60177349D01*
X184579000Y-60137349D02*
X176421000Y-60137349D01*
X184580000Y-60017349D02*
X176420000Y-60017349D01*
X184580000Y-60057349D02*
X176420000Y-60057349D01*
X184580000Y-60097349D02*
X176420000Y-60097349D01*
X184620000Y-60017349D02*
G75*
G02*
X176380000Y-60017349I-4120000J0D01*
G01*
X176380000Y-60017349D02*
G75*
G02*
X184620000Y-60017349I4120000J0D01*
G01*
%TO.C,D1*%
X178780000Y-66950000D02*
X184220000Y-66950000D01*
X178780000Y-67280000D02*
X178780000Y-66950000D01*
X178780000Y-69560000D02*
X178780000Y-69890000D01*
X178780000Y-69890000D02*
X184220000Y-69890000D01*
X179560000Y-66950000D02*
X179560000Y-69890000D01*
X179680000Y-66950000D02*
X179680000Y-69890000D01*
X179800000Y-66950000D02*
X179800000Y-69890000D01*
X184220000Y-66950000D02*
X184220000Y-67280000D01*
X184220000Y-69890000D02*
X184220000Y-69560000D01*
%TO.C,C3*%
X197523752Y-74640000D02*
X196101248Y-74640000D01*
X197523752Y-77360000D02*
X196101248Y-77360000D01*
D14*
%TO.C,J3*%
X137500000Y-123005000D02*
X138500000Y-123505000D01*
X137500000Y-124005000D02*
X137500000Y-123005000D01*
X138500000Y-123505000D02*
X137500000Y-124005000D01*
X139175000Y-121035000D02*
X160825000Y-121035000D01*
X160825000Y-126605000D02*
X139175000Y-126605000D01*
D13*
%TO.C,J2*%
X170615000Y-119320000D02*
X172035000Y-119320000D01*
X170615000Y-125070000D02*
X170615000Y-119320000D01*
X170615000Y-126610000D02*
X170615000Y-126910000D01*
X170615000Y-126910000D02*
X180985000Y-126910000D01*
X172035000Y-119320000D02*
X172035000Y-119820000D01*
X172035000Y-119820000D02*
X179565000Y-119820000D01*
X179565000Y-119320000D02*
X180985000Y-119320000D01*
X179565000Y-119820000D02*
X179565000Y-119320000D01*
X180985000Y-119320000D02*
X180985000Y-125070000D01*
X180985000Y-126910000D02*
X180985000Y-126610000D01*
%TD*%
%LPC*%
D15*
%TO.C,J12*%
X192000000Y-84200000D03*
%TD*%
%TO.C,J6*%
X191800000Y-74700000D03*
%TD*%
D16*
%TO.C,U1*%
X194442500Y-78750000D03*
X194442500Y-79250000D03*
X194442500Y-79750000D03*
X194442500Y-80250000D03*
X194442500Y-80750000D03*
X198667500Y-80750000D03*
X198667500Y-80250000D03*
X198667500Y-79750000D03*
X198667500Y-79250000D03*
X198667500Y-78750000D03*
%TD*%
D17*
%TO.C,A2*%
X129760000Y-113340000D03*
D18*
X132300000Y-113340000D03*
X134840000Y-113340000D03*
X137380000Y-113340000D03*
X139920000Y-113340000D03*
X142460000Y-113340000D03*
X145000000Y-113340000D03*
X147540000Y-113340000D03*
X150080000Y-113340000D03*
X152620000Y-113340000D03*
X155160000Y-113340000D03*
X157700000Y-113340000D03*
X160240000Y-113340000D03*
X162780000Y-113340000D03*
X165320000Y-113340000D03*
X167860000Y-113340000D03*
X167860000Y-93620000D03*
X165320000Y-93620000D03*
X162780000Y-93620000D03*
X160240000Y-93620000D03*
X157700000Y-93620000D03*
X155160000Y-93620000D03*
X152620000Y-93620000D03*
X150080000Y-93620000D03*
X147540000Y-93620000D03*
X145000000Y-93620000D03*
X142460000Y-93620000D03*
X139920000Y-93620000D03*
%TD*%
D19*
%TO.C,J4*%
X161850000Y-52315000D03*
D20*
X158850000Y-52315000D03*
X155850000Y-52315000D03*
X152850000Y-52315000D03*
X149850000Y-52315000D03*
X146850000Y-52315000D03*
D21*
X164000000Y-52315000D03*
X144700000Y-52315000D03*
%TD*%
D15*
%TO.C,J9*%
X164000000Y-121000000D03*
%TD*%
D22*
%TO.C,REF\u002A\u002A*%
X198500000Y-51000000D03*
%TD*%
D23*
%TO.C,J14*%
X175500000Y-52250000D03*
D24*
X178040000Y-52250000D03*
%TD*%
D15*
%TO.C,J5*%
X190125000Y-112000000D03*
%TD*%
D25*
%TO.C,D6*%
X190230000Y-104750000D03*
D26*
X192770000Y-104750000D03*
%TD*%
D25*
%TO.C,D5*%
X190230000Y-97750000D03*
D26*
X192770000Y-97750000D03*
%TD*%
D27*
%TO.C,A1*%
X168330000Y-59300000D03*
D18*
X165790000Y-59300000D03*
X163250000Y-59300000D03*
X160710000Y-59300000D03*
X158170000Y-59300000D03*
X155630000Y-59300000D03*
X153090000Y-59300000D03*
X150550000Y-59300000D03*
X148010000Y-59300000D03*
X145470000Y-59300000D03*
X142930000Y-59300000D03*
X140390000Y-59300000D03*
X137850000Y-59300000D03*
X135310000Y-59300000D03*
X132770000Y-59300000D03*
X130230000Y-59300000D03*
X130230000Y-79020000D03*
X132770000Y-79020000D03*
X135310000Y-79020000D03*
X137850000Y-79020000D03*
X140390000Y-79020000D03*
X142930000Y-79020000D03*
X145470000Y-79020000D03*
X148010000Y-79020000D03*
X150550000Y-79020000D03*
X153090000Y-79020000D03*
X155630000Y-79020000D03*
X158170000Y-79020000D03*
%TD*%
D22*
%TO.C,REF\u002A\u002A*%
X198500000Y-126000000D03*
%TD*%
D28*
%TO.C,R1*%
X189000000Y-67340000D03*
D29*
X189000000Y-77500000D03*
%TD*%
D28*
%TO.C,R2*%
X189000000Y-81590000D03*
D29*
X189000000Y-91750000D03*
%TD*%
D30*
%TO.C,C1*%
X194750000Y-58117349D03*
D28*
X194750000Y-61917349D03*
%TD*%
D25*
%TO.C,D4*%
X177980000Y-104750000D03*
D26*
X180520000Y-104750000D03*
%TD*%
D23*
%TO.C,J15*%
X189025000Y-52250000D03*
D24*
X191565000Y-52250000D03*
%TD*%
D25*
%TO.C,D2*%
X177690000Y-74420000D03*
D31*
X185310000Y-74420000D03*
%TD*%
D15*
%TO.C,J11*%
X195000000Y-112000000D03*
%TD*%
D32*
%TO.C,J1*%
X132382500Y-119855000D03*
D15*
X132382500Y-122395000D03*
X132382500Y-124935000D03*
%TD*%
D33*
%TO.C,J7*%
X184100000Y-125840000D03*
X193100000Y-125840000D03*
D34*
X187100000Y-121900000D03*
D35*
X190100000Y-121900000D03*
X187100000Y-124900000D03*
X190100000Y-124900000D03*
%TD*%
D15*
%TO.C,J8*%
X164000000Y-126750000D03*
%TD*%
D22*
%TO.C,REF\u002A\u002A*%
X123500000Y-126000000D03*
%TD*%
D25*
%TO.C,D3*%
X177980000Y-97750000D03*
D26*
X180520000Y-97750000D03*
%TD*%
D22*
%TO.C,REF\u002A\u002A*%
X123500000Y-51000000D03*
%TD*%
D30*
%TO.C,C2*%
X180500000Y-58117349D03*
D28*
X180500000Y-61917349D03*
%TD*%
D25*
%TO.C,D1*%
X177690000Y-68420000D03*
D31*
X185310000Y-68420000D03*
%TD*%
D36*
%TO.C,C3*%
X198375000Y-76000000D03*
X195250000Y-76000000D03*
%TD*%
D15*
%TO.C,J10*%
X185250000Y-112000000D03*
%TD*%
D19*
%TO.C,J3*%
X142500000Y-123505000D03*
D20*
X145500000Y-123505000D03*
X148500000Y-123505000D03*
X151500000Y-123505000D03*
X154500000Y-123505000D03*
X157500000Y-123505000D03*
D21*
X140350000Y-123505000D03*
X159650000Y-123505000D03*
%TD*%
D33*
%TO.C,J2*%
X171300000Y-125840000D03*
X180300000Y-125840000D03*
D34*
X174300000Y-121900000D03*
D35*
X177300000Y-121900000D03*
X174300000Y-124900000D03*
X177300000Y-124900000D03*
%TD*%
%LPD*%
M02*
